<?xml version="1.0" encoding="UTF-8"?>
<svg width="454px" height="486px" viewBox="0 0 454 486" version="1.1" xmlns="http://www.w3.org/2000/svg" xmlns:xlink="http://www.w3.org/1999/xlink">
    <!-- Generator: Sketch 59 (86127) - https://sketch.com -->
    <title>illo-02</title>
    <desc>Created with Sketch.</desc>
    <defs>
        <path d="M199.158278,0.553 L199.481947,0.553 C225.396922,0.601575815 251.330238,12.3120105 271.397,31.312 C281.261,40.654 289.805,51.607 301.244,58.939 C323.606,73.267 352.574,71.209 377.6,80.101 C417.602,94.321 442.889,135.496 450.938,177.178 C459.026,219.082 452.366,264.082 430.433,300.688 C408.494,337.294 371.033,364.774 329.054,372.451 C306.575,376.561 282.869,375.265 261.632,383.704 C250.04,388.309 239.567,395.698 227.528,398.977 C205.346,405.019 182.171,396.256 159.311,393.82 C116.387,389.248 51.257,413.836 17.423,375.958 C1.736,358.399 1.454,331.99 5.609,308.818 C9.767,285.643 17.492,262.483 14.702,239.107 C11.744,214.366 -2.854,190.081 1.247,166.093 C1.538,164.404 1.919,162.715 2.405,161.029 C7.832,142.156 25.001,129.154 42.365,119.989 C59.729,110.824 78.677,103.819 93.134,90.535 C115.67,69.832 124.295,36.583 148.568,17.947 C164.206771,5.93609599 181.672773,0.585792737 199.158279,0.553 L199.158278,0.553 Z" id="path-1"></path>
        <path d="M1.201,15.556 C1.585,19.171 2.02,22.777 2.365,26.386 C3.235,35.431 4.669,44.422 6.649,53.29 C7.207,55.789 8.719,57.202 11.272,55.939 C13.819,54.682 16.351,53.398 18.871,52.087 C20.458,51.262 24.349,48.181 26.143,48.697 C28.492,49.372 36.601,77.05 39.4,88.207 C39.568,88.879 40.558,88.807 40.591,88.117 C41.602,67.861 42.292,45.898 42.655,25.636 C42.694,23.443 40.648,21.838 38.512,22.333 C34.477,23.269 30.469,24.187 26.425,25.132 C25.51,25.345 24.634,24.664 24.658,23.728 C24.778,18.646 24.976,4.627 24.988,2.635 C24.991,2.248 24.988,1.834 24.775,1.51 C24.331,0.829 23.314,0.949 22.522,1.15 C19.345,1.954 5.092,5.569 1.642,7.672 C1.291,7.888 0.928,8.134 0.751,8.509 C0.589,8.857 0.613,9.259 0.643,9.643 C0.799,11.617 0.991,13.591 1.201,15.556" id="path-3"></path>
        <linearGradient x1="95.2714682%" y1="-85.7239336%" x2="36.2228603%" y2="94.473471%" id="linearGradient-5">
            <stop stop-color="#E26B95" offset="0%"></stop>
            <stop stop-color="#FA466C" offset="100%"></stop>
        </linearGradient>
        <path d="M16.459,5.561 C14.905,8.237 13.393,10.937 11.821,13.592 C7.873,20.249 4.345,27.152 1.249,34.247 C0.376,36.245 0.709,37.976 3.1,38.39 C5.479,38.804 7.867,39.194 10.258,39.557 C11.764,39.785 15.985,39.623 16.963,40.88 C18.238,42.524 9.913,65.63 6.229,74.708 C6.01,75.254 6.727,75.704 7.099,75.245 C17.968,61.823 29.476,47.066 39.901,33.314 C41.032,31.826 40.432,29.696 38.713,28.964 C35.47,27.581 32.248,26.198 28.993,24.815 C28.258,24.503 27.997,23.594 28.483,22.964 C31.12,19.529 38.296,9.986 39.31,8.624 C39.505,8.36 39.712,8.072 39.727,7.742 C39.76,7.049 39.001,6.623 38.356,6.362 C35.767,5.318 24.148,0.647 20.725,0.362 C20.371,0.332 19.996,0.32 19.69,0.488 C19.402,0.647 19.219,0.935 19.048,1.214 C18.16,2.651 17.302,4.103 16.459,5.561" id="path-6"></path>
        <linearGradient x1="74.80347%" y1="-28.9589336%" x2="-1.17773164%" y2="181.453478%" id="linearGradient-8">
            <stop stop-color="#E26B95" offset="0%"></stop>
            <stop stop-color="#FA466C" offset="100%"></stop>
        </linearGradient>
        <path d="M118.812,85.789 C117.663,77.053 121.449,67.984 119.085,59.497 C118.743,58.279 118.266,57.133 117.72,56.026 C114.348,45.592 102.846,40.783 102.846,40.783 C102.129,40.504 101.451,40.294 100.746,40.033 C103.623,39.121 106.257,37.45 108.18,35.119 C110.103,32.782 111.321,29.938 112.251,27.055 C113.82,22.189 114.642,16.918 113.367,11.968 C112.092,7.018 108.381,2.479 103.407,1.315 C100.368,0.601 97.173,1.168 94.191,2.08 C92.187,2.692 90.21,3.472 88.479,4.66 C83.817,7.873 81.585,13.624 80.628,19.207 C80.067,22.489 79.857,25.9 80.703,29.122 C81.336,31.543 82.602,33.769 84.276,35.626 C31.281,27.508 15.174,87.322 12.975,102.091 C10.536,118.462 0.087,124.351 0.087,124.351 L0.087,125.776 C3.222,142.147 48.852,151.903 57.561,129.607 C58.317,127.678 59.334,125.74 60.534,123.817 C59.133,130.693 58.113,137.722 59.505,144.559 C61.113,152.446 66.741,160.066 74.661,161.506 C80.946,162.649 87.465,159.664 91.884,155.056 C96.303,150.445 98.922,144.403 100.872,138.325 C102.099,134.512 103.116,130.588 105.084,127.099 C110.01,118.345 120.687,112.522 121.749,102.535 C122.352,96.871 119.556,91.435 118.812,85.789" id="path-9"></path>
        <linearGradient x1="41.1357127%" y1="113.879939%" x2="65.8681799%" y2="-8.35319243%" id="linearGradient-11">
            <stop stop-color="#E26B95" offset="0%"></stop>
            <stop stop-color="#FA466C" offset="100%"></stop>
        </linearGradient>
    </defs>
    <g id="Page-1" stroke="none" stroke-width="1" fill="none" fill-rule="evenodd">
        <g id="depressed.nyc" transform="translate(-173.000000, -1361.000000)">
            <g id="section" transform="translate(0.000000, 1202.000000)">
                <g id="Group-10" transform="translate(172.000000, 155.000000)">
                    <g id="illo-02">
                        <g id="Group-185">
                            <mask id="mask-2" fill="white">
                                <use xlink:href="#path-1"></use>
                            </mask>
                            <g id="Clip-184"></g>
                            <polygon id="Fill-183" mask="url(#mask-2)" points="-1353.82 1105 454.394 1105 454.394 0.553 -1353.82 0.553"></polygon>
                        </g>
                        <path d="M27.851,223.33 C20.249,222.43 9.77,220.366 2.603,223.897 C0.599,224.884 1.619,227.986 3.71,227.977 C12.233,227.944 20.876,228.463 29.351,229.474 C31.991,229.786 45.635,234.997 45.635,229.576 C45.635,223.906 31.391,223.747 27.851,223.33" id="Fill-186" fill="#EA6089"></path>
                        <path d="M64.133,246.754 C57.767,243.46 48.104,246.331 41.39,247.696 C37.67,248.452 31.064,251.77 28.7,251.851 C28.436,251.857 28.181,252.073 28.196,252.352 C28.22,252.607 28.229,252.859 28.226,253.114 C28.226,253.951 28.811,254.764 29.636,254.965 C33.692,255.967 37.976,254.152 41.837,253 C48.872,250.9 57.02,252.694 63.692,250.138 C65.069,249.61 65.69,247.558 64.133,246.754" id="Fill-187" fill="#EA6089"></path>
                        <path d="M305.477,4.498 C298.313,11.113 293.396,21.292 287.819,29.284 C284.309,34.315 269.894,49.84 275.066,56.347 C276.443,58.081 278.921,56.833 279.548,55.165 C283.019,45.901 288.923,38.239 294.254,29.893 C296.891,25.765 299.594,21.682 302.255,17.572 C304.403,14.263 308.135,9.781 308.117065,5.593 C308.114,4.207 306.458,3.595 305.477,4.498" id="Fill-188" fill="#FA466C"></path>
                        <path d="M332.87,31.228 C326.672,31.585 321.296,38.449 316.592,41.899 C310.004,46.726 300.761,50.518 297.191,58.387 C295.667,61.744 300.518,64.711 302.21,61.321 C305.753,54.214 313.721,50.659 319.727,45.961 C324.548,42.187 329.561,37.918 333.824,33.526 C334.601,32.725 334.085,31.156 332.87,31.228" id="Fill-189" fill="#FA466C"></path>
                        <g id="Group-192" transform="translate(67.000000, 54.000000)">
                            <mask id="mask-4" fill="white">
                                <use xlink:href="#path-3"></use>
                            </mask>
                            <g id="Clip-191"></g>
                            <path d="M1.201,15.556 C1.585,19.171 2.02,22.777 2.365,26.386 C3.235,35.431 4.669,44.422 6.649,53.29 C7.207,55.789 8.719,57.202 11.272,55.939 C13.819,54.682 16.351,53.398 18.871,52.087 C20.458,51.262 24.349,48.181 26.143,48.697 C28.492,49.372 36.601,77.05 39.4,88.207 C39.568,88.879 40.558,88.807 40.591,88.117 C41.602,67.861 42.292,45.898 42.655,25.636 C42.694,23.443 40.648,21.838 38.512,22.333 C34.477,23.269 30.469,24.187 26.425,25.132 C25.51,25.345 24.634,24.664 24.658,23.728 C24.778,18.646 24.976,4.627 24.988,2.635 C24.991,2.248 24.988,1.834 24.775,1.51 C24.331,0.829 23.314,0.949 22.522,1.15 C19.345,1.954 5.092,5.569 1.642,7.672 C1.291,7.888 0.928,8.134 0.751,8.509 C0.589,8.857 0.613,9.259 0.643,9.643 C0.799,11.617 0.991,13.591 1.201,15.556" id="Fill-190" fill="url(#linearGradient-5)" mask="url(#mask-4)"></path>
                        </g>
                        <g id="Group-195" transform="translate(301.000000, 128.000000)">
                            <mask id="mask-7" fill="white">
                                <use xlink:href="#path-6"></use>
                            </mask>
                            <g id="Clip-194"></g>
                            <path d="M16.459,5.561 C14.905,8.237 13.393,10.937 11.821,13.592 C7.873,20.249 4.345,27.152 1.249,34.247 C0.376,36.245 0.709,37.976 3.1,38.39 C5.479,38.804 7.867,39.194 10.258,39.557 C11.764,39.785 15.985,39.623 16.963,40.88 C18.238,42.524 9.913,65.63 6.229,74.708 C6.01,75.254 6.727,75.704 7.099,75.245 C17.968,61.823 29.476,47.066 39.901,33.314 C41.032,31.826 40.432,29.696 38.713,28.964 C35.47,27.581 32.248,26.198 28.993,24.815 C28.258,24.503 27.997,23.594 28.483,22.964 C31.12,19.529 38.296,9.986 39.31,8.624 C39.505,8.36 39.712,8.072 39.727,7.742 C39.76,7.049 39.001,6.623 38.356,6.362 C35.767,5.318 24.148,0.647 20.725,0.362 C20.371,0.332 19.996,0.32 19.69,0.488 C19.402,0.647 19.219,0.935 19.048,1.214 C18.16,2.651 17.302,4.103 16.459,5.561" id="Fill-193" fill="url(#linearGradient-8)" mask="url(#mask-7)"></path>
                        </g>
                        <g id="Group-198" transform="translate(137.000000, 54.000000)">
                            <mask id="mask-10" fill="white">
                                <use xlink:href="#path-9"></use>
                            </mask>
                            <g id="Clip-197"></g>
                            <path d="M118.812,85.789 C117.663,77.053 121.449,67.984 119.085,59.497 C118.743,58.279 118.266,57.133 117.72,56.026 C114.348,45.592 102.846,40.783 102.846,40.783 C102.129,40.504 101.451,40.294 100.746,40.033 C103.623,39.121 106.257,37.45 108.18,35.119 C110.103,32.782 111.321,29.938 112.251,27.055 C113.82,22.189 114.642,16.918 113.367,11.968 C112.092,7.018 108.381,2.479 103.407,1.315 C100.368,0.601 97.173,1.168 94.191,2.08 C92.187,2.692 90.21,3.472 88.479,4.66 C83.817,7.873 81.585,13.624 80.628,19.207 C80.067,22.489 79.857,25.9 80.703,29.122 C81.336,31.543 82.602,33.769 84.276,35.626 C31.281,27.508 15.174,87.322 12.975,102.091 C10.536,118.462 0.087,124.351 0.087,124.351 L0.087,125.776 C3.222,142.147 48.852,151.903 57.561,129.607 C58.317,127.678 59.334,125.74 60.534,123.817 C59.133,130.693 58.113,137.722 59.505,144.559 C61.113,152.446 66.741,160.066 74.661,161.506 C80.946,162.649 87.465,159.664 91.884,155.056 C96.303,150.445 98.922,144.403 100.872,138.325 C102.099,134.512 103.116,130.588 105.084,127.099 C110.01,118.345 120.687,112.522 121.749,102.535 C122.352,96.871 119.556,91.435 118.812,85.789" id="Fill-196" fill="url(#linearGradient-11)" mask="url(#mask-10)"></path>
                        </g>
                        <path d="M301.841,273.979 C302.771,277.543 303.521,280.99 304.043,284.275 C303.521,280.99 302.771,277.543 301.841,273.979" id="Fill-199" fill="#FFCC99"></path>
                        <path d="M265.208,250.432 C264.536,248.515 263.831,246.475 263.105,244.372 C263.831,246.475 264.536,248.515 265.208,250.432" id="Fill-200" fill="#FFCC99"></path>
                        <path d="M289.535,239.71 C290.66,242.329 291.752,244.948 292.805,247.555 C291.752,244.948 290.66,242.329 289.535,239.71" id="Fill-201" fill="#FFCC99"></path>
                        <path d="M271.859,268.879 C270.062,266.335 268.247,263.773 266.435,261.211 C268.247,263.773 270.062,266.332 271.859,268.879" id="Fill-202" fill="#FFCC99"></path>
                        <path d="M263.105,244.372 C262.376,242.239 261.626,240.031 260.861,237.751 C261.626,240.031 262.376,242.239 263.105,244.372" id="Fill-203" fill="#A8A8BF"></path>
                        <path d="M270.176,264.316 C269.699,263.008 269.129,261.448 268.493,259.681 C269.129,261.448 269.699,263.008 270.176,264.316" id="Fill-204" fill="#A8A8BF"></path>
                        <path d="M270.83,266.089 C271.409,267.664 271.772,268.639 271.859,268.879 C271.772,268.639 271.409,267.664 270.83,266.089" id="Fill-205" fill="#A8A8BF"></path>
                        <path d="M278.939,216.463 C281.93,222.742 284.957,229.243 287.831,235.783 C284.957,229.243 281.93,222.742 278.939,216.463 C273.422,204.88 258.251,173.542 257.468,169.222 C256.478,163.786 254.876,158.386 250.517,154.558 C246.404,150.943 239.621,149.914 235.526,153.55 C233.114,155.686 232.04,158.995 231.815,162.208 C231.581,165.535 232.577,169.474 235.67,170.725 C237.854,171.61 240.671,170.95 242.399,172.558 C243.287,173.386 251.021,206.824 255.812,222.175 C256.253,223.594 256.706,224.986 257.153,226.39 C256.706,224.986 256.253,223.594 255.812,222.175 L278.939,216.463" id="Fill-206" fill="#FFCC99"></path>
                        <path d="M304.043,284.275 C303.521,280.99 302.771,277.543 301.841,273.979 C299.666,265.657 296.486,256.678 292.805,247.555 C291.752,244.948 290.66,242.329 289.535,239.71 C288.974,238.402 288.404,237.091 287.831,235.783 C284.957,229.243 281.93,222.742 278.939,216.463 L255.812,222.175 C256.253,223.594 256.706,224.986 257.153,226.39 C258.392,230.269 259.637,234.097 260.861,237.751 C261.626,240.031 262.376,242.239 263.105,244.372 C263.831,246.475 264.536,248.515 265.208,250.432 C266.423,253.903 267.536,257.029 268.493,259.681 C269.129,261.448 269.699,263.008 270.176,264.316 C270.416,264.973 270.632,265.564 270.83,266.089 C271.409,267.664 271.772,268.639 271.859,268.879 C270.062,266.332 268.247,263.773 266.435,261.211 C247.496,234.493 228.218,207.628 219.77,195.88 C215.351,189.736 205.934,189.589 201.83,195.946 C188.255,216.964 204.314,282.868 204.314,282.868 C204.314,282.868 252.719,330.601 292.79,315.637 C304.067,311.419 306.488,299.602 304.043,284.275" id="Fill-207" fill="#A8A8BF"></path>
                        <path d="M260.861,237.751 C259.637,234.097 258.392,230.269 257.153,226.39 C258.392,230.269 259.637,234.097 260.861,237.751" id="Fill-208" fill="#A8A8BF"></path>
                        <path d="M250.55,129.703 C250.247,142.003 244.727,156.403 234.65,167.923 C223.52,180.643 214.43,180.163 205.607,174.763 C206.237,185.833 209.96,196.843 212.06,200.953 L212.06,201.763 C212.06,202.543 212.03,203.593 212.06,203.623 C213.497,206.263 221.93,284.263 225.89,332.293 C226.007,333.853 226.127,335.353 226.247,336.853 C224.39,348.943 221.477,358.273 217.127,362.863 C213.44,366.793 207.977,370.123 201.377,372.943 C110.39,386.143 71.237,358.243 71.237,358.243 C103.31,313.663 97.247,288.583 95.42,257.443 C93.56,226.333 90.29,206.383 104.21,188.263 C104.57,187.813 104.93,187.363 105.32,186.943 C107.81,184.033 110.81,181.783 114.05,180.043 C121.4,176.083 130.22,174.733 138.92,174.433 C143.6,174.283 148.22,174.433 152.54,174.673 C153.617,174.733 154.7,174.763 155.78,174.823 C158.987,175.003 161.96,175.153 164.6,175.243 C177.497,175.603 184.487,154.873 187.007,145.363 C187.52,132.793 193.85,119.743 202.19,118.543 C229.127,114.673 234.8,110.083 235.34,109.363 C235.46,111.343 241.52,116.053 250.55,129.703" id="Fill-209" fill="#FFCC99"></path>
                        <g id="Group-214" transform="translate(71.000000, 174.000000)">
                            <path d="M155.247,162.853 C153.39,174.943 150.477,184.273 146.127,188.863 C142.44,192.793 136.977,196.123 130.377,198.943 C39.39,212.143 0.237,184.243 0.237,184.243 C32.31,139.663 26.247,114.583 24.42,83.443 C22.56,52.333 19.29,32.383 33.21,14.263 C33.57,13.813 33.93,13.363 34.32,12.943 C36.81,10.033 39.81,7.783 43.05,6.043 C50.4,2.083 59.22,0.733 67.92,0.433 C72.6,0.283 77.22,0.433 81.54,0.673 C87.987,10.123 105.93,32.623 129.84,30.043 C134.4,29.533 138.09,28.753 141.06,27.763 C141.747,27.523 142.377,27.283 142.977,27.043 C143.007,27.133 143.04,27.193 143.07,27.253 C144.477,29.893 151.05,110.113 154.89,158.293 C155.007,159.853 155.127,161.353 155.247,162.853" id="Fill-210" fill="#A8A8BF"></path>
                            <path d="M379.227,300.784 C376.554,299.641 373.161,298.714 368.76,298.24 C366.669,298.018 364.716,297.328 362.79,296.881 C359.028,296.047 346.575,279.772 342.06,273.781 C341.001,272.359 340.053,270.853 339.189,269.293 L291.93,175.885 C291.93,175.885 255.228,100.174 225.495,102.487 C218.055,103.072 207.351,108.757 195.453,116.92 C159.813,141.415 113.586,188.425 113.586,188.425 C113.586,188.425 112.944,188.65 111.801,189.067 C111.579,189.151 111.333,189.232 111.054,189.346 C92.997,195.919 -15.018,237.805 8.613,288.271 C12.876,297.355 14.766,306.553 28.923,311.653 C28.977,311.68 29.013,311.683 29.07,311.71 C36.063,314.191 46.002,315.667 60.633,315.667 C94.908,315.667 129.801,298.777 139.443,292.453 C152.901,283.591 169.32,269.545 184.647,253.633 C188.49,249.649 192.249,245.551 195.9,241.399 C199.161,237.664 202.311,233.902 205.35,230.086 C219.309,212.446 230.037,194.5 232.935,180.064 C232.935,180.064 241.353,206.035 268.131,236.857 C277.185,247.282 302.412,268.828 302.61,268.768 L313.302,278.767 C314.166,279.577 314.697,280.72 314.697,281.944 C314.697,286.291 314.304,290.614 313.383,294.739 C313.383,295.492 313.332,296.242 313.248,296.995 C313.194,297.439 313.164,297.916 313.107,298.417 C312.606,304.186 312.468,312.34 321.747,313.759 C322.164,313.816 322.641,313.876 323.115,313.903 C331.251,314.518 360.009,314.329 376.422,314.191 C383.949,314.134 386.109,303.793 379.227,300.784" id="Fill-212" fill="#FFCC99"></path>
                            <path d="M376.422,314.191 C360.015,314.326 331.23,314.512 323.115,313.903 C311.577,313.069 312.663,302.989 313.248,296.995 C313.338,296.251 313.383,295.483 313.383,294.739 C320.889,296.743 340.002,300.736 362.79,296.881 C364.662,297.535 366.663,298.015 368.76,298.24 C373.155,298.714 376.569,299.632 379.227,300.784 C386.124,303.781 383.952,314.122 376.422,314.191" id="Fill-213" fill="#AAAACF"></path>
                        </g>
                        <path d="M392.747,487.759 C391.997,488.032 391.196,488.182 390.296,488.182 C373.886,488.336926 345.116,488.533 336.986,487.903 C325.469,487.063 326.546,476.989 327.116,470.989 C327.209,470.239 327.26,469.486 327.26,468.736 C328.19,464.629 328.58,460.303 328.58,455.953 C328.58,454.723 328.04,453.583 327.17,452.773 L325.07,450.793 C324.89,450.793 317.39,444.163 317.39,444.163 C300.05,430.723 286.58,416.836 276.35,404.086 C253.997,376.336 246.8,354.073 246.8,354.073 C244.4,365.803 238.94,379.663 231.857,393.583 C229.1,399.043 226.04,404.503 222.857,409.813 C209.9,431.683 194.117,451.573 181.34,460.873 C171.17,468.253 136.997,491.593 108.29,487.393 C105.71,487.033 102.95,486.49 100.07,485.71 C100.007,485.68 99.98,485.683 99.923,485.653 C97.943,485.11 95.93,484.453 93.89,483.673 C93.227,483.433 92.54,483.133 91.877,482.863 C90.977,482.473 90.08,482.083 89.18,481.663 C88.997,481.603 88.82,481.513 88.64,481.423 C86.237,480.223 83.867,478.813 81.617,477.193 C81.08,476.833 80.54,476.413 80.03,476.023 C78.377,474.733 76.82,473.323 75.377,471.793 C74.477,470.863 73.607,469.873 72.8,468.823 C72.71,468.733 72.65,468.613 72.59,468.523 C72.107,467.893 71.66,467.263 71.21,466.603 C70.82,466.003 70.43,465.403 70.07,464.803 C69.497,463.843 68.987,462.853 68.477,461.803 C67.31,459.343 66.257,456.913 65.27,454.543 C64.877,453.553 64.487,452.593 64.127,451.633 C63.65,450.343 63.2,449.083 62.78,447.853 C62.54,447.163 62.3,446.473 62.117,445.813 C61.487,443.923 60.92,442.063 60.44,440.233 C60.227,439.513 60.05,438.793 59.867,438.103 C59.6,437.083 59.357,436.063 59.15,435.073 C58.85,433.783 58.58,432.493 58.34,431.203 C58.04,429.613 57.77,428.053 57.53,426.523 C57.32,425.053 57.14,423.643 56.987,422.233 C56.96,422.143 56.96,422.023 56.96,421.903 C56.81,420.523 56.69,419.143 56.6,417.793 C56.477,416.203 56.42,414.673 56.39,413.143 C56.39,412.573 56.357,411.973 56.357,411.403 C56.357,410.653 56.357,409.903 56.39,409.183 C56.39,408.433 56.39,407.683 56.42,406.933 C56.45,406.213 56.477,405.493 56.54,404.803 C56.54,404.623 56.57,404.443 56.57,404.293 C56.66,402.703 56.78,401.173 56.96,399.643 C57.05,398.593 57.2,397.513 57.35,396.493 C57.41,395.893 57.497,395.323 57.617,394.753 C57.737,393.763 57.92,392.803 58.1,391.873 C58.127,391.573 58.19,391.303 58.247,391.003 C58.52,389.563 58.85,388.153 59.15,386.833 C59.21,386.683 59.21,386.593 59.237,386.503 C59.477,385.513 59.747,384.523 59.987,383.563 C60.02,383.473 60.05,383.383 60.08,383.293 C60.59,381.373 61.16,379.573 61.727,377.863 C62.45,375.823 63.17,373.903 63.89,372.163 C64.22,371.353 64.55,370.573 64.877,369.823 C64.997,369.583 65.09,369.373 65.18,369.133 C65.237,369.013 65.3,368.863 65.357,368.743 C65.54,368.383 65.69,368.023 65.867,367.693 C66.35,366.703 66.8,365.773 67.22,364.933 C68.69,362.143 69.89,360.223 70.607,359.173 C70.7,359.053 70.757,358.933 70.85,358.813 C71.09,358.423 71.237,358.243 71.237,358.243 L89.477,359.593 L94.757,359.983 L110.627,361.153 L127.46,362.413 C127.46,362.413 136.007,353.713 148.64,341.803 C154.16,336.583 160.46,330.793 167.15,324.853 C192.497,302.323 223.46,277.753 239.357,276.493 C248.15,275.803 257.573,281.953 266.453,290.92 C287.603,312.313 305.81,349.873 305.81,349.873 C305.81,349.873 351.56,438.163 350.477,438.553 L353.06,443.293 C353.93,444.853 354.89,446.353 355.94,447.793 C360.44,453.763 372.917,470.047 376.667,470.89 C378.587,471.307 380.54,472.03 382.637,472.24 C383.117,472.3 383.627,472.357 384.107,472.417 C387.797,472.927 390.731,473.767 393.101,474.787 C399.164,477.427 398.207,485.809 392.747,487.759" id="Fill-215" fill="#EBB47F"></path>
                        <path d="M390.296,488.182 C373.886,488.32 345.101,488.512 336.986,487.903 C325.448,487.069 326.531,476.986 327.116,470.989 C327.209,470.245 327.26,469.48 327.26,468.736 C334.763,470.743 353.879,474.742 376.667,470.89 C378.539,471.541 380.543,472.015 382.637,472.24 C387.035,472.714 390.443,473.638 393.101,474.787 C399.998,477.784 397.823,488.116 390.296,488.182" id="Fill-216" fill="#9191B0"></path>
                        <path d="M255.647,427.633 C240.317,443.533 223.913,457.6 210.443,466.453 C202.25,471.82 175.877,484.843 147.08,488.593 C145.07,488.893 143.117,489.103 141.107,489.253 C137.93,489.523 134.783,489.667 131.633,489.667 C125.363,489.667 119.96,489.403 115.247,488.893 C113.627,488.713 112.1,488.503 110.66,488.263 C106.487,487.603 103.037,486.76 100.07,485.71 C100.007,485.68 99.98,485.683 99.923,485.653 C97.943,485.11 95.93,484.453 93.89,483.673 C93.227,483.433 92.54,483.133 91.877,482.863 C90.977,482.473 90.08,482.083 89.18,481.663 C88.997,481.603 88.82,481.513 88.64,481.423 C86.237,480.223 83.867,478.813 81.617,477.193 C81.08,476.833 80.54,476.413 80.03,476.023 C78.377,474.733 76.82,473.323 75.377,471.793 C74.477,470.863 73.607,469.873 72.8,468.823 C72.71,468.733 72.65,468.613 72.59,468.523 C72.107,467.893 71.66,467.263 71.21,466.603 C70.82,466.003 70.43,465.403 70.07,464.803 C69.497,463.843 68.987,462.853 68.477,461.803 C67.31,459.343 66.257,456.913 65.27,454.543 C64.877,453.553 64.487,452.593 64.127,451.633 C63.65,450.343 63.2,449.083 62.78,447.853 C62.54,447.163 62.3,446.473 62.117,445.813 C61.487,443.923 60.92,442.063 60.44,440.233 C60.227,439.513 60.05,438.793 59.867,438.103 C59.6,437.083 59.357,436.063 59.15,435.073 C58.85,433.783 58.58,432.493 58.34,431.203 C58.04,429.613 57.77,428.053 57.53,426.523 C57.32,425.053 57.14,423.643 56.987,422.233 C56.96,422.143 56.96,422.023 56.96,421.903 C56.81,420.523 56.69,419.143 56.6,417.793 C56.477,416.203 56.42,414.673 56.39,413.143 C56.39,412.573 56.357,411.973 56.357,411.403 C56.357,410.653 56.357,409.903 56.39,409.183 C56.39,408.433 56.42,407.683 56.477,406.933 C56.477,406.213 56.507,405.493 56.54,404.803 C56.54,404.623 56.57,404.443 56.57,404.293 C56.66,402.703 56.78,401.173 56.96,399.643 C57.05,398.593 57.2,397.513 57.35,396.493 C57.41,395.893 57.497,395.323 57.617,394.753 C57.737,393.763 57.92,392.803 58.1,391.873 C58.127,391.573 58.19,391.303 58.247,391.003 C58.52,389.563 58.85,388.153 59.15,386.833 C59.21,386.683 59.21,386.593 59.237,386.503 C59.477,385.513 59.747,384.523 59.987,383.563 C60.02,383.473 60.05,383.383 60.08,383.293 C60.617,381.403 61.16,379.573 61.727,377.863 C62.45,375.823 63.17,373.903 63.89,372.163 C64.22,371.353 64.55,370.573 64.877,369.823 C64.997,369.583 65.09,369.373 65.18,369.133 C65.27,369.013 65.33,368.863 65.39,368.743 C65.54,368.383 65.72,368.023 65.867,367.693 C66.35,366.703 66.8,365.773 67.22,364.933 C68.69,362.143 69.89,360.223 70.607,359.173 C70.7,359.053 70.757,358.933 70.85,358.813 C71.09,358.423 71.237,358.243 71.237,358.243 L89.477,359.593 L94.757,359.983 L110.627,361.153 L127.46,362.413 C127.46,362.413 136.007,353.713 148.64,341.803 C154.16,336.583 160.46,330.793 167.15,324.853 C167.18,324.853 167.96,329.293 170.3,336.463 C170.66,337.633 171.08,338.803 171.53,340.063 C173.117,344.503 175.22,349.723 177.95,355.393 C178.58,356.743 179.27,358.123 180.02,359.503 C180.65,360.763 181.334,362.053 182.054,363.346 C184.394,367.543 187.07,371.893 190.16,376.303 C190.82,377.293 191.54,378.313 192.29,379.303 C195.83,384.073 199.82,388.903 204.35,393.613 C205.16,394.483 205.997,395.353 206.9,396.193 C211.55,400.843 216.71,405.313 222.47,409.513 C222.59,409.633 222.737,409.723 222.857,409.813 C223.877,410.563 224.93,411.283 225.977,412.003 C230.54,415.153 235.46,418.123 240.71,420.853 C242.42,421.753 244.19,422.653 245.987,423.463 C249.08,424.963 252.287,426.343 255.647,427.633" id="Fill-217" fill="#312661"></path>
                        <path d="M198.029,269.653 C198.11,271.003 198.176,272.107 198.224,272.938 C198.728,273.964 199.061,274.657 199.157,274.858 C199.127,274.507 198.683,272.617 198.029,269.653" id="Fill-224" fill="#EBB47F"></path>
                        <path d="M201.23,157.102 C201.926,142.108 201.434,130.717 189.902,132.52 C177.611,134.44 184.118,163.84 184.118,163.84 C187.334,188.656 189.827,199.378 194.006,229.654 L219.524,226.396 C213.656,195.865 201.122,159.127 201.23,157.102" id="Fill-225" fill="#EBB47F"></path>
                        <path d="M223.712,225.862 L219.524,226.396 L194.006,229.654 L191.936,229.918 C193.121,246.319 196.316,261.841 198.029,269.653 C198.683,272.617 199.127,274.507 199.157,274.858 C199.061,274.657 198.728,273.964 198.224,272.938 C191.651,259.579 152.483,181.882 130.13,180.175 C119.621,179.356 112.586,184.444 107.978,190.489 C100.493,200.323 99.137,213.517 103.517,225.073 C120.608,270.166 194.525,325.123 219.53,313.426 C234.617,306.361 230.096,262.339 223.712,225.862" id="Fill-226" fill="#9191B0"></path>
                        <path d="M199.151,271.906 C198.266,270.673 196.385,271.723 197.099,273.106 C198.545,275.917 198.713,279.013 198.707,282.118 C198.704,284.548 198.197,287.215 198.872,289.582 C199.112,290.41 200.273,290.383 200.525,289.582 C201.425,286.696 201.239,283.177 201.212,280.18 C201.206,279.508 201.173,278.83 201.113,278.152 C201.62,278.809 202.139,279.454 202.628,280.123 C203.96,281.947 204.761,284.101 206.285,285.766 C206.648,286.165 207.26,285.835 207.284,285.352 C207.542,280.366 201.848,275.644 199.151,271.906" id="Fill-227" fill="#A8A8BF"></path>
                        <path d="M171.53,340.063 C163.82,345.853 155.96,351.373 148.82,358.033 C139.28,366.943 130.16,376.333 120.32,384.943 C100.46,402.313 79.4,418.213 59.15,435.073 C58.85,433.783 58.58,432.493 58.34,431.203 C65.66,423.703 75.857,418.093 83.627,411.673 C95.78,401.623 108.257,391.753 119.93,381.133 C130.22,371.773 139.85,361.723 150.227,352.483 C156.377,346.993 163.007,340.903 170.3,336.493 C170.66,337.633 171.08,338.803 171.53,340.063" id="Fill-228" fill="#8B9FE8"></path>
                        <path d="M180.02,359.503 C172.52,365.263 164.69,370.723 157.727,377.053 C147.41,386.443 137.45,396.223 126.29,404.683 C114.29,413.803 101.9,422.413 90.617,432.433 C82.247,439.873 74.03,447.583 65.27,454.543 C64.877,453.553 64.487,452.593 64.127,451.633 C73.34,443.113 82.82,434.773 92.33,426.703 C103.28,417.373 115.19,409.363 126.44,400.453 C144.227,386.383 159.89,369.253 177.95,355.393 C178.58,356.743 179.27,358.123 180.02,359.503" id="Fill-229" fill="#8B9FE8"></path>
                        <path d="M192.29,379.303 C191.15,380.323 189.977,381.313 188.78,382.243 C182.357,387.223 175.877,392.113 169.607,397.273 C157.487,407.263 145.4,417.253 133.007,426.853 C121.127,436.033 109.43,445.513 97.31,454.363 C89.54,460.033 82.22,465.493 75.377,471.793 C74.477,470.863 73.607,469.873 72.8,468.823 C79.04,462.553 87.227,457.633 93.857,452.773 C107.84,442.513 121.34,431.563 135.05,420.943 C148.127,410.833 160.367,399.673 173.39,389.473 C178.97,385.093 184.82,380.953 190.16,376.303 C190.82,377.293 191.54,378.313 192.29,379.303" id="Fill-230" fill="#8B9FE8"></path>
                        <path d="M206.9,396.193 C205.82,396.973 204.737,397.753 203.72,398.593 C199.07,402.403 194.54,406.393 189.65,409.933 C176.57,419.443 164.03,429.583 151.34,439.543 C131.93,454.753 110.867,467.263 91.877,482.863 C90.8,482.413 89.72,481.933 88.64,481.423 C106.94,463.333 130.757,451.423 150.68,435.343 C168.2,421.183 185.72,406.423 204.35,393.613 C205.16,394.483 205.997,395.353 206.9,396.193" id="Fill-231" fill="#8B9FE8"></path>
                        <path d="M225.977,412.003 C207.14,423.673 189.95,438.523 171.977,451.123 C159.107,460.153 146.21,469.033 133.22,477.823 C127.4,481.783 121.28,485.263 115.247,488.893 C113.627,488.713 112.1,488.503 110.66,488.263 C117.35,483.433 124.85,479.533 131.477,474.883 C145.1,465.343 158.78,455.923 172.34,446.263 C184.997,437.233 197.54,427.963 210.107,418.783 C214.127,415.843 218.21,412.543 222.47,409.513 C222.59,409.633 222.737,409.723 222.857,409.813 C223.877,410.563 224.93,411.283 225.977,412.003" id="Fill-232" fill="#8B9FE8"></path>
                        <path d="M245.987,423.463 C240.2,427.033 234.14,430.333 228.83,434.293 C218.507,442.003 208.04,449.533 197.18,456.493 C186.71,463.183 175.997,469.483 165.497,476.143 C159.257,480.103 153.2,484.393 147.08,488.593 C145.07,488.893 143.117,489.103 141.107,489.253 C156.107,475.213 176.117,465.463 193.007,454.603 C209.18,444.223 224.237,431.113 240.71,420.853 C242.42,421.753 244.19,422.653 245.987,423.463" id="Fill-233" fill="#8B9FE8"></path>
                        <path d="M280.358,274.822 C279.425,273.112 277.763,271.762 276.392,270.397 C274.91,268.921 273.401,267.469 271.763,266.164 C270.908,265.48 269.867,266.122 270.014,267.181 C270.584,271.213 270.41,275.323 270.905,279.352 C271.073,280.687 272.84,280.699 272.99,279.352 C273.35,276.205 273.038,273.04 272.57,269.914 C273.29,270.628 274.019,271.336 274.727,272.062 C276.095,273.466 277.304,275.149 278.918,276.265 C279.833,276.895 280.838,275.692 280.358,274.822" id="Fill-234" fill="#A8A8BF"></path>
                        <path d="M119.357,367.783 C119.465,367.921 119.06,367.963 118.91,367.903 C119.375075,370.351 72.59,368.473 65.39,368.743 C65.54,368.383 65.69,368.023 65.867,367.693 C66.35,366.703 66.8,365.773 67.22,364.933 C67.85,364.903 68.42,364.903 68.987,364.873 C77.57,364.603 116.699,364.273 119.357,367.783" id="Fill-235" fill="#8B9FE8"></path>
                        <path d="M102.29,380.293 C93.92,381.643 86.237,383.053 78.05,385.573 C71.72,387.523 65.357,389.353 59.09,391.513 C58.757,391.633 58.43,391.753 58.1,391.873 C58.127,391.573 58.19,391.303 58.247,391.003 C58.52,389.563 58.85,388.153 59.15,386.833 C65.72,384.823 72.47,383.323 78.41,381.523 C84.41,379.753 96.2,377.416 102.44,379.723 C102.677,379.81 102.56,380.263 102.29,380.293" id="Fill-236" fill="#8B9FE8"></path>
                        <path d="M86.39,393.253 C76.877,398.863 67.34,404.533 57.977,410.383 C57.44,410.713 56.9,411.073 56.357,411.403 C56.357,410.653 56.357,409.903 56.39,409.183 C56.39,408.433 56.39,407.683 56.42,406.933 C65.96,401.263 75.95,397.183 85.757,392.203 C86.45,391.843 87.05,392.863 86.39,393.253" id="Fill-237" fill="#8B9FE8"></path>
                        <path d="M243.2,91.087 C234.656,91.138 227.348,90.508 219.638,86.569 C216.86,85.15 214.901,88.828 217.259,90.637 C224.66,96.307 234.272,96.541 243.2,96.619 C246.767,96.649 246.767,91.066 243.2,91.087" id="Fill-238" fill="#492894"></path>
                    </g>
                </g>
            </g>
        </g>
    </g>
</svg>