<?xml version="1.0" encoding="UTF-8" standalone="no"?>
<svg
   xmlns:dc="http://purl.org/dc/elements/1.1/"
   xmlns:cc="http://creativecommons.org/ns#"
   xmlns:rdf="http://www.w3.org/1999/02/22-rdf-syntax-ns#"
   xmlns:svg="http://www.w3.org/2000/svg"
   xmlns="http://www.w3.org/2000/svg"
   xmlns:xlink="http://www.w3.org/1999/xlink"
   xmlns:sodipodi="http://sodipodi.sourceforge.net/DTD/sodipodi-0.dtd"
   xmlns:inkscape="http://www.inkscape.org/namespaces/inkscape"
   width="447px"
   height="216px"
   viewBox="0 0 447 216"
   version="1.1"
   id="svg24885"
   sodipodi:docname="bracelet.svg">
  <metadata
     id="metadata24889">
    <rdf:RDF>
      <cc:Work
         rdf:about="">
        <dc:format>image/svg+xml</dc:format>
        <dc:type
           rdf:resource="http://purl.org/dc/dcmitype/StillImage" />
      </cc:Work>
    </rdf:RDF>
  </metadata>
  <sodipodi:namedview
     pagecolor="#ffffff"
     bordercolor="#666666"
     inkscape:document-rotation="0"
     borderopacity="1"
     objecttolerance="10"
     gridtolerance="10"
     guidetolerance="10"
     inkscape:pageopacity="0"
     inkscape:pageshadow="2"
     inkscape:window-width="640"
     inkscape:window-height="480"
     id="namedview24887"
     showgrid="false" />
  <!-- Generator: Sketch 61.2 (89653) - https://sketch.com -->
  <title
     id="title24853">Group 2</title>
  <desc
     id="desc24855">Created with Sketch.</desc>
  <defs
     id="defs24858">
    <path
       d="M136.017459,323.464061 C153.346305,342.174552 196.101912,335.256161 239.336418,333.349902 C271.428263,331.934936 306.474609,338.756297 317.387029,331.987524 C343.000786,316.09978 331.381987,225.44295 330.253387,202.983081 C327.28739,143.99656 342.903606,-43.30793 317.973299,-84.9807457 C293.042993,-126.653561 251.645872,-104.347322 219.282603,-101.467898 C177.571444,-97.7567729 143.215218,-109.434521 128.88957,-84.8924044 C121.294595,-71.8810019 108.098814,0.499775761 125.834591,146.907855 C135.613455,227.631958 105.825863,290.86526 136.017459,323.464061 Z"
       id="path-1" />
    <mask
       id="mask-2"
       fill="white">
      <use
         xlink:href="#path-1"
         id="use24860"
         x="0"
         y="0"
         width="100%"
         height="100%" />
    </mask>
  </defs>
  <g
     style="fill:none;fill-rule:evenodd;stroke:none;stroke-width:1"
     id="plant"
     opacity="0.234491257"
     mask="url(#mask-2)"
     transform="translate(-2.501708,-4.50723)">
    <g
       transform="rotate(-36,360.4434,631.77215)"
       id="g24869">
      <path
         d="m 496.83146,49.523997 c -0.15,1.155 -0.303,2.31 -0.483,3.432 -1.365,8.451 -3.822,16.668 -7.338,24.327 -6.3,13.764 -15.969,25.914003 -19.242,40.833003 -0.726,3.402 -1.122,6.867 -1.332,10.365 -0.063,0.891 -0.09,1.815 -0.123,2.706 -0.303,9.87 0.516,19.938 -1.242,29.643 -4.242,23.373 -23.211,40.932 -43.848,48.756 -20.67,7.824 -43.035,7.659 -64.917,7.56 -106.884,-0.495 -213.801,2.244 -320.532001,8.217 -13.881,0.795 -42.7620005,3.831 -37.03200052,-18.516 C 4.8644585,190.704 15.286459,172.053 30.835459,167.136 c 0.209999,-0.066 0.392999,-0.132 0.605999,-0.198 0.546,-0.165 1.089001,-0.297 1.605,-0.396 19.212001,-4.389 38.064,11.718 57.945,12.312 5.511001,0.165 11.454002,-1.155 15.180002,-5.613 3.063,-3.63 4.152,-8.844 7.305,-12.411 4.878,-5.445 13.029,-5.214 19.788,-3.201 6.756,2.013 13.365,5.448 20.364,5.115 6.336,-0.327 11.7,-3.564 16.548,-8.052 0.303,-0.264 0.636,-0.561 0.939,-0.858 4.242,-4.128 8.091,-9.144 11.91,-13.899 0.576,-0.693 1.062,-1.32 1.575,-1.98 0.456,-0.561 0.909,-1.122 1.365,-1.65 12.123,-14.589 28.002,-25.449 45.303,-31.029 9.183,-2.937 19.518,-4.323 28.002,0.462 7.728,4.323 12.606,12.972 19.791,18.288 9.696,7.161 22.455,7.425 33.849,4.653 31.092,-7.626 54.645,-34.524003 75.525,-60.735003 10.002,-12.543 20.181,-25.452 31.422,-36.741 0.486,-0.495 0.969,-0.99 1.455,-1.452 11.847,-11.718 24.879,-21.5219998 40.002,-27.1019998 6.306,-2.30999997 13.275,-3.828 19.575,-1.452 2.274,0.858 4.275,2.145 6.033,3.762 0.756,0.696 1.485,1.455 2.151,2.277 5.334,6.4709998 7.848,16.2749998 8.334,25.2539998 0.303,5.679 0.12,11.388 -0.576,17.034"
         id="Fill-3"
         fill="#71C5C7"
         inkscape:connector-curvature="0" />
      <g
         id="Group-15"
         stroke-width="1"
         fill="none"
         transform="translate(380.89834,4.958997)">
        <path
           d="m 9.4601131,83.274 c 0.162,-0.174 0.339,0.111 0.288,0.465 -0.021,0.171 -0.141,0.288 -0.261,0.264 -0.219,-0.042 -0.24,-0.513 -0.027,-0.729 z m 0.8189999,-3.588 c 0.594,-0.375 0.834,-0.105 0.69,0.768 -0.174,1.02 -0.486,1.251 -0.903,0.585 -0.3959999,-0.657 -0.3389999,-1.005 0.213,-1.353 z m 0.084,2.46 c 0.165,-0.168 0.342,0.114 0.291,0.468 -0.024,0.168 -0.141,0.285 -0.261,0.261 -0.219,-0.045 -0.237,-0.51 -0.03,-0.729 z m -0.078,14.85 c 0.381,0.363 0.315,0.681 -0.123,0.624 -0.2729999,-0.033 -0.3629999,-0.162 -0.3419999,-0.477 0.03,-0.492 0.087,-0.507 0.4649999,-0.147 z m 0.99,10.056 c 0.054,0.051 0.084,0.564 0.111,1.827 0.039,1.26 0.096,3.27 0.189,6.315 0.015,0.714 0.123,1.494 0.213,1.743 0.216,0.57 0.072,2.316 -0.201,2.454 -0.345,0.171 -0.249,1.383 0.111,1.401 0.3,0.015 0.636,0.804 0.489,1.158 0.3,0.546 0.294,0.63 0.084,0.852 -0.321,0.342 -0.321,0.672 0,0.936 0.189,0.159 0.225,0.375 0.162,0.888 -0.051,0.39 0.021,1.218 0.168,1.953 0.225,1.149 0.228,1.32 0.024,1.761 -0.279,0.621 -0.273,1.089 0.036,2.103 0.153,0.495 0.216,1.068 0.168,1.482 -0.045,0.372 0,0.924 0.099,1.227 0.144,0.429 0.141,0.621 -0.003,0.864 -0.138,0.234 -0.141,0.384 -0.012,0.606 0.288,0.474 0.204,3.93 -0.081,4.068 -0.132,0.066 -0.294,-0.048 -0.387,-0.273 -0.09,-0.21 -0.366,-0.699 -0.621,-1.086 -0.648,-0.99 -0.84,-2.682 -0.639,-5.898 0.063,-1.032 0.036,-1.29 -0.18,-1.515 -0.213,-0.228 -0.231,-0.393 -0.117,-0.966 0.297,-1.482 0.084,-2.7 -0.48,-2.727 -0.153,-0.006 -0.282,-0.153 -0.285,-0.327 -0.003,-0.177 0.123,-0.312 0.279,-0.306 0.318,0.015 0.489,-0.447 0.351,-0.942 -0.051,-0.18 0.015,-0.501 0.15,-0.711 0.171,-0.261 0.195,-0.429 0.078,-0.534 -0.09,-0.084 -0.129,-0.327 -0.084,-0.543 0.045,-0.213 -0.033,-0.702 -0.171,-1.086 -0.201,-0.546 -0.222,-0.783 -0.093,-1.077 -0.138,-0.885 -0.009,-1.02 0.15,-1.011 0.159,0.006 0.327,-0.081 0.378,-0.195 -0.318,-0.228 -0.696,-0.93 -0.612,-1.248 0.045,-0.168 0.009,-0.672 -0.075,-1.116 -0.171,-0.861 -0.039,-1.491 0.477,-2.187 0.357,-0.483 0.342,-1.167 -0.024,-1.191 -0.159,-0.009 -0.33,0.075 -0.384,0.189 -0.396,0.879 -0.8489999,-0.759 -0.6389999,-2.301 0.1829999,-1.275 0.1199999,-2.571 -0.075,-4.047 -0.33,-2.322 -0.165,-5.265 0.3059999,-5.391 -0.2189999,-0.738 -0.2039999,-0.753 0.09,-1.023 0.168,-0.153 0.417,-0.264 0.417,-0.264 0.204,0.024 0.243,0.906 0.075,1.173 -0.129,0.195 -0.117,0.342 0.054,0.57 0.165,0.219 0.198,0.498 0.114,0.996 -0.072,0.441 -0.033,0.93 0.096,1.347 0.117,0.36 0.201,0.942 0.192,1.293 -0.012,0.351 0.036,0.69 0.102,0.759 z m 0.867,0.36 c 0.09,-0.663 0.36,-0.732 0.585,-0.156 0.264,0.744 0.258,4.593 -0.054,4.659 -0.534,0.111 -0.654,-0.321 -0.516,-1.836 0.081,-0.888 0.072,-1.5 -0.009,-1.638 -0.099,-0.399 -0.051,-0.714 -0.006,-1.029 z m 0.609,32.76 c -0.21,-0.147 -0.387,-0.408 -0.387,-0.576 0,-0.267 0.039,-0.264 0.327,0.018 0.501,0.495 0.543,0.897 0.06,0.558 z m 0.858,-29.637 c 0.381,0.318 0.492,0.612 0.294,0.771 -0.087,0.072 -0.255,-0.051 -0.369,-0.276 -0.291,-0.573 -0.261,-0.777 0.075,-0.495 z m 0.084,-2.253 c 0.255,0.144 0.282,1.158 0.03,1.278 -0.255,0.12 -0.357,-0.204 -0.27,-0.891 0.036,-0.264 0.147,-0.438 0.24,-0.387 z m 0.333,-31.353 c 0.435,0.102 0.633,0.621 0.465,1.23 -0.144,0.534 -0.591,0.636 -0.843,0.192 -0.294,-0.519 -0.03,-1.515 0.378,-1.422 z m 1.176,49.506 c 0.198,0.009 0.306,0.819 0.258,1.908 -0.066,1.383 -0.09,1.443 -0.231,0.621 -0.072,-0.408 -0.165,-0.933 -0.207,-1.167 -0.099,-0.555 0.009,-1.368 0.18,-1.362 z m 1.149,-13.812 c 0.771,1.104 0.771,1.134 0.261,1.02 -0.468,-0.105 -0.606,-0.642 -0.261,-1.02 z m 5.658,-26.271 c 0.207,-1.452 0.486,-1.95 0.696,-1.221 0.03,0.117 0.162,0.177 0.288,0.138 0.129,-0.042 0.318,0.057 0.417,0.213 0.099,0.162 0.345,0.264 0.558,0.234 0.357,-0.054 0.366,-0.021 0.183,0.678 -0.339,1.317 -0.909,1.833 -0.876,0.792 0.045,-1.47 -0.132,-1.776 -0.432,-0.75 -0.123,0.42 -0.126,0.738 -0.009,0.99 0.282,0.615 -0.219,1.164 -0.69,0.75 -0.33,-0.291 -0.336,-0.387 -0.135,-1.824 z m 0.846,-2.34 c -0.192,0.57 -0.378,0.624 -0.444,0.126 -0.06,-0.444 -0.063,-0.426 0.231,-0.666 0.342,-0.276 0.423,-0.078 0.213,0.54 z m -0.219,-4.167 c 0.378,-0.108 0.447,0.162 0.312,1.248 -0.147,1.152 -0.294,1.344 -0.6,0.771 -0.297,-0.549 -0.102,-1.905 0.288,-2.019 z m 0.054,-2.571 c 0.315,-0.297 0.528,-0.204 0.753,0.33 0.252,0.597 0.393,0.618 0.54,0.087 0.174,-0.615 0.444,-0.582 0.624,0.072 0.138,0.501 0.123,0.615 -0.12,0.933 -0.174,0.228 -0.3,0.276 -0.339,0.129 -0.084,-0.336 -0.324,-0.354 -0.378,-0.03 -0.117,0.696 -0.648,0.822 -0.978,0.231 -0.369,-0.657 -0.417,-1.455 -0.102,-1.752 z m 0.261,-1.671 c 0.033,-0.222 0.168,-0.381 0.288,-0.351 0.243,0.057 0.24,0.096 0.042,0.519 -0.075,0.162 -0.198,0.282 -0.27,0.267 -0.072,-0.015 -0.099,-0.213 -0.06,-0.435 z m -4.596,100.23 c 0.285,-1.176 0.912,-1.44 1.26,-0.468 0.192,0.525 0.162,0.537 -0.264,0.846 -0.246,0.168 -0.597,0.258 -0.78,0.201 -0.261,-0.078 -0.315,-0.216 -0.216,-0.579 z m 1.491,-44.394 c 0.06,-0.672 0.189,-0.717 0.528,-0.18 0.168,0.264 0.204,0.483 0.108,0.693 -0.177,0.399 -0.162,1.68 0.018,1.689 0.081,0.003 0.138,0.672 0.135,1.485 -0.009,0.819 -0.096,1.488 -0.096,1.488 -0.222,-0.009 -0.396,-0.903 -0.399,-1.896 0,-0.675 -0.075,-1.218 -0.189,-1.359 -0.189,-0.225 -0.216,-0.753 -0.105,-1.92 z m 2.118,10.14 c 0.045,0.108 -0.015,0.309 -0.135,0.447 -0.228,-0.483 0.018,-0.729 0.135,-0.447 z m 0.135,8.07 c 0.237,0.138 0.471,0.813 0.342,0.981 -0.06,0.075 -0.207,0.069 -0.33,-0.015 -0.258,-0.177 -0.27,-1.122 -0.012,-0.966 z m 0.759,3.36 c 0.651,0.126 1.038,0.939 0.417,0.867 -0.156,-0.018 -0.36,0.069 -0.456,0.195 -0.099,0.123 -0.282,0.156 -0.405,0.069 -0.126,-0.087 -0.219,-0.405 -0.204,-0.705 0.018,-0.507 0.069,-0.537 0.648,-0.426 z m 0.465,-2.847 c 0.282,0.396 0.219,1.191 -0.129,1.596 -0.279,0.324 -0.297,0.306 -0.357,-0.36 -0.12,-1.308 0.075,-1.809 0.486,-1.236 z m -0.198,4.971 c -0.357,0.06 -0.276,-0.588 0.102,-0.834 0.177,-0.114 0.36,-0.141 0.408,-0.06 0.129,0.222 -0.225,0.849 -0.51,0.894 z m -0.534,3.069 c -0.447,-0.063 -0.534,-0.303 -0.267,-0.738 0.168,-0.273 0.246,-0.279 0.435,-0.024 0.336,0.447 0.249,0.822 -0.168,0.762 z m 2.271,1.677 c 0.258,0.039 0.213,0.582 -0.075,0.867 -0.174,0.171 -0.24,0.138 -0.288,-0.15 -0.093,-0.555 0.015,-0.771 0.363,-0.717 z M 5.1041131,84.798 c -0.267,5.328 -0.183,9.042 -0.234,9.441 -0.018,4.368 0.048,9.996 0.132,14.25 0.006,1.02 0.3,9.006 0.792,16.74 0.501,7.77 0.897,15.255 0.921,16.08 0.129,3.153 0.315,5.871 0.438,10.542 0.15,4.134 0.006,7.158 -0.351,10.689 -0.456,3.483 -1.068,7.53 -2.868,13.107 -2.448,7.497 -3.70799999,10.503 -3.88199999,14.451 -0.102,0.984 -0.063,1.32 0.195,1.617 0.231,0.264 0.303,0.615 0.237,1.182 -0.138,1.248 -0.111,1.356 0.45,1.485 0.67799999,0.156 1.12499999,0.474 1.16699999,0.846 0.015,0.171 0.54,0.876 1.152,1.578 1.197,1.374 1.791,1.683 2.568,1.197 0.183,-0.108 0.735,-0.435 1.224,-0.723 3.1229999,-1.881 4.3079999,-2.577 6.2519999,-4.623 0.801,-0.81 2.067,-2.271 3.315,-3.822 1.104,-1.584 2.181,-3.252 2.775,-4.311 3.213,-6.12 4.071,-8.478 5.823,-16.689 0.243,-1.326 0.537,-3.18 0.834,-5.298 0.186,-2.097 0.393,-4.449 0.6,-6.795 0.24,-4.656 0.303,-9.258 0.159,-11.739 -0.081,-1.557 -0.216,-4.173 -0.303,-5.814 -0.159,-2.91 -0.255,-3.639 -0.447,-3.645 -0.051,-0.003 -0.081,0.531 -0.102,1.398 -0.003,0.864 -0.009,2.049 -0.012,3.333 0,0.774 0.003,2.082 0.003,2.913 -0.027,0.99 0.042,1.827 0.192,2.37 0.189,0.675 0.201,0.948 0.054,1.383 -0.18,0.537 -0.126,2.061 0.093,2.715 0.063,0.18 0.039,0.543 -0.039,0.798 -0.078,0.258 -0.108,1.161 -0.069,2.007 0.039,0.846 -0.009,2.403 -0.102,3.453 -0.186,1.89 -0.231,1.929 -0.597,1.848 -0.213,-0.045 -0.489,-0.051 -0.615,-0.015 -0.174,0.048 -0.222,-0.171 -0.198,-0.903 0.009,-0.816 0.045,-0.969 0.312,-1.041 0.321,-0.084 0.417,-0.573 0.222,-1.113 -0.063,-0.171 -0.039,-0.687 0.051,-1.161 0.132,-0.666 0.12,-0.978 -0.057,-1.443 -0.192,-0.495 -0.195,-0.666 -0.024,-1.02 0.222,-0.462 0.111,-0.819 -0.3,-0.951 -0.288,-0.093 -0.654,-0.831 -0.654,-1.338 0,-0.411 0.249,-0.468 0.579,-0.129 0.288,0.294 0.606,0.099 0.612,-0.375 0.006,-0.273 -0.123,-0.432 -0.402,-0.501 -0.372,-0.096 -0.408,-0.192 -0.438,-1.122 -0.042,-1.362 -0.741,-2.31 -0.759,-1.032 -0.006,0.405 -0.114,0.855 -0.243,0.996 -0.162,0.18 -0.21,0.456 -0.15,0.882 0.069,0.528 0.036,0.618 -0.225,0.597 -0.399,-0.033 -0.399,0.264 0,0.687 0.27,0.291 0.288,0.399 0.126,0.807 -0.24,0.6 -0.489,0.459 -0.624,-0.333 -0.057,-0.339 -0.228,-0.756 -0.387,-0.93 -0.156,-0.174 -0.318,-0.591 -0.357,-0.924 -0.231,-1.923 -0.297,-2.127 -0.711,-2.226 -0.426,-0.102 -0.405,-0.501 0.024,-0.468 0.138,0.006 0.375,-0.276 0.522,-0.633 0.222,-0.531 0.339,-0.621 0.633,-0.495 0.264,0.114 0.42,0.039 0.582,-0.282 0.312,-0.612 0.75,-0.402 0.837,0.402 0.072,0.699 0.579,1.113 0.588,0.48 0.222,-0.141 0.246,0.063 0.195,0.234 0.174,0.333 0.207,-0.072 0.162,-0.813 -0.072,-1.257 -0.642,-2.241 -1.119,-2.052 -0.276,0.105 -0.555,-0.456 -0.561,-1.14 -0.027,-1.515 -0.066,-1.806 -0.27,-2.061 -0.195,-0.24 -0.279,-0.198 -0.522,0.279 -0.402,0.774 -0.597,0.693 -0.927,-0.381 -0.285,-0.966 -0.474,-3.324 -0.279,-3.681 0.264,-0.492 0.246,-1.116 -0.051,-1.485 -0.273,-0.336 -0.297,-0.543 -0.231,-1.818 0.105,-2.055 -0.099,-2.55 -0.714,-1.776 -0.264,0.336 -0.285,0.333 -0.429,-0.021 -0.081,-0.201 -0.246,-0.372 -0.366,-0.378 -0.174,-0.006 -0.204,-0.189 -0.138,-0.846 0.054,-0.513 0.015,-0.951 -0.09,-1.134 -0.132,-0.225 -0.123,-0.354 0.042,-0.543 0.171,-0.195 0.18,-0.351 0.051,-0.684 -0.12,-0.312 -0.123,-0.573 -0.015,-0.927 0.192,-0.609 0.753,-0.651 0.762,-0.057 0.006,0.225 0.075,0.471 0.159,0.546 0.096,0.084 0.138,-0.354 0.117,-1.191 -0.024,-0.876 -0.069,-1.155 -0.132,-0.816 -0.078,0.42 -0.195,0.513 -0.645,0.516 -0.615,0.003 -0.624,-0.015 -0.405,-0.948 0.102,-0.426 0.108,-0.75 0.015,-0.921 -0.081,-0.144 -0.156,-1.194 -0.171,-2.331 -0.015,-1.47 -0.078,-2.121 -0.219,-2.247 -0.156,-0.144 -0.141,-0.267 0.072,-0.588 0.261,-0.39 0.255,-0.426 -0.039,-1.02 -0.243,-0.504 -0.282,-0.831 -0.213,-1.809 0.051,-0.774 0.018,-1.308 -0.099,-1.512 -0.129,-0.231 -0.132,-0.375 -0.009,-0.534 0.093,-0.12 0.132,-0.465 0.093,-0.765 -0.087,-0.636 0.171,-1.674 0.408,-1.656 0.093,0.006 0.147,0.219 0.126,0.474 -0.051,0.567 0.372,2.055 0.582,2.067 0.171,0.012 0.297,-0.606 0.312,-1.533 0.156,-5.37 0.174,-6.24 -0.18,-6.348 -0.357,-0.105 -0.465,-1.077 -0.162,-1.731 0.132,-0.276 0.198,-0.834 0.186,-1.536 -0.03,-1.617 0.153,-4.167 0.288,-3.942 0.039,0.063 0.135,0.333 0.213,0.597 0.09,0.306 0.249,0.471 0.432,0.45 0.162,-0.018 0.51,0.003 0.774,0.045 0.495,0.084 0.651,-0.213 0.36,-0.69 -0.084,-0.138 -0.129,-0.618 -0.099,-1.065 0.108,-1.101 -0.138,-1.458 -0.774,-1.083 -0.441,0.261 -0.906,0.333 -0.885,0.138 0,0 -0.027,-0.234 -0.048,-0.42 -0.039,-0.258 0.048,-0.318 0.393,-0.267 0.633,0.09 1.764,-1.032 1.587,-1.575 -0.156,-0.474 -0.102,-2.982 0.072,-3.264 0.09,-0.15 0.213,-0.102 0.444,0.162 0.396,0.468 0.708,0.522 0.906,0.168 0.135,-0.24 0.195,-0.231 0.402,0.039 0.306,0.393 0.111,0.957 -0.303,0.888 -0.159,-0.027 -0.381,0.12 -0.495,0.327 -0.252,0.468 -0.147,0.894 0.156,0.633 0.363,-0.312 0.708,0.099 0.561,0.669 -0.078,0.282 -0.06,0.687 0.033,0.921 0.204,0.498 0.141,1.248 -0.171,2.07 -0.216,0.555 -0.192,0.657 0.21,1.263 0.363,0.552 0.411,0.741 0.288,1.188 -0.207,0.735 -0.201,1.263 0.018,1.968 0.114,0.375 0.15,1.14 0.087,2.028 -0.06,0.78 0.003,1.5 0.069,1.569 0.12,0.111 0.144,1.29 0.072,3.03 -0.015,0.324 0.03,0.69 0.093,0.816 0.069,0.126 0.141,1.536 0.246,3.18 0.228,4.134 0.429,4.491 0.348,0.636 -0.051,-1.752 -0.039,-3.792 -0.03,-4.563 -0.051,-2.013 -0.15,-10.716 -0.069,-12.399 -0.003,-0.771 0.036,-2.34 0.087,-3.486 0.24,-3.978 0.3,-5.382 -0.018,-7.68 -0.066,-0.624 -0.291,-0.654 -0.606,-0.075 -0.273,0.543 -0.48,0.561 -0.516,0.048 -0.012,-0.204 -0.066,-0.627 -0.123,-0.942 -0.066,-0.357 -0.027,-0.816 0.102,-1.215 0.246,-0.75 0.582,-0.909 0.54,-0.264 -0.027,0.48 0.318,1.065 0.513,0.879 0.309,-0.288 0.651,-3.324 0.441,-3.882 -0.063,-0.162 -0.087,-0.792 -0.042,-1.404 0.081,-0.912 0.045,-1.137 -0.186,-1.209 -0.756,-0.243 -0.882,-0.324 -1.083,-0.717 -0.117,-0.234 -0.375,-0.462 -0.573,-0.51 -0.201,-0.048 -0.345,-0.183 -0.327,-0.294 0.021,-0.111 0.006,-0.333 -0.03,-0.495 -0.036,-0.159 -0.018,-0.858 0.042,-1.551 0.063,-0.696 0.039,-1.449 -0.048,-1.671 -0.219,-0.561 -0.117,-0.903 0.228,-0.81 0.345,0.087 0.402,-0.132 0.351,-1.41 -0.024,-0.651 0.021,-0.981 0.135,-1.002 0.198,-0.036 0.39,-0.798 0.213,-0.843 -0.396,-0.105 -0.51,-0.705 -0.222,-1.197 0.243,-0.42 0.267,-0.573 0.135,-0.924 -0.111,-0.309 -0.087,-0.648 0.108,-1.269 0.471,-1.482 0.366,-3.756 -0.189,-4.065 0.696,-0.447 0.855,-1.035 0.651,-2.13 -0.144,-0.756 -0.135,-0.801 0.252,-1.383 0.324,-0.483 0.378,-0.675 0.291,-0.957 -0.06,-0.201 -0.021,-0.567 0.093,-0.843 0.114,-0.27 0.147,-0.567 0.078,-0.666 -0.069,-0.099 -0.087,-0.366 -0.036,-0.588 0.087,-0.405 -0.066,-1.512 -0.261,-1.833 -0.054,-0.093 0.081,-0.414 0.297,-0.72 0.381,-0.531 0.39,-0.576 0.246,-1.215 -0.084,-0.366 -0.075,-1.038 0.015,-1.497 0.087,-0.459 0.174,-1.026 0.195,-1.26 0.024,-0.285 0.159,-0.468 0.402,-0.546 0.471,-0.147 0.492,-0.285 0.156,-0.918 -0.234,-0.441 -0.24,-0.636 -0.027,-1.335 0.162,-0.51 0.189,-1.161 0.138,-1.638 -6.459,7.503 -12.663,15.309 -18.7769999,22.974 -0.231,0.294 -0.465,0.588 -0.699,0.882 -0.069,0.555 -0.135,1.107 -0.201,1.662 -0.72,6.993 -1.356,13.908 -1.533,19.269 z"
           id="Fill-11"
           fill="#6BBBBD"
           inkscape:connector-curvature="0" />
        <path
           d="m 52.171113,120.123 c -2.031,9.54 -3.636,19.311 -5.484,29.016 3.06,-5.085 9.243,-8.88 13.332,-11.787 8.487,-5.973 17.79,-10.725 27.519,-13.83 -0.063,0.891 -0.09,1.815 -0.123,2.706 -15.273,5.283 -34.758,14.064 -41.76,29.742 -0.09,0.168 -0.273,0.234 -0.423,0.198 -2.85,13.536 -6.606,26.772 -13.152,38.853 -0.576,1.056 -2.061,0.099 -1.515,-0.957 12.606,-24.987 14.88,-53.046 21.213,-80.214 1.515,-6.501 3.243,-12.939 5.184,-19.311 5.088,-16.734 11.544,-32.811 19.332,-48.093 6.363,-17.034 17.001,-34.101 29.729997,-46.446 0.756,0.696 1.485,1.455 2.151,2.277 -6.12,6.372 -11.969997,12.876 -17.063997,20.535 -3.18,4.785 -5.967,9.735 -8.574,14.787 0,0.099 0.03,0.165 -0.03,0.264 -1.275,2.412 -2.454,4.851 -3.666,7.296 -2.031,4.323 -3.942,8.715 -5.85,13.137 -0.09,0.198 -0.27,0.132 -0.363,-0.033 -0.303,0.693 -0.639,1.386 -0.939,2.079 11.544,-11.388 28.517997,-14.952 44.243997,-15.777 -0.15,1.155 -0.303,2.31 -0.483,3.432 -16.154997,1.815 -30.974997,4.392 -45.002997,15.183 -7.821,18.222 -14.064,37.203 -18.276,56.943"
           id="Fill-52"
           fill="#1BA5B0"
           inkscape:connector-curvature="0" />
        <path
           d="m 57.019113,94.377 c -0.21,0.627 -0.969,0.459 -0.909,-0.036 1.335,-12.741 -0.483,-25.845 -4.269,-37.926 -3.336,-10.596 -9.033,-19.905 -12.882,-30.171 0.486,-0.495 0.969,-0.99 1.455,-1.452 6.363,9.276 10.848,21.423 14.091,32.316 3.666,12.378 4.725,24.459 2.514,37.269"
           id="Fill-53"
           fill="#1BA5B0"
           inkscape:connector-curvature="0" />
      </g>
    </g>
  </g>
  <g
     style="fill:none;fill-rule:evenodd;stroke:none;stroke-width:1"
     mask="url(#mask-2)"
     id="g24879"
     transform="translate(-2.501708,-4.50723)">
    <g
       transform="translate(190.50171,35.50723)"
       id="g24877">
      <path
         d="m 57.366636,62.223194 c -3.479999,-0.239999 -8.519999,0.18 -13.68,2.88 -5.1,2.640001 -8.159999,6.480001 -9.839999,9.18 -0.120001,-0.72 -0.18,-1.259999 -0.240001,-1.619999 -4.559999,-2.040001 -10.379999,-5.64 -13.32,-11.940001 -3.18,-6.659999 -1.2,-8.94 -2.1,-16.5 -0.72,-6.059999 -19.4399995,-17.94 -18.11999953,-24.9 1.62000003,-9.4799995 9.90000003,0.3 14.75999953,5.64 25.32,27.36 -14.03999953,-31.7999995 6.060001,-24.29999948 5.639999,2.09999998 7.859999,26.93999948 16.5,30.71999948 24.299999,10.92 19.259999,21.000001 19.32,29.820001 l 0.659999,1.019999"
         id="Fill-236"
         stroke="none"
         fill="#F9B995"
         fill-rule="evenodd"
         inkscape:connector-curvature="0" />
      <path
         d="m 42.594727,79.467773 c -1.104493,5.144857 -2.000489,7.717286 -2.687989,7.717286"
         id="Path-3"
         stroke="#535353"
         stroke-width="1.4"
         fill="none"
         inkscape:connector-curvature="0" />
      <polygon
         id="Path"
         stroke="none"
         fill="#F9B995"
         fill-rule="evenodd"
         points="52.666016,56.822266 37.612957,56.822266 34.166016,71.779501 47.144069,91.822266 71.166016,77.429051 " />
      <path
         d="m 365.32664,349.18319 c -1.5,1.74001 -2.82,2.7 -5.4,4.74001 -24.6,19.44 -53.04,15.89999 -78.6,16.68 -50.58,1.5 -68.04,19.38 -82.26,17.82 -2.76,-0.24001 -5.46,-1.26001 -8.22,-3.36001 -14.76,-10.98 -12.36,-43.25999 -7.02,-107.45999 0.48,-5.64001 0.954,-11.10001 1.554,-16.38001 0.054,-0.66 0.126,-1.32 0.186,-1.97999 0.3,-3.54001 0.654,-6.88801 1.074,-10.25401 0.36,-3.42 1.386,-11.346 2.226,-18.126 l 0.12,-1.14 c 0.18,-1.2 0.3,-2.34 0.426,-3.36 0.294,-2.7 0.654,-5.28 1.014,-7.74 0.54,-3.36 1.02,-6.6 1.44,-9.54 -7.26,-0.18 -17.28,-0.84 -29.04,-3 -12.48,-2.28 -29.7,-5.4 -45.78,-14.58 -15.6,-9 -8.94,-11.58 -45.480003,-50.7 -9.780001,-10.5 -16.307184,-18.05999 -22.127184,-34.98 -2.28,-6.779996 -6.552816,-14.879995 -7.032817,-18.959995 0.300001,-0.600001 0.78,-1.5 1.440001,-2.580001 1.68,-2.699999 4.739999,-6.539999 9.839999,-9.18 5.160001,-2.7 10.200001,-3.12 13.68,-2.879999 2.040001,0.119999 3.600001,0.42 4.320001,0.599999 3.179999,2.1 28.560003,29.820006 30.420003,32.999996 6.24,10.74 24.12,34.38 45.6,41.28 14.76,4.74 38.04,-2.63999 84.54,-17.46 1.98,-0.66 12.6,-4.02 26.82,-6.6 1.44,-0.23999 2.82,-0.48 4.14,-0.72 7.86,-1.26 12.72,-1.56 15.36,-1.62 6.72,-0.17999 12.84,0.24001 17.34,0.72001 1.44,0.11999 2.64,0.3 3.72,0.41999 0,0 0.78,0.06 1.5,0.18001 15.12,1.86 33.48,9.41999 33.48,9.41999 8.94,4.32 41.04,20.34 48,23.88 -9.48,9.6 -18.954,19.2 -28.38,28.86 0.36,5.22 0.84,11.7 1.56,19.14 0.06,0.78 0.126,1.56 0.24,2.34 0.6,5.58 3.9,35.4 4.08,37.26 l 0.12,0.84 0.12,1.08 0.108,1.02 c 8.7,68.4 17.412,88.44001 4.872,103.32 z"
         id="Fill-237"
         stroke="none"
         fill="#E7DFDA"
         fill-rule="evenodd"
         inkscape:connector-curvature="0" />
      <path
         d="m 39.594727,80.467773 c -3.90918,1.720704 -5.21224,1.471355 -3.90918,-0.748046 C 37.640137,76.390625 57.153809,62.861816 61,62.861816 c 2.564128,0 2.564128,0.93864 0,2.815918"
         id="Path-2"
         stroke="#242424"
         stroke-width="1.8"
         fill="none"
         inkscape:connector-curvature="0" />
    </g>
  </g>
</svg>
