<?xml version="1.0" encoding="UTF-8"?>
<svg width="447px" height="216px" viewBox="0 0 447 216" version="1.1" xmlns="http://www.w3.org/2000/svg" xmlns:xlink="http://www.w3.org/1999/xlink">
    <!-- Generator: Sketch 61.2 (89653) - https://sketch.com -->
    <title>Group 2</title>
    <desc>Created with Sketch.</desc>
    <defs>
        <path d="M136.017459,323.464061 C153.346305,342.174552 196.101912,335.256161 239.336418,333.349902 C271.428263,331.934936 306.474609,338.756297 317.387029,331.987524 C343.000786,316.09978 331.381987,225.44295 330.253387,202.983081 C327.28739,143.99656 342.903606,-43.30793 317.973299,-84.9807457 C293.042993,-126.653561 251.645872,-104.347322 219.282603,-101.467898 C177.571444,-97.7567729 143.215218,-109.434521 128.88957,-84.8924044 C121.294595,-71.8810019 108.098814,0.499775761 125.834591,146.907855 C135.613455,227.631958 105.825863,290.86526 136.017459,323.464061 Z" id="path-1"></path>
    </defs>
    <g id="Page-1" stroke="none" stroke-width="1" fill="none" fill-rule="evenodd">
        <g id="depressed.nyc---take-action" transform="translate(-451.000000, -1521.000000)">
            <g id="action-copy" transform="translate(448.000000, 1266.000000)">
                <g id="Group-2" transform="translate(0.498292, 250.492770)">
                    <mask id="mask-2" fill="white">
                        <use xlink:href="#path-1"></use>
                    </mask>
                    <use id="Mask" fill="#EBF3F5" transform="translate(225.427063, 113.089931) rotate(-89.000000) translate(-225.427063, -113.089931) " xlink:href="#path-1"></use>
                    <g id="plant" opacity="0.234491257" mask="url(#mask-2)">
                        <g transform="translate(-34.642823, 277.581448) rotate(-36.000000) translate(34.642823, -277.581448) translate(-283.642823, 164.581448)">
                            <path d="M496.831458,49.5239972 C496.681458,50.6789972 496.528458,51.8339972 496.348458,52.9559972 C494.983458,61.4069972 492.526458,69.6239972 489.010458,77.2829972 C482.710458,91.0469972 473.041458,103.196997 469.768458,118.115997 C469.042458,121.517997 468.646458,124.982997 468.436458,128.480997 C468.373458,129.371997 468.346458,130.295997 468.313458,131.186997 C468.010458,141.056997 468.829458,151.124997 467.071458,160.829997 C462.829458,184.202997 443.860458,201.761997 423.223458,209.585997 C402.553458,217.409997 380.188458,217.244997 358.306458,217.145997 C251.422458,216.650997 144.505458,219.389997 37.7744585,225.362997 C23.8934585,226.157997 -4.98754152,229.193997 0.742458481,206.846997 C4.86445848,190.703997 15.2864585,172.052997 30.8354585,167.135997 C31.0454585,167.069997 31.2284585,167.003997 31.4414585,166.937997 C31.9874585,166.772997 32.5304585,166.640997 33.0464585,166.541997 C52.2584585,162.152997 71.1104585,178.259997 90.9914585,178.853997 C96.5024585,179.018997 102.445458,177.698997 106.171458,173.240997 C109.234458,169.610997 110.323458,164.396997 113.476458,160.829997 C118.354458,155.384997 126.505458,155.615997 133.264458,157.628997 C140.020458,159.641997 146.629458,163.076997 153.628458,162.743997 C159.964458,162.416997 165.328458,159.179997 170.176458,154.691997 C170.479458,154.427997 170.812458,154.130997 171.115458,153.833997 C175.357458,149.705997 179.206458,144.689997 183.025458,139.934997 C183.601458,139.241997 184.087458,138.614997 184.600458,137.954997 C185.056458,137.393997 185.509458,136.832997 185.965458,136.304997 C198.088458,121.715997 213.967458,110.855997 231.268458,105.275997 C240.451458,102.338997 250.786458,100.952997 259.270458,105.737997 C266.998458,110.060997 271.876458,118.709997 279.061458,124.025997 C288.757458,131.186997 301.516458,131.450997 312.910458,128.678997 C344.002458,121.052997 367.555458,94.1549972 388.435458,67.9439972 C398.437458,55.4009972 408.616458,42.4919972 419.857458,31.2029972 C420.343458,30.7079972 420.826458,30.2129972 421.312458,29.7509972 C433.159458,18.0329972 446.191458,8.22899723 461.314458,2.64899723 C467.620458,0.338997228 474.589458,-1.17900277 480.889458,1.19699723 C483.163458,2.05499723 485.164458,3.34199723 486.922458,4.95899723 C487.678458,5.65499723 488.407458,6.41399723 489.073458,7.23599723 C494.407458,13.7069972 496.921458,23.5109972 497.407458,32.4899972 C497.710458,38.1689972 497.527458,43.8779972 496.831458,49.5239972" id="Fill-3" fill="#71C5C7"></path>
                            <g id="Group-15" stroke-width="1" fill="none" transform="translate(380.898345, 4.958997)">
                                <path d="M9.46011311,83.274 C9.62211311,83.1 9.79911311,83.385 9.74811311,83.739 C9.72711311,83.91 9.60711311,84.027 9.48711311,84.003 C9.26811311,83.961 9.24711311,83.49 9.46011311,83.274 Z M10.2791131,79.686 C10.8731131,79.311 11.1131131,79.581 10.9691131,80.454 C10.7951131,81.474 10.4831131,81.705 10.0661131,81.039 C9.67011311,80.382 9.72711311,80.034 10.2791131,79.686 Z M10.3631131,82.146 C10.5281131,81.978 10.7051131,82.26 10.6541131,82.614 C10.6301131,82.782 10.5131131,82.899 10.3931131,82.875 C10.1741131,82.83 10.1561131,82.365 10.3631131,82.146 Z M10.2851131,96.996 C10.6661131,97.359 10.6001131,97.677 10.1621131,97.62 C9.88911311,97.587 9.79911311,97.458 9.82011311,97.143 C9.85011311,96.651 9.90711311,96.636 10.2851131,96.996 Z M11.2751131,107.052 C11.3291131,107.103 11.3591131,107.616 11.3861131,108.879 C11.4251131,110.139 11.4821131,112.149 11.5751131,115.194 C11.5901131,115.908 11.6981131,116.688 11.7881131,116.937 C12.0041131,117.507 11.8601131,119.253 11.5871131,119.391 C11.2421131,119.562 11.3381131,120.774 11.6981131,120.792 C11.9981131,120.807 12.3341131,121.596 12.1871131,121.95 C12.4871131,122.496 12.4811131,122.58 12.2711131,122.802 C11.9501131,123.144 11.9501131,123.474 12.2711131,123.738 C12.4601131,123.897 12.4961131,124.113 12.4331131,124.626 C12.3821131,125.016 12.4541131,125.844 12.6011131,126.579 C12.8261131,127.728 12.8291131,127.899 12.6251131,128.34 C12.3461131,128.961 12.3521131,129.429 12.6611131,130.443 C12.8141131,130.938 12.8771131,131.511 12.8291131,131.925 C12.7841131,132.297 12.8291131,132.849 12.9281131,133.152 C13.0721131,133.581 13.0691131,133.773 12.9251131,134.016 C12.7871131,134.25 12.7841131,134.4 12.9131131,134.622 C13.2011131,135.096 13.1171131,138.552 12.8321131,138.69 C12.7001131,138.756 12.5381131,138.642 12.4451131,138.417 C12.3551131,138.207 12.0791131,137.718 11.8241131,137.331 C11.1761131,136.341 10.9841131,134.649 11.1851131,131.433 C11.2481131,130.401 11.2211131,130.143 11.0051131,129.918 C10.7921131,129.69 10.7741131,129.525 10.8881131,128.952 C11.1851131,127.47 10.9721131,126.252 10.4081131,126.225 C10.2551131,126.219 10.1261131,126.072 10.1231131,125.898 C10.1201131,125.721 10.2461131,125.586 10.4021131,125.592 C10.7201131,125.607 10.8911131,125.145 10.7531131,124.65 C10.7021131,124.47 10.7681131,124.149 10.9031131,123.939 C11.0741131,123.678 11.0981131,123.51 10.9811131,123.405 C10.8911131,123.321 10.8521131,123.078 10.8971131,122.862 C10.9421131,122.649 10.8641131,122.16 10.7261131,121.776 C10.5251131,121.23 10.5041131,120.993 10.6331131,120.699 C10.4951131,119.814 10.6241131,119.679 10.7831131,119.688 C10.9421131,119.694 11.1101131,119.607 11.1611131,119.493 C10.8431131,119.265 10.4651131,118.563 10.5491131,118.245 C10.5941131,118.077 10.5581131,117.573 10.4741131,117.129 C10.3031131,116.268 10.4351131,115.638 10.9511131,114.942 C11.3081131,114.459 11.2931131,113.775 10.9271131,113.751 C10.7681131,113.742 10.5971131,113.826 10.5431131,113.94 C10.1471131,114.819 9.69411311,113.181 9.90411311,111.639 C10.0871131,110.364 10.0241131,109.068 9.82911311,107.592 C9.49911311,105.27 9.66411311,102.327 10.1351131,102.201 C9.91611311,101.463 9.93111311,101.448 10.2251131,101.178 C10.3931131,101.025 10.6421131,100.914 10.6421131,100.914 C10.8461131,100.938 10.8851131,101.82 10.7171131,102.087 C10.5881131,102.282 10.6001131,102.429 10.7711131,102.657 C10.9361131,102.876 10.9691131,103.155 10.8851131,103.653 C10.8131131,104.094 10.8521131,104.583 10.9811131,105 C11.0981131,105.36 11.1821131,105.942 11.1731131,106.293 C11.1611131,106.644 11.2091131,106.983 11.2751131,107.052 Z M12.1421131,107.412 C12.2321131,106.749 12.5021131,106.68 12.7271131,107.256 C12.9911131,108 12.9851131,111.849 12.6731131,111.915 C12.1391131,112.026 12.0191131,111.594 12.1571131,110.079 C12.2381131,109.191 12.2291131,108.579 12.1481131,108.441 C12.0491131,108.042 12.0971131,107.727 12.1421131,107.412 Z M12.7511131,140.172 C12.5411131,140.025 12.3641131,139.764 12.3641131,139.596 C12.3641131,139.329 12.4031131,139.332 12.6911131,139.614 C13.1921131,140.109 13.2341131,140.511 12.7511131,140.172 Z M13.6091131,110.535 C13.9901131,110.853 14.1011131,111.147 13.9031131,111.306 C13.8161131,111.378 13.6481131,111.255 13.5341131,111.03 C13.2431131,110.457 13.2731131,110.253 13.6091131,110.535 Z M13.6931131,108.282 C13.9481131,108.426 13.9751131,109.44 13.7231131,109.56 C13.4681131,109.68 13.3661131,109.356 13.4531131,108.669 C13.4891131,108.405 13.6001131,108.231 13.6931131,108.282 Z M14.0261131,76.929 C14.4611131,77.031 14.6591131,77.55 14.4911131,78.159 C14.3471131,78.693 13.9001131,78.795 13.6481131,78.351 C13.3541131,77.832 13.6181131,76.836 14.0261131,76.929 Z M15.2021131,126.435 C15.4001131,126.444 15.5081131,127.254 15.4601131,128.343 C15.3941131,129.726 15.3701131,129.786 15.2291131,128.964 C15.1571131,128.556 15.0641131,128.031 15.0221131,127.797 C14.9231131,127.242 15.0311131,126.429 15.2021131,126.435 Z M16.3511131,112.623 C17.1221131,113.727 17.1221131,113.757 16.6121131,113.643 C16.1441131,113.538 16.0061131,113.001 16.3511131,112.623 Z M22.0091131,86.352 C22.2161131,84.9 22.4951131,84.402 22.7051131,85.131 C22.7351131,85.248 22.8671131,85.308 22.9931131,85.269 C23.1221131,85.227 23.3111131,85.326 23.4101131,85.482 C23.5091131,85.644 23.7551131,85.746 23.9681131,85.716 C24.3251131,85.662 24.3341131,85.695 24.1511131,86.394 C23.8121131,87.711 23.2421131,88.227 23.2751131,87.186 C23.3201131,85.716 23.1431131,85.41 22.8431131,86.436 C22.7201131,86.856 22.7171131,87.174 22.8341131,87.426 C23.1161131,88.041 22.6151131,88.59 22.1441131,88.176 C21.8141131,87.885 21.8081131,87.789 22.0091131,86.352 Z M22.8551131,84.012 C22.6631131,84.582 22.4771131,84.636 22.4111131,84.138 C22.3511131,83.694 22.3481131,83.712 22.6421131,83.472 C22.9841131,83.196 23.0651131,83.394 22.8551131,84.012 Z M22.6361131,79.845 C23.0141131,79.737 23.0831131,80.007 22.9481131,81.093 C22.8011131,82.245 22.6541131,82.437 22.3481131,81.864 C22.0511131,81.315 22.2461131,79.959 22.6361131,79.845 Z M22.6901131,77.274 C23.0051131,76.977 23.2181131,77.07 23.4431131,77.604 C23.6951131,78.201 23.8361131,78.222 23.9831131,77.691 C24.1571131,77.076 24.4271131,77.109 24.6071131,77.763 C24.7451131,78.264 24.7301131,78.378 24.4871131,78.696 C24.3131131,78.924 24.1871131,78.972 24.1481131,78.825 C24.0641131,78.489 23.8241131,78.471 23.7701131,78.795 C23.6531131,79.491 23.1221131,79.617 22.7921131,79.026 C22.4231131,78.369 22.3751131,77.571 22.6901131,77.274 Z M22.9511131,75.603 C22.9841131,75.381 23.1191131,75.222 23.2391131,75.252 C23.4821131,75.309 23.4791131,75.348 23.2811131,75.771 C23.2061131,75.933 23.0831131,76.053 23.0111131,76.038 C22.9391131,76.023 22.9121131,75.825 22.9511131,75.603 Z M18.3551131,175.833 C18.6401131,174.657 19.2671131,174.393 19.6151131,175.365 C19.8071131,175.89 19.7771131,175.902 19.3511131,176.211 C19.1051131,176.379 18.7541131,176.469 18.5711131,176.412 C18.3101131,176.334 18.2561131,176.196 18.3551131,175.833 Z M19.8461131,131.439 C19.9061131,130.767 20.0351131,130.722 20.3741131,131.259 C20.5421131,131.523 20.5781131,131.742 20.4821131,131.952 C20.3051131,132.351 20.3201131,133.632 20.5001131,133.641 C20.5811131,133.644 20.6381131,134.313 20.6351131,135.126 C20.6261131,135.945 20.5391131,136.614 20.5391131,136.614 C20.3171131,136.605 20.1431131,135.711 20.1401131,134.718 C20.1401131,134.043 20.0651131,133.5 19.9511131,133.359 C19.7621131,133.134 19.7351131,132.606 19.8461131,131.439 Z M21.9641131,141.579 C22.0091131,141.687 21.9491131,141.888 21.8291131,142.026 C21.6011131,141.543 21.8471131,141.297 21.9641131,141.579 Z M22.0991131,149.649 C22.3361131,149.787 22.5701131,150.462 22.4411131,150.63 C22.3811131,150.705 22.2341131,150.699 22.1111131,150.615 C21.8531131,150.438 21.8411131,149.493 22.0991131,149.649 Z M22.8581131,153.009 C23.5091131,153.135 23.8961131,153.948 23.2751131,153.876 C23.1191131,153.858 22.9151131,153.945 22.8191131,154.071 C22.7201131,154.194 22.5371131,154.227 22.4141131,154.14 C22.2881131,154.053 22.1951131,153.735 22.2101131,153.435 C22.2281131,152.928 22.2791131,152.898 22.8581131,153.009 Z M23.3231131,150.162 C23.6051131,150.558 23.5421131,151.353 23.1941131,151.758 C22.9151131,152.082 22.8971131,152.064 22.8371131,151.398 C22.7171131,150.09 22.9121131,149.589 23.3231131,150.162 Z M23.1251131,155.133 C22.7681131,155.193 22.8491131,154.545 23.2271131,154.299 C23.4041131,154.185 23.5871131,154.158 23.6351131,154.239 C23.7641131,154.461 23.4101131,155.088 23.1251131,155.133 Z M22.5911131,158.202 C22.1441131,158.139 22.0571131,157.899 22.3241131,157.464 C22.4921131,157.191 22.5701131,157.185 22.7591131,157.44 C23.0951131,157.887 23.0081131,158.262 22.5911131,158.202 Z M24.8621131,159.879 C25.1201131,159.918 25.0751131,160.461 24.7871131,160.746 C24.6131131,160.917 24.5471131,160.884 24.4991131,160.596 C24.4061131,160.041 24.5141131,159.825 24.8621131,159.879 Z M5.10411311,84.798 C4.83711311,90.126 4.92111311,93.84 4.87011311,94.239 C4.85211311,98.607 4.91811311,104.235 5.00211311,108.489 C5.00811311,109.509 5.30211311,117.495 5.79411311,125.229 C6.29511311,132.999 6.69111311,140.484 6.71511311,141.309 C6.84411311,144.462 7.03011311,147.18 7.15311311,151.851 C7.30311311,155.985 7.15911311,159.009 6.80211311,162.54 C6.34611311,166.023 5.73411311,170.07 3.93411311,175.647 C1.48611311,183.144 0.226113108,186.15 0.0521131077,190.098 C-0.0498868923,191.082 -0.0108868923,191.418 0.247113108,191.715 C0.478113108,191.979 0.550113108,192.33 0.484113108,192.897 C0.346113108,194.145 0.373113108,194.253 0.934113108,194.382 C1.61211311,194.538 2.05911311,194.856 2.10111311,195.228 C2.11611311,195.399 2.64111311,196.104 3.25311311,196.806 C4.45011311,198.18 5.04411311,198.489 5.82111311,198.003 C6.00411311,197.895 6.55611311,197.568 7.04511311,197.28 C10.1681131,195.399 11.3531131,194.703 13.2971131,192.657 C14.0981131,191.847 15.3641131,190.386 16.6121131,188.835 C17.7161131,187.251 18.7931131,185.583 19.3871131,184.524 C22.6001131,178.404 23.4581131,176.046 25.2101131,167.835 C25.4531131,166.509 25.7471131,164.655 26.0441131,162.537 C26.2301131,160.44 26.4371131,158.088 26.6441131,155.742 C26.8841131,151.086 26.9471131,146.484 26.8031131,144.003 C26.7221131,142.446 26.5871131,139.83 26.5001131,138.189 C26.3411131,135.279 26.2451131,134.55 26.0531131,134.544 C26.0021131,134.541 25.9721131,135.075 25.9511131,135.942 C25.9481131,136.806 25.9421131,137.991 25.9391131,139.275 C25.9391131,140.049 25.9421131,141.357 25.9421131,142.188 C25.9151131,143.178 25.9841131,144.015 26.1341131,144.558 C26.3231131,145.233 26.3351131,145.506 26.1881131,145.941 C26.0081131,146.478 26.0621131,148.002 26.2811131,148.656 C26.3441131,148.836 26.3201131,149.199 26.2421131,149.454 C26.1641131,149.712 26.1341131,150.615 26.1731131,151.461 C26.2121131,152.307 26.1641131,153.864 26.0711131,154.914 C25.8851131,156.804 25.8401131,156.843 25.4741131,156.762 C25.2611131,156.717 24.9851131,156.711 24.8591131,156.747 C24.6851131,156.795 24.6371131,156.576 24.6611131,155.844 C24.6701131,155.028 24.7061131,154.875 24.9731131,154.803 C25.2941131,154.719 25.3901131,154.23 25.1951131,153.69 C25.1321131,153.519 25.1561131,153.003 25.2461131,152.529 C25.3781131,151.863 25.3661131,151.551 25.1891131,151.086 C24.9971131,150.591 24.9941131,150.42 25.1651131,150.066 C25.3871131,149.604 25.2761131,149.247 24.8651131,149.115 C24.5771131,149.022 24.2111131,148.284 24.2111131,147.777 C24.2111131,147.366 24.4601131,147.309 24.7901131,147.648 C25.0781131,147.942 25.3961131,147.747 25.4021131,147.273 C25.4081131,147 25.2791131,146.841 25.0001131,146.772 C24.6281131,146.676 24.5921131,146.58 24.5621131,145.65 C24.5201131,144.288 23.8211131,143.34 23.8031131,144.618 C23.7971131,145.023 23.6891131,145.473 23.5601131,145.614 C23.3981131,145.794 23.3501131,146.07 23.4101131,146.496 C23.4791131,147.024 23.4461131,147.114 23.1851131,147.093 C22.7861131,147.06 22.7861131,147.357 23.1851131,147.78 C23.4551131,148.071 23.4731131,148.179 23.3111131,148.587 C23.0711131,149.187 22.8221131,149.046 22.6871131,148.254 C22.6301131,147.915 22.4591131,147.498 22.3001131,147.324 C22.1441131,147.15 21.9821131,146.733 21.9431131,146.4 C21.7121131,144.477 21.6461131,144.273 21.2321131,144.174 C20.8061131,144.072 20.8271131,143.673 21.2561131,143.706 C21.3941131,143.712 21.6311131,143.43 21.7781131,143.073 C22.0001131,142.542 22.1171131,142.452 22.4111131,142.578 C22.6751131,142.692 22.8311131,142.617 22.9931131,142.296 C23.3051131,141.684 23.7431131,141.894 23.8301131,142.698 C23.9021131,143.397 24.4091131,143.811 24.4181131,143.178 C24.6401131,143.037 24.6641131,143.241 24.6131131,143.412 C24.7871131,143.745 24.8201131,143.34 24.7751131,142.599 C24.7031131,141.342 24.1331131,140.358 23.6561131,140.547 C23.3801131,140.652 23.1011131,140.091 23.0951131,139.407 C23.0681131,137.892 23.0291131,137.601 22.8251131,137.346 C22.6301131,137.106 22.5461131,137.148 22.3031131,137.625 C21.9011131,138.399 21.7061131,138.318 21.3761131,137.244 C21.0911131,136.278 20.9021131,133.92 21.0971131,133.563 C21.3611131,133.071 21.3431131,132.447 21.0461131,132.078 C20.7731131,131.742 20.7491131,131.535 20.8151131,130.26 C20.9201131,128.205 20.7161131,127.71 20.1011131,128.484 C19.8371131,128.82 19.8161131,128.817 19.6721131,128.463 C19.5911131,128.262 19.4261131,128.091 19.3061131,128.085 C19.1321131,128.079 19.1021131,127.896 19.1681131,127.239 C19.2221131,126.726 19.1831131,126.288 19.0781131,126.105 C18.9461131,125.88 18.9551131,125.751 19.1201131,125.562 C19.2911131,125.367 19.3001131,125.211 19.1711131,124.878 C19.0511131,124.566 19.0481131,124.305 19.1561131,123.951 C19.3481131,123.342 19.9091131,123.3 19.9181131,123.894 C19.9241131,124.119 19.9931131,124.365 20.0771131,124.44 C20.1731131,124.524 20.2151131,124.086 20.1941131,123.249 C20.1701131,122.373 20.1251131,122.094 20.0621131,122.433 C19.9841131,122.853 19.8671131,122.946 19.4171131,122.949 C18.8021131,122.952 18.7931131,122.934 19.0121131,122.001 C19.1141131,121.575 19.1201131,121.251 19.0271131,121.08 C18.9461131,120.936 18.8711131,119.886 18.8561131,118.749 C18.8411131,117.279 18.7781131,116.628 18.6371131,116.502 C18.4811131,116.358 18.4961131,116.235 18.7091131,115.914 C18.9701131,115.524 18.9641131,115.488 18.6701131,114.894 C18.4271131,114.39 18.3881131,114.063 18.4571131,113.085 C18.5081131,112.311 18.4751131,111.777 18.3581131,111.573 C18.2291131,111.342 18.2261131,111.198 18.3491131,111.039 C18.4421131,110.919 18.4811131,110.574 18.4421131,110.274 C18.3551131,109.638 18.6131131,108.6 18.8501131,108.618 C18.9431131,108.624 18.9971131,108.837 18.9761131,109.092 C18.9251131,109.659 19.3481131,111.147 19.5581131,111.159 C19.7291131,111.171 19.8551131,110.553 19.8701131,109.626 C20.0261131,104.256 20.0441131,103.386 19.6901131,103.278 C19.3331131,103.173 19.2251131,102.201 19.5281131,101.547 C19.6601131,101.271 19.7261131,100.713 19.7141131,100.011 C19.6841131,98.394 19.8671131,95.844 20.0021131,96.069 C20.0411131,96.132 20.1371131,96.402 20.2151131,96.666 C20.3051131,96.972 20.4641131,97.137 20.6471131,97.116 C20.8091131,97.098 21.1571131,97.119 21.4211131,97.161 C21.9161131,97.245 22.0721131,96.948 21.7811131,96.471 C21.6971131,96.333 21.6521131,95.853 21.6821131,95.406 C21.7901131,94.305 21.5441131,93.948 20.9081131,94.323 C20.4671131,94.584 20.0021131,94.656 20.0231131,94.461 C20.0231131,94.461 19.9961131,94.227 19.9751131,94.041 C19.9361131,93.783 20.0231131,93.723 20.3681131,93.774 C21.0011131,93.864 22.1321131,92.742 21.9551131,92.199 C21.7991131,91.725 21.8531131,89.217 22.0271131,88.935 C22.1171131,88.785 22.2401131,88.833 22.4711131,89.097 C22.8671131,89.565 23.1791131,89.619 23.3771131,89.265 C23.5121131,89.025 23.5721131,89.034 23.7791131,89.304 C24.0851131,89.697 23.8901131,90.261 23.4761131,90.192 C23.3171131,90.165 23.0951131,90.312 22.9811131,90.519 C22.7291131,90.987 22.8341131,91.413 23.1371131,91.152 C23.5001131,90.84 23.8451131,91.251 23.6981131,91.821 C23.6201131,92.103 23.6381131,92.508 23.7311131,92.742 C23.9351131,93.24 23.8721131,93.99 23.5601131,94.812 C23.3441131,95.367 23.3681131,95.469 23.7701131,96.075 C24.1331131,96.627 24.1811131,96.816 24.0581131,97.263 C23.8511131,97.998 23.8571131,98.526 24.0761131,99.231 C24.1901131,99.606 24.2261131,100.371 24.1631131,101.259 C24.1031131,102.039 24.1661131,102.759 24.2321131,102.828 C24.3521131,102.939 24.3761131,104.118 24.3041131,105.858 C24.2891131,106.182 24.3341131,106.548 24.3971131,106.674 C24.4661131,106.8 24.5381131,108.21 24.6431131,109.854 C24.8711131,113.988 25.0721131,114.345 24.9911131,110.49 C24.9401131,108.738 24.9521131,106.698 24.9611131,105.927 C24.9101131,103.914 24.8111131,95.211 24.8921131,93.528 C24.8891131,92.757 24.9281131,91.188 24.9791131,90.042 C25.2191131,86.064 25.2791131,84.66 24.9611131,82.362 C24.8951131,81.738 24.6701131,81.708 24.3551131,82.287 C24.0821131,82.83 23.8751131,82.848 23.8391131,82.335 C23.8271131,82.131 23.7731131,81.708 23.7161131,81.393 C23.6501131,81.036 23.6891131,80.577 23.8181131,80.178 C24.0641131,79.428 24.4001131,79.269 24.3581131,79.914 C24.3311131,80.394 24.6761131,80.979 24.8711131,80.793 C25.1801131,80.505 25.5221131,77.469 25.3121131,76.911 C25.2491131,76.749 25.2251131,76.119 25.2701131,75.507 C25.3511131,74.595 25.3151131,74.37 25.0841131,74.298 C24.3281131,74.055 24.2021131,73.974 24.0011131,73.581 C23.8841131,73.347 23.6261131,73.119 23.4281131,73.071 C23.2271131,73.023 23.0831131,72.888 23.1011131,72.777 C23.1221131,72.666 23.1071131,72.444 23.0711131,72.282 C23.0351131,72.123 23.0531131,71.424 23.1131131,70.731 C23.1761131,70.035 23.1521131,69.282 23.0651131,69.06 C22.8461131,68.499 22.9481131,68.157 23.2931131,68.25 C23.6381131,68.337 23.6951131,68.118 23.6441131,66.84 C23.6201131,66.189 23.6651131,65.859 23.7791131,65.838 C23.9771131,65.802 24.1691131,65.04 23.9921131,64.995 C23.5961131,64.89 23.4821131,64.29 23.7701131,63.798 C24.0131131,63.378 24.0371131,63.225 23.9051131,62.874 C23.7941131,62.565 23.8181131,62.226 24.0131131,61.605 C24.4841131,60.123 24.3791131,57.849 23.8241131,57.54 C24.5201131,57.093 24.6791131,56.505 24.4751131,55.41 C24.3311131,54.654 24.3401131,54.609 24.7271131,54.027 C25.0511131,53.544 25.1051131,53.352 25.0181131,53.07 C24.9581131,52.869 24.9971131,52.503 25.1111131,52.227 C25.2251131,51.957 25.2581131,51.66 25.1891131,51.561 C25.1201131,51.462 25.1021131,51.195 25.1531131,50.973 C25.2401131,50.568 25.0871131,49.461 24.8921131,49.14 C24.8381131,49.047 24.9731131,48.726 25.1891131,48.42 C25.5701131,47.889 25.5791131,47.844 25.4351131,47.205 C25.3511131,46.839 25.3601131,46.167 25.4501131,45.708 C25.5371131,45.249 25.6241131,44.682 25.6451131,44.448 C25.6691131,44.163 25.8041131,43.98 26.0471131,43.902 C26.5181131,43.755 26.5391131,43.617 26.2031131,42.984 C25.9691131,42.543 25.9631131,42.348 26.1761131,41.649 C26.3381131,41.139 26.3651131,40.488 26.3141131,40.011 C19.8551131,47.514 13.6511131,55.32 7.53711311,62.985 C7.30611311,63.279 7.07211311,63.573 6.83811311,63.867 C6.76911311,64.422 6.70311311,64.974 6.63711311,65.529 C5.91711311,72.522 5.28111311,79.437 5.10411311,84.798 L5.10411311,84.798 Z" id="Fill-11" fill="#6BBBBD"></path>
                                <path d="M52.1711131,120.123 C50.1401131,129.663 48.5351131,139.434 46.6871131,149.139 C49.7471131,144.054 55.9301131,140.259 60.0191131,137.352 C68.5061131,131.379 77.8091131,126.627 87.5381131,123.522 C87.4751131,124.413 87.4481131,125.337 87.4151131,126.228 C72.1421131,131.511 52.6571131,140.292 45.6551131,155.97 C45.5651131,156.138 45.3821131,156.204 45.2321131,156.168 C42.3821131,169.704 38.6261131,182.94 32.0801131,195.021 C31.5041131,196.077 30.0191131,195.12 30.5651131,194.064 C43.1711131,169.077 45.4451131,141.018 51.7781131,113.85 C53.2931131,107.349 55.0211131,100.911 56.9621131,94.539 C62.0501131,77.805 68.5061131,61.728 76.2941131,46.446 C82.6571131,29.412 93.2951131,12.345 106.024113,5.68434189e-14 C106.780113,0.696 107.509113,1.455 108.175113,2.277 C102.055113,8.649 96.2051131,15.153 91.1111131,22.812 C87.9311131,27.597 85.1441131,32.547 82.5371131,37.599 C82.5371131,37.698 82.5671131,37.764 82.5071131,37.863 C81.2321131,40.275 80.0531131,42.714 78.8411131,45.159 C76.8101131,49.482 74.8991131,53.874 72.9911131,58.296 C72.9011131,58.494 72.7211131,58.428 72.6281131,58.263 C72.3251131,58.956 71.9891131,59.649 71.6891131,60.342 C83.2331131,48.954 100.207113,45.39 115.933113,44.565 C115.783113,45.72 115.630113,46.875 115.450113,47.997 C99.2951131,49.812 84.4751131,52.389 70.4471131,63.18 C62.6261131,81.402 56.3831131,100.383 52.1711131,120.123" id="Fill-52" fill="#1BA5B0"></path>
                                <path d="M57.0191131,94.377 C56.8091131,95.004 56.0501131,94.836 56.1101131,94.341 C57.4451131,81.6 55.6271131,68.496 51.8411131,56.415 C48.5051131,45.819 42.8081131,36.51 38.9591131,26.244 C39.4451131,25.749 39.9281131,25.254 40.4141131,24.792 C46.7771131,34.068 51.2621131,46.215 54.5051131,57.108 C58.1711131,69.486 59.2301131,81.567 57.0191131,94.377" id="Fill-53" fill="#1BA5B0"></path>
                            </g>
                        </g>
                    </g>
                    <g mask="url(#mask-2)">
                        <g transform="translate(190.501708, 35.507230)">
                            <path d="M57.3666365,62.2231945 C53.8866365,61.9831945 48.8466365,62.4031945 43.6866365,65.1031945 C38.5866365,67.7431945 35.5266365,71.5831945 33.8466365,74.2831945 C33.7266365,73.5631945 33.6666365,73.0231945 33.6066365,72.6631945 C29.0466365,70.6231945 23.2266365,67.0231945 20.2866365,60.7231945 C17.1066365,54.0631945 19.0866365,51.7831945 18.1866365,44.2231945 C17.4666365,38.1631945 -1.25336353,26.2831945 0.0666364671,19.3231945 C1.68663647,9.84319452 9.96663647,19.6231945 14.8266365,24.9631945 C40.1466365,52.3231945 0.786636467,-6.83680548 20.8866365,0.66319452 C26.5266365,2.76319452 28.7466365,27.6031945 37.3866365,31.3831945 C61.6866365,42.3031945 56.6466365,52.3831945 56.7066365,61.2031945 L57.3666365,62.2231945" id="Fill-236" stroke="none" fill="#F9B995" fill-rule="evenodd"></path>
                            <path d="M42.5947266,79.4677734 C41.4902344,84.6126302 40.5942383,87.1850586 39.9067383,87.1850586" id="Path-3" stroke="#535353" stroke-width="1.4" fill="none"></path>
                            <polygon id="Path" stroke="none" fill="#F9B995" fill-rule="evenodd" points="34.1660156 71.7795015 47.1440686 91.8222656 71.1660156 77.4290511 52.6660156 56.8222656 37.6129569 56.8222656"></polygon>
                            <path d="M365.326636,349.183195 C363.826636,350.923195 362.506636,351.883195 359.926636,353.923195 C335.326636,373.363195 306.886636,369.823195 281.326636,370.603195 C230.746636,372.103195 213.286636,389.983195 199.066636,388.423195 C196.306636,388.183195 193.606636,387.163195 190.846636,385.063195 C176.086636,374.083195 178.486636,341.803195 183.826636,277.603195 C184.306636,271.963195 184.780636,266.503195 185.380636,261.223195 C185.434636,260.563195 185.506636,259.903195 185.566636,259.243195 C185.866636,255.703195 186.220636,252.355195 186.640636,248.989195 C187.000636,245.569195 188.026636,237.643195 188.866636,230.863195 L188.986636,229.723195 C189.166636,228.523195 189.286636,227.383195 189.412636,226.363195 C189.706636,223.663195 190.066636,221.083195 190.426636,218.623195 C190.966636,215.263195 191.446636,212.023195 191.866636,209.083195 C184.606636,208.903195 174.586636,208.243195 162.826636,206.083195 C150.346636,203.803195 133.126636,200.683195 117.046636,191.503195 C101.446636,182.503195 108.106636,179.923195 71.5666365,140.803195 C61.7866365,130.303195 55.2594531,122.743195 49.4394531,105.823195 C47.1594531,99.0431945 42.8866365,90.9431945 42.4066365,86.8631945 C42.7066365,86.2631945 43.1866365,85.3631945 43.8466365,84.2831945 C45.5266365,81.5831945 48.5866365,77.7431945 53.6866365,75.1031945 C58.8466365,72.4031945 63.8866365,71.9831945 67.3666365,72.2231945 C69.4066365,72.3431945 70.9666365,72.6431945 71.6866365,72.8231945 C74.8666365,74.9231945 100.246636,102.643195 102.106636,105.823195 C108.346636,116.563195 126.226636,140.203195 147.706636,147.103195 C162.466636,151.843195 185.746636,144.463195 232.246636,129.643195 C234.226636,128.983195 244.846636,125.623195 259.066636,123.043195 C260.506636,122.803195 261.886636,122.563195 263.206636,122.323195 C271.066636,121.063195 275.926636,120.763195 278.566636,120.703195 C285.286636,120.523195 291.406636,120.943195 295.906636,121.423195 C297.346636,121.543195 298.546636,121.723195 299.626636,121.843195 C299.626636,121.843195 300.406636,121.903195 301.126636,122.023195 C316.246636,123.883195 334.606636,131.443195 334.606636,131.443195 C343.546636,135.763195 375.646636,151.783195 382.606636,155.323195 C373.126636,164.923195 363.652636,174.523195 354.226636,184.183195 C354.586636,189.403195 355.066636,195.883195 355.786636,203.323195 C355.846636,204.103195 355.912636,204.883195 356.026636,205.663195 C356.626636,211.243195 359.926636,241.063195 360.106636,242.923195 L360.226636,243.763195 L360.346636,244.843195 L360.454636,245.863195 C369.154636,314.263195 377.866636,334.303195 365.326636,349.183195 Z" id="Fill-237" stroke="none" fill="#E7DFDA" fill-rule="evenodd"></path>
                            <path d="M39.5947266,80.4677734 C35.6855469,82.1884766 34.382487,81.9391276 35.6855469,79.7197266 C37.6401367,76.390625 57.1538086,62.8618164 61,62.8618164 C63.5641276,62.8618164 63.5641276,63.8004557 61,65.6777344" id="Path-2" stroke="#242424" stroke-width="1.8" fill="none"></path>
                        </g>
                    </g>
                </g>
            </g>
        </g>
    </g>
</svg>