<?xml version="1.0" encoding="UTF-8"?>
<svg width="447px" height="216px" viewBox="0 0 447 216" version="1.1" xmlns="http://www.w3.org/2000/svg" xmlns:xlink="http://www.w3.org/1999/xlink">
    <!-- Generator: Sketch 61.2 (89653) - https://sketch.com -->
    <title>Group 2</title>
    <desc>Created with Sketch.</desc>
    <defs>
        <path d="M136.017459,323.464061 C153.346305,342.174552 196.101912,335.256161 239.336418,333.349902 C271.428263,331.934936 306.474609,338.756297 317.387029,331.987524 C343.000786,316.09978 331.381987,225.44295 330.253387,202.983081 C327.28739,143.99656 342.903606,-43.30793 317.973299,-84.9807457 C293.042993,-126.653561 251.645872,-104.347322 219.282603,-101.467898 C177.571444,-97.7567729 143.215218,-109.434521 128.88957,-84.8924044 C121.294595,-71.8810019 108.098814,0.499775761 125.834591,146.907855 C135.613455,227.631958 105.825863,290.86526 136.017459,323.464061 Z" id="path-1"></path>
    </defs>
    <g id="Page-1" stroke="none" stroke-width="1" fill="none" fill-rule="evenodd" transform="scale(2,2),translate(-100,-20)">
        <g id="depressed.nyc---take-action" transform="translate(-451.000000, -1521.000000)">
            <g id="action-copy" transform="translate(448.000000, 1266.000000)">
                <g id="Group-2" transform="translate(0.498292, 250.492770)">
                    <mask id="mask-2" fill="white">
                        <use xlink:href="#path-1"></use>
                    </mask>
                    <g mask="url(#mask-2)">
                        <g transform="translate(190.501708, 35.507230)">
                            <path d="M57.3666365,62.2231945 C53.8866365,61.9831945 48.8466365,62.4031945 43.6866365,65.1031945 C38.5866365,67.7431945 35.5266365,71.5831945 33.8466365,74.2831945 C33.7266365,73.5631945 33.6666365,73.0231945 33.6066365,72.6631945 C29.0466365,70.6231945 23.2266365,67.0231945 20.2866365,60.7231945 C17.1066365,54.0631945 19.0866365,51.7831945 18.1866365,44.2231945 C17.4666365,38.1631945 -1.25336353,26.2831945 0.0666364671,19.3231945 C1.68663647,9.84319452 9.96663647,19.6231945 14.8266365,24.9631945 C40.1466365,52.3231945 0.786636467,-6.83680548 20.8866365,0.66319452 C26.5266365,2.76319452 28.7466365,27.6031945 37.3866365,31.3831945 C61.6866365,42.3031945 56.6466365,52.3831945 56.7066365,61.2031945 L57.3666365,62.2231945" id="Fill-236" stroke="none" fill="#F9B995" fill-rule="evenodd"></path>
                            <path d="M42.5947266,79.4677734 C41.4902344,84.6126302 40.5942383,87.1850586 39.9067383,87.1850586" id="Path-3" stroke="#535353" stroke-width="1.4" fill="none"></path>
                            <polygon id="Path" stroke="none" fill="#F9B995" fill-rule="evenodd" points="34.1660156 71.7795015 47.1440686 91.8222656 71.1660156 77.4290511 52.6660156 56.8222656 37.6129569 56.8222656"></polygon>
                            <path d="M365.326636,349.183195 C363.826636,350.923195 362.506636,351.883195 359.926636,353.923195 C335.326636,373.363195 306.886636,369.823195 281.326636,370.603195 C230.746636,372.103195 213.286636,389.983195 199.066636,388.423195 C196.306636,388.183195 193.606636,387.163195 190.846636,385.063195 C176.086636,374.083195 178.486636,341.803195 183.826636,277.603195 C184.306636,271.963195 184.780636,266.503195 185.380636,261.223195 C185.434636,260.563195 185.506636,259.903195 185.566636,259.243195 C185.866636,255.703195 186.220636,252.355195 186.640636,248.989195 C187.000636,245.569195 188.026636,237.643195 188.866636,230.863195 L188.986636,229.723195 C189.166636,228.523195 189.286636,227.383195 189.412636,226.363195 C189.706636,223.663195 190.066636,221.083195 190.426636,218.623195 C190.966636,215.263195 191.446636,212.023195 191.866636,209.083195 C184.606636,208.903195 174.586636,208.243195 162.826636,206.083195 C150.346636,203.803195 133.126636,200.683195 117.046636,191.503195 C101.446636,182.503195 108.106636,179.923195 71.5666365,140.803195 C61.7866365,130.303195 55.2594531,122.743195 49.4394531,105.823195 C47.1594531,99.0431945 42.8866365,90.9431945 42.4066365,86.8631945 C42.7066365,86.2631945 43.1866365,85.3631945 43.8466365,84.2831945 C45.5266365,81.5831945 48.5866365,77.7431945 53.6866365,75.1031945 C58.8466365,72.4031945 63.8866365,71.9831945 67.3666365,72.2231945 C69.4066365,72.3431945 70.9666365,72.6431945 71.6866365,72.8231945 C74.8666365,74.9231945 100.246636,102.643195 102.106636,105.823195 C108.346636,116.563195 126.226636,140.203195 147.706636,147.103195 C162.466636,151.843195 185.746636,144.463195 232.246636,129.643195 C234.226636,128.983195 244.846636,125.623195 259.066636,123.043195 C260.506636,122.803195 261.886636,122.563195 263.206636,122.323195 C271.066636,121.063195 275.926636,120.763195 278.566636,120.703195 C285.286636,120.523195 291.406636,120.943195 295.906636,121.423195 C297.346636,121.543195 298.546636,121.723195 299.626636,121.843195 C299.626636,121.843195 300.406636,121.903195 301.126636,122.023195 C316.246636,123.883195 334.606636,131.443195 334.606636,131.443195 C343.546636,135.763195 375.646636,151.783195 382.606636,155.323195 C373.126636,164.923195 363.652636,174.523195 354.226636,184.183195 C354.586636,189.403195 355.066636,195.883195 355.786636,203.323195 C355.846636,204.103195 355.912636,204.883195 356.026636,205.663195 C356.626636,211.243195 359.926636,241.063195 360.106636,242.923195 L360.226636,243.763195 L360.346636,244.843195 L360.454636,245.863195 C369.154636,314.263195 377.866636,334.303195 365.326636,349.183195 Z" id="Fill-237" stroke="none" fill="#E7DFDA" fill-rule="evenodd"></path>
                            <path d="M39.5947266,80.4677734 C35.6855469,82.1884766 34.382487,81.9391276 35.6855469,79.7197266 C37.6401367,76.390625 57.1538086,62.8618164 61,62.8618164 C63.5641276,62.8618164 63.5641276,63.8004557 61,65.6777344" id="Path-2" stroke="#242424" stroke-width="1.8" fill="none"></path>
                        </g>
                    </g>
                </g>
            </g>
        </g>
    </g>
</svg>
