<?xml version="1.0" encoding="UTF-8"?>
<svg width="577px" height="374px" viewBox="0 0 577 374" version="1.1" xmlns="http://www.w3.org/2000/svg" xmlns:xlink="http://www.w3.org/1999/xlink">
    <!-- Generator: Sketch 59 (86127) - https://sketch.com -->
    <title>Group</title>
    <desc>Created with Sketch.</desc>
    <g id="Page-1" stroke="none" stroke-width="1" fill="none" fill-rule="evenodd">
        <g id="depressed.nyc---about" transform="translate(-685.000000, -243.000000)">
            <g id="Group" transform="translate(685.000000, 242.000000)">
                <path d="M436.093,107.009 C427.45,80.312 432.547,52.688 449.893,35.894 C460.441,25.682 472.822,22.085 480.139,20.684 C477.883,23.708 474.01,29.189 470.092,36.53 C459.13,57.062 460.105,69.14 449.581,88.046 C447.148,92.42 442.915,99.284 436.093,107.009" id="Fill-501" fill="#71C5C7"></path>
                <path d="M456.991,45.446 C451.447,55.172 446.857,65.462 443.383,76.07 C440.134,86.021 437.545,100.082 435.955,110.123 C433.819,123.731 431.98,141.428 430.687,161.282 C430.069,170.597 429.616,180.002 429.301,189.431 L428.071,189.431 C428.368,179.978 428.842,170.528 429.457,161.189 C430.753,141.293 432.568,123.572 434.728,109.919 C436.318,99.833 438.907,85.703 442.201,75.686 C445.699,65.009 450.313,54.626 455.923,44.834 C456.082,44.54 456.466,44.429 456.763,44.609 C457.06,44.768 457.174,45.155 456.991,45.446" id="Fill-502" fill="#1BA5B0"></path>
                <path d="M360.286,113.864 C375.589,102.899 386.23,105.116 388.777,105.764 C407.305,110.48 421.762,140.195 414.55,178.625 C403.924,168.554 398.038,158.96 394.642,152.132 C386.287,135.341 386.392,122.024 375.646,116.099 C370.183,113.087 364.27,113.288 360.286,113.864" id="Fill-503" fill="#71C5C7"></path>
                <path d="M416.806,189.431 L415.555,189.431 C415.078,185.84 414.556,182.273 413.941,178.73 C411.286,163.124 409.354,151.856 402.652,139.019 C399.154,132.341 394.792,126.05 389.701,120.323 C389.476,120.053 389.497,119.666 389.749,119.438 L390.61,119.483 C395.791,125.276 400.198,131.66 403.741,138.452 C410.557,151.445 412.486,162.806 415.171,178.526 C415.783,182.138 416.326,185.771 416.806,189.431" id="Fill-504" fill="#1BA5B0"></path>
                <path d="M374.416,0.959 C379.141,3.29 385.621,6.965 392.458,12.59 C396.469,15.887 410.845,28.016 418.756,47.615 C430.846,77.579 420.07,105.863 417.322,112.553 C415.201,110.81 412.012,108.008 408.574,104.177 C395.593,89.699 390.94,73.757 378.673,19.844 C377.431,14.384 375.994,8.039 374.416,0.959" id="Fill-505" fill="#71C5C7"></path>
                <path d="M422.53,189.431 L421.303,189.431 C420.418,167.756 419.212,146.177 417.667,125.141 C416.212,105.239 415.42,98.288 414.349,91.793 C410.761,69.917 403.969,48.584 394.156,28.436 C393.997,28.115 394.132,27.752 394.45,27.593 C394.747,27.455 395.11,27.569 395.269,27.89 C405.151,48.152 411.964,69.596 415.576,91.586 C416.647,98.129 417.463,105.104 418.918,125.051 C420.46,146.108 421.666,167.735 422.53,189.431" id="Fill-506" fill="#1BA5B0"></path>
                <path d="M435.868,170.342 C434.581,163.025 433.558,151.403 436.819,137.888 C442.648,113.744 458.341,99.377 464.473,94.313 C462.889,98.942 460.702,105.899 458.74,114.521 C455.371,129.338 455.977,134.909 453.301,143.474 C451.096,150.515 446.515,160.145 435.868,170.342" id="Fill-507" fill="#71C5C7"></path>
                <path d="M449.131,125.255 C444.448,137.747 440.635,150.674 437.839,163.712 C436.024,172.208 434.59,180.797 433.567,189.431 L432.343,189.431 C433.342,180.704 434.773,172.028 436.612,163.463 C439.432,150.356 443.248,137.36 447.97,124.82 C448.084,124.505 448.447,124.322 448.768,124.457 C449.083,124.571 449.245,124.937 449.131,125.255" id="Fill-508" fill="#1BA5B0"></path>
                <polyline id="Fill-509" fill="#E5CFB3" points="447.562 189.431 442.087 286.064 407.443 286.064 401.947 189.431 447.562 189.431"></polyline>
                <path d="M524.473,59.204 C532.888,60.251 538.027,65.993 538.813,66.899 C545.839,74.993 540.457,80.111 547.822,94.886 C550.021,99.296 552.613,103.058 552.688,109.076 C552.751,113.837 551.203,117.257 550.813,118.076 C547.936,124.154 542.554,126.965 539.581,128.462 C527.404,134.609 508.936,134.168 499.939,124.061 C499.036,123.041 496.258,119.846 495.112,114.989 C493.663,108.851 495.697,103.79 497.002,100.076 C504.472,78.812 498.22,72.569 505.999,65.153 C510.79,60.581 517.939,58.391 524.473,59.204" id="Fill-510" fill="#7A3563"></path>
                <path d="M541.093,86.339 C539.575,85.379 537.427,85.616 535.915,86.993 C530.668,83.531 525.046,79.376 519.31,74.399 C516.238,71.732 513.421,69.08 510.841,66.491 C505.957,72.632 504.49,78.344 503.965,81.443 C502.021,92.9 506.293,107.594 514.144,109.625 C514.948,109.832 516.115,109.997 517.633,109.754 C517.519,112.085 517.405,114.419 517.291,116.753 C514.927,117.023 512.74,117.38 510.733,117.8 C510.853,118.97 511.186,120.53 511.993,122.18 C513.286,124.79 515.113,126.23 515.563,126.59 C519.523,129.74 524.833,129.2 526.843,128.87 C526.906,128.87 527.176,128.81 527.473,128.75 C529.546,128.33 533.926,126.83 539.473,119.99 C537.85,119.15 536.254,118.334 534.631,117.494 C534.184,114.677 533.86,111.356 533.929,107.594 C534.022,102.572 534.772,98.291 535.594,94.982 C538.687,95.564 541.528,94.127 542.437,91.835 C543.07,90.242 543.037,87.566 541.093,86.339" id="Fill-511" fill="#F9B995"></path>
                <path d="M576.286,309.86 C575.863,310.43 575.176,310.43 575.083,310.43 C574.036,310.4 573.193,309.17 572.953,308.78 C570.676,305.27 568.093,301.28 565.123,298.04 C563.416,296.06 561.556,294.41 559.573,293.27 C557.473,292.07 555.253,291.47 553.483,291.17 C552.373,286.13 551.296,281.09 550.213,276.05 C551.443,275.69 552.763,275.27 554.113,274.73 C555.133,274.31 555.463,274.22 556.993,273.59 C560.113,272.27 562.273,271.4 563.926,272.45 C564.343,272.72 564.613,273.05 564.796,273.29 L576.493,308.39 C576.523,308.45 576.763,309.23 576.286,309.86" id="Fill-512" fill="#F9B995"></path>
                <path d="M554.203,294.47 C516.823,309.71 485.623,315.08 464.233,317.09 C434.203,319.91 419.296,316.55 411.733,306.11 C408.013,300.92 406.843,295.1 406.453,290.75 C404.233,290.33 397.906,288.53 394.333,282.92 C394.333,282.92 391.093,277.25 393.916,267.92 C400.156,247.37 480.796,226.37 487.666,224.6 C507.583,224.03 527.503,223.46 547.453,222.89 C548.953,226.37 558.436,249.05 546.943,267.65 C545.686,269.69 544.243,271.46 542.713,273.08 C544.993,273.11 547.273,273.11 549.583,273.14 C549.796,274.1 553.963,293.36 554.203,294.47" id="Fill-513" fill="#89ACBF"></path>
                <path d="M467.553987,296.06 C467.536,297.23 486.73,303.11 508.843,295.535 C524.476,290.177 535.726,280.094 542.308,273.077 C537.076,277.034 529.465,282.167 519.841,286.493 C491.107,299.417 467.569,294.764 467.553987,296.06" id="Fill-514" fill="#6E9BAF"></path>
                <path d="M549.493,221.57 C544.243,232.22 519.013,224.9 495.703,224.78 C493.906,224.78 489.013,224.78 486.133,221.54 C485.623,220.97 484.693,219.89 484.063,217.37 C483.286,214.25 483.406,210.29 483.703,205.61 C484.093,199.22 484.786,191.45 483.733,182.54 C482.833,174.89 483.013,170.06 484.786,164.03 C485.056,163.07 485.656,161.24 486.463,159.08 C488.233,154.4 489.973,151.49 491.416,148.34 C493.666,143.42 495.463,139.4 496.723,136.52 C496.813,136.34 496.813,136.31 496.936,136.01 C498.373,132.5 500.563,127.25 503.863,119.6 C504.805,119.192 505.93,118.778 507.223,118.439 C508.525,118.097 509.71,117.905 510.733,117.8 C510.841,118.856 511.138,120.443 511.993,122.18 C512.35,122.9 513.304,124.664 515.155,126.251 L515.563,126.59 C519.523,129.74 524.833,129.2 526.843,128.87 L527.473,128.75 C530.035,128.198 531.793,127.043 532.975,126.245 C536.224,124.061 538.615,121.1 539.473,119.99 C541.714,121.25 543.952,122.51 546.193,123.77 C545.623,124.328 544.453,125.48 544.426,125.51 C544.186,125.75 541.513,128.57 539.563,132.47 C530.983,149.57 532.633,160.07 532.633,160.07 C533.176,163.7 533.926,167.57 537.253,170.54 C541.306,174.17 546.373,173.69 547.633,173.51 C547.666,174.59 547.723,175.64 547.786,176.66 C548.143,184.55 548.713,190.85 549.193,195.35 C549.583,199.04 550.036,202.82 550.156,208.25 C550.306,215.93 550.393,219.77 549.493,221.57" id="Fill-515" fill="#FA466C"></path>
                <g id="face" transform="translate(505.133234, 77.605715)">
                    <path d="M4.45676562,8.38828471 C4.47476562,9.90628471 3.66176562,11.1482847 2.63576562,11.1602847 C1.60976562,11.1722847 0.763765624,9.95128471 0.745765624,8.43328471 C0.727765624,6.91528471 1.54676562,5.67328471 2.56976562,5.66128471 C3.59276562,5.64928471 4.43876562,6.87028471 4.45676562,8.38828471" id="Fill-516" fill="#352F31"></path>
                    <path d="M18.7277656,8.55628471 C18.6077656,10.0712847 17.6807656,11.2292847 16.6607656,11.1512847 C15.6407656,11.0702847 14.9087656,9.77728471 15.0287656,8.26528471 C15.1487656,6.75028471 16.0727656,5.58628471 17.0927656,5.67028471 C18.1157656,5.75128471 18.8477656,7.04428471 18.7277656,8.55628471" id="Fill-517" fill="#352F31"></path>
                    <path d="M21.586775,3.40528471 C21.5927656,2.18128471 18.7217656,1.38928471 17.8847656,1.14328471 C17.0567656,0.900284711 15.2807656,0.375284711 14.6687656,1.11628471 C14.5307656,1.28128471 14.3987656,1.57528471 14.4647656,1.84828471 C14.5787656,2.29828471 15.1787656,2.49028471 15.4397656,2.58028471 C18.9107656,3.72928471 20.5367656,4.86328471 21.3137656,4.04728471 C21.3527656,4.00828471 21.586775,3.75328471 21.586775,3.40528471" id="Fill-518" fill="#7A3563"></path>
                    <path d="M10.3517656,17.8142847 C9.12476562,17.4512847 7.21076562,16.6352847 6.95276562,15.0722847 C6.85076562,14.4332847 7.05176562,13.9592847 7.58276562,12.6992847 L7.68776562,12.4382847 C8.30876562,10.9742847 8.77976562,9.77728471 9.08876562,8.99128471 L9.57476562,8.78128471 L9.78776562,9.26728471 C9.47576562,10.0532847 9.00176562,11.2562847 8.38376562,12.7292847 L8.27276562,12.9902847 C7.75976562,14.2082847 7.62776562,14.5412847 7.69376562,14.9492847 C7.88576562,16.1162847 9.51476562,16.7852847 10.4627656,17.0822847 L10.7117656,17.5502847 L10.3517656,17.8142847" id="Fill-519" fill="#F2856B"></path>
                    <path d="M0.00776562408,1.86028471 C0.175765624,0.705284711 2.99876562,0.354284711 3.82076562,0.240284711 C4.63976562,0.126284711 6.39176562,-0.119715289 6.86576562,0.666284711 L6.95276562,1.38328471 C6.78476562,1.79428471 6.18776562,1.89328471 5.92976562,1.94128471 C2.49476562,2.54428471 0.799765624,3.38728471 0.178765624,2.50828471 C0.148765624,2.46328471 -0.0402343759,2.19328471 0.00776562408,1.86028471" id="Fill-520" fill="#7A3563"></path>
                    <path d="M4.32776562,21.4892847 L4.39076562,21.8792847 L4.48076562,22.0322847 C4.80776562,23.0522847 5.80076562,24.3392847 7.08776562,25.0892847 C9.16076562,26.2622847 11.3177656,25.5422847 11.6207656,25.4522847 C13.2407656,24.8792847 14.5577656,23.5322847 15.0677656,22.4522847 L15.3377656,21.6722847 L15.2807656,21.0722847 C14.8607656,20.3222847 13.2407656,21.2192847 9.37076562,21.0122847 C6.18776562,20.8322847 4.93076562,20.0822847 4.44776562,20.7392847 C4.32776562,20.9222847 4.30076562,21.1922847 4.32776562,21.4892847" id="Fill-521" fill="#DA6249"></path>
                    <path d="M4.32776562,21.4892847 C5.43776562,21.9122847 6.85076562,22.3022847 8.55776562,22.4522847 C11.5007656,22.7192847 13.9007656,22.1522847 15.3377656,21.6722847 L15.2807656,21.0722847 C14.8607656,20.3222847 13.2407656,21.2192847 9.37076562,21.0122847 C6.18776562,20.8322847 4.93076562,20.0822847 4.44776562,20.7392847 C4.32776562,20.9222847 4.30076562,21.1922847 4.32776562,21.4892847" id="Fill-522" fill="#FFFFFF"></path>
                </g>
                <path d="M503.863,119.6 C500.563,127.25 498.373,132.5 496.936,136.01 C496.813,136.31 496.813,136.34 496.723,136.52 C495.463,139.4 493.666,143.42 491.416,148.34 C489.973,151.49 488.233,154.4 486.463,159.08 C486.796,156.47 488.743,141.65 492.556,131.57 C493.393,129.38 494.296,127.79 495.223,126.56 C496.306,125.15 497.353,124.19 498.046,123.56 C499.306,122.42 501.223,120.92 503.863,119.6" id="Fill-523" fill="#F9B995"></path>
                <path d="M406.387,290.69 C406.423,288.752 406.699,285.812 408.022,282.617 C412.045,272.903 422.737,269.177 439.825,261.836 C446.194,259.1 450.937,257.876 462.34,253.145 C465.223,251.948 467.581,250.937 469.141,250.265 C477.172,246.836 483.157,244.601 484.483,244.349 C485.659,244.127 486.742,244.391 486.742,244.391 C487.141,244.487 487.738,244.628 487.792,244.814 C488.185,246.212 477.028,250.166 468.742,253.64 C430.822,269.549 418.762,272.105 410.47,283.688 C408.352,286.646 407.041,289.283 406.387,290.69" id="Fill-524" fill="#6E9BAF"></path>
                <path d="M489.796,224 C489.046,223.76 488.353,223.4 487.633,222.89 C485.713,221.54 484.633,219.68 484.063,217.37 C483.286,214.25 483.406,210.29 483.703,205.61 C477.853,211.61 463.393,218.75 459.703,220.58 C455.233,222.77 450.406,224.87 450.406,224.87 C446.983,226.34 444.022,227.549 441.712,228.419 C439.666,229.202 437.314,230.363 434.938,232.202 C430.576,235.583 425.5,241.751 427.099,244.532 C427.96,246.032 430.489,246.071 430.813,246.077 C432.478,246.104 433.681,245.381 437.563,242.576 C441.874,239.471 443.668,238.001 444.565,238.577 C445.459,239.153 444.73,241.283 445.939,241.952 C446.581,242.309 447.361,242.027 447.565,241.952 C449.053,241.418 450.061,239.426 450.4,237.281 L450.523,237.41 C463.603,232.94 476.713,228.47 489.796,224" id="Fill-525" fill="#F9B995"></path>
                <path d="M490.813,220.67 L496.831,220.352 C498.727,220.253 500.188,218.633 500.086,216.734 L499.264,201.137 C499.165,199.241 497.545,197.783 495.649,197.882 L489.628,198.2 C487.729,198.302 486.274,199.922 486.373,201.815 L487.192,217.415 C487.297,219.314 488.914,220.769 490.813,220.67" id="Fill-526" fill="#89ACBF"></path>
                <path d="M486.169,221.189 L492.109,220.172 C493.981,219.848 495.241,218.069 494.92,216.197 L492.28,200.804 C491.956,198.932 490.18,197.675 488.308,197.993 L482.365,199.013 C480.493,199.334 479.236,201.113 479.557,202.985 L482.194,218.381 C482.518,220.253 484.297,221.51 486.169,221.189" id="Fill-527" fill="#F9E4CF"></path>
                <path d="M574.306,197.27 C570.523,179.6 568.363,174.02 563.833,156.71 C561.463,147.65 560.563,143.63 557.443,137.78 C555.703,134.51 552.583,128.81 546.193,123.77 C545.623,124.328 544.453,125.48 544.426,125.51 C544.186,125.75 541.513,128.57 539.563,132.47 C530.983,149.57 532.633,160.07 532.633,160.07 C533.176,163.7 533.926,167.57 537.253,170.54 C541.306,174.17 546.373,173.69 547.633,173.51 C548.815,178.385 550.108,182.279 551.098,185 C552.136,187.841 556.933,200.621 555.193,204.56 C554.941,205.13 554.593,205.61 554.593,205.61 C553.786,206.63 552.166,207.53 550.156,208.25 C544.723,210.38 536.623,211.58 534.853,211.82 C523.666,213.41 509.203,217.46 506.113,214.64 C505.906,214.43 505.036,213.59 503.623,212.87 C502.186,212.15 500.833,211.91 499.813,211.82 C499.906,213.11 499.963,214.43 500.023,215.75 C498.166,216.53 495.373,217.46 491.926,217.55 C487.873,217.67 485.623,216.62 484.063,217.37 L483.556,217.67 C481.873,219.05 482.113,223.1 483.583,225.41 C486.556,230.15 496.393,230.42 508.243,226.79 C525.286,229.31 538.993,227.87 548.056,226.19 C559.786,224 572.233,221.54 575.686,212.93 C576.676,210.41 576.676,208.37 574.306,197.27" id="Fill-528" fill="#F9B995"></path>
                <path d="M27.073,271.85 C25.993,276.86 24.916,281.93 23.806,286.97 C22.036,287.27 19.813,287.87 17.713,289.07 C15.733,290.21 13.873,291.89 12.166,293.84 C9.193,297.08 6.613,301.1 4.333,304.58 C4.093,304.97 3.253,306.2 2.203,306.23 C2.113,306.23 1.426,306.23 1.003,305.69 C0.523,305.03 0.763,304.28 0.796,304.19 L12.493,269.09 C12.676,268.88 12.943,268.52 13.363,268.25 C15.013,267.2 17.176,268.1 20.296,269.39 C21.823,270.02 22.156,270.14 23.176,270.53 C24.523,271.07 25.843,271.49 27.073,271.85" id="Fill-529" fill="#F9B995"></path>
                <path d="M182.953,278.72 C179.383,284.33 173.053,286.13 170.83,286.55 C170.47,290.9 169.273,296.72 165.556,301.91 C157.993,312.38 143.083,315.74 113.056,312.89 C91.666,310.88 60.463,305.51 23.083,290.27 C23.323,289.16 27.493,269.93 27.703,268.97 C30.013,268.94 32.296,268.91 34.573,268.88 C33.046,267.26 31.603,265.49 30.343,263.45 C24.223,253.55 24.046,242.51 25.453,233.81 C27.286,233.96 30.046,233.21 36.343,231.59 C41.563,230.24 46.843,229.19 52.003,227.66 C73.363,221.27 88.186,230.33 95.323,222.23 L95.503,221.99 C115.723,227.48 177.916,245.81 183.373,263.72 C186.193,273.05 182.953,278.72 182.953,278.72" id="Fill-530" fill="#C4ABB0"></path>
                <path d="M170.83,286.55 C170.797,284.612 170.515,281.672 169.192,278.477 C165.175,268.76 154.48,265.034 137.392,257.693 C131.02,254.957 126.28,253.733 114.874,249.005 C111.991,247.811 109.633,246.8 108.076,246.125 C100.045,242.693 94.06,240.458 92.731,240.209 C91.558,239.987 90.472,240.251 90.472,240.251 C90.073,240.347 89.479,240.485 89.425,240.677 C89.032,242.072 100.189,246.026 108.472,249.5 C146.392,265.406 158.455,267.962 166.744,279.548 C168.862,282.506 170.179,285.143 170.83,286.55" id="Fill-531" fill="#AD979C"></path>
                <path d="M109.735013,291.869 C109.753,293.042 90.562,298.922 68.446,291.341 C52.813,285.986 41.563,275.906 34.984,268.889 C40.21,272.843 47.824,277.976 57.448,282.305 C86.185,295.223 109.717,290.57 109.735013,291.869" id="Fill-532" fill="#AD979C"></path>
                <path d="M193.063,168.71 C187.453,172.22 186.676,172.13 180.193,171.41 C159.943,169.13 119.296,212.12 94.426,176.48 C94.036,170.09 93.763,164.66 93.583,160.34 C95.143,159.98 96.973,159.41 98.926,158.48 C101.056,157.49 102.796,156.29 104.203,155.15 C105.973,160.04 109.573,166.67 116.593,170.06 C117.916,170.72 118.963,171.11 119.833,171.29 C124.546,172.37 130.603,170.45 153.166,166.34 C169.633,163.34 166.633,161 174.223,157.22 C176.473,156.11 183.853,154.4 184.666,156.26 C186.286,159.14 177.523,160.52 177.463,161.72 C177.436,162.77 183.883,165.89 189.406,163.73 C198.436,160.25 199.003,159.02 200.536,159.41 C205.036,160.52 196.963,166.19 193.063,168.71" id="Fill-533" fill="#F9B995"></path>
                <path d="M98.656,134.36 C91.573,124.52 82.036,119.9 75.796,116.84 C71.833,114.92 68.383,113.66 65.926,112.88 C60.103,112.64 54.253,112.4 48.436,112.16 C40.333,114.77 30.313,119.54 21.916,128.21 C17.713,132.56 15.493,136.25 14.893,137.27 C10.036,145.52 8.953,153.5 8.686,158.15 C8.983,158.21 9.313,158.27 9.643,158.3 C13.963,159.05 18.643,159.62 23.686,159.95 C25.951,160.088 28.159,160.172 30.28,160.205 L30.193,160.43 C22.993,182.24 20.503,199.82 19.573,211.94 C18.916,220.43 18.703,230.78 23.773,233.36 C24.286,233.63 24.823,233.78 25.453,233.81 C27.286,233.96 30.046,233.21 36.343,231.59 C41.563,230.24 46.843,229.19 52.003,227.66 C73.363,221.27 88.186,230.33 95.323,222.23 L95.503,221.99 C98.503,218.39 97.573,214.07 96.133,198.26 C95.383,190.16 94.843,182.84 94.426,176.48 C94.036,170.09 93.763,164.66 93.583,160.34 C95.143,159.98 96.973,159.41 98.926,158.48 C101.056,157.49 102.796,156.29 104.203,155.15 C105.103,154.43 105.883,153.71 106.513,153.08 C104.806,143.93 101.083,137.75 98.656,134.36" id="Fill-534" fill="#7895A4"></path>
                <path d="M69.463,108.26 C68.023,108.53 66.763,108.32 65.983,108.14 C65.953,109.73 65.953,111.29 65.926,112.88 C63.556,116.45 59.383,118.31 55.426,117.62 C50.806,116.81 48.556,112.91 48.253,112.34 C48.343,110.33 48.436,108.32 48.493,106.28 C49.306,105.65 49.483,104.81 50.863,103.43 C51.973,102.32 52.393,102.35 53.023,101.69 C54.223,100.46 55.963,93.95 53.263,92.12 C51.733,91.1 50.233,92.54 48.733,91.34 C47.383,90.26 46.843,87.68 47.983,86.15 C48.883,84.98 50.536,84.83 50.713,84.83 C52.003,84.74 52.393,85.4 53.113,85.16 C54.676,84.65 54.823,80.93 54.823,79.94 C54.853,76.04 53.353,74.33 54.373,73.16 C54.823,72.65 55.123,72.95 58.123,72.32 C60.643,71.81 61.036,71.45 62.503,71.39 C64.003,71.33 64.306,71.66 65.893,71.84 C69.313,72.17 69.676,70.52 73.453,70.82 C75.463,71 76.843,71.51 78.676,70.79 C80.623,74.99 81.223,78.56 81.463,80.81 C82.666,92.36 77.443,106.73 69.463,108.26" id="Fill-535" fill="#F9B995"></path>
                <path d="M81.223,68.96 C80.863,69.35 80.056,70.22 78.763,70.76 C76.843,71.51 75.463,71 73.453,70.82 C69.676,70.52 69.313,72.17 65.893,71.84 C64.306,71.66 64.003,71.33 62.503,71.39 C61.036,71.45 60.643,71.81 58.123,72.32 C55.123,72.95 54.823,72.65 54.373,73.16 C53.353,74.33 54.853,76.04 54.823,79.94 C54.823,80.93 54.676,84.65 53.113,85.16 C52.393,85.4 52.003,84.74 50.713,84.83 C50.536,84.83 48.883,84.98 47.983,86.15 C46.843,87.68 47.383,90.26 48.733,91.34 C50.233,92.54 51.733,91.1 53.263,92.12 C55.963,93.95 54.223,100.46 53.023,101.69 C52.393,102.35 51.973,102.32 50.863,103.43 C49.483,104.81 49.306,105.65 48.493,106.28 L48.046,106.58 C46.603,107.39 45.073,107.06 44.863,107.03 C42.823,106.58 41.806,104.78 41.473,104.18 C40.453,102.41 41.023,101.57 40.426,99.32 C39.613,96.47 38.383,96.8 37.243,93.95 C35.893,90.56 36.436,87.08 36.676,85.58 C37.063,82.97 37.603,82.76 37.633,80.63 C37.666,78.38 37.093,77.87 36.703,75.32 C36.406,73.01 35.833,69.77 37.426,67.1 C38.536,65.18 39.613,65.33 41.833,62.48 C43.906,59.81 43.306,59.21 44.743,57.77 C47.623,54.92 52.243,55.04 54.103,55.07 C58.306,55.16 58.453,56.66 61.753,56.21 C64.873,55.76 65.536,54.35 68.563,54.5 C70.363,54.59 70.393,55.1 73.243,55.49 C76.546,55.97 76.936,55.34 78.493,55.91 C80.806,56.75 82.453,59.12 83.023,61.4 C83.743,64.28 82.813,67.13 81.223,68.96" id="Fill-536" fill="#A25F4C"></path>
                <path d="M90.847,199.439 L84.943,198.56 C83.05,198.278 81.739,196.511 82.021,194.615 L84.31,179.225 C84.592,177.329 86.356,176.021 88.252,176.306 L94.156,177.182 C96.052,177.461 97.36,179.228 97.078,181.124 L94.792,196.514 C94.507,198.41 92.743,199.718 90.847,199.439" id="Fill-537" fill="#F9E4CF"></path>
                <path d="M95.422,200.393 L89.662,198.827 C87.811,198.326 86.716,196.424 87.22,194.57 L91.291,179.555 C91.792,177.704 93.697,176.612 95.551,177.113 L101.311,178.676 C103.159,179.177 104.251,181.082 103.75,182.933 L99.679,197.948 C99.178,199.802 97.27,200.894 95.422,200.393" id="Fill-538" fill="#89ACBF"></path>
                <path d="M98.503,202.16 C95.926,207.11 86.113,208.16 74.023,205.52 C57.223,209.39 43.483,209.09 34.306,208.13 C22.426,206.93 9.823,205.46 5.713,197.15 C4.393,194.51 4.393,191.99 5.806,181.46 C7.036,172.28 8.416,164.42 9.643,158.3 C13.963,159.05 18.643,159.62 23.686,159.95 C26.143,160.1 28.546,160.19 30.823,160.22 C29.143,167.48 27.643,173.33 26.503,177.53 C25.093,182.81 24.436,185.06 25.603,187.37 C26.233,188.6 27.193,189.44 29.893,190.22 C32.593,191.03 37.036,191.78 44.656,192.86 C63.676,194.51 71.713,195.71 75.406,192.83 C75.823,192.53 77.233,191.33 79.483,190.43 C80.773,189.89 81.943,189.65 82.753,189.5 C82.546,190.82 82.363,192.17 82.156,193.49 C83.833,194.18 86.383,195.02 89.563,194.99 C94.003,194.93 96.193,193.25 97.906,194.42 C99.703,195.68 99.763,199.73 98.503,202.16" id="Fill-539" fill="#F9B995"></path>
                <g id="face" transform="translate(58.632537, 76.644377)">
                    <path d="M17.4184628,8.08362329 C17.3434628,9.59862329 18.1144628,10.8706233 19.1374628,10.9186233 C20.1604628,10.9696233 21.0514628,9.78162329 21.1234628,8.26362329 C21.1954628,6.74562329 20.4304628,5.47662329 19.4044628,5.42562329 C18.3814628,5.37762329 17.4904628,6.56562329 17.4184628,8.08362329" id="Fill-540" fill="#352F31"></path>
                    <path d="M3.1504628,7.72662329 C3.2134628,9.24462329 4.0954628,10.4356233 5.1214628,10.3966233 C6.1444628,10.3516233 6.9244628,9.08562329 6.8584628,7.57062329 C6.7954628,6.05262329 5.9134628,4.85862329 4.8904628,4.90362329 C3.8644628,4.94262329 3.0874628,6.20862329 3.1504628,7.72662329" id="Fill-541" fill="#352F31"></path>
                    <path d="M0.000462803453,2.45262329 C0.0424628035,1.23162329 2.9374628,0.54462329 3.7864628,0.32862329 C4.6234628,0.11862329 6.4174628,-0.33737671 7.0024628,0.42162329 C7.1344628,0.59262329 7.2544628,0.88962329 7.1764628,1.16262329 C7.0474628,1.60362329 6.4354628,1.78062329 6.1744628,1.85562329 C2.6674628,2.87862329 0.999462803,3.95262329 0.252462803,3.10662329 C0.213462803,3.06462329 -0.0115371965,2.80062329 0.000462803453,2.45262329" id="Fill-542" fill="#A25F4C"></path>
                    <path d="M11.1814628,17.2876233 L10.8304628,17.0116233 L11.0944628,16.5466233 C12.0544628,16.2916233 13.7074628,15.6796233 13.9414628,14.5216233 C14.0254628,14.1166233 13.9054628,13.7776233 13.4374628,12.5476233 L13.3354628,12.2776233 C12.7714628,10.7836233 12.3394628,9.55962329 12.0604628,8.76462329 L12.2914628,8.28762329 L12.7684628,8.51562329 C13.0474628,9.30762329 13.4764628,10.5256233 14.0374628,12.0136233 L14.1394628,12.2836233 C14.6224628,13.5556233 14.8054628,14.0356233 14.6764628,14.6686233 C14.3644628,16.2256233 12.4234628,16.9696233 11.2924628,17.2756233 L11.1814628,17.2876233" id="Fill-543" fill="#F2856B"></path>
                    <path d="M22.0114628,2.68062329 C21.9904628,1.51362329 19.2334628,0.81462329 18.4294628,0.59562329 C17.6344628,0.38262329 15.9274628,-0.0823767098 15.3544628,0.63762329 L15.1804628,1.33962329 C15.2974628,1.76562329 15.8764628,1.93962329 16.1254628,2.01762329 C19.4584628,3.04662329 21.0364628,4.09662329 21.7624628,3.29862329 C21.7984628,3.26262329 22.0174628,3.01662329 22.0114628,2.68062329" id="Fill-544" fill="#A25F4C"></path>
                    <path d="M17.0614628,21.1816233 L16.9894628,21.5686233 L16.8934628,21.7156233 C16.5274628,22.7236233 15.4894628,23.9746233 14.1754628,24.6766233 C12.0604628,25.7716233 9.9304628,24.9706233 9.6334628,24.8716233 C8.0344628,24.2416233 6.7654628,22.8436233 6.2974628,21.7456233 C6.1564628,21.4696233 6.0754628,21.1966233 6.0544628,20.9566233 L6.1354628,20.3596233 C6.5824628,19.6246233 8.1694628,20.5846233 12.0454628,20.5186233 C15.2284628,20.4526233 16.5154628,19.7506233 16.9714628,20.4256233 C17.0824628,20.6116233 17.1034628,20.8846233 17.0614628,21.1816233" id="Fill-545" fill="#DA6249"></path>
                    <path d="M17.0614628,21.1816233 C15.9364628,21.5596233 14.5144628,21.8986233 12.8014628,21.9856233 C9.8524628,22.1476233 7.4764628,21.4906233 6.0544628,20.9566233 L6.1354628,20.3596233 C6.5824628,19.6246233 8.1694628,20.5846233 12.0454628,20.5186233 C15.2284628,20.4526233 16.5154628,19.7506233 16.9714628,20.4256233 C17.0824628,20.6116233 17.1034628,20.8846233 17.0614628,21.1816233" id="Fill-546" fill="#FFFFFF"></path>
                </g>
                <path d="M381.598,214.928 C380.74,215.324 379.882,215.723 379.027,216.122 L318.868,265.733 L100.189,265.733 C97.081,265.733 94.537,268.28 94.537,271.388 L94.576,271.781 C93.859,288.593 93.922,301.25 94.084,309.488 C94.177,313.94 94.36,320.321 97.264,322.721 C98.917,324.086 101.278,324.02 102.874,322.502 C105.622,319.886 105.262,313.52 105.442,310.073 C106.054,298.481 106.069,286.52 105.931,277.046 L314.923,277.046 C314.491,291.245 314.554,302.138 314.698,309.488 C314.791,313.94 314.974,320.321 317.878,322.721 C319.531,324.086 321.892,324.02 323.488,322.502 C326.236,319.886 325.876,313.52 326.059,310.073 C326.731,297.242 326.683,283.958 326.494,274.106 C341.143,262.025 355.789,249.944 370.438,237.866 C370.318,248.717 370.468,257.261 370.654,263.363 C370.789,267.815 371.038,274.193 373.963,276.563 C375.631,277.916 377.992,277.82 379.57,276.29 C382.942,273.011 382.015,263.834 382.015,263.834 C380.923,255.278 380.863,238.931 381.598,214.928" id="Fill-547" fill="#BA7C6D"></path>
                <polyline id="Fill-548" fill="#F7C28C" points="320.317 265.733 98.611 265.733 195.844 214.928 381.598 214.928 320.317 265.733"></polyline>
                <path d="M147.763,254.18 L147.763,255.35 C147.613,256.16 145.213,256.82 142.306,256.82 C139.393,256.82 137.023,256.16 136.873,255.35 L136.813,254.18 C136.813,255.05 139.273,255.74 142.306,255.74 C145.333,255.74 147.763,255.05 147.763,254.18" id="Fill-549" fill="#BF3A3A"></path>
                <path d="M147.763,254.18 C147.763,255.05 145.333,255.74 142.306,255.74 C139.273,255.74 136.813,255.05 136.813,254.18 C136.813,253.31 139.273,252.62 142.306,252.62 C145.333,252.62 147.763,253.31 147.763,254.18" id="Fill-550" fill="#D5514D"></path>
                <path d="M182.143,258.71 L182.143,259.88 C181.936,260.69 179.593,261.35 176.656,261.35 C173.743,261.35 171.406,260.69 171.223,259.88 L171.193,258.71 C171.193,259.58 173.656,260.27 176.656,260.27 C179.686,260.27 182.143,259.58 182.143,258.71" id="Fill-551" fill="#6E9BAF"></path>
                <path d="M182.143,258.71 C182.143,259.58 179.686,260.27 176.656,260.27 C173.656,260.27 171.193,259.58 171.193,258.71 C171.193,257.84 173.656,257.15 176.656,257.15 C179.686,257.15 182.143,257.84 182.143,258.71" id="Fill-552" fill="#89ACBF"></path>
                <path d="M318.763,257.93 L318.763,259.1 C318.613,259.91 316.213,260.57 313.306,260.57 C310.393,260.57 308.023,259.91 307.873,259.1 L307.813,257.93 C307.813,258.8 310.273,259.49 313.306,259.49 C316.333,259.49 318.763,258.8 318.763,257.93" id="Fill-553" fill="#BF3A3A"></path>
                <path d="M318.763,257.93 C318.763,258.8 316.333,259.49 313.306,259.49 C310.273,259.49 307.813,258.8 307.813,257.93 C307.813,257.06 310.273,256.37 313.306,256.37 C316.333,256.37 318.763,257.06 318.763,257.93" id="Fill-554" fill="#D5514D"></path>
                <path d="M300.943,258.08 L300.943,259.25 C300.733,260.06 298.393,260.72 295.483,260.72 C292.573,260.72 290.203,260.06 290.023,259.25 L289.993,258.08 C289.993,258.95 292.453,259.67 295.483,259.67 C298.483,259.67 300.943,258.95 300.943,258.08" id="Fill-555" fill="#E5CFB3"></path>
                <path d="M300.943,258.08 C300.943,258.95 298.483,259.67 295.483,259.67 C292.453,259.67 289.993,258.95 289.993,258.08 C289.993,257.24 292.453,256.52 295.483,256.52 C298.483,256.52 300.943,257.24 300.943,258.08" id="Fill-556" fill="#F9E4CF"></path>
                <path d="M204.073,222.38 L204.073,223.52 C203.863,224.36 201.523,225.02 198.613,225.02 C195.676,225.02 193.333,224.36 193.156,223.52 L193.123,222.38 C193.123,223.25 195.583,223.94 198.613,223.94 C201.613,223.94 204.073,223.25 204.073,222.38" id="Fill-557" fill="#BF3A3A"></path>
                <path d="M204.073,222.38 C204.073,223.25 201.613,223.94 198.613,223.94 C195.583,223.94 193.123,223.25 193.123,222.38 C193.123,221.51 195.583,220.82 198.613,220.82 C201.613,220.82 204.073,221.51 204.073,222.38" id="Fill-558" fill="#D5514D"></path>
                <path d="M150.523,252.08 L150.523,253.25 C150.343,254.06 147.973,254.72 145.063,254.72 C142.156,254.72 139.786,254.06 139.603,253.25 L139.573,252.08 C139.573,252.95 142.036,253.67 145.063,253.67 C148.063,253.67 150.523,252.95 150.523,252.08" id="Fill-559" fill="#6E9BAF"></path>
                <path d="M150.523,252.08 C150.523,252.95 148.063,253.67 145.063,253.67 C142.036,253.67 139.573,252.95 139.573,252.08 C139.573,251.24 142.036,250.52 145.063,250.52 C148.063,250.52 150.523,251.24 150.523,252.08" id="Fill-560" fill="#89ACBF"></path>
                <path d="M163.273,255.23 L163.273,256.37 C163.093,257.18 160.723,257.84 157.813,257.84 C154.906,257.84 152.536,257.18 152.353,256.37 L152.323,255.23 C152.323,256.1 154.786,256.79 157.813,256.79 C160.813,256.79 163.273,256.1 163.273,255.23" id="Fill-561" fill="#E5CFB3"></path>
                <path d="M163.273,255.23 C163.273,256.1 160.813,256.79 157.813,256.79 C154.786,256.79 152.323,256.1 152.323,255.23 C152.323,254.36 154.786,253.67 157.813,253.67 C160.813,253.67 163.273,254.36 163.273,255.23" id="Fill-562" fill="#F9E4CF"></path>
                <path d="M321.943,255.74 L321.943,256.91 C321.733,257.72 319.393,258.38 316.483,258.38 C313.573,258.38 311.203,257.72 311.023,256.91 L310.993,255.74 C310.993,256.61 313.453,257.33 316.483,257.33 C319.513,257.33 321.943,256.61 321.943,255.74" id="Fill-563" fill="#6E9BAF"></path>
                <path d="M321.943,255.74 C321.943,256.61 319.513,257.33 316.483,257.33 C313.453,257.33 310.993,256.61 310.993,255.74 C310.993,254.9 313.453,254.18 316.483,254.18 C319.513,254.18 321.943,254.9 321.943,255.74" id="Fill-564" fill="#89ACBF"></path>
                <polyline id="Fill-565" fill="#89ACBF" points="343.963 229.46 317.773 251.18 155.743 251.18 197.323 229.46 343.963 229.46"></polyline>
                <path d="M313.753,244.1 L185.113,244.1 L206.656,232.85 L327.313,232.85 L313.753,244.1 Z M329.383,232.1 L332.593,229.46 L331.426,229.46 L328.213,232.1 L208.093,232.1 L213.133,229.46 L211.513,229.46 L206.473,232.1 L192.286,232.1 L190.843,232.85 L205.036,232.85 L183.523,244.1 L169.306,244.1 L167.863,244.85 L182.083,244.85 L169.936,251.18 L171.556,251.18 L183.703,244.85 L312.823,244.85 L305.203,251.18 L306.373,251.18 L314.023,244.85 L325.393,244.85 L326.323,244.1 L314.926,244.1 L328.483,232.85 L339.883,232.85 L340.786,232.1 L329.383,232.1 L329.383,232.1 Z" id="Fill-566" fill="#F9E4CF"></path>
                <path d="M336.823,258.23 C334.036,269 331.426,277.52 329.563,283.34 C328.036,288.08 326.953,291.14 326.863,293.78 C324.796,293.57 322.633,293.48 320.416,293.45 C321.253,288.95 326.023,263.81 327.613,255.8 C328.273,256.55 329.203,257.3 330.436,257.84 C333.406,259.19 336.133,258.44 336.823,258.23" id="Fill-567" fill="#F9B995"></path>
                <path d="M212.383,363.2 C212.863,360.77 212.296,357.98 210.763,356.24 C209.893,355.25 208.786,354.68 207.373,354.41 C219.583,350.39 231.796,346.34 244.003,342.32 C244.036,342.92 244.063,343.52 244.123,344.12 C244.213,345.2 244.333,346.31 244.573,347.48 C245.113,350.18 246.253,353.63 248.863,357.53 C236.686,359.42 224.536,361.31 212.383,363.2" id="Fill-568" fill="#F7AC84"></path>
                <path d="M212.383,363.2 C212.353,363.59 212.263,363.95 212.143,364.31 C209.863,371.24 199.513,369.35 178.036,374.33 C176.296,374.75 172.213,375.71 170.203,373.55 C168.676,371.87 169.123,369.17 169.156,369.02 C169.723,365.99 172.906,363.41 184.546,359.6 C195.676,355.94 202.936,353.54 207.373,354.41 C208.786,354.68 209.893,355.25 210.763,356.24 C212.296,357.98 212.863,360.77 212.383,363.2" id="Fill-569" fill="#352F31"></path>
                <path d="M210.253,351.71 C210.883,349.01 210.133,345.68 208.186,343.79 L207.763,343.46 C218.743,337.88 229.666,332.33 240.643,326.75 C241.363,328.46 242.113,330.5 242.686,332.84 C243.943,337.76 243.853,340.88 244.123,344.12 C232.306,347.66 220.393,351.2 208.546,354.77 C209.416,353.93 209.953,352.94 210.253,351.71" id="Fill-570" fill="#F9B995"></path>
                <path d="M396.313,348.14 C396.313,348.14 393.013,352.76 388.186,356.48 C380.893,362.06 327.373,366.32 253.573,363.23 C251.656,361.25 250.093,359.36 248.863,357.53 C246.253,353.63 245.113,350.18 244.573,347.48 C244.333,346.31 244.213,345.2 244.123,344.12 C244.063,343.52 244.036,342.92 244.003,342.32 C243.853,339.65 243.703,336.86 242.686,332.84 C242.113,330.5 241.363,328.46 240.643,326.75 C240.046,325.28 239.443,324.05 238.936,323.09 C258.223,312.14 274.843,305.09 286.936,300.59 C299.713,295.85 305.953,294.47 312.073,293.84 C314.953,293.54 317.743,293.42 320.416,293.45 C322.633,293.48 324.796,293.57 326.863,293.78 C336.253,294.62 344.056,296.99 349.573,299.09 C365.443,304.22 381.313,309.35 397.186,314.48 C398.353,316.34 400.036,319.55 400.963,323.78 C403.786,336.5 397.306,346.61 396.313,348.14" id="Fill-571" fill="#BA7C6D"></path>
                <path d="M210.253,351.71 C209.953,352.94 209.416,353.93 208.546,354.77 C204.583,358.7 194.383,358.97 177.073,364.52 C175.363,365.06 171.373,366.38 169.213,364.37 C167.536,362.81 167.773,360.08 167.773,359.96 C168.073,356.87 171.073,354.05 182.323,349.28 C196.093,343.49 203.743,340.22 207.763,343.46 L208.186,343.79 C210.133,345.68 210.883,349.01 210.253,351.71" id="Fill-572" fill="#352F31"></path>
                <path d="M470.563,356.99 C469.063,358.88 465.853,358.82 464.623,358.79 C456.493,358.52 450.463,351.68 449.353,352.67 C448.633,353.33 451.186,356.24 449.893,357.89 C449.353,358.58 448.393,358.7 448.186,358.73 C444.463,359.24 439.693,350.69 439.093,349.61 C432.943,338.54 419.056,292.55 413.383,273.32 C415.936,273.29 419.536,272.93 423.436,271.34 C427.363,269.75 430.243,267.5 432.133,265.67 C437.023,295.85 440.773,317.57 442.036,323.75 C442.363,325.4 443.056,328.67 444.733,332.6 C445.306,333.92 446.833,338.18 449.443,340.97 C457.333,349.46 470.593,348.8 471.343,354.02 C471.436,354.83 471.313,356.03 470.563,356.99" id="Fill-573" fill="#F9B995"></path>
                <path d="M434.056,263.6 C433.603,264.17 432.943,264.89 432.133,265.67 C430.243,267.5 427.363,269.75 423.436,271.34 C419.536,272.93 415.936,273.29 413.383,273.32 C412.483,273.32 411.703,273.29 411.073,273.23 C410.473,270.26 409.906,267.32 409.306,264.35 C405.166,279.86 404.176,292.58 404.056,301.58 C403.906,313.52 405.313,319.79 400.963,323.78 C395.203,329.06 384.253,325.82 372.046,322.25 C364.213,319.94 367.093,319.7 342.823,308.48 C333.733,304.28 329.203,302.39 327.436,297.59 C327.286,297.17 327.166,296.78 327.073,296.36 C326.296,292.97 327.523,289.67 329.563,283.34 C331.426,277.52 334.036,269 336.823,258.23 C336.133,258.44 333.406,259.19 330.436,257.84 C329.203,257.3 328.273,256.55 327.613,255.8 C326.926,255.11 326.536,254.45 326.323,254.09 C327.166,245.57 328.573,238.58 329.806,233.54 C332.443,222.68 333.943,216.71 339.073,210.83 C339.823,209.96 343.333,206 349.306,202.85 C361.306,196.49 373.426,198.59 377.806,199.58 C380.233,199.67 383.713,199.91 387.823,200.69 C387.823,200.72 396.436,202.37 403.936,206.09 C413.503,210.83 428.056,232.04 434.056,263.6" id="Fill-574" fill="#F9E4CF"></path>
                <path d="M357.067,171.218 C358.396,175.991 360.652,175.736 361.942,180.968 C364.111,189.737 358.621,193.904 358.192,202.718 C357.718,212.456 363.688,222.344 371.317,227.843 C379.429,233.687 392.422,236.735 401.692,230.843 C406.321,227.9 408.412,223.754 410.692,219.218 C411.958,216.701 417.841,205.145 414.442,192.218 C412.78,185.891 410.971,187.139 407.692,178.718 C402.892,166.388 406.435,162.854 401.692,154.343 C400.432,152.072 396.196,144.758 387.442,141.593 C385.624,140.936 379.924,138.956 373.567,140.843 C361.162,144.524 354.118,160.598 357.067,171.218" id="Fill-575" fill="#352F31"></path>
            </g>
        </g>
    </g>
</svg>