<?xml version="1.0" encoding="UTF-8" standalone="no"?>
<svg
   xmlns:dc="http://purl.org/dc/elements/1.1/"
   xmlns:cc="http://creativecommons.org/ns#"
   xmlns:rdf="http://www.w3.org/1999/02/22-rdf-syntax-ns#"
   xmlns:svg="http://www.w3.org/2000/svg"
   xmlns="http://www.w3.org/2000/svg"
   xmlns:sodipodi="http://sodipodi.sourceforge.net/DTD/sodipodi-0.dtd"
   xmlns:inkscape="http://www.inkscape.org/namespaces/inkscape"
   inkscape:version="1.0beta2 (2b71d25, 2019-12-03)"
   sodipodi:docname="friends-nobg.svg"
   id="svg18145"
   version="1.1"
   viewBox="0 0 198.79185 153.95322"
   height="153.95322"
   width="198.79185">
  <metadata
     id="metadata18151">
    <rdf:RDF>
      <cc:Work
         rdf:about="">
        <dc:format>image/svg+xml</dc:format>
        <dc:type
           rdf:resource="http://purl.org/dc/dcmitype/StillImage" />
        <dc:title>community</dc:title>
      </cc:Work>
    </rdf:RDF>
  </metadata>
  <defs
     id="defs18149" />
  <sodipodi:namedview
     inkscape:current-layer="svg18145"
     inkscape:window-maximized="0"
     inkscape:window-y="23"
     inkscape:window-x="0"
     inkscape:cy="75"
     inkscape:cx="17.294118"
     inkscape:zoom="1.4166667"
     showgrid="false"
     id="namedview18147"
     inkscape:window-height="825"
     inkscape:window-width="1551"
     inkscape:pageshadow="2"
     inkscape:pageopacity="0"
     guidetolerance="10"
     gridtolerance="10"
     objecttolerance="10"
     borderopacity="1"
     inkscape:document-rotation="0"
     bordercolor="#666666"
     pagecolor="#ffffff" />
  <!-- Generator: Sketch 59 (86127) - https://sketch.com -->
  <title
     id="title18026">community</title>
  <desc
     id="desc18028">Created with Sketch.</desc>
  <path
     d="m 53.433106,153.52581 c 0,0.03 -0.04,0.26 -0.24,0.37 -0.23,0.13 -0.48,0 -0.5,-0.01 l -10.98,-5.61 c -0.07,-0.06 -0.169,-0.17 -0.229,-0.32 -0.261,-0.61 0.149,-1.29 0.75,-2.29 0.149,-0.26 0.317,-0.539 0.487,-0.839 0.24,-0.44 0.55,-1.04 0.88,-1.8 0.51,0.43 1.17,0.9 2,1.3 0.94,0.46 1.83,0.69 2.57,0.82 -0.01,0.64 0.05,1.54 0.39,2.41 0.31,0.79 0.842,1.559 1.483,2.309 0.889,1.05 1.989,2.03 2.949,2.88 0.12,0.1 0.491,0.43 0.44,0.78"
     id="Fill-231"
     fill="#F9B995"
     inkscape:connector-curvature="0"
     style="fill-rule:evenodd;stroke:none;stroke-width:1" />
  <path
     d="m 41.484106,147.95581 c 0.06,0.15 0.159,0.26 0.229,0.32 l 10.98,5.61 c 0.02,0.01 0.27,0.14 0.5,0.01 0.2,-0.11 0.24,-0.34 0.24,-0.37 0.051,-0.35 -0.32,-0.68 -0.44,-0.78 -0.96,-0.85 -2.06,-1.83 -2.949,-2.88 l -7.81,-4.2 c -0.601,1 -1.011,1.68 -0.75,2.29"
     id="Fill-232"
     fill="#352F31"
     inkscape:connector-curvature="0"
     style="fill-rule:evenodd;stroke:none;stroke-width:1" />
  <path
     d="m 46.182106,153.72981 c -0.151,0.22 -0.421,0.22 -0.45,0.22 h -12.331 c -0.089,-0.031 -0.23,-0.08 -0.359,-0.191 -0.5,-0.41 -0.451,-1.179 -0.371,-2.309 0.021,-0.321 0.05,-0.663 0.06,-1.033 0.02,-0.49 0.02,-1.13 -0.03,-1.91 1.04,0.09 2.17,0.14 3.39,0.12 0.61,-0.01 1.2,-0.04 1.76,-0.09 0.43,0.84 1.02,1.38 1.32,1.65 0.81,0.73 1.61,1.053 2.09,1.263 1.341,0.59 2.881,0.99 4.221,1.34 0.149,0.04 0.629,0.17 0.75,0.5 0.01,0.03 0.08,0.25 -0.05,0.44"
     id="Fill-233"
     fill="#F9B995"
     inkscape:connector-curvature="0"
     style="fill-rule:evenodd;stroke:none;stroke-width:1" />
  <path
     d="m 67.111106,104.58681 c -0.03,2 -0.05,3.11 -0.24,4.73 -0.84,7.18 -3.61,11.88 -8.65,20.58 -1.63,2.82 -4.65,8.04 -8.83,15.37 -0.33,-0.01 -0.739,-0.04 -1.22,-0.12 -0.74,-0.13 -1.63,-0.36 -2.57,-0.82 -0.83,-0.4 -1.49,-0.87 -2,-1.3 -0.27,-0.23 -0.49,-0.44 -0.67,-0.63 5.11,-14.75 8.59,-25.6 9.12,-28.08 0.75,-3.47 0.17,-6.42 0.17,-6.42 -1.75,-8.5 -3.5,-17.01 -5.25,-25.51 -2.72,22.02 -5.43,44.04 -8.15,66.06 -0.31,0.03 -0.63,0.06 -0.97,0.09 -0.56,0.05 -1.15,0.08 -1.76,0.09 -1.22,0.02 -2.35,-0.03 -3.39,-0.12 -0.27,-0.03 -0.54,-0.06 -0.8,-0.09 -0.13,-27.42 -0.26,-54.83 -0.39,-82.240001 2.37,0.26 5.28,-2.72 13.71,-2.97 4.26,-0.13 9,0.46 13.1,-2.78 0.43,-0.34 0.65,-0.5 0.9,-0.79 0.91,3.75 1.67,6.93 2.25,9.4 4.5,19.070001 5.77,26.710001 5.64,35.550001"
     id="Fill-234"
     fill="#C4ABB0"
     inkscape:connector-curvature="0"
     style="fill-rule:evenodd;stroke:none;stroke-width:1" />
  <path
     d="m 33.042106,153.75881 c 0.129,0.111 0.27,0.16 0.359,0.191 h 12.331 c 0.029,0 0.299,0 0.45,-0.22 0.13,-0.19 0.06,-0.41 0.05,-0.44 -0.121,-0.33 -0.601,-0.46 -0.75,-0.5 -1.34,-0.35 -2.88,-0.75 -4.221,-1.34 h -8.59 c -0.08,1.13 -0.129,1.899 0.371,2.309"
     id="Fill-235"
     fill="#352F31"
     inkscape:connector-curvature="0"
     style="fill-rule:evenodd;stroke:none;stroke-width:1" />
  <path
     d="m 9.561106,13.476809 c -0.58,-0.04 -1.42,0.03 -2.28,0.48 -0.85,0.44 -1.36,1.08 -1.64,1.53 -0.02,-0.12 -0.03,-0.21 -0.04,-0.27 -0.76,-0.34 -1.73,-0.94 -2.22,-1.99 -0.5299999,-1.11 -0.2,-1.49 -0.35,-2.75 C 2.9111061,9.4668086 -0.20889392,7.4868086 0.01110608,6.3268086 c 0.27,-1.58 1.65000002,0.05 2.46000002,0.94 4.2199999,4.5600004 -2.34000002,-5.3 1.0099999,-4.05 0.94,0.35 1.31,4.49 2.75,5.12 4.05,1.8200004 3.21,3.5000004 3.22,4.9700004 l 0.11,0.17"
     id="Fill-236"
     fill="#F9B995"
     inkscape:connector-curvature="0"
     style="fill-rule:evenodd;stroke:none;stroke-width:1" />
  <path
     d="m 58.409106,42.416809 c 1.45,11.4 2.902,14.74 0.812,17.22 -0.25,0.29 -0.47,0.45 -0.9,0.79 -4.1,3.24 -8.84,2.65 -13.1,2.78 -8.43,0.25 -11.34,3.23 -13.71,2.97 -0.46,-0.04 -0.91,-0.21 -1.37,-0.56 -2.46,-1.83 -2.06,-7.21 -1.17,-17.91 0.08,-0.94 0.159,-1.85 0.259,-2.73 0.009,-0.11 0.021,-0.22 0.031,-0.33 0.05,-0.59 0.109,-1.148 0.179,-1.709 0.06,-0.57 0.231,-1.891 0.371,-3.021 l 0.02,-0.19 c 0.03,-0.2 0.05,-0.39 0.071,-0.56 0.049,-0.45 0.109,-0.88 0.169,-1.29 0.09,-0.56 0.17,-1.1 0.24,-1.59 -1.21,-0.03 -2.88,-0.14 -4.84,-0.5 -2.08,-0.38 -4.95,-0.9 -7.63,-2.43 -2.6,-1.5 -1.49,-1.93 -7.58,-8.45 -1.63,-1.75 -3.26,-3.38 -4.23,-6.2 -0.38,-1.13 -0.55,-2.11 -0.63,-2.79 0.05,-0.1 0.13,-0.25 0.24,-0.43 0.28,-0.45 0.79,-1.09 1.64,-1.53 0.86,-0.45 1.7,-0.52 2.28,-0.48 0.34,0.02 0.6,0.07 0.72,0.1 0.53,0.35 1.3,0.9 2.13,1.69 1.741,1.65 2.63,3.28 2.94,3.81 1.04,1.79 4.02,5.73 7.6,6.88 2.46,0.79 6.34,-0.44 14.09,-2.91 0.33,-0.11 2.1,-0.67 4.47,-1.1 0.24,-0.04 0.47,-0.08 0.69,-0.12 1.31,-0.21 2.12,-0.26 2.56,-0.27 1.12,-0.03 2.14,0.04 2.89,0.12 0.24,0.02 0.44,0.05 0.62,0.07 0,0 0.13,0.01 0.25,0.03 2.52,0.31 5.58,1.57 5.58,1.57 1.49,0.72 6.84,3.39 8,3.98 -1.58,1.6 -3.159,3.2 -4.73,4.81 0.06,0.87 0.14,1.95 0.26,3.19 0.01,0.13 0.021,0.26 0.04,0.39 0.1,0.93 0.65,5.9 0.68,6.21 l 0.02,0.14 0.02,0.18 0.018,0.17"
     id="Fill-237"
     fill="#1BA5B0"
     inkscape:connector-curvature="0"
     style="fill-rule:evenodd;stroke:none;stroke-width:1" />
  <path
     d="m 57.831106,37.356809 c -0.3,-0.03 -0.6,-0.06 -0.9,-0.09 -1.61,-0.14 -3.22,-0.22 -4.82,-0.19 -3.61,0.05 -6.13,0.48 -9.61,1.07 -1,0.17 -2.06,0.36 -3.25,0.54 -3.09,0.49 -6.24,0.9 -9.44,1.23 l 0.02,-0.19 c 0.02,-0.19 0.04,-0.38 0.071,-0.56 0.049,-0.45 0.109,-0.88 0.169,-1.29 3,-0.32 5.97,-0.7 8.87,-1.16 1.17,-0.19 2.23,-0.37 3.23,-0.54 3.43,-0.59 6.15,-1.05 9.91,-1.1 1.54,-0.02 3.08,0.04 4.62,0.17 0.31,0.02 0.62,0.05 0.93,0.08 0.01,0.13 0.021,0.26 0.04,0.39 0.05,0.52 0.1,1.07 0.16,1.64"
     id="Fill-238"
     fill="#F9E4CF"
     inkscape:connector-curvature="0"
     style="fill-rule:evenodd;stroke:none;stroke-width:1" />
  <path
     d="m 42.505106,43.148809 c 3.48,-0.595 5.995,-1.024 9.606,-1.071 2.099,-0.031 4.207,0.092 6.298,0.339 -0.061,-0.481 -0.23,-1.847 -0.253,-2.04 -2.019,-0.219 -4.05,-0.331 -6.07,-0.299 -3.769,0.049 -6.482,0.512 -9.917,1.099 -0.994,0.171 -2.054,0.352 -3.228,0.538 -3.105,0.494 -6.286,0.897 -9.501,1.223 -0.072,0.653 -0.141,1.34 -0.21,2.039 3.394,-0.337 6.749,-0.766 10.025,-1.287 1.182,-0.188 2.25,-0.37 3.25,-0.541"
     id="Fill-239"
     fill="#F9E4CF"
     inkscape:connector-curvature="0"
     style="fill-rule:evenodd;stroke:none;stroke-width:1" />
  <path
     d="m 51.080106,10.334809 -0.137,0.032 c 0.003,-0.321 0.005,-0.6390004 0.008,-0.9600004 -0.31,0 -0.55,-0.59 -0.87,-1.39 -0.4,-1 -0.31,-1.37 -0.679,-1.69 -0.251,-0.22 -0.611,-0.34 -1.761,-0.26 -2.43,0.16 -2.7,0.81 -4.04,0.64 -1.18,-0.16 -1.74,-0.77 -2.32,-0.42 -0.17,0.1 -0.29,0.26 -0.57,1.04 -0.54,1.52 -0.54,2.2 -0.7,2.21 -0.022,0.305 -0.04,0.6150004 -0.061,0.9220004 -0.137,-0.076 -0.286,-0.124 -0.448,-0.124 -0.588,0 -1.064,0.556 -1.064,1.244 0,0.686 0.476,1.244 1.064,1.244 0.105,0 0.199,-0.037 0.294,-0.07 l -0.005,0.074 c 0.39,0.08 0.74,2.2 2.14,2.56 1.1,0.28 1.51,-0.85 3.12,-0.94 1.87,-0.12 2.52,1.34 3.81,0.94 1.4,-0.44 1.73,-2.51 2.06,-2.51 l 10e-4,-0.091 0.158,0.037 c 0.588,0 1.064,-0.558 1.064,-1.244 0,-0.688 -0.476,-1.244 -1.064,-1.244"
     id="Fill-240"
     fill="#F9B995"
     inkscape:connector-curvature="0"
     style="fill-rule:evenodd;stroke:none;stroke-width:1" />
  <path
     d="m 47.661106,20.736809 c 0,0.38 0,0.77 -0.01,1.15 -0.21,0.21 -1.14,1.1 -2.6,1.15 -1.61,0.05 -2.66,-0.95 -2.85,-1.13 0.01,-0.5 0.01,-0.99 0.01,-1.48 0.95,0.55 1.96,0.64 2.51,0.69 0.05,0 0.13,0.01 0.24,0.02 0.19,0.01 1.45,0.06 2.7,-0.4"
     id="Fill-241"
     fill="#F9B995"
     inkscape:connector-curvature="0"
     style="fill-rule:evenodd;stroke:none;stroke-width:1" />
  <path
     d="m 50.441106,17.006809 c -0.37,1.37 -0.56,2.06 -0.99,2.56 -0.5,0.58 -1.14,0.94 -1.79,1.17 -1.25,0.46 -2.51,0.41 -2.7,0.4 -0.11,-0.01 -0.19,-0.02 -0.24,-0.02 -0.55,-0.05 -1.56,-0.14 -2.51,-0.69 -0.309,-0.18 -0.61,-0.41 -0.89,-0.71 -0.59,-0.62 -0.81,-1.26 -1.14,-2.24 -0.72,-2.17 -0.84,-4.54 -0.44,-4.65 h 0.05 c 0.39,0.08 0.74,2.2 2.14,2.56 1.1,0.28 1.51,-0.85 3.12,-0.94 1.87,-0.12 2.52,1.34 3.81,0.94 1.4,-0.44 1.73,-2.51 2.06,-2.51 0.36,0.11 0.01,2.32 -0.48,4.13"
     id="Fill-242"
     fill="#A25F4C"
     inkscape:connector-curvature="0"
     style="fill-rule:evenodd;stroke:none;stroke-width:1" />
  <path
     d="m 50.951106,9.4068086 c -0.31,0 -0.55,-0.59 -0.87,-1.39 -0.4,-1 -0.31,-1.37 -0.679,-1.69 -0.251,-0.22 -0.611,-0.34 -1.761,-0.26 -2.43,0.16 -2.7,0.81 -4.04,0.64 -1.18,-0.16 -1.74,-0.77 -2.32,-0.42 -0.17,0.1 -0.29,0.26 -0.57,1.04 -0.54,1.52 -0.54,2.2 -0.7,2.21 -0.27,0.02 -0.84,-1.82 -0.7,-3.88 0.12,-1.7 0.74,-2.96 1.3,-3.19 0.48,-0.2 0.65,0.12 1.47,-0.07 0.77,-0.18 0.96,-0.54 1.81,-0.91 0,0 0.74,-0.31 1.71,-0.41 1.85,-0.18999997 4.39,0.62 4.92,2.15 0.15,0.4 0.1,0.73 0.41,1.46 0.31,0.73 0.56,0.89 0.76,1.32 0.61,1.35 -0.2,3.35 -0.74,3.4"
     id="Fill-243"
     fill="#A25F4C"
     inkscape:connector-curvature="0"
     style="fill-rule:evenodd;stroke:none;stroke-width:1" />
  <path
     d="m 43.436106,11.140809 c 0.003,0.507 -0.271,0.918 -0.613,0.920007 -0.341,0.002 -0.621,-0.407007 -0.624,-0.913007 -0.003,-0.506 0.272,-0.918 0.614,-0.920002 0.341,-9.98e-4 0.621,0.407002 0.623,0.913002"
     id="Fill-244"
     fill="#352F31"
     inkscape:connector-curvature="0"
     style="fill-rule:evenodd;stroke:none;stroke-width:1" />
  <path
     d="m 48.568106,11.112809 c 0.003,0.506 -0.272,0.918 -0.613,0.920007 -0.342,0.002 -0.621,-0.407007 -0.624,-0.913007 -0.003,-0.506 0.272,-0.918 0.614,-0.920008 0.341,-0.002 0.62,0.407008 0.623,0.913008"
     id="Fill-245"
     fill="#352F31"
     inkscape:connector-curvature="0"
     style="fill-rule:evenodd;stroke:none;stroke-width:1" />
  <path
     d="m 45.890106,13.645809 c -0.409,-0.106 -1.051,-0.348 -1.129,-0.827 -0.03,-0.192 0.037,-0.333 0.172,-0.616 0.124,-0.262 0.313,-0.662 0.555,-1.188 l 0.166,-0.061 0.061,0.165 c -0.242,0.527 -0.431,0.928 -0.553,1.183 -0.132,0.278 -0.172,0.368 -0.154,0.477 0.039,0.245 0.381,0.477 0.913,0.621 l 0.088,0.153 -0.119,0.093"
     id="Fill-246"
     fill="#F2856B"
     inkscape:connector-curvature="0"
     style="fill-rule:evenodd;stroke:none;stroke-width:1" />
  <path
     d="m 41.317106,8.6788086 c 0.041,-0.405 1.021,-0.566 1.308,-0.619 0.282,-0.051 0.89,-0.161 1.067,0.106 l 0.041,0.25 c -0.054,0.144 -0.26,0.187 -0.35,0.207 -1.19,0.259 -1.769,0.578 -1.998,0.279 -0.011,-0.014 -0.08,-0.107 -0.068,-0.223"
     id="Fill-247"
     fill="#A25F4C"
     inkscape:connector-curvature="0"
     style="fill-rule:evenodd;stroke:none;stroke-width:1" />
  <path
     d="m 49.450106,8.6338086 c -0.046,-0.405 -1.028,-0.555 -1.314,-0.604 -0.284,-0.048 -0.893,-0.152 -1.066,0.116 l -0.038,0.251 c 0.055,0.144 0.262,0.186 0.351,0.203 1.193,0.246 1.776,0.559 2.001,0.258 0.011,-0.015 0.079,-0.108 0.066,-0.224"
     id="Fill-248"
     fill="#A25F4C"
     inkscape:connector-curvature="0"
     style="fill-rule:evenodd;stroke:none;stroke-width:1" />
  <path
     d="m 47.144106,15.933809 -0.023,0.129 -0.031,0.05 c -0.117,0.338 -0.455,0.761 -0.89,1.003 -0.697,0.376 -1.412,0.122 -1.512,0.09 -0.536,-0.201 -0.967,-0.659 -1.13,-1.022 -0.048,-0.091 -0.076,-0.182 -0.085,-0.262 l 0.024,-0.2 c 0.145,-0.247 0.679,0.064 1.97,0.019 1.061,-0.039 1.486,-0.281 1.642,-0.058 0.038,0.061 0.046,0.151 0.035,0.251"
     id="Fill-249"
     fill="#DA6249"
     inkscape:connector-curvature="0"
     style="fill-rule:evenodd;stroke:none;stroke-width:1" />
  <path
     d="m 47.144106,15.933809 c -0.373,0.133 -0.846,0.253 -1.416,0.292 -0.982,0.071 -1.778,-0.135 -2.255,-0.304 l 0.024,-0.2 c 0.145,-0.247 0.679,0.064 1.97,0.019 1.061,-0.039 1.486,-0.281 1.642,-0.058 0.038,0.061 0.046,0.151 0.035,0.251"
     id="Fill-250"
     fill="#FFFFFF"
     inkscape:connector-curvature="0"
     style="fill-rule:evenodd;stroke:none;stroke-width:1" />
  <path
     d="m 94.93111,83.41781 c -0.693,-1.06 -1.71,-2.817 -2.471004,-5.153001 1.364004,-7.55 0.852004,-15.746 -3.631,-21.94 0.176,-0.24 0.314,-0.469 0.412,-0.687 0.274,0.128 0.553,0.271 0.839,0.429 0.377,0.2 0.766,0.432 1.155,0.692 0.428,0.283 0.86,0.6 1.292,0.958 2.849004,2.367 4.047004,5.118 4.573004,6.367 0.205,0.491 1.138,2.75 1.373,5.826 0.488,6.245 -2.186,11.310001 -3.542,13.508001"
     id="Fill-251"
     fill="#D1526D"
     inkscape:connector-curvature="0"
     style="fill-rule:evenodd;stroke:none;stroke-width:1" />
  <path
     d="m 91.235106,56.758809 c -0.081,0.253 -0.291,0.454 -0.633,0.454 -0.659,0 -0.834,-0.749 -0.522,-1.146 0.377,0.2 0.766,0.432 1.155,0.692"
     id="Fill-252"
     fill="#F2D8C2"
     inkscape:connector-curvature="0"
     style="fill-rule:evenodd;stroke:none;stroke-width:1" />
  <path
     d="m 93.90711,62.613809 c -0.895,0 -0.896,1.39 0,1.39 0.894,0 0.896,-1.39 0,-1.39"
     id="Fill-253"
     fill="#F2D8C2"
     inkscape:connector-curvature="0"
     style="fill-rule:evenodd;stroke:none;stroke-width:1" />
  <path
     d="m 86.866106,8.0958086 c -0.328,-1.366 0.013,-1.912 -0.597,-2.64 -0.497,-0.594 -0.818,-0.684 -1.171,-1.066 -0.516,-0.556 -0.205,-0.926 -0.667,-1.645 -0.391,-0.61 -0.962,-0.885 -1.375,-1.083 -1.211,-0.584 -1.696,-0.111 -3.052,-0.659 -0.912,-0.36899997 -0.751,-0.60599997 -1.531,-0.84099997 -1.423,-0.43 -2.751,0.125 -2.919,0.197 -0.956,0.415 -0.891,0.81299997 -1.748,1.05299997 -0.928,0.258 -1.151,-0.169 -2.125,0.041 -0.113,0.024 -1.367,0.313 -2.125,1.375 -0.605,0.848 -0.202,1.221 -0.868,2.143 -0.599,0.831 -0.955,0.76 -1.271,1.404 -0.304,0.618 -0.002,0.855 -0.178,1.721 -0.253,1.25 -0.903,1.215 -1.142,2.1840004 -0.156,0.637 -0.017,1.519 0.864,3.072 0.352,0.62 0.047,1.163 0.245,1.867 0.205,0.732 0.78,1.158 1.094,1.448 0.648,0.6 0.906,0.568 1.576,1.062 1.283,0.945 1.154,1.666 2.097,2.224 0.824,0.488 1.672,0.381 2.481,0.312 1.436,-0.121 3.51,-0.185 6.386,0.053 1.127,-0.014 1.761,-0.361 2.133,-0.678 0.794,-0.675 0.667,-1.443 1.702,-2.234 0.476,-0.363 0.623,-0.293 1.132,-0.739 0.205,-0.181 0.869,-0.65 1.094,-1.448 0.197,-0.704 -0.108,-1.247 0.244,-1.867 2.032,-3.5830004 0.12,-3.5990004 -0.279,-5.2560004"
     id="Fill-254"
     fill="#352F31"
     inkscape:connector-curvature="0"
     style="fill-rule:evenodd;stroke:none;stroke-width:1" />
  <path
     d="m 88.561106,31.336809 c -0.06,2.89 -0.119,5.77 -0.18,8.66 -0.08,1.97 -0.189,3.71 -0.2,3.79 -0.04,0.41 -1.069,11.968 -1.089,12.158 -6.75,-0.01 -13.5,-0.028 -20.25,-0.038 -0.01,-0.091 -0.031,-0.32 -0.071,-0.67 l -0.01,-0.16 c -0.1,-1 -1.57,-16.05 -1.85,-18.94 -0.8,0.68 -1.7,1.37 -2.69,2.07 -1.4,0.97 -2.75,1.77 -4.01,2.43 -0.18,-1.65 -0.57,-5.18 -0.58,-5.31 -0.12,-1.24 -0.2,-2.32 -0.26,-3.19 1.571,-1.61 3.15,-3.21 4.73,-4.81 1.36,-1.19 2.701,-2.211 3.961,-3.08 0.58,0.66 4.51,5.04 11.05,5.069 6.53,0.02 10.49,-4.31 11.08,-4.97 1.73,0.96 3.469,1.921 5.210004,2.881 -1.971004,1.42 -3.581004,2.85 -4.841004,4.11"
     id="Fill-255"
     fill="#F9A01B"
     inkscape:connector-curvature="0"
     style="fill-rule:evenodd;stroke:none;stroke-width:1" />
  <path
     d="m 88.192106,24.345809 c -0.59,0.66 -4.55,4.99 -11.08,4.970069 -6.54,-0.02907 -10.47,-4.409069 -11.05,-5.069069 0.15,-0.08 0.302,-0.153 0.452,-0.233 0.32,-0.15 0.65,-0.31 1,-0.46 0.89,-0.38 1.9,-0.75 3.03,-1.06 1.46,-0.4 2.78,-0.6 3.91,-0.7 v -3.4 c 0.81,0.85 1.75,1.38 2.73,1.38 0.93,0 1.8,-0.359 2.57,-1.01 l 0.149,-0.13 v 3.16 c 1.161,0.14 2.5,0.39 3.961,0.83 1.71,0.5 3.158,1.132 4.328,1.722"
     id="Fill-256"
     fill="#C78457"
     inkscape:connector-curvature="0"
     style="fill-rule:evenodd;stroke:none;stroke-width:1" />
  <path
     d="m 79.903106,18.633809 v 1.031 c -0.389,0.25 -1.319,0.769 -2.619,0.799 -1.42,0.03 -2.45,-0.549 -2.83,-0.799 v -1.271 c 0.81,0.85 1.75,1.38 2.73,1.38 0.93,0 1.8,-0.359 2.57,-1.01 l 0.149,-0.13"
     id="Fill-257"
     fill="#B27247"
     inkscape:connector-curvature="0"
     style="fill-rule:evenodd;stroke:none;stroke-width:1" />
  <path
     d="m 83.034106,10.683809 c -0.16,3.46 -1.39,6.42 -3.131,7.95 l -0.149,0.13 c -0.77,0.651 -1.64,1.01 -2.57,1.01 -0.98,0 -1.92,-0.53 -2.73,-1.38 -1.74,-1.83 -2.96,-5.03 -3.12,-7.7 -0.03,-0.31 -0.03,-0.62 -0.02,-0.8700004 0.91,-0.489 2.51,-1.54 3.55,-3.53 0.28,-0.53 0.46,-1.05 0.61,-1.51 0.65,0.96 1.679,2.24 3.2,3.45 1.64,1.32 3.25,2.0400004 4.36,2.4500004"
     id="Fill-258"
     fill="#C78457"
     inkscape:connector-curvature="0"
     style="fill-rule:evenodd;stroke:none;stroke-width:1" />
  <path
     d="m 97.22411,153.43381 c -0.15,0.22 -0.42,0.22 -0.45,0.22 H 84.444106 c -0.09,-0.03 -0.23,-0.08 -0.36,-0.19 -0.5,-0.41 -0.45,-1.18 -0.37,-2.31 0.02,-0.319 0.05,-0.66 0.06,-1.03 0.02,-0.55 0.02,-1.3 -0.05,-2.22 -0.18,-6.23 -0.7,-11.27 -1.15,-14.71 -0.56,-4.31 -1.15,-7.25 -1.61,-10.29 h 8.86 c -0.64,9.09 -1.1,15.24 -1.31,17.08 -0.23,1.94 -0.01,3.89 -0.1,5.84 -0.011,0.31 -0.05,0.99 0.22,1.8 0.4,1.2 1.21,1.94 1.58,2.27 0.81,0.73 1.61,1.05 2.09,1.26 1.340004,0.59 2.880004,0.99 4.220004,1.34 0.15,0.04 0.63,0.171 0.75,0.5 0.01,0.03 0.08,0.25 -0.05,0.44"
     id="Fill-259"
     fill="#C78457"
     inkscape:connector-curvature="0"
     style="fill-rule:evenodd;stroke:none;stroke-width:1" />
  <path
     d="m 84.084106,153.46381 c 0.13,0.11 0.27,0.16 0.36,0.19 H 96.77411 c 0.03,0 0.3,0 0.45,-0.22 0.13,-0.19 0.06,-0.41 0.05,-0.44 -0.12,-0.329 -0.6,-0.46 -0.75,-0.5 -1.34,-0.35 -2.88,-0.75 -4.220004,-1.34 h -8.59 c -0.08,1.13 -0.13,1.9 0.37,2.31"
     id="Fill-260"
     fill="#F8C886"
     inkscape:connector-curvature="0"
     style="fill-rule:evenodd;stroke:none;stroke-width:1" />
  <path
     d="m 69.784106,147.90381 c -0.071,0.92 -0.071,1.67 -0.05,2.22 0.01,0.37 0.04,0.711 0.06,1.03 0.08,1.13 0.129,1.9 -0.371,2.31 -0.129,0.11 -0.269,0.16 -0.359,0.19 h -12.331 c -0.03,0 -0.299,0 -0.449,-0.22 -0.131,-0.19 -0.06,-0.41 -0.051,-0.44 0.121,-0.329 0.601,-0.46 0.75,-0.5 1.34,-0.35 2.88,-0.75 4.22,-1.34 0.481,-0.21 1.281,-0.53 2.091,-1.26 0.37,-0.33 1.18,-1.07 1.58,-2.27 0.27,-0.81 0.23,-1.49 0.22,-1.8 -0.09,-1.95 0.13,-3.9 -0.1,-5.84 -0.21,-1.84 -0.67,-7.99 -1.31,-17.08 h 8.86 c -0.46,3.04 -1.05,5.98 -1.61,10.29 -0.45,3.44 -0.971,8.48 -1.14,14.721 l -0.01,-0.011"
     id="Fill-261"
     fill="#C78457"
     inkscape:connector-curvature="0"
     style="fill-rule:evenodd;stroke:none;stroke-width:1" />
  <path
     d="m 69.423106,153.46381 c -0.129,0.11 -0.269,0.16 -0.359,0.19 h -12.331 c -0.03,0 -0.299,0 -0.449,-0.22 -0.131,-0.19 -0.06,-0.41 -0.051,-0.44 0.121,-0.329 0.601,-0.46 0.75,-0.5 1.34,-0.35 2.88,-0.75 4.22,-1.34 h 8.591 c 0.08,1.13 0.129,1.9 -0.371,2.31"
     id="Fill-262"
     fill="#F8C886"
     inkscape:connector-curvature="0"
     style="fill-rule:evenodd;stroke:none;stroke-width:1" />
  <path
     d="M 95.84411,122.90381 H 58.594106 c 1.04,-4.569 1.66,-8.24 2,-10.442 3.27,-21.118 0.17,-31.132 4.63,-50.354001 0.05,-0.218 0.1,-0.426 0.15,-0.635 0.589,-2.506 1.158,-4.479 1.468,-5.566 6.75,0.008 13.5,0.029 20.25,0.038 0.07,0.209 0.152,0.446 0.242,0.733 0.359,1.079 0.85,2.672 1.37,4.586 5.080004,18.882001 1.26,29.106001 4.460004,49.232001 0.42,2.636 1.21,6.996 2.68,12.408"
     id="Fill-263"
     fill="#F9E4CF"
     inkscape:connector-curvature="0"
     style="fill-rule:evenodd;stroke:none;stroke-width:1" />
  <path
     d="m 92.901106,75.190809 c -0.041,0.42 -0.098,0.858 -0.158,1.278 -0.08,0.601 -0.183,1.206 -0.283,1.796 -0.23,1.290001 -0.518,2.562001 -0.849,3.802001 -0.22,0.83 -0.459,1.63 -0.72,2.43 -3.91,-5.19 -4.482,-11.288001 -4.201,-16.399001 0.02,-0.46 0.064,-0.91 0.094,-1.36 0.45,-5.26 1.618,-9.181 0.447,-9.371 -0.14,-0.03 -0.28,-0.12 -0.42,-0.23 -0.98,0.69 -2.05,1.36 -3.23,1.97 -0.7,0.36 -1.388,0.688 -2.088,0.978 -0.33,0.13 -0.651,0.272 -0.981,0.392 -3.99,1.51 -7.881,1.96 -11.171,1.96 -1.59,0 -3.04,-0.1 -4.3,-0.25 0.14,-0.64 0.28,-1.3 0.44,-1.97 0.05,-0.21 0.491,-2.022 0.651,-2.642 0.13,-0.481 0.659,-2.408 0.669,-2.448 l -0.04,-0.05 c -0.1,-1 -0.28,-2.81 -0.49,-4.95 1.5,0.41 6.07,1.65 9.901,2.32 1.159,0.21 3.29,0.548 5.36,0.798 0.43,0.05 0.86,0.1 1.28,0.15 1.22,0.13 2.409,0.242 3.569,0.332 0.26,-0.23 0.59,-0.37 0.95,-0.42 0.65,-0.11 1.368,0.071 1.788,0.512 0.301,0.32 0.453,0.767 0.293,1.358 -0.04,0.15 -0.091,0.301 -0.171,0.461 -0.099,0.22 -0.242,0.447 -0.412,0.687 1.73,2.4 2.88,5.1 3.551,7.961 0.099,0.439 0.193,0.9 0.273,1.35 0.561004,3.111 0.587004,6.355 0.248,9.555"
     id="Fill-264"
     fill="#E56E82"
     inkscape:connector-curvature="0"
     style="fill-rule:evenodd;stroke:none;stroke-width:1" />
  <path
     d="m 69.353106,52.413809 c -0.895,0 -0.896,1.389 0,1.389 0.894,0 0.896,-1.389 0,-1.389"
     id="Fill-265"
     fill="#F9E4CF"
     inkscape:connector-curvature="0"
     style="fill-rule:evenodd;stroke:none;stroke-width:1" />
  <path
     d="m 70.614106,59.601809 c -0.894,0 -0.896,1.39 0,1.39 0.895,0 0.896,-1.39 0,-1.39"
     id="Fill-266"
     fill="#F9E4CF"
     inkscape:connector-curvature="0"
     style="fill-rule:evenodd;stroke:none;stroke-width:1" />
  <path
     d="m 89.412106,55.176809 -0.153,0.017 c -0.843,0 -0.888,-1.242 -0.14,-1.375 0.304,0.316 0.447,0.771 0.293,1.358"
     id="Fill-267"
     fill="#F9E4CF"
     inkscape:connector-curvature="0"
     style="fill-rule:evenodd;stroke:none;stroke-width:1" />
  <path
     d="m 89.258106,60.336809 c -0.894,0 -0.896,1.39 0,1.39 0.895,0 0.897,-1.39 0,-1.39"
     id="Fill-268"
     fill="#F9E4CF"
     inkscape:connector-curvature="0"
     style="fill-rule:evenodd;stroke:none;stroke-width:1" />
  <path
     d="m 81.493106,60.084809 c -0.325,0.137 -0.655,0.268 -0.981,0.392 -0.53,-0.3 -0.421,-1.305 0.341,-1.305 0.543,0 0.751,0.511 0.64,0.913"
     id="Fill-269"
     fill="#F9E4CF"
     inkscape:connector-curvature="0"
     style="fill-rule:evenodd;stroke:none;stroke-width:1" />
  <path
     d="m 82.812106,53.394809 c -0.086,0.231 -0.295,0.408 -0.616,0.408 -0.389,0 -0.612,-0.259 -0.664,-0.558 0.432,0.051 0.856,0.103 1.28,0.15"
     id="Fill-270"
     fill="#F9E4CF"
     inkscape:connector-curvature="0"
     style="fill-rule:evenodd;stroke:none;stroke-width:1" />
  <path
     d="m 66.313106,57.597809 -0.181,-0.023 c 0.128,-0.48 0.249,-0.931 0.36,-1.342 0.71,0.167 0.651,1.365 -0.179,1.365"
     id="Fill-271"
     fill="#F9E4CF"
     inkscape:connector-curvature="0"
     style="fill-rule:evenodd;stroke:none;stroke-width:1" />
  <path
     d="m 84.155106,55.511809 c -0.894,0 -0.896,1.391 0,1.391 0.895,0 0.896,-1.391 0,-1.391"
     id="Fill-272"
     fill="#F9E4CF"
     inkscape:connector-curvature="0"
     style="fill-rule:evenodd;stroke:none;stroke-width:1" />
  <path
     d="m 92.653106,65.635809 -0.199,0.03 c -0.872,0 -0.896,-1.308 -0.074,-1.38 0.102,0.445 0.192,0.897 0.273,1.35"
     id="Fill-273"
     fill="#F9E4CF"
     inkscape:connector-curvature="0"
     style="fill-rule:evenodd;stroke:none;stroke-width:1" />
  <path
     d="m 92.901106,75.190809 c -0.043,0.428 -0.098,0.854 -0.158,1.278 l -0.177,0.029 c -0.899,0 -0.899,-1.391 0,-1.391 0.132,0 0.245,0.032 0.335,0.084"
     id="Fill-274"
     fill="#F9E4CF"
     inkscape:connector-curvature="0"
     style="fill-rule:evenodd;stroke:none;stroke-width:1" />
  <path
     d="m 89.258106,77.621809 c -0.894,0 -0.896,1.390001 0,1.390001 0.895,0 0.897,-1.390001 0,-1.390001"
     id="Fill-275"
     fill="#F9E4CF"
     inkscape:connector-curvature="0"
     style="fill-rule:evenodd;stroke:none;stroke-width:1" />
  <path
     d="m 89.563106,70.213809 c -0.894,0 -0.896,1.39 0,1.39 0.895,0 0.896,-1.39 0,-1.39"
     id="Fill-276"
     fill="#F9E4CF"
     inkscape:connector-curvature="0"
     style="fill-rule:evenodd;stroke:none;stroke-width:1" />
  <path
     d="m 86.863106,68.121809 -0.173,-0.024 c 0.025,-0.462 0.055,-0.915 0.094,-1.36 l 0.079,-0.007 c 0.894,0 0.894,1.391 0,1.391"
     id="Fill-277"
     fill="#F9E4CF"
     inkscape:connector-curvature="0"
     style="fill-rule:evenodd;stroke:none;stroke-width:1" />
  <path
     d="m 75.421106,56.089809 c -0.895,0 -0.896,1.39 0,1.39 0.894,0 0.896,-1.39 0,-1.39"
     id="Fill-278"
     fill="#F9E4CF"
     inkscape:connector-curvature="0"
     style="fill-rule:evenodd;stroke:none;stroke-width:1" />
  <path
     d="m 75.262106,10.931809 c 0,0.506 -0.277,0.917 -0.618,0.917 -0.342,0 -0.619,-0.411 -0.619,-0.917 0,-0.506 0.277,-0.916 0.619,-0.916 0.341,0 0.618,0.41 0.618,0.916"
     id="Fill-279"
     fill="#352F31"
     inkscape:connector-curvature="0"
     style="fill-rule:evenodd;stroke:none;stroke-width:1" />
  <path
     d="m 80.394106,10.931809 c 0,0.506 -0.277,0.917 -0.619,0.917 -0.341,0 -0.619,-0.411 -0.619,-0.917 0,-0.506 0.278,-0.916 0.619,-0.916 0.342,0 0.619,0.41 0.619,0.916"
     id="Fill-280"
     fill="#352F31"
     inkscape:connector-curvature="0"
     style="fill-rule:evenodd;stroke:none;stroke-width:1" />
  <path
     d="m 77.627106,13.906809 c -0.399,-0.103 -1.028,-0.341 -1.124,-0.829 -0.036,-0.187 0.024,-0.354 0.248,-0.831 0.154,-0.329 0.316,-0.65 0.492,-0.98 l 0.169,-0.052 0.052,0.17 c -0.175,0.326 -0.334,0.643 -0.486,0.968 -0.218,0.464 -0.248,0.576 -0.229,0.677 0.073,0.379 0.716,0.579 0.91,0.631 l 0.089,0.153 -0.121,0.093"
     id="Fill-281"
     fill="#A0633A"
     inkscape:connector-curvature="0"
     style="fill-rule:evenodd;stroke:none;stroke-width:1" />
  <path
     d="m 73.056106,8.8838086 c 0.044,-0.405 1.024,-0.561 1.311,-0.611 0.283,-0.05 0.891,-0.157 1.067,0.11 l 0.039,0.25 c -0.054,0.145 -0.261,0.187 -0.35,0.206 -1.191,0.252 -1.773,0.569 -2,0.269 -0.011,-0.015 -0.079,-0.108 -0.067,-0.224"
     id="Fill-282"
     fill="#352F31"
     inkscape:connector-curvature="0"
     style="fill-rule:evenodd;stroke:none;stroke-width:1" />
  <path
     d="m 81.189106,8.8838086 c -0.044,-0.405 -1.024,-0.561 -1.311,-0.611 -0.283,-0.05 -0.891,-0.157 -1.067,0.11 l -0.038,0.25 c 0.053,0.145 0.26,0.187 0.349,0.206 1.192,0.252 1.773,0.569 2,0.269 0.011,-0.015 0.08,-0.108 0.067,-0.224"
     id="Fill-283"
     fill="#352F31"
     inkscape:connector-curvature="0"
     style="fill-rule:evenodd;stroke:none;stroke-width:1" />
  <path
     d="m 79.015106,15.696809 -0.023,0.13 -0.031,0.049 c -0.119,0.337 -0.459,0.758 -0.895,0.998 -0.7,0.373 -1.414,0.114 -1.513,0.082 -0.535,-0.204 -0.964,-0.664 -1.125,-1.029 -0.047,-0.091 -0.075,-0.181 -0.083,-0.261 l 0.025,-0.201 c 0.146,-0.246 0.678,0.068 1.97,0.03 1.061,-0.034 1.487,-0.273 1.642,-0.049 0.038,0.061 0.046,0.151 0.033,0.251"
     id="Fill-284"
     fill="#DA6249"
     inkscape:connector-curvature="0"
     style="fill-rule:evenodd;stroke:none;stroke-width:1" />
  <path
     d="m 79.015106,15.696809 c -0.373,0.131 -0.846,0.249 -1.417,0.285 -0.982,0.065 -1.777,-0.145 -2.253,-0.316 l 0.025,-0.201 c 0.146,-0.246 0.678,0.068 1.97,0.03 1.061,-0.034 1.487,-0.273 1.642,-0.049 0.038,0.061 0.046,0.151 0.033,0.251"
     id="Fill-285"
     fill="#FFFFFF"
     inkscape:connector-curvature="0"
     style="fill-rule:evenodd;stroke:none;stroke-width:1" />
  <path
     d="m 128.22311,153.43481 c -0.151,0.221 -0.421,0.221 -0.45,0.221 h -12.33 c -0.09,-0.03 -0.23,-0.08 -0.36,-0.191 -0.5,-0.41 -0.451,-1.179 -0.37,-2.309 0.02,-0.321 0.048,-0.659 0.058,-1.029 0.02,-0.55 0.02,-1.3 -0.05,-2.22 -0.02,-0.13 -0.02,-0.26 -0.02,-0.39 0.82,0.17 1.79,0.3 2.9,0.31 0.75,0.01 1.44,-0.04 2.06,-0.12 0.41,1.15 1.19,1.87 1.55,2.19 0.81,0.73 1.611,1.049 2.091,1.259 1.341,0.59 2.881,0.989 4.221,1.34 0.15,0.04 0.629,0.17 0.75,0.5 0.009,0.03 0.08,0.25 -0.05,0.439"
     id="Fill-286"
     fill="#F9B995"
     inkscape:connector-curvature="0"
     style="fill-rule:evenodd;stroke:none;stroke-width:1" />
  <path
     d="m 115.08311,153.46481 c 0.13,0.111 0.27,0.161 0.36,0.191 h 12.33 c 0.029,0 0.299,0 0.45,-0.221 0.13,-0.189 0.059,-0.409 0.05,-0.439 -0.121,-0.33 -0.6,-0.46 -0.75,-0.5 -1.34,-0.351 -2.88,-0.75 -4.221,-1.34 h -8.589 c -0.081,1.13 -0.13,1.899 0.37,2.309"
     id="Fill-287"
     fill="#352F31"
     inkscape:connector-curvature="0"
     style="fill-rule:evenodd;stroke:none;stroke-width:1" />
  <path
     d="m 100.42311,153.46481 c -0.13,0.111 -0.271,0.161 -0.36,0.191 H 87.733106 c -0.031,0 -0.301,0 -0.451,-0.221 -0.13,-0.189 -0.06,-0.409 -0.049,-0.439 0.119,-0.33 0.599,-0.46 0.75,-0.5 1.339,-0.351 2.879,-0.75 4.219,-1.34 0.48,-0.21 1.279004,-0.529 2.089004,-1.259 0.37,-0.33 1.18,-1.07 1.58,-2.27 0.08,-0.25 0.14,-0.49 0.17,-0.7 0.67,0.12 1.401,0.22 2.18,0.28 0.94,0.06 1.81,0.06 2.59,0.02 -0.01,0.23 -0.01,0.46 -0.02,0.69 -0.08,0.91 -0.08,1.66 -0.06,2.21 0.01,0.37 0.042,0.708 0.062,1.029 0.08,1.13 0.13,1.899 -0.37,2.309"
     id="Fill-288"
     fill="#F9B995"
     inkscape:connector-curvature="0"
     style="fill-rule:evenodd;stroke:none;stroke-width:1" />
  <path
     d="m 100.42311,153.46481 c -0.13,0.111 -0.271,0.161 -0.36,0.191 H 87.733106 c -0.031,0 -0.301,0 -0.451,-0.221 -0.13,-0.189 -0.06,-0.409 -0.049,-0.439 0.119,-0.33 0.599,-0.46 0.75,-0.5 1.339,-0.351 2.879,-0.75 4.219,-1.34 h 8.591004 c 0.079,1.13 0.13,1.899 -0.37,2.309"
     id="Fill-289"
     fill="#352F31"
     inkscape:connector-curvature="0"
     style="fill-rule:evenodd;stroke:none;stroke-width:1" />
  <path
     d="m 121.60111,147.32681 c -0.54,0.14 -1.19,0.28 -1.94,0.38 -0.62,0.08 -1.31,0.13 -2.06,0.12 -1.11,-0.01 -2.08,-0.14 -2.9,-0.31 -0.35,-0.08 -0.68,-0.16 -0.97,-0.24 -1.27,-9.86 -2.4,-20.12 -3.34,-30.75 -0.92,-10.53 -1.6,-20.74 -2.07,-30.58 -1.99,20.38 -3.98,40.76 -5.97,61.15 -0.47,0.06 -0.98,0.1 -1.54,0.13 -0.78,0.04 -1.65,0.04 -2.59,-0.02 -0.779,-0.06 -1.51,-0.16 -2.18,-0.28 -0.66,-0.11 -1.27,-0.25 -1.81,-0.4 -0.72,-23.13 -0.57,-47.36 0.74,-72.570001 0.32,-6.09 0.69,-12.11 1.13,-18.06 3.341,0.59 7.27,1.06 11.67,1.17 4.75,0.11 8.98,-0.22 12.55,-0.71 0.43,3.98 0.82,8.02 1.15,12.1 2.3,27.900001 2.05,54.290001 0.13,78.870001"
     id="Fill-290"
     fill="#352F31"
     inkscape:connector-curvature="0"
     style="fill-rule:evenodd;stroke:none;stroke-width:1" />
  <path
     d="m 112.44211,58.476809 c -1.991,0.3 -4.331,0.38 -6.881,-0.11 -0.33,-0.06 -0.659,-0.13 -0.97,-0.21 0.07,-0.54 0.101,-1.04 0.13,-1.45 0.87,-12.25 1.23,-34.05 1.25,-35.61 1.82,-0.02 3.64,-0.04 5.451,-0.06 0.949,13.86 1.009,23.85 0.799,31.04 -0.049,1.76 -0.14,4.16 0.221,6.4"
     id="Fill-291"
     fill="#FFFFFF"
     inkscape:connector-curvature="0"
     style="fill-rule:evenodd;stroke:none;stroke-width:1" />
  <path
     d="m 108.39311,25.659809 -0.145,0.009 c -0.312,0.023 -0.579,0.251 -0.579,0.581 0,0.332 0.266,0.557 0.579,0.58 l 0.145,0.009 c 0.759,0.048 0.76,-1.227 0,-1.179"
     id="Fill-292"
     fill="#F9E4CF"
     inkscape:connector-curvature="0"
     style="fill-rule:evenodd;stroke:none;stroke-width:1" />
  <path
     d="m 109.02111,30.634809 0.003,0.145 c 0.014,0.733 1.126,0.734 1.139,0 l 0.003,-0.145 c 0.014,-0.736 -1.159,-0.737 -1.145,0"
     id="Fill-293"
     fill="#F9E4CF"
     inkscape:connector-curvature="0"
     style="fill-rule:evenodd;stroke:none;stroke-width:1" />
  <path
     d="m 107.32611,35.357809 c -0.711,0 -0.712,1.105 0,1.105 0.712,0 0.713,-1.105 0,-1.105"
     id="Fill-294"
     fill="#F9E4CF"
     inkscape:connector-curvature="0"
     style="fill-rule:evenodd;stroke:none;stroke-width:1" />
  <path
     d="m 105.74611,41.706809 c -0.75,0 -0.752,1.166 0,1.166 0.751,0 0.752,-1.166 0,-1.166"
     id="Fill-295"
     fill="#F9E4CF"
     inkscape:connector-curvature="0"
     style="fill-rule:evenodd;stroke:none;stroke-width:1" />
  <path
     d="m 108.31611,49.230809 c -0.42,0 -0.724,0.409 -0.621,0.813 l 0.035,0.135 c 0.149,0.578 1.022,0.579 1.171,0 l 0.034,-0.135 c 0.104,-0.404 -0.199,-0.813 -0.619,-0.813"
     id="Fill-296"
     fill="#F9E4CF"
     inkscape:connector-curvature="0"
     style="fill-rule:evenodd;stroke:none;stroke-width:1" />
  <path
     d="m 110.68911,43.792809 c -0.834,0 -0.835,1.295 0,1.295 0.833,0 0.835,-1.295 0,-1.295"
     id="Fill-297"
     fill="#F9E4CF"
     inkscape:connector-curvature="0"
     style="fill-rule:evenodd;stroke:none;stroke-width:1" />
  <path
     d="m 111.73511,36.312809 -0.138,0.022 c -0.534,0.083 -0.535,0.996 0,1.079 l 0.138,0.021 c 0.368,0.057 0.737,-0.154 0.737,-0.561 0,-0.404 -0.369,-0.619 -0.737,-0.561"
     id="Fill-298"
     fill="#F9E4CF"
     inkscape:connector-curvature="0"
     style="fill-rule:evenodd;stroke:none;stroke-width:1" />
  <path
     d="m 106.64511,55.506809 c -0.908,0 -0.909,1.411 0,1.411 0.908,0 0.909,-1.411 0,-1.411"
     id="Fill-299"
     fill="#F9E4CF"
     inkscape:connector-curvature="0"
     style="fill-rule:evenodd;stroke:none;stroke-width:1" />
  <path
     d="m 111.47911,56.390809 0.002,0.146 c 0.014,0.732 1.126,0.734 1.14,0 l 0.002,-0.146 c 0.014,-0.736 -1.159,-0.737 -1.144,0"
     id="Fill-300"
     fill="#F9E4CF"
     inkscape:connector-curvature="0"
     style="fill-rule:evenodd;stroke:none;stroke-width:1" />
  <path
     d="m 111.42311,18.804809 c 0,0.744 -10e-4,1.488 -10e-4,2.232 -0.023,1.598 -1.374,2.842 -2.868,2.766 -1.375,-0.07 -2.535,-1.241 -2.583,-2.706 0.001,-0.845 0.001,-1.687 0.002,-2.532 0.81,0.851 1.75,1.381 2.73,1.381 0.93,0 1.8,-0.361 2.57,-1.011 l 0.15,-0.13"
     id="Fill-301"
     fill="#F9B995"
     inkscape:connector-curvature="0"
     style="fill-rule:evenodd;stroke:none;stroke-width:1" />
  <path
     d="m 111.42311,18.804809 v 1.14 c -0.45,0.25 -1.459,0.71 -2.809,0.689 -1.26,-0.019 -2.191,-0.439 -2.641,-0.689 v -1.38 c 0.81,0.851 1.75,1.381 2.73,1.381 0.93,0 1.8,-0.361 2.57,-1.011 l 0.15,-0.13"
     id="path18102"
     fill="#EFA884"
     inkscape:connector-curvature="0"
     style="fill-rule:evenodd;stroke:none;stroke-width:1" />
  <path
     d="m 115.65211,11.746809 c 0,0.69 -0.471,1.25 -1.061,1.25 -0.1,0 -0.189,-0.04 -0.28,-0.07 -0.46,2.55 -1.508,4.658 -2.888,5.878 l -0.15,0.13 c -0.77,0.65 -1.64,1.011 -2.57,1.011 -0.98,0 -1.92,-0.53 -2.73,-1.381 -1.312,-1.378 -2.312,-3.508 -2.801,-5.608 l -0.151,0.04 c -0.59,0 -1.06,-0.56 -1.06,-1.25 0,-0.61 0.38,-1.09 0.88,-1.2 0,-0.09 -0.01,-0.18 0,-0.27 0.101,0.15 0.21,0.24 0.311,0.23 0.219,-0.02 0.439,-0.7400004 0.879,-2.1900004 0.34,-1.13 0.371,-1.43 0.72,-1.72 0.26,-0.23 0.651,-0.35 1.86,-0.27 2.6,0.16 2.88,0.83 4.3,0.65 1.261,-0.15 1.86,-0.78 2.47,-0.42 l 0.09,0.06 c 0.39,0.33 0.49,0.83 0.52,1 0.05,0.32 0.38,2.11 0.661,2.7100004 l -0.031,0.19 c 0.571,0.01 1.031,0.56 1.031,1.23"
     id="Fill-303"
     fill="#F9B995"
     inkscape:connector-curvature="0"
     style="fill-rule:evenodd;stroke:none;stroke-width:1" />
  <path
     d="m 114.80111,10.526809 c -0.05,0 -0.1,-0.08 -0.149,-0.2 -0.281,-0.6000004 -0.611,-2.3900004 -0.661,-2.7100004 -0.03,-0.17 -0.13,-0.67 -0.52,-1 l -0.09,-0.06 c -0.61,-0.36 -1.209,0.27 -2.47,0.42 -1.42,0.18 -1.7,-0.49 -4.3,-0.65 -1.209,-0.08 -1.6,0.04 -1.86,0.27 -0.349,0.29 -0.38,0.59 -0.72,1.72 -0.44,1.45 -0.66,2.1700004 -0.879,2.1900004 -0.101,0.01 -0.21,-0.08 -0.311,-0.23 -0.54,-0.7800004 -1.02,-3.3100004 -0.52,-4.0100004 0.02,-0.03 0.26,-0.38 0.54,-0.84 0.081,-0.13 0.17,-0.3 0.26,-0.5 0.33,-0.75 0.281,-1.08 0.43,-1.49 0.58,-1.56 3.27,-2.38 5.24,-2.19 1.03,0.1 1.81,0.42 1.81,0.42 0.91,0.38 1.11,0.74 1.93,0.92 0.871,0.19 1.05,-0.13 1.56,0.07 0.581,0.24 1.2,1.5 1.38,3.26 0.24,2.45 -0.39,4.6300004 -0.67,4.6100004"
     id="Fill-304"
     fill="#E68540"
     inkscape:connector-curvature="0"
     style="fill-rule:evenodd;stroke:none;stroke-width:1" />
  <path
     d="m 105.97111,21.096809 c -0.02,1.56 -0.38,23.36 -1.25,35.61 -0.029,0.41 -0.06,0.91 -0.13,1.45 -0.23,1.82 -0.82,4.12 -2.62,5.17 -1.79,1.05 -4.69,0.79 -6.33,-0.75 -2.34,-2.19 -1.13,-5.97 -0.29,-15.75 0.36,-4.27 0.5,-7.79 0.551,-10.16 -1.101,0.5 -6.101004,2.72 -7.480004,3.31 0.02,-2.87 0.079,-5.75 0.139,-8.64 1.26,-1.26 2.87,-2.69 4.841004,-4.11 1.479,-1.08 3.169,-2.15 5.069,-3.14 2.74,-1.42 5.31,-2.36 7.5,-2.99"
     id="Fill-305"
     fill="#0071BC"
     inkscape:connector-curvature="0"
     style="fill-rule:evenodd;stroke:none;stroke-width:1" />
  <path
     d="m 105.94511,21.097809 c -0.004,0.285 -0.078,4.326 -0.1,5.336 -0.645,0.394 -1.416,0.797 -2.174,1.018 -0.212,0.06 -0.507,0.133 -0.706,-0.018 -0.312,-0.238 -0.186,-0.888 -0.134,-1.135 0.173,-0.918 0.385,-2.403 0.641,-4.4 0.156,-0.178 0.475,-0.492 0.981,-0.69 0.668,-0.263 1.26,-0.164 1.492,-0.111"
     id="Fill-306"
     fill="#012E4C"
     inkscape:connector-curvature="0"
     style="fill-rule:evenodd;stroke:none;stroke-width:1" />
  <path
     d="m 127.01111,27.826809 c -1.317,1.091 -2.365,2.073 -3.14,2.84 -0.137,0.136 -0.724,0.719 -1.48,1.53 -0.892,0.958 -1.62,1.806 -2.17,2.47 0.021,1.926 0.095,4.749 0.34,8.34 0.021,0.3 0.035,0.497 0.04,0.57 0.97,12.44 3.29,18.02 0.47,20.24 -1.57,1.24 -4.149,0.97 -5.72,0.01 -1.74,-1.06 -2.55,-3.12 -2.909,-5.35 -0.081,-0.47 -0.131,-0.955 -0.161,-1.435 -0.05,-0.39 -0.07,-0.795 -0.08,-1.185 -0.06,-1.38 -0.009,-2.7 0.02,-3.78 0.12,-3.99 0.15,-8.84 -0.01,-14.74 0,-0.31 -0.01,-0.62 -0.019,-0.94 -0.091,-3.04 -0.232,-6.349 -0.442,-9.948 -0.09,-1.72 -0.328,-5.412 -0.328,-5.412 0.659,0.13 1.5,0.32 2.469,0.6 0.31,0.09 0.64,0.18 0.97,0.29 1.4,0.44 2.66,0.94 4.331,1.72 1.809,0.83 4.5,2.17 7.819,4.18"
     id="Fill-307"
     fill="#0071BC"
     inkscape:connector-curvature="0"
     style="fill-rule:evenodd;stroke:none;stroke-width:1" />
  <path
     d="m 114.40311,27.316809 c -0.199,0.151 -0.493,0.078 -0.705,0.017 -0.671,-0.195 -1.35,-0.535 -1.948,-0.885 -0.048,-0.863 -0.326,-5.4 -0.326,-5.469 l 0.112,-0.021 c 0.669,-0.134 1.378,0.129 1.378,0.129 0.473,0.161 0.815,0.407 1.024,0.587 0.22,2.042 0.412,3.514 0.6,4.507 0.049,0.257 0.176,0.899 -0.135,1.135"
     id="Fill-308"
     fill="#012E4C"
     inkscape:connector-curvature="0"
     style="fill-rule:evenodd;stroke:none;stroke-width:1" />
  <path
     d="m 106.88012,11.456809 c 0.002,0.505 -0.27201,0.918 -0.61401,0.919007 -0.342,0.002 -0.621,-0.407007 -0.624,-0.913007 -0.003,-0.505 0.272,-0.918 0.614,-0.920002 0.341,-9.98e-4 0.621,0.408002 0.62401,0.914002"
     id="Fill-309"
     fill="#352F31"
     inkscape:connector-curvature="0"
     style="fill-rule:evenodd;stroke:none;stroke-width:1" />
  <path
     d="m 112.01111,11.427809 c 0.003,0.506 -0.272,0.918 -0.613,0.920007 -0.342,0.002 -0.621,-0.407007 -0.624,-0.913007 -0.003,-0.506 0.272,-0.918 0.613,-0.920008 0.342,-0.002 0.621,0.407008 0.624,0.913008"
     id="Fill-310"
     fill="#352F31"
     inkscape:connector-curvature="0"
     style="fill-rule:evenodd;stroke:none;stroke-width:1" />
  <path
     d="m 109.32211,14.343809 c -0.408,-0.105 -1.05,-0.347 -1.128,-0.826 -0.031,-0.191 0.037,-0.334 0.172,-0.617 0.124,-0.261 0.313,-0.661 0.555,-1.188 l 0.166,-0.061 0.061,0.166 c -0.242,0.527 -0.431,0.928 -0.553,1.183 -0.132,0.278 -0.172,0.369 -0.154,0.477 0.039,0.245 0.381,0.477 0.913,0.621 l 0.088,0.153 -0.12,0.092"
     id="Fill-311"
     fill="#F2856B"
     inkscape:connector-curvature="0"
     style="fill-rule:evenodd;stroke:none;stroke-width:1" />
  <path
     d="m 104.76011,9.2058086 c 0.041,-0.406 1.021,-0.567 1.308,-0.619 0.282,-0.051 0.89,-0.162 1.067,0.105 l 0.04,0.25 c -0.053,0.144 -0.259,0.187 -0.349,0.207 -1.19,0.26 -1.769,0.578 -1.998,0.28 -0.011,-0.014 -0.08,-0.107 -0.068,-0.223"
     id="Fill-312"
     fill="#E68540"
     inkscape:connector-curvature="0"
     style="fill-rule:evenodd;stroke:none;stroke-width:1" />
  <path
     d="m 112.89311,9.1608086 c -0.046,-0.406 -1.028,-0.556 -1.315,-0.605 -0.283,-0.048 -0.892,-0.151 -1.066,0.117 l -0.037,0.25 c 0.054,0.144 0.261,0.186 0.351,0.204 1.193,0.247 1.776,0.559 2.001,0.257 0.011,-0.014 0.079,-0.107 0.066,-0.223"
     id="Fill-313"
     fill="#E68540"
     inkscape:connector-curvature="0"
     style="fill-rule:evenodd;stroke:none;stroke-width:1" />
  <path
     d="m 110.66411,16.103809 -0.023,0.13 -0.031,0.049 c -0.116,0.338 -0.455,0.761 -0.89,1.003 -0.697,0.377 -1.412,0.123 -1.511,0.09 -0.537,-0.2 -0.968,-0.659 -1.131,-1.022 -0.048,-0.091 -0.076,-0.182 -0.085,-0.262 l 0.024,-0.199 c 0.145,-0.247 0.679,0.064 1.97,0.019 1.061,-0.039 1.486,-0.282 1.642,-0.059 0.039,0.062 0.046,0.151 0.035,0.251"
     id="Fill-314"
     fill="#DA6249"
     inkscape:connector-curvature="0"
     style="fill-rule:evenodd;stroke:none;stroke-width:1" />
  <path
     d="m 110.66411,16.103809 c -0.373,0.133 -0.846,0.254 -1.416,0.293 -0.982,0.07 -1.778,-0.135 -2.255,-0.305 l 0.024,-0.199 c 0.145,-0.247 0.679,0.064 1.97,0.019 1.061,-0.039 1.486,-0.282 1.642,-0.059 0.039,0.062 0.046,0.151 0.035,0.251"
     id="Fill-315"
     fill="#FFFFFF"
     inkscape:connector-curvature="0"
     style="fill-rule:evenodd;stroke:none;stroke-width:1" />
  <path
     d="m 118.55511,21.930809 c 0.859,0.489 1.853,1.622 1.55,2.741 -0.339,1.25 -2.122,1.841 -3.422,1.435 -1.594,-0.499 -2.618,-2.547 -1.956,-3.708 0.614,-1.079 2.568,-1.186 3.828,-0.468"
     id="Fill-316"
     fill="#C78457"
     inkscape:connector-curvature="0"
     style="fill-rule:evenodd;stroke:none;stroke-width:1" />
  <path
     d="m 63.511106,48.717809 c -0.354,-1.088 -0.324,-2.833 0.808,-3.555 1.264,-0.807 3.252,0.076 4.049,1.437 0.977,1.669 0.259,4.221 -1.212,4.7 -1.367,0.446 -3.124,-0.985 -3.645,-2.582"
     id="Fill-317"
     fill="#F9B995"
     inkscape:connector-curvature="0"
     style="fill-rule:evenodd;stroke:none;stroke-width:1" />
  <path
     d="m 163.57111,138.27681 c -1.23,0.19 -2.58,0.35 -4.04,0.45 -1.35,0.1 -2.79,0.14 -4.31,0.1 -0.39,-0.01 -0.77,-0.02 -1.14,-0.04 -1.81,-0.08 -3.48,-0.27 -4.99,-0.51 -1.649,-16.76 -3.3,-33.51 -4.95,-50.27 -0.32,16.75 -0.64,33.52 -0.949,50.27 -1.27,0.44 -2.991,0.9 -5.031,1.09 -1.6,0.16 -3.4,0.15 -5.34,-0.18 -1.29,-0.22 -2.45,-0.54 -3.46,-0.91 -0.16,-21.58 -1.53,-36.14 -1.65,-45.02 -0.16,-11.73 0.04,-19.710001 0.461,-22.610001 0.129,-0.9 0.299,-1.78 0.489,-2.62 l 0.23,0.1 c 1.2,0.39 3.37,-1.19 7.62,-4.47 3.2,-2.47 5.62,-4.92 7.33,-6.83 1.34,1.98 3.54,4.74 6.89,7.29 2.85,2.18 5.171,3.96 6.68,3.94 0.1,0 0.21,-0.01 0.31,-0.03 0.201,0.75 0.39,1.53 0.56,2.32 0.7,3.35 2.13,18.050001 3.59,39.640001 0,0.09 0.01,0.18 0.02,0.27 0,0 1.14,17.82 1.68,28.02"
     id="Fill-318"
     fill="#BA7C6D"
     inkscape:connector-curvature="0"
     style="fill-rule:evenodd;stroke:none;stroke-width:1" />
  <path
     d="m 154.54811,24.895809 c -0.769,-0.448 -1.624,-0.887 -2.577,-1.306 -1.575,-0.702 -3.666,-1.471 -6.261,-1.803 -1.274,-0.165 -3.121,-0.292 -5.299,-0.039 -1.021,0.107 -3.85,0.506 -7.156,2.066 -1.07,0.507 -1.994,1.033 -2.81,1.579 0.875,-1.55 2.168,-1.677 2.528,-3.548 0.36,-1.949 -0.895,-2.651 -0.622,-4.883 0.223,-1.841 1.137,-1.764 2.003,-3.996 1.4,-3.5380004 -0.224,-5.3700004 1.497,-8.4300004 0.69,-1.229 1.507,-1.901 1.837,-2.155 1.313,-1.004 2.596,-1.189 2.839,-1.208 0.691,-0.088 1.265,-0.029 1.653,0.048 0.496,-0.27199997 1.527,-0.73999997 2.829,-0.60299997 1.829,0.175 2.985,1.41299997 3.579,2.03699997 1.283,1.374 1.779,2.982 2.002,3.674 0.545,1.686 0.302,2.281 0.671,3.9470004 0.642,3.002 1.945,2.827 2.46,5.37 0.71,3.519 -0.943,4.737 0.078,7.759 0.224,0.673 0.486,1.131 0.749,1.491"
     id="Fill-319"
     fill="#7A3563"
     inkscape:connector-curvature="0"
     style="fill-rule:evenodd;stroke:none;stroke-width:1" />
  <path
     d="m 137.69311,151.15581 c 0.081,1.13 0.13,1.899 -0.37,2.309 -0.13,0.111 -0.27,0.161 -0.359,0.191 h -12.331 c -0.03,0 -0.299,0 -0.45,-0.221 -0.13,-0.189 -0.06,-0.409 -0.05,-0.439 0.121,-0.33 0.601,-0.46 0.75,-0.5 1.34,-0.351 2.88,-0.75 4.22,-1.34 0.49,-0.21 1.278,-0.529 2.089,-1.259 0.379,-0.33 1.189,-1.07 1.579,-2.27 0.27,-0.81 0.24,-1.49 0.22,-1.8 -0.089,-1.95 0.13,-3.9 -0.089,-5.84 -0.021,-0.21 -0.051,-0.48 -0.081,-0.8 1.94,0.33 3.74,0.34 5.34,0.18 -0.2,2.5 -0.38,5.37 -0.46,8.55 -0.09,0.91 -0.09,1.66 -0.07,2.21 0.01,0.37 0.042,0.708 0.062,1.029"
     id="Fill-320"
     fill="#F9B995"
     inkscape:connector-curvature="0"
     style="fill-rule:evenodd;stroke:none;stroke-width:1" />
  <path
     d="m 137.32311,153.46481 c -0.13,0.111 -0.27,0.161 -0.359,0.191 h -12.331 c -0.03,0 -0.299,0 -0.45,-0.221 -0.13,-0.189 -0.06,-0.409 -0.05,-0.439 0.121,-0.33 0.601,-0.46 0.75,-0.5 1.34,-0.351 2.88,-0.75 4.22,-1.34 h 8.59 c 0.081,1.13 0.13,1.899 -0.37,2.309"
     id="Fill-321"
     fill="#7A3563"
     inkscape:connector-curvature="0"
     style="fill-rule:evenodd;stroke:none;stroke-width:1" />
  <path
     d="m 168.12411,153.43481 c -0.151,0.221 -0.421,0.221 -0.451,0.221 h -12.33 c -0.089,-0.03 -0.23,-0.08 -0.359,-0.191 -0.5,-0.41 -0.451,-1.179 -0.371,-2.309 0.02,-0.321 0.048,-0.659 0.059,-1.029 0.02,-0.55 0.02,-1.3 -0.041,-2.22 -0.11,-3.42 -0.31,-6.49 -0.55,-9.12 0.37,0.02 0.75,0.03 1.14,0.04 1.52,0.04 2.96,0 4.31,-0.1 -0.04,0.53 -0.08,0.96 -0.12,1.26 -0.219,1.94 -0.009,3.89 -0.09,5.84 -0.02,0.31 -0.05,0.99 0.22,1.8 0.39,1.2 1.2,1.94 1.57,2.27 0.811,0.73 1.613,1.049 2.092,1.259 1.341,0.59 2.881,0.989 4.22,1.34 0.15,0.04 0.63,0.17 0.75,0.5 0.011,0.03 0.081,0.25 -0.049,0.439"
     id="Fill-322"
     fill="#F9B995"
     inkscape:connector-curvature="0"
     style="fill-rule:evenodd;stroke:none;stroke-width:1" />
  <path
     d="m 154.98411,153.46481 c 0.129,0.111 0.27,0.161 0.359,0.191 h 12.33 c 0.031,0 0.301,0 0.451,-0.221 0.13,-0.189 0.06,-0.409 0.049,-0.439 -0.12,-0.33 -0.6,-0.46 -0.75,-0.5 -1.339,-0.351 -2.879,-0.75 -4.22,-1.34 h -8.59 c -0.079,1.13 -0.129,1.899 0.371,2.309"
     id="Fill-323"
     fill="#7A3563"
     inkscape:connector-curvature="0"
     style="fill-rule:evenodd;stroke:none;stroke-width:1" />
  <path
     d="m 197.89411,34.813809 c -1.23,1.28 -3.07,1.23 -4.77,1.3 -1.23,0.06 -2.75,0.19 -4.53,0.49 -0.25,-1.269 -0.502,-2.538 -0.752,-3.809 0.341,-0.2 0.642,-0.411 0.902,-0.611 1.84,-1.4 3.1,-3.31 4.27,-2.96 0.09,0.03 0.38,0.12 0.48,0.35 0.34,0.78 -1.68,2.11 -1.45,2.48 0.17,0.29 1.51,-0.2 2.38,-0.51 1.7,-0.61 1.97,-0.94 2.61,-0.81 0.82,0.16 1.57,0.94 1.73,1.84 0.19,1.13 -0.65,2.011 -0.87,2.24"
     id="Fill-324"
     fill="#F9B995"
     inkscape:connector-curvature="0"
     style="fill-rule:evenodd;stroke:none;stroke-width:1" />
  <path
     d="m 188.76111,37.486809 c -1.98,0.74 -4.93,1.75 -8.589,2.67 -5.811,1.46 -9.75,2.42 -14.551,1.73 -2.27,-0.33 -6.05,-1.23 -10.33,-4.09 5.44,22.81 4.81,29.28 2.69,30.15 l -0.26,0.08 c -0.1,0.02 -0.21,0.03 -0.31,0.03 -1.509,0.02 -3.83,-1.76 -6.68,-3.94 -3.35,-2.55 -5.55,-5.31 -6.89,-7.29 -1.71,1.91 -4.13,4.36 -7.33,6.83 -4.25,3.28 -6.42,4.86 -7.62,4.47 l -0.23,-0.1 c -1.96,-1.08 -2.719,-7.92 0.93,-30.12 -3.01,1.7 -6.02,3.4 -9.03,5.1 -0.115,-1.527 -0.204,-3.107 -0.263,-4.736 -0.045,-1.229 -0.069,-2.432 -0.077,-3.604 0.55,-0.664 1.278,-1.512 2.17,-2.47 0.764,-0.82 1.356,-1.406 1.48,-1.53 1.291,-1.275 2.416,-2.245 3.14,-2.84 1.01,-0.83 2.01,-1.64 3.19,-2.41 0.84,-0.56 1.79,-1.1 2.89,-1.62 3.4,-1.6 6.311,-2.01 7.36,-2.12 2.241,-0.26 4.14,-0.13 5.451,0.04 2.669,0.34 4.819,1.13 6.439,1.85 0.98,0.43 1.86,0.88 2.65,1.34 6.21,3.61 7.661,7.93 13.451,9.13 1.269,0.26 4.149,-0.09 9.899,-0.76 3.9,-0.45 7.11,-0.97 9.331,-1.37 0.059,0.3 0.121,0.589 0.17,0.888 0.25,1.271 0.859,4.402 0.919,4.692"
     id="Fill-325"
     fill="#F9E4CF"
     inkscape:connector-curvature="0"
     style="fill-rule:evenodd;stroke:none;stroke-width:1" />
  <path
     d="m 143.85811,33.944809 c 0,0.384 -0.311,0.695 -0.695,0.695 -0.383,0 -0.694,-0.311 -0.694,-0.695 0,-0.383 0.311,-0.694 0.694,-0.694 0.384,0 0.695,0.311 0.695,0.694"
     id="Fill-326"
     fill="#BA7C6D"
     inkscape:connector-curvature="0"
     style="fill-rule:evenodd;stroke:none;stroke-width:1" />
  <path
     d="m 143.82111,42.472809 c 0,0.384 -0.311,0.695 -0.694,0.695 -0.384,0 -0.695,-0.311 -0.695,-0.695 0,-0.383 0.311,-0.694 0.695,-0.694 0.383,0 0.694,0.311 0.694,0.694"
     id="Fill-327"
     fill="#BA7C6D"
     inkscape:connector-curvature="0"
     style="fill-rule:evenodd;stroke:none;stroke-width:1" />
  <path
     d="m 143.82111,51.007809 c 0,0.384 -0.311,0.696 -0.694,0.696 -0.384,0 -0.695,-0.312 -0.695,-0.696 0,-0.383 0.311,-0.694 0.695,-0.694 0.383,0 0.694,0.311 0.694,0.694"
     id="Fill-328"
     fill="#BA7C6D"
     inkscape:connector-curvature="0"
     style="fill-rule:evenodd;stroke:none;stroke-width:1" />
  <path
     d="m 145.90311,18.633809 v 3.16 c -0.549,4.39 -1.739,7.52 -2.789,7.52 -1.04,-0.01 -2.171,-3.149 -2.66,-7.52 v -3.4 c 0.81,0.85 1.75,1.38 2.73,1.38 0.93,0 1.8,-0.359 2.57,-1.01 l 0.149,-0.13"
     id="Fill-329"
     fill="#F9B995"
     inkscape:connector-curvature="0"
     style="fill-rule:evenodd;stroke:none;stroke-width:1" />
  <path
     d="m 145.90311,18.633809 v 1.14 c -0.449,0.25 -1.46,0.71 -2.809,0.69 -1.26,-0.02 -2.191,-0.44 -2.64,-0.69 v -1.38 c 0.81,0.85 1.75,1.38 2.73,1.38 0.93,0 1.8,-0.359 2.57,-1.01 l 0.149,-0.13"
     id="Fill-330"
     fill="#EFA884"
     inkscape:connector-curvature="0"
     style="fill-rule:evenodd;stroke:none;stroke-width:1" />
  <path
     d="m 149.03411,10.683809 c -0.16,3.46 -1.39,6.42 -3.131,7.95 l -0.149,0.13 c -0.77,0.651 -1.64,1.01 -2.57,1.01 -0.98,0 -1.92,-0.53 -2.73,-1.38 -1.74,-1.83 -2.96,-5.03 -3.12,-7.7 -0.03,-0.31 -0.03,-0.62 -0.02,-0.8700004 0.967,-0.507 2.328,-1.389 3.534,-2.871 0.497,-0.61 0.876,-1.209 1.167,-1.75 0.879,0.936 1.969,1.972 3.291,3.007 1.328,1.038 2.603,1.8460004 3.728,2.4740004"
     id="Fill-331"
     fill="#F9B995"
     inkscape:connector-curvature="0"
     style="fill-rule:evenodd;stroke:none;stroke-width:1" />
  <path
     d="m 141.26211,10.931809 c 0,0.506 -0.277,0.917 -0.618,0.917 -0.342,0 -0.619,-0.411 -0.619,-0.917 0,-0.506 0.277,-0.916 0.619,-0.916 0.341,0 0.618,0.41 0.618,0.916"
     id="Fill-332"
     fill="#352F31"
     inkscape:connector-curvature="0"
     style="fill-rule:evenodd;stroke:none;stroke-width:1" />
  <path
     d="m 146.39411,10.931809 c 0,0.506 -0.277,0.917 -0.619,0.917 -0.341,0 -0.619,-0.411 -0.619,-0.917 0,-0.506 0.278,-0.916 0.619,-0.916 0.342,0 0.619,0.41 0.619,0.916"
     id="Fill-333"
     fill="#352F31"
     inkscape:connector-curvature="0"
     style="fill-rule:evenodd;stroke:none;stroke-width:1" />
  <path
     d="m 143.62711,13.906809 c -0.408,-0.109 -1.049,-0.354 -1.124,-0.833 -0.029,-0.192 0.039,-0.334 0.176,-0.616 0.125,-0.261 0.316,-0.66 0.561,-1.185 l 0.166,-0.061 0.061,0.166 c -0.245,0.527 -0.437,0.926 -0.56,1.181 -0.133,0.276 -0.173,0.367 -0.157,0.476 0.038,0.245 0.379,0.479 0.91,0.626 l 0.087,0.154 -0.12,0.092"
     id="Fill-334"
     fill="#F2856B"
     inkscape:connector-curvature="0"
     style="fill-rule:evenodd;stroke:none;stroke-width:1" />
  <path
     d="m 139.05611,8.8838086 c 0.044,-0.405 1.024,-0.561 1.311,-0.611 0.283,-0.05 0.891,-0.157 1.067,0.11 l 0.039,0.25 c -0.054,0.145 -0.261,0.187 -0.35,0.206 -1.191,0.252 -1.773,0.569 -2,0.269 -0.011,-0.015 -0.079,-0.108 -0.067,-0.224"
     id="Fill-335"
     fill="#7A3563"
     inkscape:connector-curvature="0"
     style="fill-rule:evenodd;stroke:none;stroke-width:1" />
  <path
     d="m 147.18911,8.8838086 c -0.044,-0.405 -1.024,-0.561 -1.311,-0.611 -0.283,-0.05 -0.891,-0.157 -1.067,0.11 l -0.038,0.25 c 0.053,0.145 0.26,0.187 0.349,0.206 1.192,0.252 1.773,0.569 2,0.269 0.011,-0.015 0.08,-0.108 0.067,-0.224"
     id="Fill-336"
     fill="#7A3563"
     inkscape:connector-curvature="0"
     style="fill-rule:evenodd;stroke:none;stroke-width:1" />
  <path
     d="m 145.01511,15.696809 -0.023,0.13 -0.031,0.049 c -0.119,0.337 -0.459,0.758 -0.895,0.998 -0.7,0.373 -1.414,0.114 -1.513,0.082 -0.535,-0.204 -0.964,-0.664 -1.125,-1.029 -0.047,-0.091 -0.075,-0.181 -0.083,-0.261 l 0.025,-0.201 c 0.146,-0.246 0.678,0.068 1.97,0.03 1.061,-0.034 1.487,-0.273 1.642,-0.049 0.038,0.061 0.046,0.151 0.033,0.251"
     id="Fill-337"
     fill="#DA6249"
     inkscape:connector-curvature="0"
     style="fill-rule:evenodd;stroke:none;stroke-width:1" />
  <path
     d="m 145.01511,15.696809 c -0.373,0.131 -0.846,0.249 -1.417,0.285 -0.982,0.065 -1.777,-0.145 -2.253,-0.316 l 0.025,-0.201 c 0.146,-0.246 0.678,0.068 1.97,0.03 1.061,-0.034 1.487,-0.273 1.642,-0.049 0.038,0.061 0.046,0.151 0.033,0.251"
     id="Fill-338"
     fill="#FFFFFF"
     inkscape:connector-curvature="0"
     style="fill-rule:evenodd;stroke:none;stroke-width:1" />
</svg>
