<?xml version="1.0" encoding="UTF-8"?>
<svg width="206px" height="192px" viewBox="0 0 206 192" version="1.1" xmlns="http://www.w3.org/2000/svg" xmlns:xlink="http://www.w3.org/1999/xlink">
    <!-- Generator: Sketch 59 (86127) - https://sketch.com -->
    <title>community</title>
    <desc>Created with Sketch.</desc>
    <g id="Page-1" stroke="none" stroke-width="1" fill="none" fill-rule="evenodd">
        <g id="depressed.nyc---about" transform="translate(-193.000000, -1022.000000)">
            <g id="Group-6" transform="translate(115.000000, 970.000000)">
                <g id="community" transform="translate(75.782033, 51.238519)">
                    <path d="M13.3773454,106.412371 C12.3731216,115.171331 -4.49051331,173.249181 21.0978795,187.601308 C46.6862723,201.953435 114.63636,193.317671 140.227951,194.405228 C151.822288,194.898338 164.154001,194.704019 174.013184,189.735316 C184.407351,184.496029 190.216122,174.704883 192.158824,164.911647 C194.102816,155.118412 192.717013,145.1225 191.760486,135.234195 C189.246704,109.264466 189.730124,83.1045966 193.203011,57.2079977 C195.119931,42.8994687 197.932788,28.2994619 194.070588,14.2521136 C192.379263,8.1028728 188.883173,1.68722758 181.952868,-1.16800095 C177.411302,-3.03910021 172.089818,-3.08611276 166.997798,-2.95656708 C135.347347,-2.15317493 103.995971,3.8895041 72.3558321,2.86985425 C58.4694415,2.42166799 31.2445357,-1.75304594 21.0978795,8.49255456 C10.1210306,19.5791572 11.7234056,43.3131791 12.2300294,56.5404196 C12.8668542,73.1734578 15.278796,89.8420166 13.3773454,106.412371 Z" id="Fill-302" fill="#EBF3F5" transform="translate(101.500000, 96.500000) rotate(-89.000000) translate(-101.500000, -96.500000) "></path>
                    <g id="Group-15" transform="translate(9.217967, 21.761481)">
                        <path d="M53.4331061,153.525809 C53.4331061,153.555809 53.3931061,153.785809 53.1931061,153.895809 C52.9631061,154.025809 52.7131061,153.895809 52.6931061,153.885809 L41.7131061,148.275809 C41.6431061,148.215809 41.5441061,148.105809 41.4841061,147.955809 C41.2231061,147.345809 41.6331061,146.665809 42.2341061,145.665809 C42.3831061,145.405809 42.5511061,145.126809 42.7211061,144.826809 C42.9611061,144.386809 43.2711061,143.786809 43.6011061,143.026809 C44.1111061,143.456809 44.7711061,143.926809 45.6011061,144.326809 C46.5411061,144.786809 47.4311061,145.016809 48.1711061,145.146809 C48.1611061,145.786809 48.2211061,146.686809 48.5611061,147.556809 C48.8711061,148.346809 49.4031061,149.115809 50.0441061,149.865809 C50.9331061,150.915809 52.0331061,151.895809 52.9931061,152.745809 C53.1131061,152.845809 53.4841061,153.175809 53.4331061,153.525809" id="Fill-231" fill="#F9B995"></path>
                        <path d="M41.4841061,147.955809 C41.5441061,148.105809 41.6431061,148.215809 41.7131061,148.275809 L52.6931061,153.885809 C52.7131061,153.895809 52.9631061,154.025809 53.1931061,153.895809 C53.3931061,153.785809 53.4331061,153.555809 53.4331061,153.525809 C53.4841061,153.175809 53.1131061,152.845809 52.9931061,152.745809 C52.0331061,151.895809 50.9331061,150.915809 50.0441061,149.865809 L42.2341061,145.665809 C41.6331061,146.665809 41.2231061,147.345809 41.4841061,147.955809" id="Fill-232" fill="#352F31"></path>
                        <path d="M46.1821061,153.729809 C46.0311061,153.949809 45.7611061,153.949809 45.7321061,153.949809 L33.4011061,153.949809 C33.3121061,153.918809 33.1711061,153.869809 33.0421061,153.758809 C32.5421061,153.348809 32.5911061,152.579809 32.6711061,151.449809 C32.6921061,151.128809 32.7211061,150.786809 32.7311061,150.416809 C32.7511061,149.926809 32.7511061,149.286809 32.7011061,148.506809 C33.7411061,148.596809 34.8711061,148.646809 36.0911061,148.626809 C36.7011061,148.616809 37.2911061,148.586809 37.8511061,148.536809 C38.2811061,149.376809 38.8711061,149.916809 39.1711061,150.186809 C39.9811061,150.916809 40.7811061,151.239809 41.2611061,151.449809 C42.6021061,152.039809 44.1421061,152.439809 45.4821061,152.789809 C45.6311061,152.829809 46.1111061,152.959809 46.2321061,153.289809 C46.2421061,153.319809 46.3121061,153.539809 46.1821061,153.729809" id="Fill-233" fill="#F9B995"></path>
                        <path d="M67.1111061,104.586809 C67.0811061,106.586809 67.0611061,107.696809 66.8711061,109.316809 C66.0311061,116.496809 63.2611061,121.196809 58.2211061,129.896809 C56.5911061,132.716809 53.5711061,137.936809 49.3911061,145.266809 C49.0611061,145.256809 48.6521061,145.226809 48.1711061,145.146809 C47.4311061,145.016809 46.5411061,144.786809 45.6011061,144.326809 C44.7711061,143.926809 44.1111061,143.456809 43.6011061,143.026809 C43.3311061,142.796809 43.1111061,142.586809 42.9311061,142.396809 C48.0411061,127.646809 51.5211061,116.796809 52.0511061,114.316809 C52.8011061,110.846809 52.2211061,107.896809 52.2211061,107.896809 C50.4711061,99.3968086 48.7211061,90.8868086 46.9711061,82.3868086 C44.2511061,104.406809 41.5411061,126.426809 38.8211061,148.446809 C38.5111061,148.476809 38.1911061,148.506809 37.8511061,148.536809 C37.2911061,148.586809 36.7011061,148.616809 36.0911061,148.626809 C34.8711061,148.646809 33.7411061,148.596809 32.7011061,148.506809 C32.4311061,148.476809 32.1611061,148.446809 31.9011061,148.416809 C31.7711061,120.996809 31.6411061,93.5868086 31.5111061,66.1768086 C33.8811061,66.4368086 36.7911061,63.4568086 45.2211061,63.2068086 C49.4811061,63.0768086 54.2211061,63.6668086 58.3211061,60.4268086 C58.7511061,60.0868086 58.9711061,59.9268086 59.2211061,59.6368086 C60.1311061,63.3868086 60.8911061,66.5668086 61.4711061,69.0368086 C65.9711061,88.1068086 67.2411061,95.7468086 67.1111061,104.586809" id="Fill-234" fill="#C4ABB0"></path>
                        <path d="M33.0421061,153.758809 C33.1711061,153.869809 33.3121061,153.918809 33.4011061,153.949809 L45.7321061,153.949809 C45.7611061,153.949809 46.0311061,153.949809 46.1821061,153.729809 C46.3121061,153.539809 46.2421061,153.319809 46.2321061,153.289809 C46.1111061,152.959809 45.6311061,152.829809 45.4821061,152.789809 C44.1421061,152.439809 42.6021061,152.039809 41.2611061,151.449809 L32.6711061,151.449809 C32.5911061,152.579809 32.5421061,153.348809 33.0421061,153.758809" id="Fill-235" fill="#352F31"></path>
                        <path d="M9.56110608,13.4768086 C8.98110608,13.4368086 8.14110608,13.5068086 7.28110608,13.9568086 C6.43110608,14.3968086 5.92110608,15.0368086 5.64110608,15.4868086 C5.62110608,15.3668086 5.61110608,15.2768086 5.60110608,15.2168086 C4.84110608,14.8768086 3.87110608,14.2768086 3.38110608,13.2268086 C2.85110608,12.1168086 3.18110608,11.7368086 3.03110608,10.4768086 C2.91110608,9.46680863 -0.208893922,7.48680863 0.0111060778,6.32680863 C0.281106078,4.74680863 1.66110608,6.37680863 2.47110608,7.26680863 C6.69110608,11.8268086 0.131106078,1.96680863 3.48110608,3.21680863 C4.42110608,3.56680863 4.79110608,7.70680863 6.23110608,8.33680863 C10.2811061,10.1568086 9.44110608,11.8368086 9.45110608,13.3068086 L9.56110608,13.4768086" id="Fill-236" fill="#F9B995"></path>
                        <path d="M58.4091061,42.4168086 C59.8591061,53.8168086 61.3111061,57.1568086 59.2211061,59.6368086 C58.9711061,59.9268086 58.7511061,60.0868086 58.3211061,60.4268086 C54.2211061,63.6668086 49.4811061,63.0768086 45.2211061,63.2068086 C36.7911061,63.4568086 33.8811061,66.4368086 31.5111061,66.1768086 C31.0511061,66.1368086 30.6011061,65.9668086 30.1411061,65.6168086 C27.6811061,63.7868086 28.0811061,58.4068086 28.9711061,47.7068086 C29.0511061,46.7668086 29.1301061,45.8568086 29.2301061,44.9768086 C29.2391061,44.8668086 29.2511061,44.7568086 29.2611061,44.6468086 C29.3111061,44.0568086 29.3701061,43.4988086 29.4401061,42.9378086 C29.5001061,42.3678086 29.6711061,41.0468086 29.8111061,39.9168086 L29.8311061,39.7268086 C29.8611061,39.5268086 29.8811061,39.3368086 29.9021061,39.1668086 C29.9511061,38.7168086 30.0111061,38.2868086 30.0711061,37.8768086 C30.1611061,37.3168086 30.2411061,36.7768086 30.3111061,36.2868086 C29.1011061,36.2568086 27.4311061,36.1468086 25.4711061,35.7868086 C23.3911061,35.4068086 20.5211061,34.8868086 17.8411061,33.3568086 C15.2411061,31.8568086 16.3511061,31.4268086 10.2611061,24.9068086 C8.63110608,23.1568086 7.00110608,21.5268086 6.03110608,18.7068086 C5.65110608,17.5768086 5.48110608,16.5968086 5.40110608,15.9168086 C5.45110608,15.8168086 5.53110608,15.6668086 5.64110608,15.4868086 C5.92110608,15.0368086 6.43110608,14.3968086 7.28110608,13.9568086 C8.14110608,13.5068086 8.98110608,13.4368086 9.56110608,13.4768086 C9.90110608,13.4968086 10.1611061,13.5468086 10.2811061,13.5768086 C10.8111061,13.9268086 11.5811061,14.4768086 12.4111061,15.2668086 C14.1521061,16.9168086 15.0411061,18.5468086 15.3511061,19.0768086 C16.3911061,20.8668086 19.3711061,24.8068086 22.9511061,25.9568086 C25.4111061,26.7468086 29.2911061,25.5168086 37.0411061,23.0468086 C37.3711061,22.9368086 39.1411061,22.3768086 41.5111061,21.9468086 C41.7511061,21.9068086 41.9811061,21.8668086 42.2011061,21.8268086 C43.5111061,21.6168086 44.3211061,21.5668086 44.7611061,21.5568086 C45.8811061,21.5268086 46.9011061,21.5968086 47.6511061,21.6768086 C47.8911061,21.6968086 48.0911061,21.7268086 48.2711061,21.7468086 C48.2711061,21.7468086 48.4011061,21.7568086 48.5211061,21.7768086 C51.0411061,22.0868086 54.1011061,23.3468086 54.1011061,23.3468086 C55.5911061,24.0668086 60.9411061,26.7368086 62.1011061,27.3268086 C60.5211061,28.9268086 58.9421061,30.5268086 57.3711061,32.1368086 C57.4311061,33.0068086 57.5111061,34.0868086 57.6311061,35.3268086 C57.6411061,35.4568086 57.6521061,35.5868086 57.6711061,35.7168086 C57.7711061,36.6468086 58.3211061,41.6168086 58.3511061,41.9268086 L58.3711061,42.0668086 L58.3911061,42.2468086 L58.4091061,42.4168086" id="Fill-237" fill="#1BA5B0"></path>
                        <path d="M57.8311061,37.3568086 C57.5311061,37.3268086 57.2311061,37.2968086 56.9311061,37.2668086 C55.3211061,37.1268086 53.7111061,37.0468086 52.1111061,37.0768086 C48.5011061,37.1268086 45.9811061,37.5568086 42.5011061,38.1468086 C41.5011061,38.3168086 40.4411061,38.5068086 39.2511061,38.6868086 C36.1611061,39.1768086 33.0111061,39.5868086 29.8111061,39.9168086 L29.8311061,39.7268086 C29.8511061,39.5368086 29.8711061,39.3468086 29.9021061,39.1668086 C29.9511061,38.7168086 30.0111061,38.2868086 30.0711061,37.8768086 C33.0711061,37.5568086 36.0411061,37.1768086 38.9411061,36.7168086 C40.1111061,36.5268086 41.1711061,36.3468086 42.1711061,36.1768086 C45.6011061,35.5868086 48.3211061,35.1268086 52.0811061,35.0768086 C53.6211061,35.0568086 55.1611061,35.1168086 56.7011061,35.2468086 C57.0111061,35.2668086 57.3211061,35.2968086 57.6311061,35.3268086 C57.6411061,35.4568086 57.6521061,35.5868086 57.6711061,35.7168086 C57.7211061,36.2368086 57.7711061,36.7868086 57.8311061,37.3568086" id="Fill-238" fill="#F9E4CF"></path>
                        <path d="M42.5051061,43.1488086 C45.9851061,42.5538086 48.5001061,42.1248086 52.1111061,42.0778086 C54.2101061,42.0468086 56.3181061,42.1698086 58.4091061,42.4168086 C58.3481061,41.9358086 58.1791061,40.5698086 58.1561061,40.3768086 C56.1371061,40.1578086 54.1061061,40.0458086 52.0861061,40.0778086 C48.3171061,40.1268086 45.6041061,40.5898086 42.1691061,41.1768086 C41.1751061,41.3478086 40.1151061,41.5288086 38.9411061,41.7148086 C35.8361061,42.2088086 32.6551061,42.6118086 29.4401061,42.9378086 C29.3681061,43.5908086 29.2991061,44.2778086 29.2301061,44.9768086 C32.6241061,44.6398086 35.9791061,44.2108086 39.2551061,43.6898086 C40.4371061,43.5018086 41.5051061,43.3198086 42.5051061,43.1488086" id="Fill-239" fill="#F9E4CF"></path>
                        <path d="M51.0801061,10.3348086 L50.9431061,10.3668086 C50.9461061,10.0458086 50.9481061,9.72780863 50.9511061,9.40680863 C50.6411061,9.40680863 50.4011061,8.81680863 50.0811061,8.01680863 C49.6811061,7.01680863 49.7711061,6.64680863 49.4021061,6.32680863 C49.1511061,6.10680863 48.7911061,5.98680863 47.6411061,6.06680863 C45.2111061,6.22680863 44.9411061,6.87680863 43.6011061,6.70680863 C42.4211061,6.54680863 41.8611061,5.93680863 41.2811061,6.28680863 C41.1111061,6.38680863 40.9911061,6.54680863 40.7111061,7.32680863 C40.1711061,8.84680863 40.1711061,9.52680863 40.0111061,9.53680863 C39.9891061,9.84180863 39.9711061,10.1518086 39.9501061,10.4588086 C39.8131061,10.3828086 39.6641061,10.3348086 39.5021061,10.3348086 C38.9141061,10.3348086 38.4381061,10.8908086 38.4381061,11.5788086 C38.4381061,12.2648086 38.9141061,12.8228086 39.5021061,12.8228086 C39.6071061,12.8228086 39.7011061,12.7858086 39.7961061,12.7528086 L39.7911061,12.8268086 C40.1811061,12.9068086 40.5311061,15.0268086 41.9311061,15.3868086 C43.0311061,15.6668086 43.4411061,14.5368086 45.0511061,14.4468086 C46.9211061,14.3268086 47.5711061,15.7868086 48.8611061,15.3868086 C50.2611061,14.9468086 50.5911061,12.8768086 50.9211061,12.8768086 L50.9221061,12.7858086 L51.0801061,12.8228086 C51.6681061,12.8228086 52.1441061,12.2648086 52.1441061,11.5788086 C52.1441061,10.8908086 51.6681061,10.3348086 51.0801061,10.3348086" id="Fill-240" fill="#F9B995"></path>
                        <path d="M47.6611061,20.7368086 C47.6611061,21.1168086 47.6611061,21.5068086 47.6511061,21.8868086 C47.4411061,22.0968086 46.5111061,22.9868086 45.0511061,23.0368086 C43.4411061,23.0868086 42.3911061,22.0868086 42.2011061,21.9068086 C42.2111061,21.4068086 42.2111061,20.9168086 42.2111061,20.4268086 C43.1611061,20.9768086 44.1711061,21.0668086 44.7211061,21.1168086 C44.7711061,21.1168086 44.8511061,21.1268086 44.9611061,21.1368086 C45.1511061,21.1468086 46.4111061,21.1968086 47.6611061,20.7368086" id="Fill-241" fill="#F9B995"></path>
                        <path d="M50.4411061,17.0068086 C50.0711061,18.3768086 49.8811061,19.0668086 49.4511061,19.5668086 C48.9511061,20.1468086 48.3111061,20.5068086 47.6611061,20.7368086 C46.4111061,21.1968086 45.1511061,21.1468086 44.9611061,21.1368086 C44.8511061,21.1268086 44.7711061,21.1168086 44.7211061,21.1168086 C44.1711061,21.0668086 43.1611061,20.9768086 42.2111061,20.4268086 C41.9021061,20.2468086 41.6011061,20.0168086 41.3211061,19.7168086 C40.7311061,19.0968086 40.5111061,18.4568086 40.1811061,17.4768086 C39.4611061,15.3068086 39.3411061,12.9368086 39.7411061,12.8268086 L39.7911061,12.8268086 C40.1811061,12.9068086 40.5311061,15.0268086 41.9311061,15.3868086 C43.0311061,15.6668086 43.4411061,14.5368086 45.0511061,14.4468086 C46.9211061,14.3268086 47.5711061,15.7868086 48.8611061,15.3868086 C50.2611061,14.9468086 50.5911061,12.8768086 50.9211061,12.8768086 C51.2811061,12.9868086 50.9311061,15.1968086 50.4411061,17.0068086" id="Fill-242" fill="#A25F4C"></path>
                        <path d="M50.9511061,9.40680863 C50.6411061,9.40680863 50.4011061,8.81680863 50.0811061,8.01680863 C49.6811061,7.01680863 49.7711061,6.64680863 49.4021061,6.32680863 C49.1511061,6.10680863 48.7911061,5.98680863 47.6411061,6.06680863 C45.2111061,6.22680863 44.9411061,6.87680863 43.6011061,6.70680863 C42.4211061,6.54680863 41.8611061,5.93680863 41.2811061,6.28680863 C41.1111061,6.38680863 40.9911061,6.54680863 40.7111061,7.32680863 C40.1711061,8.84680863 40.1711061,9.52680863 40.0111061,9.53680863 C39.7411061,9.55680863 39.1711061,7.71680863 39.3111061,5.65680863 C39.4311061,3.95680863 40.0511061,2.69680863 40.6111061,2.46680863 C41.0911061,2.26680863 41.2611061,2.58680863 42.0811061,2.39680863 C42.8511061,2.21680863 43.0411061,1.85680863 43.8911061,1.48680863 C43.8911061,1.48680863 44.6311061,1.17680863 45.6011061,1.07680863 C47.4511061,0.886808629 49.9911061,1.69680863 50.5211061,3.22680863 C50.6711061,3.62680863 50.6211061,3.95680863 50.9311061,4.68680863 C51.2411061,5.41680863 51.4911061,5.57680863 51.6911061,6.00680863 C52.3011061,7.35680863 51.4911061,9.35680863 50.9511061,9.40680863" id="Fill-243" fill="#A25F4C"></path>
                        <path d="M43.4361061,11.1408086 C43.4391061,11.6478086 43.1651061,12.0588086 42.8231061,12.0608159 C42.4821061,12.0628086 42.2021061,11.6538086 42.1991061,11.1478086 C42.1961061,10.6418086 42.4711061,10.2298086 42.8131061,10.2278068 C43.1541061,10.2268086 43.4341061,10.6348086 43.4361061,11.1408086" id="Fill-244" fill="#352F31"></path>
                        <path d="M48.5681061,11.1128086 C48.5711061,11.6188086 48.2961061,12.0308086 47.9551061,12.0328159 C47.6131061,12.0348086 47.3341061,11.6258086 47.3311061,11.1198086 C47.3281061,10.6138086 47.6031061,10.2018086 47.9451061,10.1998013 C48.2861061,10.1978086 48.5651061,10.6068086 48.5681061,11.1128086" id="Fill-245" fill="#352F31"></path>
                        <path d="M45.8901061,13.6458086 C45.4811061,13.5398086 44.8391061,13.2978086 44.7611061,12.8188086 C44.7311061,12.6268086 44.7981061,12.4858086 44.9331061,12.2028086 C45.0571061,11.9408086 45.2461061,11.5408086 45.4881061,11.0148086 L45.6541061,10.9538086 L45.7151061,11.1188086 C45.4731061,11.6458086 45.2841061,12.0468086 45.1621061,12.3018086 C45.0301061,12.5798086 44.9901061,12.6698086 45.0081061,12.7788086 C45.0471061,13.0238086 45.3891061,13.2558086 45.9211061,13.3998086 L46.0091061,13.5528086 L45.8901061,13.6458086" id="Fill-246" fill="#F2856B"></path>
                        <path d="M41.3171061,8.67880863 C41.3581061,8.27380863 42.3381061,8.11280863 42.6251061,8.05980863 C42.9071061,8.00880863 43.5151061,7.89880863 43.6921061,8.16580863 L43.7331061,8.41580863 C43.6791061,8.55980863 43.4731061,8.60280863 43.3831061,8.62280863 C42.1931061,8.88180863 41.6141061,9.20080863 41.3851061,8.90180863 C41.3741061,8.88780863 41.3051061,8.79480863 41.3171061,8.67880863" id="Fill-247" fill="#A25F4C"></path>
                        <path d="M49.4501061,8.63380863 C49.4041061,8.22880863 48.4221061,8.07880863 48.1361061,8.02980863 C47.8521061,7.98180863 47.2431061,7.87780863 47.0701061,8.14580863 L47.0321061,8.39680863 C47.0871061,8.54080863 47.2941061,8.58280863 47.3831061,8.59980863 C48.5761061,8.84580863 49.1591061,9.15880863 49.3841061,8.85780863 C49.3951061,8.84280863 49.4631061,8.74980863 49.4501061,8.63380863" id="Fill-248" fill="#A25F4C"></path>
                        <path d="M47.1441061,15.9338086 L47.1211061,16.0628086 L47.0901061,16.1128086 C46.9731061,16.4508086 46.6351061,16.8738086 46.2001061,17.1158086 C45.5031061,17.4918086 44.7881061,17.2378086 44.6881061,17.2058086 C44.1521061,17.0048086 43.7211061,16.5468086 43.5581061,16.1838086 C43.5101061,16.0928086 43.4821061,16.0018086 43.4731061,15.9218086 L43.4971061,15.7218086 C43.6421061,15.4748086 44.1761061,15.7858086 45.4671061,15.7408086 C46.5281061,15.7018086 46.9531061,15.4598086 47.1091061,15.6828086 C47.1471061,15.7438086 47.1551061,15.8338086 47.1441061,15.9338086" id="Fill-249" fill="#DA6249"></path>
                        <path d="M47.1441061,15.9338086 C46.7711061,16.0668086 46.2981061,16.1868086 45.7281061,16.2258086 C44.7461061,16.2968086 43.9501061,16.0908086 43.4731061,15.9218086 L43.4971061,15.7218086 C43.6421061,15.4748086 44.1761061,15.7858086 45.4671061,15.7408086 C46.5281061,15.7018086 46.9531061,15.4598086 47.1091061,15.6828086 C47.1471061,15.7438086 47.1551061,15.8338086 47.1441061,15.9338086" id="Fill-250" fill="#FFFFFF"></path>
                        <path d="M94.9311061,83.4178086 C94.2381061,82.3578086 93.2211061,80.6008086 92.4601061,78.2648086 C93.8241061,70.7148086 93.3121061,62.5188086 88.8291061,56.3248086 C89.0051061,56.0848086 89.1431061,55.8558086 89.2411061,55.6378086 C89.5151061,55.7658086 89.7941061,55.9088086 90.0801061,56.0668086 C90.4571061,56.2668086 90.8461061,56.4988086 91.2351061,56.7588086 C91.6631061,57.0418086 92.0951061,57.3588086 92.5271061,57.7168086 C95.3761061,60.0838086 96.5741061,62.8348086 97.1001061,64.0838086 C97.3051061,64.5748086 98.2381061,66.8338086 98.4731061,69.9098086 C98.9611061,76.1548086 96.2871061,81.2198086 94.9311061,83.4178086" id="Fill-251" fill="#D1526D"></path>
                        <path d="M91.2351061,56.7588086 C91.1541061,57.0118086 90.9441061,57.2128086 90.6021061,57.2128086 C89.9431061,57.2128086 89.7681061,56.4638086 90.0801061,56.0668086 C90.4571061,56.2668086 90.8461061,56.4988086 91.2351061,56.7588086" id="Fill-252" fill="#F2D8C2"></path>
                        <path d="M93.9071061,62.6138086 C93.0121061,62.6138086 93.0111061,64.0038086 93.9071061,64.0038086 C94.8011061,64.0038086 94.8031061,62.6138086 93.9071061,62.6138086" id="Fill-253" fill="#F2D8C2"></path>
                        <path d="M86.8661061,8.09580863 C86.5381061,6.72980863 86.8791061,6.18380863 86.2691061,5.45580863 C85.7721061,4.86180863 85.4511061,4.77180863 85.0981061,4.38980863 C84.5821061,3.83380863 84.8931061,3.46380863 84.4311061,2.74480863 C84.0401061,2.13480863 83.4691061,1.85980863 83.0561061,1.66180863 C81.8451061,1.07780863 81.3601061,1.55080863 80.0041061,1.00280863 C79.0921061,0.633808629 79.2531061,0.396808629 78.4731061,0.161808629 C77.0501061,-0.268191371 75.7221061,0.286808629 75.5541061,0.358808629 C74.5981061,0.773808629 74.6631061,1.17180863 73.8061061,1.41180863 C72.8781061,1.66980863 72.6551061,1.24280863 71.6811061,1.45280863 C71.5681061,1.47680863 70.3141061,1.76580863 69.5561061,2.82780863 C68.9511061,3.67580863 69.3541061,4.04880863 68.6881061,4.97080863 C68.0891061,5.80180863 67.7331061,5.73080863 67.4171061,6.37480863 C67.1131061,6.99280863 67.4151061,7.22980863 67.2391061,8.09580863 C66.9861061,9.34580863 66.3361061,9.31080863 66.0971061,10.2798086 C65.9411061,10.9168086 66.0801061,11.7988086 66.9611061,13.3518086 C67.3131061,13.9718086 67.0081061,14.5148086 67.2061061,15.2188086 C67.4111061,15.9508086 67.9861061,16.3768086 68.3001061,16.6668086 C68.9481061,17.2668086 69.2061061,17.2348086 69.8761061,17.7288086 C71.1591061,18.6738086 71.0301061,19.3948086 71.9731061,19.9528086 C72.7971061,20.4408086 73.6451061,20.3338086 74.4541061,20.2648086 C75.8901061,20.1438086 77.9641061,20.0798086 80.8401061,20.3178086 C81.9671061,20.3038086 82.6011061,19.9568086 82.9731061,19.6398086 C83.7671061,18.9648086 83.6401061,18.1968086 84.6751061,17.4058086 C85.1511061,17.0428086 85.2981061,17.1128086 85.8071061,16.6668086 C86.0121061,16.4858086 86.6761061,16.0168086 86.9011061,15.2188086 C87.0981061,14.5148086 86.7931061,13.9718086 87.1451061,13.3518086 C89.1771061,9.76880863 87.2651061,9.75280863 86.8661061,8.09580863" id="Fill-254" fill="#352F31"></path>
                        <path d="M88.5611061,31.3368086 C88.5011061,34.2268086 88.4421061,37.1068086 88.3811061,39.9968086 C88.3011061,41.9668086 88.1921061,43.7068086 88.1811061,43.7868086 C88.1411061,44.1968086 87.1121061,55.7548086 87.0921061,55.9448086 C80.3421061,55.9348086 73.5921061,55.9168086 66.8421061,55.9068086 C66.8321061,55.8158086 66.8111061,55.5868086 66.7711061,55.2368086 L66.7611061,55.0768086 C66.6611061,54.0768086 65.1911061,39.0268086 64.9111061,36.1368086 C64.1111061,36.8168086 63.2111061,37.5068086 62.2211061,38.2068086 C60.8211061,39.1768086 59.4711061,39.9768086 58.2111061,40.6368086 C58.0311061,38.9868086 57.6411061,35.4568086 57.6311061,35.3268086 C57.5111061,34.0868086 57.4311061,33.0068086 57.3711061,32.1368086 C58.9421061,30.5268086 60.5211061,28.9268086 62.1011061,27.3268086 C63.4611061,26.1368086 64.8021061,25.1158086 66.0621061,24.2468086 C66.6421061,24.9068086 70.5721061,29.2868086 77.1121061,29.3158086 C83.6421061,29.3358086 87.6021061,25.0058086 88.1921061,24.3458086 C89.9221061,25.3058086 91.6611061,26.2668086 93.4021061,27.2268086 C91.4311061,28.6468086 89.8211061,30.0768086 88.5611061,31.3368086" id="Fill-255" fill="#F9A01B"></path>
                        <path d="M88.1921061,24.3458086 C87.6021061,25.0058086 83.6421061,29.3358086 77.1121061,29.3158777 C70.5721061,29.2868086 66.6421061,24.9068086 66.0621061,24.2468086 C66.2121061,24.1668086 66.3641061,24.0938086 66.5141061,24.0138086 C66.8341061,23.8638086 67.1641061,23.7038086 67.5141061,23.5538086 C68.4041061,23.1738086 69.4141061,22.8038086 70.5441061,22.4938086 C72.0041061,22.0938086 73.3241061,21.8938086 74.4541061,21.7938086 L74.4541061,18.3938086 C75.2641061,19.2438086 76.2041061,19.7738086 77.1841061,19.7738086 C78.1141061,19.7738086 78.9841061,19.4148086 79.7541061,18.7638086 L79.9031061,18.6338086 L79.9031061,21.7938086 C81.0641061,21.9338086 82.4031061,22.1838086 83.8641061,22.6238086 C85.5741061,23.1238086 87.0221061,23.7558086 88.1921061,24.3458086" id="Fill-256" fill="#C78457"></path>
                        <path d="M79.9031061,18.6338086 L79.9031061,19.6648086 C79.5141061,19.9148086 78.5841061,20.4338086 77.2841061,20.4638086 C75.8641061,20.4938086 74.8341061,19.9148086 74.4541061,19.6648086 L74.4541061,18.3938086 C75.2641061,19.2438086 76.2041061,19.7738086 77.1841061,19.7738086 C78.1141061,19.7738086 78.9841061,19.4148086 79.7541061,18.7638086 L79.9031061,18.6338086" id="Fill-257" fill="#B27247"></path>
                        <path d="M83.0341061,10.6838086 C82.8741061,14.1438086 81.6441061,17.1038086 79.9031061,18.6338086 L79.7541061,18.7638086 C78.9841061,19.4148086 78.1141061,19.7738086 77.1841061,19.7738086 C76.2041061,19.7738086 75.2641061,19.2438086 74.4541061,18.3938086 C72.7141061,16.5638086 71.4941061,13.3638086 71.3341061,10.6938086 C71.3041061,10.3838086 71.3041061,10.0738086 71.3141061,9.82380863 C72.2241061,9.33480863 73.8241061,8.28380863 74.8641061,6.29380863 C75.1441061,5.76380863 75.3241061,5.24380863 75.4741061,4.78380863 C76.1241061,5.74380863 77.1531061,7.02380863 78.6741061,8.23380863 C80.3141061,9.55380863 81.9241061,10.2738086 83.0341061,10.6838086" id="Fill-258" fill="#C78457"></path>
                        <path d="M97.2241061,153.433809 C97.0741061,153.653809 96.8041061,153.653809 96.7741061,153.653809 L84.4441061,153.653809 C84.3541061,153.623809 84.2141061,153.573809 84.0841061,153.463809 C83.5841061,153.053809 83.6341061,152.283809 83.7141061,151.153809 C83.7341061,150.834809 83.7641061,150.493809 83.7741061,150.123809 C83.7941061,149.573809 83.7941061,148.823809 83.7241061,147.903809 C83.5441061,141.673809 83.0241061,136.633809 82.5741061,133.193809 C82.0141061,128.883809 81.4241061,125.943809 80.9641061,122.903809 L89.8241061,122.903809 C89.1841061,131.993809 88.7241061,138.143809 88.5141061,139.983809 C88.2841061,141.923809 88.5041061,143.873809 88.4141061,145.823809 C88.4031061,146.133809 88.3641061,146.813809 88.6341061,147.623809 C89.0341061,148.823809 89.8441061,149.563809 90.2141061,149.893809 C91.0241061,150.623809 91.8241061,150.943809 92.3041061,151.153809 C93.6441061,151.743809 95.1841061,152.143809 96.5241061,152.493809 C96.6741061,152.533809 97.1541061,152.664809 97.2741061,152.993809 C97.2841061,153.023809 97.3541061,153.243809 97.2241061,153.433809" id="Fill-259" fill="#C78457"></path>
                        <path d="M84.0841061,153.463809 C84.2141061,153.573809 84.3541061,153.623809 84.4441061,153.653809 L96.7741061,153.653809 C96.8041061,153.653809 97.0741061,153.653809 97.2241061,153.433809 C97.3541061,153.243809 97.2841061,153.023809 97.2741061,152.993809 C97.1541061,152.664809 96.6741061,152.533809 96.5241061,152.493809 C95.1841061,152.143809 93.6441061,151.743809 92.3041061,151.153809 L83.7141061,151.153809 C83.6341061,152.283809 83.5841061,153.053809 84.0841061,153.463809" id="Fill-260" fill="#F8C886"></path>
                        <path d="M69.7841061,147.903809 C69.7131061,148.823809 69.7131061,149.573809 69.7341061,150.123809 C69.7441061,150.493809 69.7741061,150.834809 69.7941061,151.153809 C69.8741061,152.283809 69.9231061,153.053809 69.4231061,153.463809 C69.2941061,153.573809 69.1541061,153.623809 69.0641061,153.653809 L56.7331061,153.653809 C56.7031061,153.653809 56.4341061,153.653809 56.2841061,153.433809 C56.1531061,153.243809 56.2241061,153.023809 56.2331061,152.993809 C56.3541061,152.664809 56.8341061,152.533809 56.9831061,152.493809 C58.3231061,152.143809 59.8631061,151.743809 61.2031061,151.153809 C61.6841061,150.943809 62.4841061,150.623809 63.2941061,149.893809 C63.6641061,149.563809 64.4741061,148.823809 64.8741061,147.623809 C65.1441061,146.813809 65.1041061,146.133809 65.0941061,145.823809 C65.0041061,143.873809 65.2241061,141.923809 64.9941061,139.983809 C64.7841061,138.143809 64.3241061,131.993809 63.6841061,122.903809 L72.5441061,122.903809 C72.0841061,125.943809 71.4941061,128.883809 70.9341061,133.193809 C70.4841061,136.633809 69.9631061,141.673809 69.7941061,147.914809 L69.7841061,147.903809" id="Fill-261" fill="#C78457"></path>
                        <path d="M69.4231061,153.463809 C69.2941061,153.573809 69.1541061,153.623809 69.0641061,153.653809 L56.7331061,153.653809 C56.7031061,153.653809 56.4341061,153.653809 56.2841061,153.433809 C56.1531061,153.243809 56.2241061,153.023809 56.2331061,152.993809 C56.3541061,152.664809 56.8341061,152.533809 56.9831061,152.493809 C58.3231061,152.143809 59.8631061,151.743809 61.2031061,151.153809 L69.7941061,151.153809 C69.8741061,152.283809 69.9231061,153.053809 69.4231061,153.463809" id="Fill-262" fill="#F8C886"></path>
                        <path d="M95.8441061,122.903809 L58.5941061,122.903809 C59.6341061,118.334809 60.2541061,114.663809 60.5941061,112.461809 C63.8641061,91.3438086 60.7641061,81.3298086 65.2241061,62.1078086 C65.2741061,61.8898086 65.3241061,61.6818086 65.3741061,61.4728086 C65.9631061,58.9668086 66.5321061,56.9938086 66.8421061,55.9068086 C73.5921061,55.9148086 80.3421061,55.9358086 87.0921061,55.9448086 C87.1621061,56.1538086 87.2441061,56.3908086 87.3341061,56.6778086 C87.6931061,57.7568086 88.1841061,59.3498086 88.7041061,61.2638086 C93.7841061,80.1458086 89.9641061,90.3698086 93.1641061,110.495809 C93.5841061,113.131809 94.3741061,117.491809 95.8441061,122.903809" id="Fill-263" fill="#F9E4CF"></path>
                        <path d="M92.9011061,75.1908086 C92.8601061,75.6108086 92.8031061,76.0488086 92.7431061,76.4688086 C92.6631061,77.0698086 92.5601061,77.6748086 92.4601061,78.2648086 C92.2301061,79.5548086 91.9421061,80.8268086 91.6111061,82.0668086 C91.3911061,82.8968086 91.1521061,83.6968086 90.8911061,84.4968086 C86.9811061,79.3068086 86.4091061,73.2088086 86.6901061,68.0978086 C86.7101061,67.6378086 86.7541061,67.1878086 86.7841061,66.7378086 C87.2341061,61.4778086 88.4021061,57.5568086 87.2311061,57.3668086 C87.0911061,57.3368086 86.9511061,57.2468086 86.8111061,57.1368086 C85.8311061,57.8268086 84.7611061,58.4968086 83.5811061,59.1068086 C82.8811061,59.4668086 82.1931061,59.7948086 81.4931061,60.0848086 C81.1631061,60.2148086 80.8421061,60.3568086 80.5121061,60.4768086 C76.5221061,61.9868086 72.6311061,62.4368086 69.3411061,62.4368086 C67.7511061,62.4368086 66.3011061,62.3368086 65.0411061,62.1868086 C65.1811061,61.5468086 65.3211061,60.8868086 65.4811061,60.2168086 C65.5311061,60.0068086 65.9721061,58.1948086 66.1321061,57.5748086 C66.2621061,57.0938086 66.7911061,55.1668086 66.8011061,55.1268086 L66.7611061,55.0768086 C66.6611061,54.0768086 66.4811061,52.2668086 66.2711061,50.1268086 C67.7711061,50.5368086 72.3411061,51.7768086 76.1721061,52.4468086 C77.3311061,52.6568086 79.4621061,52.9948086 81.5321061,53.2448086 C81.9621061,53.2948086 82.3921061,53.3448086 82.8121061,53.3948086 C84.0321061,53.5248086 85.2211061,53.6368086 86.3811061,53.7268086 C86.6411061,53.4968086 86.9711061,53.3568086 87.3311061,53.3068086 C87.9811061,53.1968086 88.6991061,53.3778086 89.1191061,53.8188086 C89.4201061,54.1388086 89.5721061,54.5858086 89.4121061,55.1768086 C89.3721061,55.3268086 89.3211061,55.4778086 89.2411061,55.6378086 C89.1421061,55.8578086 88.9991061,56.0848086 88.8291061,56.3248086 C90.5591061,58.7248086 91.7091061,61.4248086 92.3801061,64.2858086 C92.4791061,64.7248086 92.5731061,65.1858086 92.6531061,65.6358086 C93.2141061,68.7468086 93.2401061,71.9908086 92.9011061,75.1908086" id="Fill-264" fill="#E56E82"></path>
                        <path d="M69.3531061,52.4138086 C68.4581061,52.4138086 68.4571061,53.8028086 69.3531061,53.8028086 C70.2471061,53.8028086 70.2491061,52.4138086 69.3531061,52.4138086" id="Fill-265" fill="#F9E4CF"></path>
                        <path d="M70.6141061,59.6018086 C69.7201061,59.6018086 69.7181061,60.9918086 70.6141061,60.9918086 C71.5091061,60.9918086 71.5101061,59.6018086 70.6141061,59.6018086" id="Fill-266" fill="#F9E4CF"></path>
                        <path d="M89.4121061,55.1768086 L89.2591061,55.1938086 C88.4161061,55.1938086 88.3711061,53.9518086 89.1191061,53.8188086 C89.4231061,54.1348086 89.5661061,54.5898086 89.4121061,55.1768086" id="Fill-267" fill="#F9E4CF"></path>
                        <path d="M89.2581061,60.3368086 C88.3641061,60.3368086 88.3621061,61.7268086 89.2581061,61.7268086 C90.1531061,61.7268086 90.1551061,60.3368086 89.2581061,60.3368086" id="Fill-268" fill="#F9E4CF"></path>
                        <path d="M81.4931061,60.0848086 C81.1681061,60.2218086 80.8381061,60.3528086 80.5121061,60.4768086 C79.9821061,60.1768086 80.0911061,59.1718086 80.8531061,59.1718086 C81.3961061,59.1718086 81.6041061,59.6828086 81.4931061,60.0848086" id="Fill-269" fill="#F9E4CF"></path>
                        <path d="M82.8121061,53.3948086 C82.7261061,53.6258086 82.5171061,53.8028086 82.1961061,53.8028086 C81.8071061,53.8028086 81.5841061,53.5438086 81.5321061,53.2448086 C81.9641061,53.2958086 82.3881061,53.3478086 82.8121061,53.3948086" id="Fill-270" fill="#F9E4CF"></path>
                        <path d="M66.3131061,57.5978086 L66.1321061,57.5748086 C66.2601061,57.0948086 66.3811061,56.6438086 66.4921061,56.2328086 C67.2021061,56.3998086 67.1431061,57.5978086 66.3131061,57.5978086" id="Fill-271" fill="#F9E4CF"></path>
                        <path d="M84.1551061,55.5118086 C83.2611061,55.5118086 83.2591061,56.9028086 84.1551061,56.9028086 C85.0501061,56.9028086 85.0511061,55.5118086 84.1551061,55.5118086" id="Fill-272" fill="#F9E4CF"></path>
                        <path d="M92.6531061,65.6358086 L92.4541061,65.6658086 C91.5821061,65.6658086 91.5581061,64.3578086 92.3801061,64.2858086 C92.4821061,64.7308086 92.5721061,65.1828086 92.6531061,65.6358086" id="Fill-273" fill="#F9E4CF"></path>
                        <path d="M92.9011061,75.1908086 C92.8581061,75.6188086 92.8031061,76.0448086 92.7431061,76.4688086 L92.5661061,76.4978086 C91.6671061,76.4978086 91.6671061,75.1068086 92.5661061,75.1068086 C92.6981061,75.1068086 92.8111061,75.1388086 92.9011061,75.1908086" id="Fill-274" fill="#F9E4CF"></path>
                        <path d="M89.2581061,77.6218086 C88.3641061,77.6218086 88.3621061,79.0118086 89.2581061,79.0118086 C90.1531061,79.0118086 90.1551061,77.6218086 89.2581061,77.6218086" id="Fill-275" fill="#F9E4CF"></path>
                        <path d="M89.5631061,70.2138086 C88.6691061,70.2138086 88.6671061,71.6038086 89.5631061,71.6038086 C90.4581061,71.6038086 90.4591061,70.2138086 89.5631061,70.2138086" id="Fill-276" fill="#F9E4CF"></path>
                        <path d="M86.8631061,68.1218086 L86.6901061,68.0978086 C86.7151061,67.6358086 86.7451061,67.1828086 86.7841061,66.7378086 L86.8631061,66.7308086 C87.7571061,66.7308086 87.7571061,68.1218086 86.8631061,68.1218086" id="Fill-277" fill="#F9E4CF"></path>
                        <path d="M75.4211061,56.0898086 C74.5261061,56.0898086 74.5251061,57.4798086 75.4211061,57.4798086 C76.3151061,57.4798086 76.3171061,56.0898086 75.4211061,56.0898086" id="Fill-278" fill="#F9E4CF"></path>
                        <path d="M75.2621061,10.9318086 C75.2621061,11.4378086 74.9851061,11.8488086 74.6441061,11.8488086 C74.3021061,11.8488086 74.0251061,11.4378086 74.0251061,10.9318086 C74.0251061,10.4258086 74.3021061,10.0158086 74.6441061,10.0158086 C74.9851061,10.0158086 75.2621061,10.4258086 75.2621061,10.9318086" id="Fill-279" fill="#352F31"></path>
                        <path d="M80.3941061,10.9318086 C80.3941061,11.4378086 80.1171061,11.8488086 79.7751061,11.8488086 C79.4341061,11.8488086 79.1561061,11.4378086 79.1561061,10.9318086 C79.1561061,10.4258086 79.4341061,10.0158086 79.7751061,10.0158086 C80.1171061,10.0158086 80.3941061,10.4258086 80.3941061,10.9318086" id="Fill-280" fill="#352F31"></path>
                        <path d="M77.6271061,13.9068086 C77.2281061,13.8038086 76.5991061,13.5658086 76.5031061,13.0778086 C76.4671061,12.8908086 76.5271061,12.7238086 76.7511061,12.2468086 C76.9051061,11.9178086 77.0671061,11.5968086 77.2431061,11.2668086 L77.4121061,11.2148086 L77.4641061,11.3848086 C77.2891061,11.7108086 77.1301061,12.0278086 76.9781061,12.3528086 C76.7601061,12.8168086 76.7301061,12.9288086 76.7491061,13.0298086 C76.8221061,13.4088086 77.4651061,13.6088086 77.6591061,13.6608086 L77.7481061,13.8138086 L77.6271061,13.9068086" id="Fill-281" fill="#A0633A"></path>
                        <path d="M73.0561061,8.88380863 C73.1001061,8.47880863 74.0801061,8.32280863 74.3671061,8.27280863 C74.6501061,8.22280863 75.2581061,8.11580863 75.4341061,8.38280863 L75.4731061,8.63280863 C75.4191061,8.77780863 75.2121061,8.81980863 75.1231061,8.83880863 C73.9321061,9.09080863 73.3501061,9.40780863 73.1231061,9.10780863 C73.1121061,9.09280863 73.0441061,8.99980863 73.0561061,8.88380863" id="Fill-282" fill="#352F31"></path>
                        <path d="M81.1891061,8.88380863 C81.1451061,8.47880863 80.1651061,8.32280863 79.8781061,8.27280863 C79.5951061,8.22280863 78.9871061,8.11580863 78.8111061,8.38280863 L78.7731061,8.63280863 C78.8261061,8.77780863 79.0331061,8.81980863 79.1221061,8.83880863 C80.3141061,9.09080863 80.8951061,9.40780863 81.1221061,9.10780863 C81.1331061,9.09280863 81.2021061,8.99980863 81.1891061,8.88380863" id="Fill-283" fill="#352F31"></path>
                        <path d="M79.0151061,15.6968086 L78.9921061,15.8268086 L78.9611061,15.8758086 C78.8421061,16.2128086 78.5021061,16.6338086 78.0661061,16.8738086 C77.3661061,17.2468086 76.6521061,16.9878086 76.5531061,16.9558086 C76.0181061,16.7518086 75.5891061,16.2918086 75.4281061,15.9268086 C75.3811061,15.8358086 75.3531061,15.7458086 75.3451061,15.6658086 L75.3701061,15.4648086 C75.5161061,15.2188086 76.0481061,15.5328086 77.3401061,15.4948086 C78.4011061,15.4608086 78.8271061,15.2218086 78.9821061,15.4458086 C79.0201061,15.5068086 79.0281061,15.5968086 79.0151061,15.6968086" id="Fill-284" fill="#DA6249"></path>
                        <path d="M79.0151061,15.6968086 C78.6421061,15.8278086 78.1691061,15.9458086 77.5981061,15.9818086 C76.6161061,16.0468086 75.8211061,15.8368086 75.3451061,15.6658086 L75.3701061,15.4648086 C75.5161061,15.2188086 76.0481061,15.5328086 77.3401061,15.4948086 C78.4011061,15.4608086 78.8271061,15.2218086 78.9821061,15.4458086 C79.0201061,15.5068086 79.0281061,15.5968086 79.0151061,15.6968086" id="Fill-285" fill="#FFFFFF"></path>
                        <path d="M128.223106,153.434809 C128.072106,153.655809 127.802106,153.655809 127.773106,153.655809 L115.443106,153.655809 C115.353106,153.625809 115.213106,153.575809 115.083106,153.464809 C114.583106,153.054809 114.632106,152.285809 114.713106,151.155809 C114.733106,150.834809 114.761106,150.496809 114.771106,150.126809 C114.791106,149.576809 114.791106,148.826809 114.721106,147.906809 C114.701106,147.776809 114.701106,147.646809 114.701106,147.516809 C115.521106,147.686809 116.491106,147.816809 117.601106,147.826809 C118.351106,147.836809 119.041106,147.786809 119.661106,147.706809 C120.071106,148.856809 120.851106,149.576809 121.211106,149.896809 C122.021106,150.626809 122.822106,150.945809 123.302106,151.155809 C124.643106,151.745809 126.183106,152.144809 127.523106,152.495809 C127.673106,152.535809 128.152106,152.665809 128.273106,152.995809 C128.282106,153.025809 128.353106,153.245809 128.223106,153.434809" id="Fill-286" fill="#F9B995"></path>
                        <path d="M115.083106,153.464809 C115.213106,153.575809 115.353106,153.625809 115.443106,153.655809 L127.773106,153.655809 C127.802106,153.655809 128.072106,153.655809 128.223106,153.434809 C128.353106,153.245809 128.282106,153.025809 128.273106,152.995809 C128.152106,152.665809 127.673106,152.535809 127.523106,152.495809 C126.183106,152.144809 124.643106,151.745809 123.302106,151.155809 L114.713106,151.155809 C114.632106,152.285809 114.583106,153.054809 115.083106,153.464809" id="Fill-287" fill="#352F31"></path>
                        <path d="M100.423106,153.464809 C100.293106,153.575809 100.152106,153.625809 100.063106,153.655809 L87.7331061,153.655809 C87.7021061,153.655809 87.4321061,153.655809 87.2821061,153.434809 C87.1521061,153.245809 87.2221061,153.025809 87.2331061,152.995809 C87.3521061,152.665809 87.8321061,152.535809 87.9831061,152.495809 C89.3221061,152.144809 90.8621061,151.745809 92.2021061,151.155809 C92.6821061,150.945809 93.4811061,150.626809 94.2911061,149.896809 C94.6611061,149.566809 95.4711061,148.826809 95.8711061,147.626809 C95.9511061,147.376809 96.0111061,147.136809 96.0411061,146.926809 C96.7111061,147.046809 97.4421061,147.146809 98.2211061,147.206809 C99.1611061,147.266809 100.031106,147.266809 100.811106,147.226809 C100.801106,147.456809 100.801106,147.686809 100.791106,147.916809 C100.711106,148.826809 100.711106,149.576809 100.731106,150.126809 C100.741106,150.496809 100.773106,150.834809 100.793106,151.155809 C100.873106,152.285809 100.923106,153.054809 100.423106,153.464809" id="Fill-288" fill="#F9B995"></path>
                        <path d="M100.423106,153.464809 C100.293106,153.575809 100.152106,153.625809 100.063106,153.655809 L87.7331061,153.655809 C87.7021061,153.655809 87.4321061,153.655809 87.2821061,153.434809 C87.1521061,153.245809 87.2221061,153.025809 87.2331061,152.995809 C87.3521061,152.665809 87.8321061,152.535809 87.9831061,152.495809 C89.3221061,152.144809 90.8621061,151.745809 92.2021061,151.155809 L100.793106,151.155809 C100.872106,152.285809 100.923106,153.054809 100.423106,153.464809" id="Fill-289" fill="#352F31"></path>
                        <path d="M121.601106,147.326809 C121.061106,147.466809 120.411106,147.606809 119.661106,147.706809 C119.041106,147.786809 118.351106,147.836809 117.601106,147.826809 C116.491106,147.816809 115.521106,147.686809 114.701106,147.516809 C114.351106,147.436809 114.021106,147.356809 113.731106,147.276809 C112.461106,137.416809 111.331106,127.156809 110.391106,116.526809 C109.471106,105.996809 108.791106,95.7868086 108.321106,85.9468086 C106.331106,106.326809 104.341106,126.706809 102.351106,147.096809 C101.881106,147.156809 101.371106,147.196809 100.811106,147.226809 C100.031106,147.266809 99.1611061,147.266809 98.2211061,147.206809 C97.4421061,147.146809 96.7111061,147.046809 96.0411061,146.926809 C95.3811061,146.816809 94.7711061,146.676809 94.2311061,146.526809 C93.5111061,123.396809 93.6611061,99.1668086 94.9711061,73.9568086 C95.2911061,67.8668086 95.6611061,61.8468086 96.1011061,55.8968086 C99.4421061,56.4868086 103.371106,56.9568086 107.771106,57.0668086 C112.521106,57.1768086 116.751106,56.8468086 120.321106,56.3568086 C120.751106,60.3368086 121.141106,64.3768086 121.471106,68.4568086 C123.771106,96.3568086 123.521106,122.746809 121.601106,147.326809" id="Fill-290" fill="#352F31"></path>
                        <path d="M112.442106,58.4768086 C110.451106,58.7768086 108.111106,58.8568086 105.561106,58.3668086 C105.231106,58.3068086 104.902106,58.2368086 104.591106,58.1568086 C104.661106,57.6168086 104.692106,57.1168086 104.721106,56.7068086 C105.591106,44.4568086 105.951106,22.6568086 105.971106,21.0968086 C107.791106,21.0768086 109.611106,21.0568086 111.422106,21.0368086 C112.371106,34.8968086 112.431106,44.8868086 112.221106,52.0768086 C112.172106,53.8368086 112.081106,56.2368086 112.442106,58.4768086" id="Fill-291" fill="#FFFFFF"></path>
                        <path d="M108.393106,25.6598086 L108.248106,25.6688086 C107.936106,25.6918086 107.669106,25.9198086 107.669106,26.2498086 C107.669106,26.5818086 107.935106,26.8068086 108.248106,26.8298086 L108.393106,26.8388086 C109.152106,26.8868086 109.153106,25.6118086 108.393106,25.6598086" id="Fill-292" fill="#F9E4CF"></path>
                        <path d="M109.021106,30.6348086 L109.024106,30.7798086 C109.038106,31.5128086 110.150106,31.5138086 110.163106,30.7798086 L110.166106,30.6348086 C110.180106,29.8988086 109.007106,29.8978086 109.021106,30.6348086" id="Fill-293" fill="#F9E4CF"></path>
                        <path d="M107.326106,35.3578086 C106.615106,35.3578086 106.614106,36.4628086 107.326106,36.4628086 C108.038106,36.4628086 108.039106,35.3578086 107.326106,35.3578086" id="Fill-294" fill="#F9E4CF"></path>
                        <path d="M105.746106,41.7068086 C104.996106,41.7068086 104.994106,42.8728086 105.746106,42.8728086 C106.497106,42.8728086 106.498106,41.7068086 105.746106,41.7068086" id="Fill-295" fill="#F9E4CF"></path>
                        <path d="M108.316106,49.2308086 C107.896106,49.2308086 107.592106,49.6398086 107.695106,50.0438086 L107.730106,50.1788086 C107.879106,50.7568086 108.752106,50.7578086 108.901106,50.1788086 L108.935106,50.0438086 C109.039106,49.6398086 108.736106,49.2308086 108.316106,49.2308086" id="Fill-296" fill="#F9E4CF"></path>
                        <path d="M110.689106,43.7928086 C109.855106,43.7928086 109.854106,45.0878086 110.689106,45.0878086 C111.522106,45.0878086 111.524106,43.7928086 110.689106,43.7928086" id="Fill-297" fill="#F9E4CF"></path>
                        <path d="M111.735106,36.3128086 L111.597106,36.3348086 C111.063106,36.4178086 111.062106,37.3308086 111.597106,37.4138086 L111.735106,37.4348086 C112.103106,37.4918086 112.472106,37.2808086 112.472106,36.8738086 C112.472106,36.4698086 112.103106,36.2548086 111.735106,36.3128086" id="Fill-298" fill="#F9E4CF"></path>
                        <path d="M106.645106,55.5068086 C105.737106,55.5068086 105.736106,56.9178086 106.645106,56.9178086 C107.553106,56.9178086 107.554106,55.5068086 106.645106,55.5068086" id="Fill-299" fill="#F9E4CF"></path>
                        <path d="M111.479106,56.3908086 L111.481106,56.5368086 C111.495106,57.2688086 112.607106,57.2708086 112.621106,56.5368086 L112.623106,56.3908086 C112.637106,55.6548086 111.464106,55.6538086 111.479106,56.3908086" id="Fill-300" fill="#F9E4CF"></path>
                        <path d="M111.423106,18.8048086 C111.423106,19.5488086 111.422106,20.2928086 111.422106,21.0368086 C111.399106,22.6348086 110.048106,23.8788086 108.554106,23.8028086 C107.179106,23.7328086 106.019106,22.5618086 105.971106,21.0968086 C105.972106,20.2518086 105.972106,19.4098086 105.973106,18.5648086 C106.783106,19.4158086 107.723106,19.9458086 108.703106,19.9458086 C109.633106,19.9458086 110.503106,19.5848086 111.273106,18.9348086 L111.423106,18.8048086" id="Fill-301" fill="#F9B995"></path>
                        <path d="M111.423106,18.8048086 L111.423106,19.9448086 C110.973106,20.1948086 109.964106,20.6548086 108.614106,20.6338086 C107.354106,20.6148086 106.423106,20.1948086 105.973106,19.9448086 L105.973106,18.5648086 C106.783106,19.4158086 107.723106,19.9458086 108.703106,19.9458086 C109.633106,19.9458086 110.503106,19.5848086 111.273106,18.9348086 L111.423106,18.8048086" id="Fill-302" fill="#EFA884"></path>
                        <path d="M115.652106,11.7468086 C115.652106,12.4368086 115.181106,12.9968086 114.591106,12.9968086 C114.491106,12.9968086 114.402106,12.9568086 114.311106,12.9268086 C113.851106,15.4768086 112.803106,17.5848086 111.423106,18.8048086 L111.273106,18.9348086 C110.503106,19.5848086 109.633106,19.9458086 108.703106,19.9458086 C107.723106,19.9458086 106.783106,19.4158086 105.973106,18.5648086 C104.661106,17.1868086 103.661106,15.0568086 103.172106,12.9568086 L103.021106,12.9968086 C102.431106,12.9968086 101.961106,12.4368086 101.961106,11.7468086 C101.961106,11.1368086 102.341106,10.6568086 102.841106,10.5468086 C102.841106,10.4568086 102.831106,10.3668086 102.841106,10.2768086 C102.942106,10.4268086 103.051106,10.5168086 103.152106,10.5068086 C103.371106,10.4868086 103.591106,9.76680863 104.031106,8.31680863 C104.371106,7.18680863 104.402106,6.88680863 104.751106,6.59680863 C105.011106,6.36680863 105.402106,6.24680863 106.611106,6.32680863 C109.211106,6.48680863 109.491106,7.15680863 110.911106,6.97680863 C112.172106,6.82680863 112.771106,6.19680863 113.381106,6.55680863 L113.471106,6.61680863 C113.861106,6.94680863 113.961106,7.44680863 113.991106,7.61680863 C114.041106,7.93680863 114.371106,9.72680863 114.652106,10.3268086 L114.621106,10.5168086 C115.192106,10.5268086 115.652106,11.0768086 115.652106,11.7468086" id="Fill-303" fill="#F9B995"></path>
                        <path d="M114.801106,10.5268086 C114.751106,10.5268086 114.701106,10.4468086 114.652106,10.3268086 C114.371106,9.72680863 114.041106,7.93680863 113.991106,7.61680863 C113.961106,7.44680863 113.861106,6.94680863 113.471106,6.61680863 L113.381106,6.55680863 C112.771106,6.19680863 112.172106,6.82680863 110.911106,6.97680863 C109.491106,7.15680863 109.211106,6.48680863 106.611106,6.32680863 C105.402106,6.24680863 105.011106,6.36680863 104.751106,6.59680863 C104.402106,6.88680863 104.371106,7.18680863 104.031106,8.31680863 C103.591106,9.76680863 103.371106,10.4868086 103.152106,10.5068086 C103.051106,10.5168086 102.942106,10.4268086 102.841106,10.2768086 C102.301106,9.49680863 101.821106,6.96680863 102.321106,6.26680863 C102.341106,6.23680863 102.581106,5.88680863 102.861106,5.42680863 C102.942106,5.29680863 103.031106,5.12680863 103.121106,4.92680863 C103.451106,4.17680863 103.402106,3.84680863 103.551106,3.43680863 C104.131106,1.87680863 106.821106,1.05680863 108.791106,1.24680863 C109.821106,1.34680863 110.601106,1.66680863 110.601106,1.66680863 C111.511106,2.04680863 111.711106,2.40680863 112.531106,2.58680863 C113.402106,2.77680863 113.581106,2.45680863 114.091106,2.65680863 C114.672106,2.89680863 115.291106,4.15680863 115.471106,5.91680863 C115.711106,8.36680863 115.081106,10.5468086 114.801106,10.5268086" id="Fill-304" fill="#E68540"></path>
                        <path d="M105.971106,21.0968086 C105.951106,22.6568086 105.591106,44.4568086 104.721106,56.7068086 C104.692106,57.1168086 104.661106,57.6168086 104.591106,58.1568086 C104.361106,59.9768086 103.771106,62.2768086 101.971106,63.3268086 C100.181106,64.3768086 97.2811061,64.1168086 95.6411061,62.5768086 C93.3011061,60.3868086 94.5111061,56.6068086 95.3511061,46.8268086 C95.7111061,42.5568086 95.8511061,39.0368086 95.9021061,36.6668086 C94.8011061,37.1668086 89.8011061,39.3868086 88.4221061,39.9768086 C88.4421061,37.1068086 88.5011061,34.2268086 88.5611061,31.3368086 C89.8211061,30.0768086 91.4311061,28.6468086 93.4021061,27.2268086 C94.8811061,26.1468086 96.5711061,25.0768086 98.4711061,24.0868086 C101.211106,22.6668086 103.781106,21.7268086 105.971106,21.0968086" id="Fill-305" fill="#0071BC"></path>
                        <path d="M105.945106,21.0978086 C105.941106,21.3828086 105.867106,25.4238086 105.845106,26.4338086 C105.200106,26.8278086 104.429106,27.2308086 103.671106,27.4518086 C103.459106,27.5118086 103.164106,27.5848086 102.965106,27.4338086 C102.653106,27.1958086 102.779106,26.5458086 102.831106,26.2988086 C103.004106,25.3808086 103.216106,23.8958086 103.472106,21.8988086 C103.628106,21.7208086 103.947106,21.4068086 104.453106,21.2088086 C105.121106,20.9458086 105.713106,21.0448086 105.945106,21.0978086" id="Fill-306" fill="#012E4C"></path>
                        <path d="M127.011106,27.8268086 C125.694106,28.9178086 124.646106,29.8998086 123.871106,30.6668086 C123.734106,30.8028086 123.147106,31.3858086 122.391106,32.1968086 C121.499106,33.1548086 120.771106,34.0028086 120.221106,34.6668086 C120.242106,36.5928086 120.316106,39.4158086 120.561106,43.0068086 C120.582106,43.3068086 120.596106,43.5038086 120.601106,43.5768086 C121.571106,56.0168086 123.891106,61.5968086 121.071106,63.8168086 C119.501106,65.0568086 116.922106,64.7868086 115.351106,63.8268086 C113.611106,62.7668086 112.801106,60.7068086 112.442106,58.4768086 C112.361106,58.0068086 112.311106,57.5218086 112.281106,57.0418086 C112.231106,56.6518086 112.211106,56.2468086 112.201106,55.8568086 C112.141106,54.4768086 112.192106,53.1568086 112.221106,52.0768086 C112.341106,48.0868086 112.371106,43.2368086 112.211106,37.3368086 C112.211106,37.0268086 112.201106,36.7168086 112.192106,36.3968086 C112.101106,33.3568086 111.960106,30.0478086 111.750106,26.4488086 C111.660106,24.7288086 111.422106,21.0368086 111.422106,21.0368086 C112.081106,21.1668086 112.922106,21.3568086 113.891106,21.6368086 C114.201106,21.7268086 114.531106,21.8168086 114.861106,21.9268086 C116.261106,22.3668086 117.521106,22.8668086 119.192106,23.6468086 C121.001106,24.4768086 123.692106,25.8168086 127.011106,27.8268086" id="Fill-307" fill="#0071BC"></path>
                        <path d="M114.403106,27.3168086 C114.204106,27.4678086 113.910106,27.3948086 113.698106,27.3338086 C113.027106,27.1388086 112.348106,26.7988086 111.750106,26.4488086 C111.702106,25.5858086 111.424106,21.0488086 111.424106,20.9798086 L111.536106,20.9588086 C112.205106,20.8248086 112.914106,21.0878086 112.914106,21.0878086 C113.387106,21.2488086 113.729106,21.4948086 113.938106,21.6748086 C114.158106,23.7168086 114.350106,25.1888086 114.538106,26.1818086 C114.587106,26.4388086 114.714106,27.0808086 114.403106,27.3168086" id="Fill-308" fill="#012E4C"></path>
                        <path d="M106.880117,11.4568086 C106.882106,11.9618086 106.608106,12.3748086 106.266106,12.3758159 C105.924106,12.3778086 105.645106,11.9688086 105.642106,11.4628086 C105.639106,10.9578086 105.914106,10.5448086 106.256106,10.5428068 C106.597106,10.5418086 106.877106,10.9508086 106.880117,11.4568086" id="Fill-309" fill="#352F31"></path>
                        <path d="M112.011106,11.4278086 C112.014106,11.9338086 111.739106,12.3458086 111.398106,12.3478159 C111.056106,12.3498086 110.777106,11.9408086 110.774106,11.4348086 C110.771106,10.9288086 111.046106,10.5168086 111.387106,10.5148013 C111.729106,10.5128086 112.008106,10.9218086 112.011106,11.4278086" id="Fill-310" fill="#352F31"></path>
                        <path d="M109.322106,14.3438086 C108.914106,14.2388086 108.272106,13.9968086 108.194106,13.5178086 C108.163106,13.3268086 108.231106,13.1838086 108.366106,12.9008086 C108.490106,12.6398086 108.679106,12.2398086 108.921106,11.7128086 L109.087106,11.6518086 L109.148106,11.8178086 C108.906106,12.3448086 108.717106,12.7458086 108.595106,13.0008086 C108.463106,13.2788086 108.423106,13.3698086 108.441106,13.4778086 C108.480106,13.7228086 108.822106,13.9548086 109.354106,14.0988086 L109.442106,14.2518086 L109.322106,14.3438086" id="Fill-311" fill="#F2856B"></path>
                        <path d="M104.760106,9.20580863 C104.801106,8.79980863 105.781106,8.63880863 106.068106,8.58680863 C106.350106,8.53580863 106.958106,8.42480863 107.135106,8.69180863 L107.175106,8.94180863 C107.122106,9.08580863 106.916106,9.12880863 106.826106,9.14880863 C105.636106,9.40880863 105.057106,9.72680863 104.828106,9.42880863 C104.817106,9.41480863 104.748106,9.32180863 104.760106,9.20580863" id="Fill-312" fill="#E68540"></path>
                        <path d="M112.893106,9.16080863 C112.847106,8.75480863 111.865106,8.60480863 111.578106,8.55580863 C111.295106,8.50780863 110.686106,8.40480863 110.512106,8.67280863 L110.475106,8.92280863 C110.529106,9.06680863 110.736106,9.10880863 110.826106,9.12680863 C112.019106,9.37380863 112.602106,9.68580863 112.827106,9.38380863 C112.838106,9.36980863 112.906106,9.27680863 112.893106,9.16080863" id="Fill-313" fill="#E68540"></path>
                        <path d="M110.664106,16.1038086 L110.641106,16.2338086 L110.610106,16.2828086 C110.494106,16.6208086 110.155106,17.0438086 109.720106,17.2858086 C109.023106,17.6628086 108.308106,17.4088086 108.209106,17.3758086 C107.672106,17.1758086 107.241106,16.7168086 107.078106,16.3538086 C107.030106,16.2628086 107.002106,16.1718086 106.993106,16.0918086 L107.017106,15.8928086 C107.162106,15.6458086 107.696106,15.9568086 108.987106,15.9118086 C110.048106,15.8728086 110.473106,15.6298086 110.629106,15.8528086 C110.668106,15.9148086 110.675106,16.0038086 110.664106,16.1038086" id="Fill-314" fill="#DA6249"></path>
                        <path d="M110.664106,16.1038086 C110.291106,16.2368086 109.818106,16.3578086 109.248106,16.3968086 C108.266106,16.4668086 107.470106,16.2618086 106.993106,16.0918086 L107.017106,15.8928086 C107.162106,15.6458086 107.696106,15.9568086 108.987106,15.9118086 C110.048106,15.8728086 110.473106,15.6298086 110.629106,15.8528086 C110.668106,15.9148086 110.675106,16.0038086 110.664106,16.1038086" id="Fill-315" fill="#FFFFFF"></path>
                        <path d="M118.555106,21.9308086 C119.414106,22.4198086 120.408106,23.5528086 120.105106,24.6718086 C119.766106,25.9218086 117.983106,26.5128086 116.683106,26.1068086 C115.089106,25.6078086 114.065106,23.5598086 114.727106,22.3988086 C115.341106,21.3198086 117.295106,21.2128086 118.555106,21.9308086" id="Fill-316" fill="#C78457"></path>
                        <path d="M63.5111061,48.7178086 C63.1571061,47.6298086 63.1871061,45.8848086 64.3191061,45.1628086 C65.5831061,44.3558086 67.5711061,45.2388086 68.3681061,46.5998086 C69.3451061,48.2688086 68.6271061,50.8208086 67.1561061,51.2998086 C65.7891061,51.7458086 64.0321061,50.3148086 63.5111061,48.7178086" id="Fill-317" fill="#F9B995"></path>
                        <path d="M163.571106,138.276809 C162.341106,138.466809 160.991106,138.626809 159.531106,138.726809 C158.181106,138.826809 156.741106,138.866809 155.221106,138.826809 C154.831106,138.816809 154.451106,138.806809 154.081106,138.786809 C152.271106,138.706809 150.601106,138.516809 149.091106,138.276809 C147.442106,121.516809 145.791106,104.766809 144.141106,88.0068086 C143.821106,104.756809 143.501106,121.526809 143.192106,138.276809 C141.922106,138.716809 140.201106,139.176809 138.161106,139.366809 C136.561106,139.526809 134.761106,139.516809 132.821106,139.186809 C131.531106,138.966809 130.371106,138.646809 129.361106,138.276809 C129.201106,116.696809 127.831106,102.136809 127.711106,93.2568086 C127.551106,81.5268086 127.751106,73.5468086 128.172106,70.6468086 C128.301106,69.7468086 128.471106,68.8668086 128.661106,68.0268086 L128.891106,68.1268086 C130.091106,68.5168086 132.261106,66.9368086 136.511106,63.6568086 C139.711106,61.1868086 142.131106,58.7368086 143.841106,56.8268086 C145.181106,58.8068086 147.381106,61.5668086 150.731106,64.1168086 C153.581106,66.2968086 155.902106,68.0768086 157.411106,68.0568086 C157.511106,68.0568086 157.621106,68.0468086 157.721106,68.0268086 C157.922106,68.7768086 158.111106,69.5568086 158.281106,70.3468086 C158.981106,73.6968086 160.411106,88.3968086 161.871106,109.986809 C161.871106,110.076809 161.881106,110.166809 161.891106,110.256809 C161.891106,110.256809 163.031106,128.076809 163.571106,138.276809" id="Fill-318" fill="#BA7C6D"></path>
                        <path d="M154.548106,24.8958086 C153.779106,24.4478086 152.924106,24.0088086 151.971106,23.5898086 C150.396106,22.8878086 148.305106,22.1188086 145.710106,21.7868086 C144.436106,21.6218086 142.589106,21.4948086 140.411106,21.7478086 C139.390106,21.8548086 136.561106,22.2538086 133.255106,23.8138086 C132.185106,24.3208086 131.261106,24.8468086 130.445106,25.3928086 C131.320106,23.8428086 132.613106,23.7158086 132.973106,21.8448086 C133.333106,19.8958086 132.078106,19.1938086 132.351106,16.9618086 C132.574106,15.1208086 133.488106,15.1978086 134.354106,12.9658086 C135.754106,9.42780863 134.130106,7.59580863 135.851106,4.53580863 C136.541106,3.30680863 137.358106,2.63480863 137.688106,2.38080863 C139.001106,1.37680863 140.284106,1.19180863 140.527106,1.17280863 C141.218106,1.08480863 141.792106,1.14380863 142.180106,1.22080863 C142.676106,0.948808629 143.707106,0.480808629 145.009106,0.617808629 C146.838106,0.792808629 147.994106,2.03080863 148.588106,2.65480863 C149.871106,4.02880863 150.367106,5.63680863 150.590106,6.32880863 C151.135106,8.01480863 150.892106,8.60980863 151.261106,10.2758086 C151.903106,13.2778086 153.206106,13.1028086 153.721106,15.6458086 C154.431106,19.1648086 152.778106,20.3828086 153.799106,23.4048086 C154.023106,24.0778086 154.285106,24.5358086 154.548106,24.8958086" id="Fill-319" fill="#7A3563"></path>
                        <path d="M137.693106,151.155809 C137.774106,152.285809 137.823106,153.054809 137.323106,153.464809 C137.193106,153.575809 137.053106,153.625809 136.964106,153.655809 L124.633106,153.655809 C124.603106,153.655809 124.334106,153.655809 124.183106,153.434809 C124.053106,153.245809 124.123106,153.025809 124.133106,152.995809 C124.254106,152.665809 124.734106,152.535809 124.883106,152.495809 C126.223106,152.144809 127.763106,151.745809 129.103106,151.155809 C129.593106,150.945809 130.381106,150.626809 131.192106,149.896809 C131.571106,149.566809 132.381106,148.826809 132.771106,147.626809 C133.041106,146.816809 133.011106,146.136809 132.991106,145.826809 C132.902106,143.876809 133.121106,141.926809 132.902106,139.986809 C132.881106,139.776809 132.851106,139.506809 132.821106,139.186809 C134.761106,139.516809 136.561106,139.526809 138.161106,139.366809 C137.961106,141.866809 137.781106,144.736809 137.701106,147.916809 C137.611106,148.826809 137.611106,149.576809 137.631106,150.126809 C137.641106,150.496809 137.673106,150.834809 137.693106,151.155809" id="Fill-320" fill="#F9B995"></path>
                        <path d="M137.323106,153.464809 C137.193106,153.575809 137.053106,153.625809 136.964106,153.655809 L124.633106,153.655809 C124.603106,153.655809 124.334106,153.655809 124.183106,153.434809 C124.053106,153.245809 124.123106,153.025809 124.133106,152.995809 C124.254106,152.665809 124.734106,152.535809 124.883106,152.495809 C126.223106,152.144809 127.763106,151.745809 129.103106,151.155809 L137.693106,151.155809 C137.774106,152.285809 137.823106,153.054809 137.323106,153.464809" id="Fill-321" fill="#7A3563"></path>
                        <path d="M168.124106,153.434809 C167.973106,153.655809 167.703106,153.655809 167.673106,153.655809 L155.343106,153.655809 C155.254106,153.625809 155.113106,153.575809 154.984106,153.464809 C154.484106,153.054809 154.533106,152.285809 154.613106,151.155809 C154.633106,150.834809 154.661106,150.496809 154.672106,150.126809 C154.692106,149.576809 154.692106,148.826809 154.631106,147.906809 C154.521106,144.486809 154.321106,141.416809 154.081106,138.786809 C154.451106,138.806809 154.831106,138.816809 155.221106,138.826809 C156.741106,138.866809 158.181106,138.826809 159.531106,138.726809 C159.491106,139.256809 159.451106,139.686809 159.411106,139.986809 C159.192106,141.926809 159.402106,143.876809 159.321106,145.826809 C159.301106,146.136809 159.271106,146.816809 159.541106,147.626809 C159.931106,148.826809 160.741106,149.566809 161.111106,149.896809 C161.922106,150.626809 162.724106,150.945809 163.203106,151.155809 C164.544106,151.745809 166.084106,152.144809 167.423106,152.495809 C167.573106,152.535809 168.053106,152.665809 168.173106,152.995809 C168.184106,153.025809 168.254106,153.245809 168.124106,153.434809" id="Fill-322" fill="#F9B995"></path>
                        <path d="M154.984106,153.464809 C155.113106,153.575809 155.254106,153.625809 155.343106,153.655809 L167.673106,153.655809 C167.704106,153.655809 167.974106,153.655809 168.124106,153.434809 C168.254106,153.245809 168.184106,153.025809 168.173106,152.995809 C168.053106,152.665809 167.573106,152.535809 167.423106,152.495809 C166.084106,152.144809 164.544106,151.745809 163.203106,151.155809 L154.613106,151.155809 C154.534106,152.285809 154.484106,153.054809 154.984106,153.464809" id="Fill-323" fill="#7A3563"></path>
                        <path d="M197.894106,34.8138086 C196.664106,36.0938086 194.824106,36.0438086 193.124106,36.1138086 C191.894106,36.1738086 190.374106,36.3038086 188.594106,36.6038086 C188.344106,35.3348086 188.092106,34.0658086 187.842106,32.7948086 C188.183106,32.5948086 188.484106,32.3838086 188.744106,32.1838086 C190.584106,30.7838086 191.844106,28.8738086 193.014106,29.2238086 C193.104106,29.2538086 193.394106,29.3438086 193.494106,29.5738086 C193.834106,30.3538086 191.814106,31.6838086 192.044106,32.0538086 C192.214106,32.3438086 193.554106,31.8538086 194.424106,31.5438086 C196.124106,30.9338086 196.394106,30.6038086 197.034106,30.7338086 C197.854106,30.8938086 198.604106,31.6738086 198.764106,32.5738086 C198.954106,33.7038086 198.114106,34.5848086 197.894106,34.8138086" id="Fill-324" fill="#F9B995"></path>
                        <path d="M188.761106,37.4868086 C186.781106,38.2268086 183.831106,39.2368086 180.172106,40.1568086 C174.361106,41.6168086 170.422106,42.5768086 165.621106,41.8868086 C163.351106,41.5568086 159.571106,40.6568086 155.291106,37.7968086 C160.731106,60.6068086 160.101106,67.0768086 157.981106,67.9468086 L157.721106,68.0268086 C157.621106,68.0468086 157.511106,68.0568086 157.411106,68.0568086 C155.902106,68.0768086 153.581106,66.2968086 150.731106,64.1168086 C147.381106,61.5668086 145.181106,58.8068086 143.841106,56.8268086 C142.131106,58.7368086 139.711106,61.1868086 136.511106,63.6568086 C132.261106,66.9368086 130.091106,68.5168086 128.891106,68.1268086 L128.661106,68.0268086 C126.701106,66.9468086 125.942106,60.1068086 129.591106,37.9068086 C126.581106,39.6068086 123.571106,41.3068086 120.561106,43.0068086 C120.446106,41.4798086 120.357106,39.8998086 120.298106,38.2708086 C120.253106,37.0418086 120.229106,35.8388086 120.221106,34.6668086 C120.771106,34.0028086 121.499106,33.1548086 122.391106,32.1968086 C123.155106,31.3768086 123.747106,30.7908086 123.871106,30.6668086 C125.162106,29.3918086 126.287106,28.4218086 127.011106,27.8268086 C128.021106,26.9968086 129.021106,26.1868086 130.201106,25.4168086 C131.041106,24.8568086 131.991106,24.3168086 133.091106,23.7968086 C136.491106,22.1968086 139.402106,21.7868086 140.451106,21.6768086 C142.692106,21.4168086 144.591106,21.5468086 145.902106,21.7168086 C148.571106,22.0568086 150.721106,22.8468086 152.341106,23.5668086 C153.321106,23.9968086 154.201106,24.4468086 154.991106,24.9068086 C161.201106,28.5168086 162.652106,32.8368086 168.442106,34.0368086 C169.711106,34.2968086 172.591106,33.9468086 178.341106,33.2768086 C182.241106,32.8268086 185.451106,32.3068086 187.672106,31.9068086 C187.731106,32.2068086 187.793106,32.4958086 187.842106,32.7948086 C188.092106,34.0658086 188.701106,37.1968086 188.761106,37.4868086" id="Fill-325" fill="#F9E4CF"></path>
                        <path d="M143.858106,33.9448086 C143.858106,34.3288086 143.547106,34.6398086 143.163106,34.6398086 C142.780106,34.6398086 142.469106,34.3288086 142.469106,33.9448086 C142.469106,33.5618086 142.780106,33.2508086 143.163106,33.2508086 C143.547106,33.2508086 143.858106,33.5618086 143.858106,33.9448086" id="Fill-326" fill="#BA7C6D"></path>
                        <path d="M143.821106,42.4728086 C143.821106,42.8568086 143.510106,43.1678086 143.127106,43.1678086 C142.743106,43.1678086 142.432106,42.8568086 142.432106,42.4728086 C142.432106,42.0898086 142.743106,41.7788086 143.127106,41.7788086 C143.510106,41.7788086 143.821106,42.0898086 143.821106,42.4728086" id="Fill-327" fill="#BA7C6D"></path>
                        <path d="M143.821106,51.0078086 C143.821106,51.3918086 143.510106,51.7038086 143.127106,51.7038086 C142.743106,51.7038086 142.432106,51.3918086 142.432106,51.0078086 C142.432106,50.6248086 142.743106,50.3138086 143.127106,50.3138086 C143.510106,50.3138086 143.821106,50.6248086 143.821106,51.0078086" id="Fill-328" fill="#BA7C6D"></path>
                        <path d="M145.903106,18.6338086 L145.903106,21.7938086 C145.354106,26.1838086 144.164106,29.3138086 143.114106,29.3138086 C142.074106,29.3038086 140.943106,26.1648086 140.454106,21.7938086 L140.454106,18.3938086 C141.264106,19.2438086 142.204106,19.7738086 143.184106,19.7738086 C144.114106,19.7738086 144.984106,19.4148086 145.754106,18.7638086 L145.903106,18.6338086" id="Fill-329" fill="#F9B995"></path>
                        <path d="M145.903106,18.6338086 L145.903106,19.7738086 C145.454106,20.0238086 144.443106,20.4838086 143.094106,20.4638086 C141.834106,20.4438086 140.903106,20.0238086 140.454106,19.7738086 L140.454106,18.3938086 C141.264106,19.2438086 142.204106,19.7738086 143.184106,19.7738086 C144.114106,19.7738086 144.984106,19.4148086 145.754106,18.7638086 L145.903106,18.6338086" id="Fill-330" fill="#EFA884"></path>
                        <path d="M149.034106,10.6838086 C148.874106,14.1438086 147.644106,17.1038086 145.903106,18.6338086 L145.754106,18.7638086 C144.984106,19.4148086 144.114106,19.7738086 143.184106,19.7738086 C142.204106,19.7738086 141.264106,19.2438086 140.454106,18.3938086 C138.714106,16.5638086 137.494106,13.3638086 137.334106,10.6938086 C137.304106,10.3838086 137.304106,10.0738086 137.314106,9.82380863 C138.281106,9.31680863 139.642106,8.43480863 140.848106,6.95280863 C141.345106,6.34280863 141.724106,5.74380863 142.015106,5.20280863 C142.894106,6.13880863 143.984106,7.17480863 145.306106,8.20980863 C146.634106,9.24780863 147.909106,10.0558086 149.034106,10.6838086" id="Fill-331" fill="#F9B995"></path>
                        <path d="M141.262106,10.9318086 C141.262106,11.4378086 140.985106,11.8488086 140.644106,11.8488086 C140.302106,11.8488086 140.025106,11.4378086 140.025106,10.9318086 C140.025106,10.4258086 140.302106,10.0158086 140.644106,10.0158086 C140.985106,10.0158086 141.262106,10.4258086 141.262106,10.9318086" id="Fill-332" fill="#352F31"></path>
                        <path d="M146.394106,10.9318086 C146.394106,11.4378086 146.117106,11.8488086 145.775106,11.8488086 C145.434106,11.8488086 145.156106,11.4378086 145.156106,10.9318086 C145.156106,10.4258086 145.434106,10.0158086 145.775106,10.0158086 C146.117106,10.0158086 146.394106,10.4258086 146.394106,10.9318086" id="Fill-333" fill="#352F31"></path>
                        <path d="M143.627106,13.9068086 C143.219106,13.7978086 142.578106,13.5528086 142.503106,13.0738086 C142.474106,12.8818086 142.542106,12.7398086 142.679106,12.4578086 C142.804106,12.1968086 142.995106,11.7978086 143.240106,11.2728086 L143.406106,11.2118086 L143.467106,11.3778086 C143.222106,11.9048086 143.030106,12.3038086 142.907106,12.5588086 C142.774106,12.8348086 142.734106,12.9258086 142.750106,13.0348086 C142.788106,13.2798086 143.129106,13.5138086 143.660106,13.6608086 L143.747106,13.8148086 L143.627106,13.9068086" id="Fill-334" fill="#F2856B"></path>
                        <path d="M139.056106,8.88380863 C139.100106,8.47880863 140.080106,8.32280863 140.367106,8.27280863 C140.650106,8.22280863 141.258106,8.11580863 141.434106,8.38280863 L141.473106,8.63280863 C141.419106,8.77780863 141.212106,8.81980863 141.123106,8.83880863 C139.932106,9.09080863 139.350106,9.40780863 139.123106,9.10780863 C139.112106,9.09280863 139.044106,8.99980863 139.056106,8.88380863" id="Fill-335" fill="#7A3563"></path>
                        <path d="M147.189106,8.88380863 C147.145106,8.47880863 146.165106,8.32280863 145.878106,8.27280863 C145.595106,8.22280863 144.987106,8.11580863 144.811106,8.38280863 L144.773106,8.63280863 C144.826106,8.77780863 145.033106,8.81980863 145.122106,8.83880863 C146.314106,9.09080863 146.895106,9.40780863 147.122106,9.10780863 C147.133106,9.09280863 147.202106,8.99980863 147.189106,8.88380863" id="Fill-336" fill="#7A3563"></path>
                        <path d="M145.015106,15.6968086 L144.992106,15.8268086 L144.961106,15.8758086 C144.842106,16.2128086 144.502106,16.6338086 144.066106,16.8738086 C143.366106,17.2468086 142.652106,16.9878086 142.553106,16.9558086 C142.018106,16.7518086 141.589106,16.2918086 141.428106,15.9268086 C141.381106,15.8358086 141.353106,15.7458086 141.345106,15.6658086 L141.370106,15.4648086 C141.516106,15.2188086 142.048106,15.5328086 143.340106,15.4948086 C144.401106,15.4608086 144.827106,15.2218086 144.982106,15.4458086 C145.020106,15.5068086 145.028106,15.5968086 145.015106,15.6968086" id="Fill-337" fill="#DA6249"></path>
                        <path d="M145.015106,15.6968086 C144.642106,15.8278086 144.169106,15.9458086 143.598106,15.9818086 C142.616106,16.0468086 141.821106,15.8368086 141.345106,15.6658086 L141.370106,15.4648086 C141.516106,15.2188086 142.048106,15.5328086 143.340106,15.4948086 C144.401106,15.4608086 144.827106,15.2218086 144.982106,15.4458086 C145.020106,15.5068086 145.028106,15.5968086 145.015106,15.6968086" id="Fill-338" fill="#FFFFFF"></path>
                    </g>
                </g>
            </g>
        </g>
    </g>
</svg>