<?xml version="1.0" encoding="UTF-8"?>
<svg width="35px" height="35px" viewBox="0 0 35 35" version="1.1" xmlns="http://www.w3.org/2000/svg" xmlns:xlink="http://www.w3.org/1999/xlink">
    <!-- Generator: Sketch 59 (86127) - https://sketch.com -->
    <title>lifestyle</title>
    <desc>Created with Sketch.</desc>
    <g id="lifestyle" stroke="none" stroke-width="1" fill="none" fill-rule="evenodd">
        <g id="Group" transform="translate(0.000000, 1.000000)" fill="#CACAE5">
            <path d="M0.0986795136,9.30457746 C0.0986795136,9.30457746 0.838116133,4.99119718 4.04234149,4.74471831 C7.24656684,4.49823944 7.98600346,5.17605634 7.98600346,5.17605634 C7.98600346,5.17605634 8.54058092,0.801056338 12.7307218,0.801056338 C16.9208626,0.801056338 17.1673415,3.6971831 17.1673415,3.6971831 C17.1673415,3.6971831 17.2905809,-1.0658141e-14 22.2817781,-1.0658141e-14 C27.2729753,-1.0658141e-14 27.334595,6.53169014 27.334595,6.53169014 C27.334595,6.53169014 32.0176936,3.63556338 34.1743837,8.99647887 C36.3310739,14.3573944 31.9560739,15.9284507 27.241919,15.9284507 C23.7236795,15.9284507 11.8463556,16.0832394 6.04818656,16.1616197 C2.54473585,16.2089437 -0.353855698,13.2240845 0.0350879643,9.74183099 C0.0508626122,9.59788732 0.0720597952,9.45197183 0.0986795136,9.30457746" id="Fill-89"></path>
            <path d="M11.4367077,18.5761268 C11.4367077,18.5761268 7.8011443,22.4971127 9.71135557,23.6649296 C11.6215668,24.8327465 11.4367077,18.5761268 11.4367077,18.5761268" id="Fill-90"></path>
            <path d="M19.3240316,17.7676761 C19.3240316,17.7676761 15.6884682,21.6891549 17.5986795,22.8569718 C19.5088908,24.0242958 19.3240316,17.7676761 19.3240316,17.7676761" id="Fill-91"></path>
            <path d="M14.8257922,23.9508451 C14.8257922,23.9508451 11.1902288,27.871831 13.1004401,29.0396479 C15.0106513,30.2074648 14.8257922,23.9508451 14.8257922,23.9508451" id="Fill-92"></path>
            <path d="M23.8222711,20.2053521 C23.8222711,20.2053521 20.1867077,24.126338 22.096919,25.2941549 C24.0071302,26.4624648 23.8222711,20.2053521 23.8222711,20.2053521" id="Fill-93"></path>
            <path d="M19.6474119,28.0310563 C19.6474119,28.0310563 16.0118485,31.9520423 17.9220598,33.1198592 C19.8322711,34.288169 19.6474119,28.0310563 19.6474119,28.0310563" id="Fill-94"></path>
        </g>
    </g>
</svg>