<?xml version="1.0" encoding="UTF-8"?>
<svg width="35px" height="35px" viewBox="0 0 35 35" version="1.1" xmlns="http://www.w3.org/2000/svg" xmlns:xlink="http://www.w3.org/1999/xlink">
    <!-- Generator: Sketch 59 (86127) - https://sketch.com -->
    <title>physical</title>
    <desc>Created with Sketch.</desc>
    <g id="physical" stroke="none" stroke-width="1" fill="none" fill-rule="evenodd">
        <g id="Group" transform="translate(7.000000, 8.000000)">
            <path d="M11.9840228,0.0520667991 C9.40637963,-0.339296529 7.22580321,1.54940992 4.84669342,3.24351582 C2.46758363,4.93708116 0.0665364508,5.26249652 0.000724285065,8.58421979 C-0.0656363154,11.9064836 4.45017512,11.365386 4.45017512,11.365386 L10.8608285,7.82257486 L17.5435055,12 C19.5266454,4.27976374 14.5611175,0.442349013 11.9840228,0.0520667991" id="Fill-36" fill="#524941"></path>
            <path d="M20.5653393,18.4272653 C19.6365853,17.6434247 19.0373717,16.450239 18.4931715,14.8565589 C17.9991305,13.4089154 17.5498551,11.6293705 16.9430907,9.5157114 C17.3254871,8.97858423 17.5509338,8.11010877 16.9425514,6.77254594 C15.7123029,4.06699597 13.8138045,5.43719578 13.8774474,6.86049982 C13.8806835,6.93849666 13.8925491,7.01925935 13.9076508,7.10002203 C13.791152,7.27537663 13.6282695,7.42749813 13.4028228,7.5425573 C13.0765184,7.70906119 12.7610009,7.66259499 12.485395,7.4208601 C11.7400187,6.76701425 11.6235199,5.93394161 11.1726266,5.07044468 C10.9439438,4.6317816 9.1721918,6.37647687 8.81244793,6.59497866 C7.41877755,7.43856151 5.70689295,8.31256865 4.04301016,8.19972216 C3.70268276,10.9611422 5.40216239,14.6496736 8.42681545,17.0631503 C10.0960917,18.3951815 11.3862076,18.6380227 12.485395,18.2585487 C12.4373932,18.8332914 12.2966239,19.6149193 11.8980471,20.1011549 C11.7367826,20.3036148 11.2794171,20.3998662 10.6451461,20.4535236 C10.5205571,22.0422252 10.8161188,25.1880978 15.1055385,24.9911696 C17.9117564,24.8595153 19.6915986,23.2757923 20.7810778,21.6970477 C21.3748978,20.8352103 21.7670025,19.9755855 22,19.3543767 C21.3862241,19.0130713 20.8819355,18.6988713 20.5653393,18.4272653" id="Fill-39" fill="#FFCC99"></path>
            <path d="M26.199182,18.1352216 C22.8883981,14.4119305 19.0310571,14.9094849 17.7927883,15.1939611 C18.3215286,16.8009726 18.9037193,18.0041395 19.8060887,18.794537 C19.8501067,18.8341406 19.9072253,18.8765331 19.9591037,18.91781 C17.2960135,19.7740276 14.9793032,24.0852362 14.9793032,24.0852362 C14.1298603,21.6677465 11.7565554,19.7294039 11.7565554,19.7294039 C12.1286124,18.9769365 11.8823211,18.4141199 11.8823211,18.4141199 C10.0770583,19.5297127 10.0304202,20.5521536 10.0304202,20.5521536 C9.73591867,24.3172795 11.6077325,25.7457962 14.4306501,25.9906688 C16.8165315,26.1976113 23.3610678,22.9043811 25.3261579,21.8819403 C25.5368156,21.7871149 25.7233682,21.6878271 25.8884357,21.5851926 C28.1930935,20.1522135 26.199182,18.1352216 26.199182,18.1352216" id="Fill-46" fill="#F2A331"></path>
        </g>
        <polyline id="Path-4" stroke="#1BA5B0" stroke-width="2" stroke-linecap="round" stroke-linejoin="round" points="1.96777344 4.00830078 7 0.952636719 3.49511719 7.95019531 8.82910156 5.48828125"></polyline>
        <polyline id="Path-4" stroke="#1BA5B0" stroke-width="2" stroke-linecap="round" stroke-linejoin="round" points="9.86132812 7.61761302 14.2618405 4.99755859 11.8461914 11.9902344 17.8630371 8.9453125"></polyline>
    </g>
</svg>