<?xml version="1.0" encoding="UTF-8"?>
<svg width="24px" height="22px" viewBox="0 0 24 22" version="1.1" xmlns="http://www.w3.org/2000/svg" xmlns:xlink="http://www.w3.org/1999/xlink">
    <!-- Generator: Sketch 59 (86127) - https://sketch.com -->
    <title>sad</title>
    <desc>Created with Sketch.</desc>
    <g id="Page-1" stroke="none" stroke-width="1" fill="none" fill-rule="evenodd">
        <g id="depressed.nyc" transform="translate(-565.000000, -930.000000)">
            <g id="Group-7" transform="translate(515.000000, 880.000000)">
                <g id="sad" transform="translate(50.000000, 50.000000)">
                    <path d="M0.00206233383,11.3444211 C0.00206233383,11.3444211 -0.448885035,-1.42108547e-14 11.9856413,-1.42108547e-14 C24.4214308,-1.42108547e-14 23.4601676,11.4732632 23.4601676,11.4732632 C23.4601676,11.4732632 23.0534308,21.3789474 11.7380623,21.3789474 C0.423957071,21.3789474 0.00206233383,11.3444211 0.00206233383,11.3444211" id="Fill-1883" fill="#99CFDB"></path>
                    <path d="M6.56164128,7.42863158 C5.34395707,7.42863158 5.34395707,9.31831579 6.56164128,9.31831579 C7.77932549,9.31831579 7.77932549,7.42863158 6.56164128,7.42863158" id="Fill-1884" fill="#312661"></path>
                    <path d="M16.4862729,7.18357895 C15.7599571,6.97642105 15.1170097,7.63452632 15.3026939,8.30905263 C15.4934308,9.00252632 16.3422729,9.17936842 16.8487992,8.71705263 C17.3932202,8.22063158 17.111536,7.36294737 16.4862729,7.18357895" id="Fill-1885" fill="#312661"></path>
                    <path d="M16.8892202,14.9368421 C15.6260623,12.4218947 13.7136413,10.9932632 10.7439571,11.3810526 C8.72164128,11.6450526 6.67785181,13.7936842 7.21974654,15.8968421 C7.32711497,16.3149474 7.85006233,16.2366316 7.9890097,15.8968421 C8.75448339,14.0197895 9.55027286,12.6770526 11.8012202,12.6442105 C13.8904834,12.6151579 14.8567992,13.9945263 15.7334308,15.6126316 C16.1464834,16.3755789 17.2744834,15.7023158 16.8892202,14.9368421" id="Fill-1886" fill="#312661"></path>
                </g>
            </g>
        </g>
    </g>
</svg>