<?xml version="1.0" encoding="UTF-8" standalone="no"?>
<svg
   xmlns:dc="http://purl.org/dc/elements/1.1/"
   xmlns:cc="http://creativecommons.org/ns#"
   xmlns:rdf="http://www.w3.org/1999/02/22-rdf-syntax-ns#"
   xmlns:svg="http://www.w3.org/2000/svg"
   xmlns="http://www.w3.org/2000/svg"
   xmlns:sodipodi="http://sodipodi.sourceforge.net/DTD/sodipodi-0.dtd"
   xmlns:inkscape="http://www.inkscape.org/namespaces/inkscape"
   inkscape:version="1.0beta2 (2b71d25, 2019-12-03)"
   sodipodi:docname="bracelet-man.svg"
   id="svg19497"
   version="1.1"
   viewBox="0 0 448.89227 354.49911"
   height="354.49911"
   width="448.89227">
  <metadata
     id="metadata19503">
    <rdf:RDF>
      <cc:Work
         rdf:about="">
        <dc:format>image/svg+xml</dc:format>
        <dc:type
           rdf:resource="http://purl.org/dc/dcmitype/StillImage" />
        <dc:title>Group</dc:title>
      </cc:Work>
    </rdf:RDF>
  </metadata>
  <defs
     id="defs19501">
    <inkscape:path-effect
       only_selected="false"
       apply_with_weight="true"
       apply_no_weight="true"
       helper_size="0"
       steps="2"
       weight="33.333333"
       lpeversion="1"
       is_visible="true"
       id="path-effect23581"
       effect="bspline" />
    <marker
       inkscape:isstock="true"
       style="overflow:visible"
       id="Arrow2Lend"
       refX="0"
       refY="0"
       orient="auto"
       inkscape:stockid="Arrow2Lend">
      <path
         inkscape:connector-curvature="0"
         transform="matrix(-1.1,0,0,-1.1,-1.1,0)"
         d="M 8.7185878,4.0337352 -2.2072895,0.01601326 8.7185884,-4.0017078 c -1.7454984,2.3720609 -1.7354408,5.6174519 -6e-7,8.035443 z"
         style="fill:#fa466c;fill-opacity:1;fill-rule:evenodd;stroke:#fa466c;stroke-width:0.625;stroke-linejoin:round;stroke-opacity:1"
         id="path21708" />
    </marker>
    <marker
       inkscape:isstock="true"
       style="overflow:visible"
       id="Arrow1Lend"
       refX="0"
       refY="0"
       orient="auto"
       inkscape:stockid="Arrow1Lend">
      <path
         inkscape:connector-curvature="0"
         transform="matrix(-0.8,0,0,-0.8,-10,0)"
         style="fill:#000000;fill-opacity:1;fill-rule:evenodd;stroke:#000000;stroke-width:1pt;stroke-opacity:1"
         d="M 0,0 5,-5 -12.5,0 5,5 Z"
         id="path21690" />
    </marker>
    <inkscape:path-effect
       only_selected="false"
       apply_with_weight="true"
       apply_no_weight="true"
       helper_size="0"
       steps="2"
       weight="33.333333"
       lpeversion="1"
       is_visible="true"
       id="path-effect21685"
       effect="bspline" />
    <inkscape:path-effect
       lpeversion="1"
       is_visible="true"
       id="path-effect20059"
       effect="spiro" />
    <inkscape:path-effect
       lpeversion="1"
       is_visible="true"
       id="path-effect20055"
       effect="spiro" />
  </defs>
  <sodipodi:namedview
     fit-margin-bottom="0"
     fit-margin-right="0"
     fit-margin-left="0"
     fit-margin-top="0"
     inkscape:current-layer="svg19497"
     inkscape:window-maximized="0"
     inkscape:window-y="23"
     inkscape:window-x="30"
     inkscape:cy="401.74251"
     inkscape:cx="400.70171"
     inkscape:zoom="0.6859038"
     showgrid="false"
     id="namedview19499"
     inkscape:window-height="929"
     inkscape:window-width="1650"
     inkscape:pageshadow="2"
     inkscape:pageopacity="0"
     guidetolerance="10"
     gridtolerance="10"
     objecttolerance="10"
     borderopacity="1"
     inkscape:document-rotation="0"
     bordercolor="#666666"
     pagecolor="#ffffff" />
  <!-- Generator: Sketch 59 (86127) - https://sketch.com -->
  <title
     id="title19412">Group</title>
  <path
     d="m 442.06756,268.61064 c 0,55.95165 -69.33977,85.88846 -201.97266,85.88846 -71.25423,0 -135.26008,-13.08759 -179.23816,-33.88035 C 32.161471,307.05658 11.988181,290.21135 3.8955406,271.59614 -31.452019,-0.48440676 180.39754,-31.941344 370.08571,22.079559 481.66823,47.60299 442.06756,239.82496 442.06756,268.61064 Z"
     fill="#f9f7f4"
     id="path15563"
     style="fill:#ebf3f5;fill-opacity:1;stroke-width:0.544974"
     inkscape:connector-curvature="0"
     sodipodi:nodetypes="sscccs" />
  <desc
     id="desc19414">Created with Sketch.</desc>
  <path
     d="m 357.97024,233.84491 c -9.47781,5.92996 -10.79051,5.77791 -21.74321,4.56151 -34.21133,-3.85195 -102.88236,68.77746 -144.89895,8.5655 -0.65889,-10.79558 -1.12011,-19.96928 -1.42421,-27.2677 2.63554,-0.60821 5.72723,-1.57119 9.02672,-3.14238 3.59853,-1.67256 6.53817,-3.69989 8.91523,-5.62586 2.99032,8.2614 9.07234,19.46244 20.93227,25.18968 2.23514,1.11503 4.00399,1.77392 5.47382,2.07802 7.96236,1.82461 18.19535,-1.41914 56.31439,-8.36278 27.82016,-5.06834 22.7518,-9.02165 35.57472,-15.40776 3.80127,-1.87529 16.2694,-4.76425 17.64292,-1.62188 2.73691,4.86562 -12.06773,7.19705 -12.16911,9.2244 -0.0456,1.77392 10.84627,7.045 20.1771,3.39578 15.25572,-5.87927 16.21364,-7.95729 18.80356,-7.29841 7.60252,1.87528 -6.0364,11.45446 -12.62525,15.71188"
     id="Fill-533"
     fill="#F9B995"
     inkscape:connector-curvature="0"
     style="fill-rule:evenodd;stroke:none;stroke-width:1.68945" />
  <path
     d="m 198.47444,175.81233 c -11.96636,-16.62417 -28.07864,-24.42943 -38.6208,-29.59914 -6.69529,-3.24374 -12.52389,-5.37245 -16.67486,-6.69021 -9.83766,-0.40547 -19.72094,-0.81094 -29.54846,-1.21641 -13.6896,4.40947 -30.61788,12.46814 -44.80418,27.11565 -7.10076,7.34911 -10.85134,13.58317 -11.865,15.30642 -8.20565,13.93794 -10.03533,27.41975 -10.486414,35.27568 0.501772,0.1014 1.059294,0.20274 1.616804,0.25342 7.29842,1.26708 15.20504,2.23007 23.72494,2.78759 3.8266,0.23314 7.5569,0.37506 11.14022,0.43081 l -0.14698,0.38012 c -12.16404,36.84689 -16.37077,66.54739 -17.94195,87.02352 -1.10997,14.34341 -1.46983,31.82921 7.09569,36.18799 0.86668,0.45615 1.77392,0.70957 2.83827,0.76025 3.09676,0.25341 7.75964,-1.01367 18.3981,-3.75058 8.81892,-2.28075 17.73921,-4.05467 26.45677,-6.63953 36.08663,-10.79558 61.12932,4.51083 73.18692,-9.17371 l 0.3041,-0.40547 c 5.06834,-6.08201 3.49716,-13.38043 1.06435,-40.09062 -1.26709,-13.68453 -2.17938,-26.0513 -2.88388,-36.79619 -0.65889,-10.79558 -1.12011,-19.96928 -1.42421,-27.2677 2.63554,-0.60821 5.72723,-1.57119 9.02672,-3.14238 3.59853,-1.67256 6.53817,-3.69989 8.91523,-5.62586 1.5205,-1.2164 2.83828,-2.43281 3.90262,-3.49716 -2.88388,-15.45846 -9.1737,-25.89925 -13.274,-31.62649"
     id="Fill-534"
     fill="#7895A4"
     inkscape:connector-curvature="0"
     style="fill-rule:evenodd;stroke:none;stroke-width:1.68945" />
  <path
     d="m 149.15436,131.71772 c -2.4328,0.45615 -4.56151,0.1014 -5.87927,-0.20274 -0.0507,2.68623 -0.0507,5.32177 -0.0963,8.008 -4.004,6.03132 -11.05407,9.17371 -17.73922,8.00798 -7.80525,-1.36845 -11.60651,-7.95731 -12.11841,-8.92029 0.15204,-3.39579 0.30916,-6.79159 0.40547,-10.23806 1.37352,-1.06435 1.67255,-2.48349 4.00399,-4.81493 1.87529,-1.87529 2.58485,-1.8246 3.6492,-2.93964 2.02735,-2.07802 4.96699,-13.07634 0.40548,-16.16803 -2.58486,-1.72323 -5.11904,0.70957 -7.6532,-1.31777 -2.28076,-1.8246 -3.19306,-6.183388 -1.26709,-8.768238 1.5205,-1.97666 4.31316,-2.23007 4.6122,-2.23007 2.17938,-0.15205 2.83826,0.96298 4.05467,0.55752 2.64061,-0.86162 2.88896,-7.146366 2.88896,-8.818921 0.0507,-6.588856 -2.4835,-9.477812 -0.76025,-11.45447 0.76025,-0.86161 1.26708,-0.354779 6.33542,-1.419128 4.25742,-0.861622 4.92138,-1.469828 7.39979,-1.571192 2.53418,-0.101397 3.04608,0.456155 5.72724,0.760247 5.77791,0.557518 6.39119,-2.230063 12.77223,-1.723232 3.39579,0.304103 5.72723,1.165713 8.82399,-0.0507 3.28935,7.095686 4.30303,13.127013 4.70849,16.928278 2.03241,19.513126 -6.79158,43.790506 -20.27338,46.375376"
     id="Fill-535"
     fill="#F9B995"
     inkscape:connector-curvature="0"
     style="fill-rule:evenodd;stroke:none;stroke-width:1.68945" />
  <path
     d="m 169.02228,65.322385 c -0.6082,0.658882 -1.97159,2.128698 -4.15604,3.041007 -3.24375,1.267077 -5.57518,0.405467 -8.97097,0.101398 -6.38105,-0.506842 -6.99432,2.280749 -12.77224,1.723231 -2.68115,-0.304103 -3.19305,-0.861621 -5.72723,-0.760246 -2.47842,0.101397 -3.14237,0.70957 -7.39979,1.57118 -5.06834,1.06436 -5.57517,0.557518 -6.33543,1.419139 -1.72324,1.976658 0.81093,4.865614 0.76026,11.454459 0,1.672555 -0.24836,7.957309 -2.88897,8.818929 -1.2164,0.40547 -1.87528,-0.70957 -4.05467,-0.55752 -0.29903,0 -3.09169,0.25342 -4.6122,2.23008 -1.92597,2.58485 -1.01367,6.943628 1.26709,8.768238 2.53417,2.02733 5.06834,-0.40547 7.65321,1.31776 4.56151,3.0917 1.62186,14.09001 -0.40548,16.16803 -1.06435,1.11504 -1.77392,1.06435 -3.6492,2.93965 -2.33144,2.33143 -2.63047,3.75057 -4.00399,4.81492 l -0.75519,0.50683 c -2.43787,1.36846 -5.02274,0.81094 -5.37752,0.76026 -3.44647,-0.76026 -5.16464,-3.80126 -5.72723,-4.81494 -1.72323,-2.99032 -0.76025,-4.40945 -1.76885,-8.21071 -1.37352,-4.81494 -3.45154,-4.25742 -5.37751,-9.07234 -2.28077,-5.72724 -1.3634,-11.606508 -0.95792,-14.140688 0.65381,-4.40946 1.56611,-4.76425 1.6168,-8.362775 0.0557,-3.801253 -0.9123,-4.662874 -1.57119,-8.97097 -0.50176,-3.902628 -1.46982,-9.376447 1.22147,-13.887271 1.87529,-3.243746 3.69483,-2.990319 7.4454,-7.805253 3.50222,-4.510829 2.48856,-5.524498 4.91629,-7.957305 4.86562,-4.814928 12.67087,-4.612195 15.81325,-4.561512 7.10075,0.152051 7.3491,2.686225 12.92428,1.925972 5.27108,-0.760252 6.39119,-3.142376 11.50515,-2.88896 3.04101,0.152051 3.09169,1.013673 7.90662,1.672557 5.58025,0.810936 6.23913,-0.253418 8.8696,0.709569 3.9077,1.419137 6.69022,5.423131 7.65321,9.275074 1.2164,4.865609 -0.35478,9.680546 -3.04101,12.77223"
     id="Fill-536"
     fill="#A25F4C"
     inkscape:connector-curvature="0"
     style="fill-rule:evenodd;stroke:none;stroke-width:1.68945" />
  <path
     d="m 198.21595,290.35697 c -4.3537,8.36277 -20.93227,10.13669 -41.3577,5.67654 -28.38274,6.53817 -51.59576,6.03133 -67.09984,4.40946 -20.07065,-2.02733 -41.36278,-4.51082 -48.306419,-18.55014 -2.230062,-4.46015 -2.230062,-8.71756 0.157121,-26.50746 2.078022,-15.50914 4.409459,-28.7882 6.482418,-39.12763 7.29842,1.26708 15.20504,2.23007 23.72494,2.78759 4.15097,0.25341 8.21072,0.40546 12.05759,0.45615 -2.83828,12.26541 -5.37244,22.14867 -7.29841,29.24436 -2.38213,8.92029 -3.4921,12.72155 -1.52051,16.62417 1.06435,2.07803 2.68622,3.49717 7.24773,4.81493 4.56151,1.36845 12.06773,2.63554 24.94133,4.46015 32.13333,2.78759 45.71143,4.81492 51.95056,-0.0507 0.7045,-0.50684 3.08663,-2.53418 6.88788,-4.05468 2.17939,-0.91231 4.15604,-1.31778 5.5245,-1.57119 -0.34971,2.23007 -0.65889,4.51083 -1.00861,6.74091 2.83321,1.16571 7.14131,2.58485 12.51375,2.53416 7.50116,-0.1014 11.20106,-2.93964 14.09508,-0.96298 3.03594,2.12871 3.1373,8.97097 1.00859,13.07633"
     id="Fill-539"
     fill="#F9B995"
     inkscape:connector-curvature="0"
     style="fill-rule:evenodd;stroke:none;stroke-width:1.68945" />
  <g
     id="g19463"
     transform="matrix(1.6894489,0,0,1.6894489,130.85686,78.30474)"
     style="fill:none;fill-rule:evenodd;stroke:none;stroke-width:1">
    <path
       d="m 17.418463,8.0836233 c -0.075,1.515 0.696,2.7869997 1.719,2.8349997 1.023,0.051 1.914,-1.1369997 1.986,-2.6549997 0.072,-1.518 -0.693,-2.787 -1.719,-2.838 -1.023,-0.048 -1.914,1.14 -1.986,2.658"
       id="Fill-540"
       fill="#352F31"
       inkscape:connector-curvature="0" />
    <path
       d="m 3.1504628,7.7266233 c 0.063,1.518 0.945,2.7089997 1.971,2.6699997 1.023,-0.045 1.803,-1.3109997 1.737,-2.8259997 -0.063,-1.518 -0.945,-2.712 -1.968,-2.667 -1.026,0.039 -1.803,1.305 -1.74,2.823"
       id="Fill-541"
       fill="#352F31"
       inkscape:connector-curvature="0" />
    <path
       d="M 4.6280345e-4,2.4526233 C 0.0424628,1.2316233 2.9374628,0.54462329 3.7864628,0.32862329 c 0.837,-0.21 2.631,-0.666 3.216,0.093 0.132,0.171 0.252,0.468 0.174,0.74100001 -0.129,0.441 -0.741,0.618 -1.002,0.693 -3.507,1.023 -5.175,2.097 -5.922,1.251 -0.039,-0.042 -0.264,-0.306 -0.25199999655,-0.654"
       id="Fill-542"
       fill="#A25F4C"
       inkscape:connector-curvature="0" />
    <path
       d="m 11.181463,17.287623 -0.351,-0.276 0.264,-0.465 c 0.96,-0.255 2.613,-0.867 2.847,-2.025 0.084,-0.405 -0.036,-0.744 -0.504,-1.974 l -0.102,-0.27 c -0.564,-1.494 -0.996,-2.7179997 -1.275,-3.5129997 l 0.231,-0.477 0.477,0.228 c 0.279,0.792 0.708,2.0099997 1.269,3.4979997 l 0.102,0.27 c 0.483,1.272 0.666,1.752 0.537,2.385 -0.312,1.557 -2.253,2.301 -3.384,2.607 l -0.111,0.012"
       id="Fill-543"
       fill="#F2856B"
       inkscape:connector-curvature="0" />
    <path
       d="m 22.011463,2.6806233 c -0.021,-1.167 -2.778,-1.86600001 -3.582,-2.08500001 -0.795,-0.213 -2.502,-0.678 -3.075,0.042 l -0.174,0.70200001 c 0.117,0.426 0.696,0.6 0.945,0.678 3.333,1.029 4.911,2.079 5.637,1.281 0.036,-0.036 0.255,-0.282 0.249,-0.618"
       id="Fill-544"
       fill="#A25F4C"
       inkscape:connector-curvature="0" />
    <path
       d="m 17.061463,21.181623 -0.072,0.387 -0.096,0.147 c -0.366,1.008 -1.404,2.259 -2.718,2.961 -2.115,1.095 -4.2450002,0.294 -4.5420002,0.195 -1.599,-0.63 -2.868,-2.028 -3.336,-3.126 -0.141,-0.276 -0.222,-0.549 -0.243,-0.789 l 0.081,-0.597 c 0.447,-0.735 2.034,0.225 5.9100002,0.159 3.183,-0.066 4.47,-0.768 4.926,-0.093 0.111,0.186 0.132,0.459 0.09,0.756"
       id="Fill-545"
       fill="#DA6249"
       inkscape:connector-curvature="0" />
    <path
       d="m 17.061463,21.181623 c -1.125,0.378 -2.547,0.717 -4.26,0.804 -2.9490002,0.162 -5.3250002,-0.495 -6.7470002,-1.029 l 0.081,-0.597 c 0.447,-0.735 2.034,0.225 5.9100002,0.159 3.183,-0.066 4.47,-0.768 4.926,-0.093 0.111,0.186 0.132,0.459 0.09,0.756"
       id="Fill-546"
       fill="#FFFFFF"
       inkscape:connector-curvature="0" />
  </g>
  <path
     id="Fill-547"
     d="m 323.27719,218.59215 c -0.95813,0.44222 -1.91551,0.88708 -2.8703,1.33264 l -42.66624,35.18516 c 0.34573,0.74787 0.65371,1.49326 0.92042,2.23123 0.77905,2.15575 0.47817,4.56018 0.71757,6.83986 -0.14964,2.09306 -0.1486,4.20308 -0.4035,6.28369 10.61279,-8.75315 21.22537,-17.50683 31.83937,-26.258 -0.134,12.11744 0.0344,21.6598 0.24211,28.47397 0.15075,4.9716 0.42836,12.09312 3.69474,14.73973 1.86267,1.51091 4.4997,1.40321 6.26187,-0.30536 3.76555,-3.66169 2.73072,-13.90873 2.73071,-13.90873 -1.21944,-9.55459 -1.28753,-27.80975 -0.46675,-54.61419 z m -51.96418,41.81781 -10.1878,8.40151 c -0.0112,0.70952 -0.0116,1.41928 -0.0261,2.12874 -0.12763,6.20791 -5.14998,7.44594 -7.09723,3.74709 l -0.77646,0.63905 h -26.08351 c 3.93054,2.94477 8.6171,4.82236 13.47034,5.94344 3.41059,0.78783 6.98832,0.42623 10.48225,0.63905 2.64027,-0.72059 16.32381,-1.39714 18.26653,-5.12989 0.47222,-0.90732 0.48398,-1.98834 0.7372,-2.97936 1.65837,-6.49027 1.10447,-2.78661 1.43515,-10.08966 -0.13486,-1.08372 -0.1215,-2.20659 -0.22029,-3.29997 z M 9.0253386,275.32635 c -3.470723,0 -6.312035,2.84566 -6.312035,6.3164 l 0.04362,0.4384 c -0.800683,18.77416 -0.73054,32.90841 -0.549633,42.10788 0.103855,4.9716 0.307864,12.09669 3.550795,14.7768 1.845925,1.52431 4.4817904,1.45089 6.2640624,-0.24428 3.068724,-2.92132 2.66711,-10.03106 2.868118,-13.88037 0.683427,-12.94492 0.701552,-26.30012 0.547445,-36.87984 H 235.03079 c -3.39908,-0.89286 -6.8212,-2.46525 -11.11695,-5.51159 -2.80851,-1.99166 -5.36861,-4.41588 -7.54217,-7.1234 z M 261.78825,288.14236 c -3.75099,0.69843 -7.57661,1.06574 -11.31979,1.60092 -0.59893,-0.0571 -1.11933,-0.0921 -1.68598,-0.13959 -0.42638,15.01342 -0.36865,26.67853 -0.21374,34.58534 0.10386,4.9716 0.31005,12.09669 3.55298,14.7768 1.84592,1.52431 4.48178,1.45089 6.26405,-0.24428 3.06872,-2.92132 2.66593,-10.03106 2.87029,-13.88037 0.67741,-12.93411 0.68942,-26.13141 0.53219,-36.69882 z"
     inkscape:connector-curvature="0"
     style="fill:none;fill-rule:evenodd;stroke:none;stroke-width:1.11671" />
  <path
     id="Fill-557"
     d="m 358.07169,324.51908 0.0561,1.92372 c 0.26378,1.25178 3.37802,2.26596 7.51344,2.48798 -0.43959,-0.52935 -0.84073,-1.1741 -1.20441,-1.92373 -3.68618,-0.34525 -6.36513,-1.31185 -6.36513,-2.48797 z m 18.49815,0 c 0,0.60867 -0.73853,1.15717 -1.93364,1.60034 -0.18552,0.75688 -0.43029,1.4609 -0.76224,2.05573 1.52172,-0.45059 2.52658,-1.05517 2.69588,-1.73235 z"
     inkscape:connector-curvature="0"
     style="fill:none;fill-rule:evenodd;stroke:none;stroke-width:1.68945" />
  <path
     id="Fill-558"
     d="m 362.81337,322.22908 c -2.8163,0.44916 -4.74168,1.29549 -4.74168,2.29 0,1.17612 2.67895,2.14272 6.36512,2.48797 -0.35933,-0.7407 -0.69229,-1.55028 -0.95032,-2.51768 -0.20219,-0.75813 -0.44941,-1.5068 -0.67312,-2.26029 z m 12.09341,0.77873 c 0.0539,1.14504 -0.0431,2.18382 -0.27058,3.11161 1.19511,-0.44317 1.93364,-0.99167 1.93364,-1.60034 0,-0.56469 -0.62018,-1.08522 -1.66306,-1.51127 z"
     inkscape:connector-curvature="0"
     style="fill:none;fill-rule:evenodd;stroke:none;stroke-width:1.68945" />
  <path
     id="Fill-568"
     d="m 436.98155,475.99421 c -6.37493,2.09939 -12.75313,4.20804 -19.12964,6.3145 2.02157,5.86361 4.55022,11.46805 7.61757,16.5737 0.65222,1.08563 1.57907,1.91983 2.62391,2.64459 5.41481,-0.84136 10.81906,-1.68208 16.23979,-2.52344 -3.94861,-5.90022 -5.67482,-11.11788 -6.49178,-15.20265 -0.36309,-1.77007 -0.54345,-3.45138 -0.67961,-5.08529 -0.0908,-0.90772 -0.13026,-1.81368 -0.18024,-2.72141 z m -28.96926,9.56186 c -8.81657,2.91338 -17.63279,5.82605 -26.44877,8.72861 2.13769,0.40848 3.81339,1.27093 5.12959,2.76868 2.31924,2.6324 3.17574,6.85181 2.44956,10.5281 9.15854,-1.42431 18.32994,-2.84839 27.49184,-4.2727 -3.51444,-5.71803 -6.36648,-11.64446 -8.62222,-17.75269 z"
     inkscape:connector-curvature="0"
     style="fill:none;fill-rule:evenodd;stroke:none;stroke-width:1.51288" />
  <path
     id="Fill-570"
     d="m 431.89626,452.43823 c -6.32629,3.21588 -12.63752,6.42211 -18.94939,9.62982 1.14773,7.54406 3.00349,15.08961 5.62602,22.21155 6.19896,-1.85154 12.41448,-3.71432 18.5889,-5.56398 -0.40848,-4.90172 -0.27308,-9.62084 -2.17476,-17.0642 -0.86688,-3.54014 -2.0015,-6.62617 -3.09077,-9.21319 z m -28.86878,14.67374 c -6.95251,3.53308 -13.90254,7.0655 -20.873,10.60788 l 0.63825,0.4964 c 2.94557,2.85934 4.08229,7.90007 3.12918,11.98484 -0.45387,1.86084 -1.26633,3.35646 -2.58253,4.62728 8.43366,-2.54141 16.87358,-5.05607 25.32593,-7.58213 -2.53796,-6.51557 -4.3888,-13.23866 -5.63783,-20.13427 z"
     inkscape:connector-curvature="0"
     style="fill:none;fill-rule:evenodd;stroke:none;stroke-width:1.51288" />
  <path
     transform="matrix(1.6894489,0,0,1.6894489,31.800173,-49.492566)"
     inkscape:original-d="m 161.89154,163.52132 c -0.6328,2.35513 -1.26661,4.89034 -1.90141,7.33401 -0.6348,2.44367 2.89839,2.7173 4.34608,4.07445 1.44769,1.35715 0.54426,-0.72334 0.81489,-1.08652"
     inkscape:path-effect="#path-effect20059"
     inkscape:connector-curvature="0"
     id="path20057"
     d="m 161.89154,163.52132 c -1.34165,2.18387 -2.013,4.77337 -1.90141,7.33401 0.0263,0.60446 0.0958,1.21018 0.26323,1.79157 0.16745,0.5814 0.43598,1.1395 0.83054,1.59818 0.39456,0.45868 0.92016,0.81401 1.50823,0.95626 0.58807,0.14226 1.2376,0.0594 1.74408,-0.27156 0.38675,-0.25274 0.68055,-0.64447 0.81489,-1.08652"
     style="fill:none;stroke:#000000;stroke-width:1.4;stroke-linecap:round;stroke-linejoin:round;stroke-miterlimit:4;stroke-dasharray:none;stroke-opacity:1" />
  <path
     transform="translate(-52.75065,-20.243388)"
     sodipodi:nodetypes="ccc"
     inkscape:original-d="m 344.30224,196.2964 c 1.51868,2.22875 3.03633,4.45645 4.55305,6.68325 1.76249,9.48272 3.52391,18.96405 5.28436,28.44457"
     inkscape:path-effect="#path-effect21685"
     inkscape:connector-curvature="0"
     id="path21683"
     d="m 344.30224,196.2964 c 1.51846,2.2289 3.03611,4.4566 4.67543,10.31136 1.63932,5.85476 3.40074,15.33609 5.16198,24.81646"
     style="fill:none;fill-opacity:1;stroke:#fa466c;stroke-width:1.9;stroke-linecap:round;stroke-linejoin:round;stroke-miterlimit:4;stroke-dasharray:none;stroke-opacity:1;marker-end:url(#Arrow2Lend)" />
  <path
     transform="translate(-52.75065,-14.243388)"
     inkscape:original-d="m 344.30224,190.2964 c 1.27915,2.69256 2.55729,5.38412 3.83444,8.07467 0.81111,2.83638 1.62118,5.67164 2.43027,8.50596"
     inkscape:path-effect="#path-effect23581"
     inkscape:connector-curvature="0"
     id="path23579"
     d="m 344.30224,190.2964 c 1.27872,2.69276 2.55687,5.38432 3.60088,8.14778 1.04401,2.76346 1.85408,5.59872 2.66383,8.43285"
     style="fill:none;stroke:#fa466c;stroke-width:3.4;stroke-linecap:round;stroke-linejoin:round;stroke-miterlimit:4;stroke-dasharray:none;stroke-opacity:1" />
</svg>
