<?xml version="1.0" encoding="UTF-8" standalone="no"?>
<svg
   xmlns:dc="http://purl.org/dc/elements/1.1/"
   xmlns:cc="http://creativecommons.org/ns#"
   xmlns:rdf="http://www.w3.org/1999/02/22-rdf-syntax-ns#"
   xmlns:svg="http://www.w3.org/2000/svg"
   xmlns="http://www.w3.org/2000/svg"
   xmlns:xlink="http://www.w3.org/1999/xlink"
   xmlns:sodipodi="http://sodipodi.sourceforge.net/DTD/sodipodi-0.dtd"
   xmlns:inkscape="http://www.inkscape.org/namespaces/inkscape"
   width="454px"
   height="486px"
   viewBox="0 0 454 486"
   version="1.1"
   id="svg37190"
   sodipodi:docname="bracelet-header.svg">
  <metadata
     id="metadata37194">
    <rdf:RDF>
      <cc:Work
         rdf:about="">
        <dc:format>image/svg+xml</dc:format>
        <dc:type
           rdf:resource="http://purl.org/dc/dcmitype/StillImage" />
      </cc:Work>
    </rdf:RDF>
  </metadata>
  <sodipodi:namedview
     pagecolor="#ffffff"
     bordercolor="#666666"
     inkscape:document-rotation="0"
     borderopacity="1"
     objecttolerance="10"
     gridtolerance="10"
     guidetolerance="10"
     inkscape:pageopacity="0"
     inkscape:pageshadow="2"
     inkscape:window-width="640"
     inkscape:window-height="480"
     id="namedview37192"
     showgrid="false" />
  <!-- Generator: Sketch 59 (86127) - https://sketch.com -->
  <title
     id="title37099">illo-02</title>
  <desc
     id="desc37101">Created with Sketch.</desc>
  <defs
     id="defs37122">
    <path
       d="M199.158278,0.553 L199.481947,0.553 C225.396922,0.601575815 251.330238,12.3120105 271.397,31.312 C281.261,40.654 289.805,51.607 301.244,58.939 C323.606,73.267 352.574,71.209 377.6,80.101 C417.602,94.321 442.889,135.496 450.938,177.178 C459.026,219.082 452.366,264.082 430.433,300.688 C408.494,337.294 371.033,364.774 329.054,372.451 C306.575,376.561 282.869,375.265 261.632,383.704 C250.04,388.309 239.567,395.698 227.528,398.977 C205.346,405.019 182.171,396.256 159.311,393.82 C116.387,389.248 51.257,413.836 17.423,375.958 C1.736,358.399 1.454,331.99 5.609,308.818 C9.767,285.643 17.492,262.483 14.702,239.107 C11.744,214.366 -2.854,190.081 1.247,166.093 C1.538,164.404 1.919,162.715 2.405,161.029 C7.832,142.156 25.001,129.154 42.365,119.989 C59.729,110.824 78.677,103.819 93.134,90.535 C115.67,69.832 124.295,36.583 148.568,17.947 C164.206771,5.93609599 181.672773,0.585792737 199.158279,0.553 L199.158278,0.553 Z"
       id="path-1" />
    <path
       d="M1.201,15.556 C1.585,19.171 2.02,22.777 2.365,26.386 C3.235,35.431 4.669,44.422 6.649,53.29 C7.207,55.789 8.719,57.202 11.272,55.939 C13.819,54.682 16.351,53.398 18.871,52.087 C20.458,51.262 24.349,48.181 26.143,48.697 C28.492,49.372 36.601,77.05 39.4,88.207 C39.568,88.879 40.558,88.807 40.591,88.117 C41.602,67.861 42.292,45.898 42.655,25.636 C42.694,23.443 40.648,21.838 38.512,22.333 C34.477,23.269 30.469,24.187 26.425,25.132 C25.51,25.345 24.634,24.664 24.658,23.728 C24.778,18.646 24.976,4.627 24.988,2.635 C24.991,2.248 24.988,1.834 24.775,1.51 C24.331,0.829 23.314,0.949 22.522,1.15 C19.345,1.954 5.092,5.569 1.642,7.672 C1.291,7.888 0.928,8.134 0.751,8.509 C0.589,8.857 0.613,9.259 0.643,9.643 C0.799,11.617 0.991,13.591 1.201,15.556"
       id="path-3" />
    <linearGradient
       x1="95.2714682%"
       y1="-85.7239336%"
       x2="36.2228603%"
       y2="94.473471%"
       id="linearGradient-5">
      <stop
         stop-color="#E26B95"
         offset="0%"
         id="stop37105" />
      <stop
         stop-color="#FA466C"
         offset="100%"
         id="stop37107" />
    </linearGradient>
    <path
       d="M16.459,5.561 C14.905,8.237 13.393,10.937 11.821,13.592 C7.873,20.249 4.345,27.152 1.249,34.247 C0.376,36.245 0.709,37.976 3.1,38.39 C5.479,38.804 7.867,39.194 10.258,39.557 C11.764,39.785 15.985,39.623 16.963,40.88 C18.238,42.524 9.913,65.63 6.229,74.708 C6.01,75.254 6.727,75.704 7.099,75.245 C17.968,61.823 29.476,47.066 39.901,33.314 C41.032,31.826 40.432,29.696 38.713,28.964 C35.47,27.581 32.248,26.198 28.993,24.815 C28.258,24.503 27.997,23.594 28.483,22.964 C31.12,19.529 38.296,9.986 39.31,8.624 C39.505,8.36 39.712,8.072 39.727,7.742 C39.76,7.049 39.001,6.623 38.356,6.362 C35.767,5.318 24.148,0.647 20.725,0.362 C20.371,0.332 19.996,0.32 19.69,0.488 C19.402,0.647 19.219,0.935 19.048,1.214 C18.16,2.651 17.302,4.103 16.459,5.561"
       id="path-6" />
    <linearGradient
       x1="74.80347%"
       y1="-28.9589336%"
       x2="-1.17773164%"
       y2="181.453478%"
       id="linearGradient-8">
      <stop
         stop-color="#E26B95"
         offset="0%"
         id="stop37111" />
      <stop
         stop-color="#FA466C"
         offset="100%"
         id="stop37113" />
    </linearGradient>
    <path
       d="M118.812,85.789 C117.663,77.053 121.449,67.984 119.085,59.497 C118.743,58.279 118.266,57.133 117.72,56.026 C114.348,45.592 102.846,40.783 102.846,40.783 C102.129,40.504 101.451,40.294 100.746,40.033 C103.623,39.121 106.257,37.45 108.18,35.119 C110.103,32.782 111.321,29.938 112.251,27.055 C113.82,22.189 114.642,16.918 113.367,11.968 C112.092,7.018 108.381,2.479 103.407,1.315 C100.368,0.601 97.173,1.168 94.191,2.08 C92.187,2.692 90.21,3.472 88.479,4.66 C83.817,7.873 81.585,13.624 80.628,19.207 C80.067,22.489 79.857,25.9 80.703,29.122 C81.336,31.543 82.602,33.769 84.276,35.626 C31.281,27.508 15.174,87.322 12.975,102.091 C10.536,118.462 0.087,124.351 0.087,124.351 L0.087,125.776 C3.222,142.147 48.852,151.903 57.561,129.607 C58.317,127.678 59.334,125.74 60.534,123.817 C59.133,130.693 58.113,137.722 59.505,144.559 C61.113,152.446 66.741,160.066 74.661,161.506 C80.946,162.649 87.465,159.664 91.884,155.056 C96.303,150.445 98.922,144.403 100.872,138.325 C102.099,134.512 103.116,130.588 105.084,127.099 C110.01,118.345 120.687,112.522 121.749,102.535 C122.352,96.871 119.556,91.435 118.812,85.789"
       id="path-9" />
    <linearGradient
       x1="41.1357127%"
       y1="113.879939%"
       x2="65.8681799%"
       y2="-8.35319243%"
       id="linearGradient-11">
      <stop
         stop-color="#E26B95"
         offset="0%"
         id="stop37117" />
      <stop
         stop-color="#FA466C"
         offset="100%"
         id="stop37119" />
    </linearGradient>
    <mask
       fill="white"
       id="mask-2">
      <use
         id="use24860"
         xlink:href="#path-1" />
    </mask>
    <mask
       fill="white"
       id="mask37208">
      <use
         id="use37206"
         xlink:href="#path-1" />
    </mask>
  </defs>
</svg>
