<?xml version="1.0" encoding="UTF-8" standalone="no"?>
<svg
   xmlns:dc="http://purl.org/dc/elements/1.1/"
   xmlns:cc="http://creativecommons.org/ns#"
   xmlns:rdf="http://www.w3.org/1999/02/22-rdf-syntax-ns#"
   xmlns:svg="http://www.w3.org/2000/svg"
   xmlns="http://www.w3.org/2000/svg"
   xmlns:sodipodi="http://sodipodi.sourceforge.net/DTD/sodipodi-0.dtd"
   xmlns:inkscape="http://www.inkscape.org/namespaces/inkscape"
   inkscape:version="1.0beta2 (2b71d25, 2019-12-03)"
   sodipodi:docname="cards-noface.svg"
   id="svg47422"
   version="1.1"
   viewBox="0 0 577 374"
   height="374px"
   width="577px">
  <metadata
     id="metadata47428">
    <rdf:RDF>
      <cc:Work
         rdf:about="">
        <dc:format>image/svg+xml</dc:format>
        <dc:type
           rdf:resource="http://purl.org/dc/dcmitype/StillImage" />
        <dc:title>Group</dc:title>
      </cc:Work>
    </rdf:RDF>
  </metadata>
  <defs
     id="defs47426" />
  <sodipodi:namedview
     inkscape:current-layer="svg47422"
     inkscape:window-maximized="0"
     inkscape:window-y="23"
     inkscape:window-x="0"
     inkscape:cy="148.14617"
     inkscape:cx="266.01339"
     inkscape:zoom="1.2657997"
     showgrid="false"
     id="namedview47424"
     inkscape:window-height="876"
     inkscape:window-width="1393"
     inkscape:pageshadow="2"
     inkscape:pageopacity="0"
     guidetolerance="10"
     gridtolerance="10"
     objecttolerance="10"
     borderopacity="1"
     inkscape:document-rotation="0"
     bordercolor="#666666"
     pagecolor="#ffffff" />
  <!-- Generator: Sketch 59 (86127) - https://sketch.com -->
  <title
     id="title47337">Group</title>
  <desc
     id="desc47339">Created with Sketch.</desc>
  <path
     d="m 436.093,106.009 c -8.643,-26.697 -3.546,-54.321 13.8,-71.115 10.548,-10.212 22.929,-13.809 30.246,-15.21 -2.256,3.024 -6.129,8.505 -10.047,15.846 -10.962,20.532 -9.987,32.61 -20.511,51.516 -2.433,4.374 -6.666,11.238 -13.488,18.963"
     id="Fill-501"
     fill="#71C5C7"
     inkscape:connector-curvature="0"
     style="fill-rule:evenodd;stroke:none;stroke-width:1" />
  <path
     d="m 456.991,44.446 c -5.544,9.726 -10.134,20.016 -13.608,30.624 -3.249,9.951 -5.838,24.012 -7.428,34.053 -2.136,13.608 -3.975,31.305 -5.268,51.159 -0.618,9.315 -1.071,18.72 -1.386,28.149 h -1.23 c 0.297,-9.453 0.771,-18.903 1.386,-28.242 1.296,-19.896 3.111,-37.617 5.271,-51.27 1.59,-10.086 4.179,-24.216 7.473,-34.233 3.498,-10.677 8.112,-21.06 13.722,-30.852 0.159,-0.294 0.543,-0.405 0.84,-0.225 0.297,0.159 0.411,0.546 0.228,0.837"
     id="Fill-502"
     fill="#1BA5B0"
     inkscape:connector-curvature="0"
     style="fill-rule:evenodd;stroke:none;stroke-width:1" />
  <path
     d="m 360.286,112.864 c 15.303,-10.965 25.944,-8.748 28.491,-8.1 18.528,4.716 32.985,34.431 25.773,72.861 -10.626,-10.071 -16.512,-19.665 -19.908,-26.493 -8.355,-16.791 -8.25,-30.108 -18.996,-36.033 -5.463,-3.012 -11.376,-2.811 -15.36,-2.235"
     id="Fill-503"
     fill="#71C5C7"
     inkscape:connector-curvature="0"
     style="fill-rule:evenodd;stroke:none;stroke-width:1" />
  <path
     d="m 416.806,188.431 h -1.251 c -0.477,-3.591 -0.999,-7.158 -1.614,-10.701 -2.655,-15.606 -4.587,-26.874 -11.289,-39.711 -3.498,-6.678 -7.86,-12.969 -12.951,-18.696 -0.225,-0.27 -0.204,-0.657 0.048,-0.885 l 0.861,0.045 c 5.181,5.793 9.588,12.177 13.131,18.969 6.816,12.993 8.745,24.354 11.43,40.074 0.612,3.612 1.155,7.245 1.635,10.905"
     id="Fill-504"
     fill="#1BA5B0"
     inkscape:connector-curvature="0"
     style="fill-rule:evenodd;stroke:none;stroke-width:1" />
  <path
     d="m 374.416,-0.041 c 4.725,2.331 11.205,6.006 18.042,11.631 4.011,3.297 18.387,15.426 26.298,35.025 12.09,29.964 1.314,58.248 -1.434,64.938 -2.121,-1.743 -5.31,-4.545 -8.748,-8.376 -12.981,-14.478 -17.634,-30.42 -29.901,-84.333 -1.242,-5.46 -2.679,-11.805 -4.257,-18.885"
     id="Fill-505"
     fill="#71C5C7"
     inkscape:connector-curvature="0"
     style="fill-rule:evenodd;stroke:none;stroke-width:1" />
  <path
     d="m 422.53,188.431 h -1.227 c -0.885,-21.675 -2.091,-43.254 -3.636,-64.29 -1.455,-19.902 -2.247,-26.853 -3.318,-33.348 -3.588,-21.876 -10.38,-43.209 -20.193,-63.357 -0.159,-0.321 -0.024,-0.684 0.294,-0.843 0.297,-0.138 0.66,-0.024 0.819,0.297 9.882,20.262 16.695,41.706 20.307,63.696 1.071,6.543 1.887,13.518 3.342,33.465 1.542,21.057 2.748,42.684 3.612,64.38"
     id="Fill-506"
     fill="#1BA5B0"
     inkscape:connector-curvature="0"
     style="fill-rule:evenodd;stroke:none;stroke-width:1" />
  <path
     d="m 435.868,169.342 c -1.287,-7.317 -2.31,-18.939 0.951,-32.454 5.829,-24.144 21.522,-38.511 27.654,-43.575 -1.584,4.629 -3.771,11.586 -5.733,20.208 -3.369,14.817 -2.763,20.388 -5.439,28.953 -2.205,7.041 -6.786,16.671 -17.433,26.868"
     id="Fill-507"
     fill="#71C5C7"
     inkscape:connector-curvature="0"
     style="fill-rule:evenodd;stroke:none;stroke-width:1" />
  <path
     d="m 449.131,124.255 c -4.683,12.492 -8.496,25.419 -11.292,38.457 -1.815,8.496 -3.249,17.085 -4.272,25.719 h -1.224 c 0.999,-8.727 2.43,-17.403 4.269,-25.968 2.82,-13.107 6.636,-26.103 11.358,-38.643 0.114,-0.315 0.477,-0.498 0.798,-0.363 0.315,0.114 0.477,0.48 0.363,0.798"
     id="Fill-508"
     fill="#1BA5B0"
     inkscape:connector-curvature="0"
     style="fill-rule:evenodd;stroke:none;stroke-width:1" />
  <polyline
     transform="translate(0,-1)"
     id="Fill-509"
     fill="#E5CFB3"
     points="447.562 189.431 442.087 286.064 407.443 286.064 401.947 189.431 447.562 189.431"
     style="fill-rule:evenodd;stroke:none;stroke-width:1" />
  <path
     d="m 524.473,58.204 c 8.415,1.047 13.554,6.789 14.34,7.695 7.026,8.094 1.644,13.212 9.009,27.987 2.199,4.41 4.791,8.172 4.866,14.19 0.063,4.761 -1.485,8.181 -1.875,9 -2.877,6.078 -8.259,8.889 -11.232,10.386 -12.177,6.147 -30.645,5.706 -39.642,-4.401 -0.903,-1.02 -3.681,-4.215 -4.827,-9.072 -1.449,-6.138 0.585,-11.199 1.89,-14.913 7.47,-21.264 1.218,-27.507 8.997,-34.923 4.791,-4.572 11.94,-6.762 18.474,-5.949"
     id="Fill-510"
     fill="#7A3563"
     inkscape:connector-curvature="0"
     style="fill-rule:evenodd;stroke:none;stroke-width:1" />
  <path
     d="m 541.093,85.339 c -1.518,-0.96 -3.666,-0.723 -5.178,0.654 -5.247,-3.462 -10.869,-7.617 -16.605,-12.594 -3.072,-2.667 -5.889,-5.319 -8.469,-7.908 -4.884,6.141 -6.351,11.853 -6.876,14.952 -1.944,11.457 2.328,26.151 10.179,28.182 0.804,0.207 1.971,0.372 3.489,0.129 -0.114,2.331 -0.228,4.665 -0.342,6.999 -2.364,0.27 -4.551,0.627 -6.558,1.047 0.12,1.17 0.453,2.73 1.26,4.38 1.293,2.61 3.12,4.05 3.57,4.41 3.96,3.15 9.27,2.61 11.28,2.28 0.063,0 0.333,-0.06 0.63,-0.12 2.073,-0.42 6.453,-1.92 12,-8.76 -1.623,-0.84 -3.219,-1.656 -4.842,-2.496 -0.447,-2.817 -0.771,-6.138 -0.702,-9.9 0.093,-5.022 0.843,-9.303 1.665,-12.612 3.093,0.582 5.934,-0.855 6.843,-3.147 0.633,-1.593 0.6,-4.269 -1.344,-5.496"
     id="Fill-511"
     fill="#F9B995"
     inkscape:connector-curvature="0"
     style="fill-rule:evenodd;stroke:none;stroke-width:1" />
  <path
     d="m 576.286,308.86 c -0.423,0.57 -1.11,0.57 -1.203,0.57 -1.047,-0.03 -1.89,-1.26 -2.13,-1.65 -2.277,-3.51 -4.86,-7.5 -7.83,-10.74 -1.707,-1.98 -3.567,-3.63 -5.55,-4.77 -2.1,-1.2 -4.32,-1.8 -6.09,-2.1 -1.11,-5.04 -2.187,-10.08 -3.27,-15.12 1.23,-0.36 2.55,-0.78 3.9,-1.32 1.02,-0.42 1.35,-0.51 2.88,-1.14 3.12,-1.32 5.28,-2.19 6.933,-1.14 0.417,0.27 0.687,0.6 0.87,0.84 l 11.697,35.1 c 0.03,0.06 0.27,0.84 -0.207,1.47"
     id="Fill-512"
     fill="#F9B995"
     inkscape:connector-curvature="0"
     style="fill-rule:evenodd;stroke:none;stroke-width:1" />
  <path
     d="m 554.203,293.47 c -37.38,15.24 -68.58,20.61 -89.97,22.62 -30.03,2.82 -44.937,-0.54 -52.5,-10.98 -3.72,-5.19 -4.89,-11.01 -5.28,-15.36 -2.22,-0.42 -8.547,-2.22 -12.12,-7.83 0,0 -3.24,-5.67 -0.417,-15 6.24,-20.55 86.88,-41.55 93.75,-43.32 19.917,-0.57 39.837,-1.14 59.787,-1.71 1.5,3.48 10.983,26.16 -0.51,44.76 -1.257,2.04 -2.7,3.81 -4.23,5.43 2.28,0.03 4.56,0.03 6.87,0.06 0.213,0.96 4.38,20.22 4.62,21.33"
     id="Fill-513"
     fill="#89ACBF"
     inkscape:connector-curvature="0"
     style="fill-rule:evenodd;stroke:none;stroke-width:1" />
  <path
     d="m 467.55399,295.06 c -0.018,1.17 19.17601,7.05 41.28901,-0.525 15.633,-5.358 26.883,-15.441 33.465,-22.458 -5.232,3.957 -12.843,9.09 -22.467,13.416 -28.734,12.924 -52.272,8.271 -52.28701,9.567"
     id="Fill-514"
     fill="#6E9BAF"
     inkscape:connector-curvature="0"
     style="fill-rule:evenodd;stroke:none;stroke-width:1" />
  <path
     d="m 549.493,220.57 c -5.25,10.65 -30.48,3.33 -53.79,3.21 -1.797,0 -6.69,0 -9.57,-3.24 -0.51,-0.57 -1.44,-1.65 -2.07,-4.17 -0.777,-3.12 -0.657,-7.08 -0.36,-11.76 0.39,-6.39 1.083,-14.16 0.03,-23.07 -0.9,-7.65 -0.72,-12.48 1.053,-18.51 0.27,-0.96 0.87,-2.79 1.677,-4.95 1.77,-4.68 3.51,-7.59 4.953,-10.74 2.25,-4.92 4.047,-8.94 5.307,-11.82 0.09,-0.18 0.09,-0.21 0.213,-0.51 1.437,-3.51 3.627,-8.76 6.927,-16.41 0.942,-0.408 2.067,-0.822 3.36,-1.161 1.302,-0.342 2.487,-0.534 3.51,-0.639 0.108,1.056 0.405,2.643 1.26,4.38 0.357,0.72 1.311,2.484 3.162,4.071 l 0.408,0.339 c 3.96,3.15 9.27,2.61 11.28,2.28 l 0.63,-0.12 c 2.562,-0.552 4.32,-1.707 5.502,-2.505 3.249,-2.184 5.64,-5.145 6.498,-6.255 2.241,1.26 4.479,2.52 6.72,3.78 -0.57,0.558 -1.74,1.71 -1.767,1.74 -0.24,0.24 -2.913,3.06 -4.863,6.96 -8.58,17.1 -6.93,27.6 -6.93,27.6 0.543,3.63 1.293,7.5 4.62,10.47 4.053,3.63 9.12,3.15 10.38,2.97 0.033,1.08 0.09,2.13 0.153,3.15 0.357,7.89 0.927,14.19 1.407,18.69 0.39,3.69 0.843,7.47 0.963,12.9 0.15,7.68 0.237,11.52 -0.663,13.32"
     id="Fill-515"
     fill="#FA466C"
     inkscape:connector-curvature="0"
     style="fill-rule:evenodd;stroke:none;stroke-width:1" />
  <path
     d="m 503.863,118.6 c -3.3,7.65 -5.49,12.9 -6.927,16.41 -0.123,0.3 -0.123,0.33 -0.213,0.51 -1.26,2.88 -3.057,6.9 -5.307,11.82 -1.443,3.15 -3.183,6.06 -4.953,10.74 0.333,-2.61 2.28,-17.43 6.093,-27.51 0.837,-2.19 1.74,-3.78 2.667,-5.01 1.083,-1.41 2.13,-2.37 2.823,-3 1.26,-1.14 3.177,-2.64 5.817,-3.96"
     id="Fill-523"
     fill="#F9B995"
     inkscape:connector-curvature="0"
     style="fill-rule:evenodd;stroke:none;stroke-width:1" />
  <path
     d="m 406.387,289.69 c 0.036,-1.938 0.312,-4.878 1.635,-8.073 4.023,-9.714 14.715,-13.44 31.803,-20.781 6.369,-2.736 11.112,-3.96 22.515,-8.691 2.883,-1.197 5.241,-2.208 6.801,-2.88 8.031,-3.429 14.016,-5.664 15.342,-5.916 1.176,-0.222 2.259,0.042 2.259,0.042 0.399,0.096 0.996,0.237 1.05,0.423 0.393,1.398 -10.764,5.352 -19.05,8.826 -37.92,15.909 -49.98,18.465 -58.272,30.048 -2.118,2.958 -3.429,5.595 -4.083,7.002"
     id="Fill-524"
     fill="#6E9BAF"
     inkscape:connector-curvature="0"
     style="fill-rule:evenodd;stroke:none;stroke-width:1" />
  <path
     d="m 489.796,223 c -0.75,-0.24 -1.443,-0.6 -2.163,-1.11 -1.92,-1.35 -3,-3.21 -3.57,-5.52 -0.777,-3.12 -0.657,-7.08 -0.36,-11.76 -5.85,6 -20.31,13.14 -24,14.97 -4.47,2.19 -9.297,4.29 -9.297,4.29 -3.423,1.47 -6.384,2.679 -8.694,3.549 -2.046,0.783 -4.398,1.944 -6.774,3.783 -4.362,3.381 -9.438,9.549 -7.839,12.33 0.861,1.5 3.39,1.539 3.714,1.545 1.665,0.027 2.868,-0.696 6.75,-3.501 4.311,-3.105 6.105,-4.575 7.002,-3.999 0.894,0.576 0.165,2.706 1.374,3.375 0.642,0.357 1.422,0.075 1.626,0 1.488,-0.534 2.496,-2.526 2.835,-4.671 l 0.123,0.129 c 13.08,-4.47 26.19,-8.94 39.273,-13.41"
     id="Fill-525"
     fill="#F9B995"
     inkscape:connector-curvature="0"
     style="fill-rule:evenodd;stroke:none;stroke-width:1" />
  <path
     d="m 574.306,196.27 c -3.783,-17.67 -5.943,-23.25 -10.473,-40.56 -2.37,-9.06 -3.27,-13.08 -6.39,-18.93 -1.74,-3.27 -4.86,-8.97 -11.25,-14.01 -0.57,0.558 -1.74,1.71 -1.767,1.74 -0.24,0.24 -2.913,3.06 -4.863,6.96 -8.58,17.1 -6.93,27.6 -6.93,27.6 0.543,3.63 1.293,7.5 4.62,10.47 4.053,3.63 9.12,3.15 10.38,2.97 1.182,4.875 2.475,8.769 3.465,11.49 1.038,2.841 5.835,15.621 4.095,19.56 -0.252,0.57 -0.6,1.05 -0.6,1.05 -0.807,1.02 -2.427,1.92 -4.437,2.64 -5.433,2.13 -13.533,3.33 -15.303,3.57 -11.187,1.59 -25.65,5.64 -28.74,2.82 -0.207,-0.21 -1.077,-1.05 -2.49,-1.77 -1.437,-0.72 -2.79,-0.96 -3.81,-1.05 0.093,1.29 0.15,2.61 0.21,3.93 -1.857,0.78 -4.65,1.71 -8.097,1.8 -4.053,0.12 -6.303,-0.93 -7.863,-0.18 l -0.507,0.3 c -1.683,1.38 -1.443,5.43 0.027,7.74 2.973,4.74 12.81,5.01 24.66,1.38 17.043,2.52 30.75,1.08 39.813,-0.6 11.73,-2.19 24.177,-4.65 27.63,-13.26 0.99,-2.52 0.99,-4.56 -1.38,-15.66"
     id="Fill-528"
     fill="#F9B995"
     inkscape:connector-curvature="0"
     style="fill-rule:evenodd;stroke:none;stroke-width:1" />
  <path
     d="m 27.073,270.85 c -1.08,5.01 -2.157,10.08 -3.267,15.12 -1.77,0.3 -3.993,0.9 -6.093,2.1 -1.98,1.14 -3.84,2.82 -5.547,4.77 -2.973,3.24 -5.553,7.26 -7.833,10.74 -0.24,0.39 -1.08,1.62 -2.13,1.65 -0.09,0 -0.777,0 -1.2,-0.54 -0.48,-0.66 -0.24,-1.41 -0.207,-1.5 l 11.697,-35.1 c 0.183,-0.21 0.45,-0.57 0.87,-0.84 1.65,-1.05 3.813,-0.15 6.933,1.14 1.527,0.63 1.86,0.75 2.88,1.14 1.347,0.54 2.667,0.96 3.897,1.32"
     id="Fill-529"
     fill="#F9B995"
     inkscape:connector-curvature="0"
     style="fill-rule:evenodd;stroke:none;stroke-width:1" />
  <path
     d="m 182.953,277.72 c -3.57,5.61 -9.9,7.41 -12.123,7.83 -0.36,4.35 -1.557,10.17 -5.274,15.36 -7.563,10.47 -22.473,13.83 -52.5,10.98 -21.39,-2.01 -52.593,-7.38 -89.973,-22.62 0.24,-1.11 4.41,-20.34 4.62,-21.3 2.31,-0.03 4.593,-0.06 6.87,-0.09 -1.527,-1.62 -2.97,-3.39 -4.23,-5.43 -6.12,-9.9 -6.297,-20.94 -4.89,-29.64 1.833,0.15 4.593,-0.6 10.89,-2.22 5.22,-1.35 10.5,-2.4 15.66,-3.93 21.36,-6.39 36.183,2.67 43.32,-5.43 l 0.18,-0.24 c 20.22,5.49 82.413,23.82 87.87,41.73 2.82,9.33 -0.42,15 -0.42,15"
     id="Fill-530"
     fill="#C4ABB0"
     inkscape:connector-curvature="0"
     style="fill-rule:evenodd;stroke:none;stroke-width:1" />
  <path
     d="m 170.83,285.55 c -0.033,-1.938 -0.315,-4.878 -1.638,-8.073 -4.017,-9.717 -14.712,-13.443 -31.8,-20.784 -6.372,-2.736 -11.112,-3.96 -22.518,-8.688 -2.883,-1.194 -5.241,-2.205 -6.798,-2.88 -8.031,-3.432 -14.016,-5.667 -15.345,-5.916 -1.173,-0.222 -2.259,0.042 -2.259,0.042 -0.399,0.096 -0.993,0.234 -1.047,0.426 -0.393,1.395 10.764,5.349 19.047,8.823 37.92,15.906 49.983,18.462 58.272,30.048 2.118,2.958 3.435,5.595 4.086,7.002"
     id="Fill-531"
     fill="#AD979C"
     inkscape:connector-curvature="0"
     style="fill-rule:evenodd;stroke:none;stroke-width:1" />
  <path
     d="m 109.73501,290.869 c 0.018,1.173 -19.17301,7.053 -41.28901,-0.528 -15.633,-5.355 -26.883,-15.435 -33.462,-22.452 5.226,3.954 12.84,9.087 22.464,13.416 28.737,12.918 52.269,8.265 52.28701,9.564"
     id="Fill-532"
     fill="#AD979C"
     inkscape:connector-curvature="0"
     style="fill-rule:evenodd;stroke:none;stroke-width:1" />
  <path
     d="m 193.063,167.71 c -5.61,3.51 -6.387,3.42 -12.87,2.7 -20.25,-2.28 -60.897,40.71 -85.767,5.07 -0.39,-6.39 -0.663,-11.82 -0.843,-16.14 1.56,-0.36 3.39,-0.93 5.343,-1.86 2.13,-0.99 3.87,-2.19 5.277,-3.33 1.77,4.89 5.37,11.52 12.39,14.91 1.323,0.66 2.37,1.05 3.24,1.23 4.713,1.08 10.77,-0.84 33.333,-4.95 16.467,-3 13.467,-5.34 21.057,-9.12 2.25,-1.11 9.63,-2.82 10.443,-0.96 1.62,2.88 -7.143,4.26 -7.203,5.46 -0.027,1.05 6.42,4.17 11.943,2.01 9.03,-3.48 9.597,-4.71 11.13,-4.32 4.5,1.11 -3.573,6.78 -7.473,9.3"
     id="Fill-533"
     fill="#F9B995"
     inkscape:connector-curvature="0"
     style="fill-rule:evenodd;stroke:none;stroke-width:1" />
  <path
     d="m 98.656,133.36 c -7.083,-9.84 -16.62,-14.46 -22.86,-17.52 -3.963,-1.92 -7.413,-3.18 -9.87,-3.96 -5.823,-0.24 -11.673,-0.48 -17.49,-0.72 -8.103,2.61 -18.123,7.38 -26.52,16.05 -4.203,4.35 -6.423,8.04 -7.023,9.06 -4.857,8.25 -5.94,16.23 -6.207,20.88 0.297,0.06 0.627,0.12 0.957,0.15 4.32,0.75 9,1.32 14.043,1.65 2.265,0.138 4.473,0.222 6.594,0.255 l -0.087,0.225 c -7.2,21.81 -9.69,39.39 -10.62,51.51 -0.657,8.49 -0.87,18.84 4.2,21.42 0.513,0.27 1.05,0.42 1.68,0.45 1.833,0.15 4.593,-0.6 10.89,-2.22 5.22,-1.35 10.5,-2.4 15.66,-3.93 21.36,-6.39 36.183,2.67 43.32,-5.43 l 0.18,-0.24 c 3,-3.6 2.07,-7.92 0.63,-23.73 -0.75,-8.1 -1.29,-15.42 -1.707,-21.78 -0.39,-6.39 -0.663,-11.82 -0.843,-16.14 1.56,-0.36 3.39,-0.93 5.343,-1.86 2.13,-0.99 3.87,-2.19 5.277,-3.33 0.9,-0.72 1.68,-1.44 2.31,-2.07 -1.707,-9.15 -5.43,-15.33 -7.857,-18.72"
     id="Fill-534"
     fill="#7895A4"
     inkscape:connector-curvature="0"
     style="fill-rule:evenodd;stroke:none;stroke-width:1" />
  <path
     d="m 69.463,107.26 c -1.44,0.27 -2.7,0.06 -3.48,-0.12 -0.03,1.59 -0.03,3.15 -0.057,4.74 -2.37,3.57 -6.543,5.43 -10.5,4.74 -4.62,-0.81 -6.87,-4.71 -7.173,-5.28 0.09,-2.01 0.183,-4.02 0.24,-6.06 0.813,-0.63 0.99,-1.47 2.37,-2.85 1.11,-1.11 1.53,-1.08 2.16,-1.74 1.2,-1.23 2.94,-7.74 0.24,-9.57 -1.53,-1.02 -3.03,0.42 -4.53,-0.78 -1.35,-1.08 -1.89,-3.66 -0.75,-5.19 0.9,-1.17 2.553,-1.32 2.73,-1.32 1.29,-0.09 1.68,0.57 2.4,0.33 1.563,-0.51 1.71,-4.23 1.71,-5.22 0.03,-3.9 -1.47,-5.61 -0.45,-6.78 0.45,-0.51 0.75,-0.21 3.75,-0.84 2.52,-0.51 2.913,-0.87 4.38,-0.93 1.5,-0.06 1.803,0.27 3.39,0.45 3.42,0.33 3.783,-1.32 7.56,-1.02 2.01,0.18 3.39,0.69 5.223,-0.03 1.947,4.2 2.547,7.77 2.787,10.02 1.203,11.55 -4.02,25.92 -12,27.45"
     id="Fill-535"
     fill="#F9B995"
     inkscape:connector-curvature="0"
     style="fill-rule:evenodd;stroke:none;stroke-width:1" />
  <path
     d="m 81.223,67.96 c -0.36,0.39 -1.167,1.26 -2.46,1.8 -1.92,0.75 -3.3,0.24 -5.31,0.06 -3.777,-0.3 -4.14,1.35 -7.56,1.02 -1.587,-0.18 -1.89,-0.51 -3.39,-0.45 -1.467,0.06 -1.86,0.42 -4.38,0.93 -3,0.63 -3.3,0.33 -3.75,0.84 -1.02,1.17 0.48,2.88 0.45,6.78 0,0.99 -0.147,4.71 -1.71,5.22 -0.72,0.24 -1.11,-0.42 -2.4,-0.33 -0.177,0 -1.83,0.15 -2.73,1.32 -1.14,1.53 -0.6,4.11 0.75,5.19 1.5,1.2 3,-0.24 4.53,0.78 2.7,1.83 0.96,8.34 -0.24,9.57 -0.63,0.66 -1.05,0.63 -2.16,1.74 -1.38,1.38 -1.557,2.22 -2.37,2.85 l -0.447,0.3 c -1.443,0.81 -2.973,0.48 -3.183,0.45 -2.04,-0.45 -3.057,-2.25 -3.39,-2.85 -1.02,-1.77 -0.45,-2.61 -1.047,-4.86 -0.813,-2.85 -2.043,-2.52 -3.183,-5.37 -1.35,-3.39 -0.807,-6.87 -0.567,-8.37 0.387,-2.61 0.927,-2.82 0.957,-4.95 0.033,-2.25 -0.54,-2.76 -0.93,-5.31 -0.297,-2.31 -0.87,-5.55 0.723,-8.22 1.11,-1.92 2.187,-1.77 4.407,-4.62 2.073,-2.67 1.473,-3.27 2.91,-4.71 2.88,-2.85 7.5,-2.73 9.36,-2.7 4.203,0.09 4.35,1.59 7.65,1.14 3.12,-0.45 3.783,-1.86 6.81,-1.71 1.8,0.09 1.83,0.6 4.68,0.99 3.303,0.48 3.693,-0.15 5.25,0.42 2.313,0.84 3.96,3.21 4.53,5.49 0.72,2.88 -0.21,5.73 -1.8,7.56"
     id="Fill-536"
     fill="#A25F4C"
     inkscape:connector-curvature="0"
     style="fill-rule:evenodd;stroke:none;stroke-width:1" />
  <path
     sodipodi:nodetypes="cccccccccccccccccc"
     d="m 98.503,201.16 c -2.577,4.95 -12.39,6 -24.48,3.36 -16.8,3.87 -30.54,3.57 -39.717,2.61 -11.88,-1.2 -24.483,-2.67 -28.593,-10.98 -1.32,-2.64 -1.32,-5.16 0.093,-15.69 1.23,-9.18 2.61,-17.04 3.837,-23.16 4.32,0.75 9,1.32 14.043,1.65 2.457,0.15 4.86,0.24 7.137,0.27 -1.68,7.26 -3.18,13.11 -4.32,17.31 -1.41,5.28 -2.067,7.53 -0.9,9.84 0.63,1.23 1.59,2.07 4.29,2.85 2.7,0.81 7.143,1.56 14.763,2.64 19.02,1.65 27.057,2.85 30.75,-0.03 0.417,-0.3 1.827,-1.5 4.077,-2.4 1.29,-0.54 2.88,1.74 2.673,3.06 1.677,0.69 4.227,1.53 7.407,1.5 4.44,-0.06 6.63,-1.74 8.343,-0.57 1.797,1.26 1.857,5.31 0.597,7.74"
     id="Fill-539"
     fill="#F9B995"
     inkscape:connector-curvature="0"
     style="fill-rule:evenodd;stroke:none;stroke-width:1" />
  <path
     d="m 381.598,213.928 c -0.858,0.396 -1.716,0.795 -2.571,1.194 l -60.159,49.611 H 100.189 c -3.108,0 -5.652,2.547 -5.652,5.655 l 0.039,0.393 c -0.717,16.812 -0.654,29.469 -0.492,37.707 0.093,4.452 0.276,10.833 3.18,13.233 1.653,1.365 4.014,1.299 5.61,-0.219 2.748,-2.616 2.388,-8.982 2.568,-12.429 0.612,-11.592 0.627,-23.553 0.489,-33.027 h 208.992 c -0.432,14.199 -0.369,25.092 -0.225,32.442 0.093,4.452 0.276,10.833 3.18,13.233 1.653,1.365 4.014,1.299 5.61,-0.219 2.748,-2.616 2.388,-8.982 2.571,-12.429 0.672,-12.831 0.624,-26.115 0.435,-35.967 14.649,-12.081 29.295,-24.162 43.944,-36.24 -0.12,10.851 0.03,19.395 0.216,25.497 0.135,4.452 0.384,10.83 3.309,13.2 1.668,1.353 4.029,1.257 5.607,-0.273 3.372,-3.279 2.445,-12.456 2.445,-12.456 -1.092,-8.556 -1.152,-24.903 -0.417,-48.906"
     id="Fill-547"
     fill="#BA7C6D"
     inkscape:connector-curvature="0"
     style="fill-rule:evenodd;stroke:none;stroke-width:1" />
  <polyline
     transform="translate(0,-1)"
     id="Fill-548"
     fill="#F7C28C"
     points="320.317 265.733 98.611 265.733 195.844 214.928 381.598 214.928 320.317 265.733"
     style="fill-rule:evenodd;stroke:none;stroke-width:1" />
  <polyline
     transform="translate(0,-1)"
     id="Fill-565"
     fill="#89ACBF"
     points="343.963 229.46 317.773 251.18 155.743 251.18 197.323 229.46 343.963 229.46"
     style="fill-rule:evenodd;stroke:none;stroke-width:1" />
  <path
     d="m 313.753,243.1 h -128.64 l 21.543,-11.25 h 120.657 z m 15.63,-12 3.21,-2.64 h -1.167 l -3.213,2.64 h -120.12 l 5.04,-2.64 h -1.62 l -5.04,2.64 h -14.187 l -1.443,0.75 h 14.193 l -21.513,11.25 h -14.217 l -1.443,0.75 h 14.22 l -12.147,6.33 h 1.62 l 12.147,-6.33 h 129.12 l -7.62,6.33 h 1.17 l 7.65,-6.33 h 11.37 l 0.93,-0.75 h -11.397 l 13.557,-11.25 h 11.4 l 0.903,-0.75 z"
     id="Fill-566"
     fill="#F9E4CF"
     inkscape:connector-curvature="0"
     style="fill-rule:evenodd;stroke:none;stroke-width:1" />
  <path
     d="m 336.823,257.23 c -2.787,10.77 -5.397,19.29 -7.26,25.11 -1.527,4.74 -2.61,7.8 -2.7,10.44 -2.067,-0.21 -4.23,-0.3 -6.447,-0.33 0.837,-4.5 5.607,-29.64 7.197,-37.65 0.66,0.75 1.59,1.5 2.823,2.04 2.97,1.35 5.697,0.6 6.387,0.39"
     id="Fill-567"
     fill="#F9B995"
     inkscape:connector-curvature="0"
     style="fill-rule:evenodd;stroke:none;stroke-width:1" />
  <path
     d="m 212.383,362.2 c 0.48,-2.43 -0.087,-5.22 -1.62,-6.96 -0.87,-0.99 -1.977,-1.56 -3.39,-1.83 12.21,-4.02 24.423,-8.07 36.63,-12.09 0.033,0.6 0.06,1.2 0.12,1.8 0.09,1.08 0.21,2.19 0.45,3.36 0.54,2.7 1.68,6.15 4.29,10.05 -12.177,1.89 -24.327,3.78 -36.48,5.67"
     id="Fill-568"
     fill="#F7AC84"
     inkscape:connector-curvature="0"
     style="fill-rule:evenodd;stroke:none;stroke-width:1" />
  <path
     d="m 212.383,362.2 c -0.03,0.39 -0.12,0.75 -0.24,1.11 -2.28,6.93 -12.63,5.04 -34.107,10.02 -1.74,0.42 -5.823,1.38 -7.833,-0.78 -1.527,-1.68 -1.08,-4.38 -1.047,-4.53 0.567,-3.03 3.75,-5.61 15.39,-9.42 11.13,-3.66 18.39,-6.06 22.827,-5.19 1.413,0.27 2.52,0.84 3.39,1.83 1.533,1.74 2.1,4.53 1.62,6.96"
     id="Fill-569"
     fill="#352F31"
     inkscape:connector-curvature="0"
     style="fill-rule:evenodd;stroke:none;stroke-width:1" />
  <path
     d="m 210.253,350.71 c 0.63,-2.7 -0.12,-6.03 -2.067,-7.92 l -0.423,-0.33 c 10.98,-5.58 21.903,-11.13 32.88,-16.71 0.72,1.71 1.47,3.75 2.043,6.09 1.257,4.92 1.167,8.04 1.437,11.28 -11.817,3.54 -23.73,7.08 -35.577,10.65 0.87,-0.84 1.407,-1.83 1.707,-3.06"
     id="Fill-570"
     fill="#F9B995"
     inkscape:connector-curvature="0"
     style="fill-rule:evenodd;stroke:none;stroke-width:1" />
  <path
     d="m 396.313,347.14 c 0,0 -3.3,4.62 -8.127,8.34 -7.293,5.58 -60.813,9.84 -134.613,6.75 -1.917,-1.98 -3.48,-3.87 -4.71,-5.7 -2.61,-3.9 -3.75,-7.35 -4.29,-10.05 -0.24,-1.17 -0.36,-2.28 -0.45,-3.36 -0.06,-0.6 -0.087,-1.2 -0.12,-1.8 -0.15,-2.67 -0.3,-5.46 -1.317,-9.48 -0.573,-2.34 -1.323,-4.38 -2.043,-6.09 -0.597,-1.47 -1.2,-2.7 -1.707,-3.66 19.287,-10.95 35.907,-18 48,-22.5 12.777,-4.74 19.017,-6.12 25.137,-6.75 2.88,-0.3 5.67,-0.42 8.343,-0.39 2.217,0.03 4.38,0.12 6.447,0.33 9.39,0.84 17.193,3.21 22.71,5.31 15.87,5.13 31.74,10.26 47.613,15.39 1.167,1.86 2.85,5.07 3.777,9.3 2.823,12.72 -3.657,22.83 -4.65,24.36"
     id="Fill-571"
     fill="#BA7C6D"
     inkscape:connector-curvature="0"
     style="fill-rule:evenodd;stroke:none;stroke-width:1" />
  <path
     d="m 210.253,350.71 c -0.3,1.23 -0.837,2.22 -1.707,3.06 -3.963,3.93 -14.163,4.2 -31.473,9.75 -1.71,0.54 -5.7,1.86 -7.86,-0.15 -1.677,-1.56 -1.44,-4.29 -1.44,-4.41 0.3,-3.09 3.3,-5.91 14.55,-10.68 13.77,-5.79 21.42,-9.06 25.44,-5.82 l 0.423,0.33 c 1.947,1.89 2.697,5.22 2.067,7.92"
     id="Fill-572"
     fill="#352F31"
     inkscape:connector-curvature="0"
     style="fill-rule:evenodd;stroke:none;stroke-width:1" />
  <path
     d="m 470.563,355.99 c -1.5,1.89 -4.71,1.83 -5.94,1.8 -8.13,-0.27 -14.16,-7.11 -15.27,-6.12 -0.72,0.66 1.833,3.57 0.54,5.22 -0.54,0.69 -1.5,0.81 -1.707,0.84 -3.723,0.51 -8.493,-8.04 -9.093,-9.12 -6.15,-11.07 -20.037,-57.06 -25.71,-76.29 2.553,-0.03 6.153,-0.39 10.053,-1.98 3.927,-1.59 6.807,-3.84 8.697,-5.67 4.89,30.18 8.64,51.9 9.903,58.08 0.327,1.65 1.02,4.92 2.697,8.85 0.573,1.32 2.1,5.58 4.71,8.37 7.89,8.49 21.15,7.83 21.9,13.05 0.093,0.81 -0.03,2.01 -0.78,2.97"
     id="Fill-573"
     fill="#F9B995"
     inkscape:connector-curvature="0"
     style="fill-rule:evenodd;stroke:none;stroke-width:1" />
  <path
     d="m 434.056,262.6 c -0.453,0.57 -1.113,1.29 -1.923,2.07 -1.89,1.83 -4.77,4.08 -8.697,5.67 -3.9,1.59 -7.5,1.95 -10.053,1.98 -0.9,0 -1.68,-0.03 -2.31,-0.09 -0.6,-2.97 -1.167,-5.91 -1.767,-8.88 -4.14,15.51 -5.13,28.23 -5.25,37.23 -0.15,11.94 1.257,18.21 -3.093,22.2 -5.76,5.28 -16.71,2.04 -28.917,-1.53 -7.833,-2.31 -4.953,-2.55 -29.223,-13.77 -9.09,-4.2 -13.62,-6.09 -15.387,-10.89 -0.15,-0.42 -0.27,-0.81 -0.363,-1.23 -0.777,-3.39 0.45,-6.69 2.49,-13.02 1.863,-5.82 4.473,-14.34 7.26,-25.11 -0.69,0.21 -3.417,0.96 -6.387,-0.39 -1.233,-0.54 -2.163,-1.29 -2.823,-2.04 -0.687,-0.69 -1.077,-1.35 -1.29,-1.71 0.843,-8.52 2.25,-15.51 3.483,-20.55 2.637,-10.86 4.137,-16.83 9.267,-22.71 0.75,-0.87 4.26,-4.83 10.233,-7.98 12,-6.36 24.12,-4.26 28.5,-3.27 2.427,0.09 5.907,0.33 10.017,1.11 0,0.03 8.613,1.68 16.113,5.4 9.567,4.74 24.12,25.95 30.12,57.51"
     id="Fill-574"
     fill="#F9E4CF"
     inkscape:connector-curvature="0"
     style="fill-rule:evenodd;stroke:none;stroke-width:1" />
  <path
     d="m 357.067,170.218 c 1.329,4.773 3.585,4.518 4.875,9.75 2.169,8.769 -3.321,12.936 -3.75,21.75 -0.474,9.738 5.496,19.626 13.125,25.125 8.112,5.844 21.105,8.892 30.375,3 4.629,-2.943 6.72,-7.089 9,-11.625 1.266,-2.517 7.149,-14.073 3.75,-27 -1.662,-6.327 -3.471,-5.079 -6.75,-13.5 -4.8,-12.33 -1.257,-15.864 -6,-24.375 -1.26,-2.271 -5.496,-9.585 -14.25,-12.75 -1.818,-0.657 -7.518,-2.637 -13.875,-0.75 -12.405,3.681 -19.449,19.755 -16.5,30.375"
     id="Fill-575"
     fill="#352F31"
     inkscape:connector-curvature="0"
     style="fill-rule:evenodd;stroke:none;stroke-width:1" />
</svg>
