<?xml version="1.0" encoding="UTF-8"?>
<svg width="599px" height="404px" viewBox="0 0 599 404" version="1.1" xmlns="http://www.w3.org/2000/svg" xmlns:xlink="http://www.w3.org/1999/xlink">
    <!-- Generator: Sketch 59 (86127) - https://sketch.com -->
    <title>illo-03</title>
    <desc>Created with Sketch.</desc>
    <defs>
        <path d="M312.764,3.476 C327.179,6.602 340.778,12.581 355.307,15.2 C374.903,18.734 395.156,15.983 415.052,17.468 C434.948,18.953 456.431,26.243 465.395,42.878 C472.481,56.021 470.111,71.819 474.266,86.012 C479.042,102.329 491.978,115.283 504.329,127.67 C521.735,145.136 539.405,163.805 545.969,186.854 C551.84,207.473 547.784,230.369 535.118,248.135 C522.455,265.898 501.383,278.234 478.727,281.156 C465.263,282.893 451.427,281.459 438.101,283.952 C404.675,290.204 381.677,319.172 350.276,331.553 C300.995,350.981 243.593,325.97 191.276,336.437 C181.247,338.444 171.536,341.741 161.435,343.406 C140.39,346.877 118.688,343.091 98.315,337.07 C57.293,324.944 16.643,300.428 3.623,262.169 C-0.757,249.293 -1.6,234.8 4.64,222.611 C13.43,205.445 34.595,195.479 41.558,177.599 C45.314,167.96 44.36,157.382 44.726,147.131 C45.614,122.267 56.522,95.762 79.949,83.873 C96.842,75.299 117.152,75.668 135.722,71 C181.343,59.528 212.921,18.872 257.948,5.516 C275.585,0.281 294.737,-0.43 312.764,3.476" id="path-1"></path>
        <path d="M5.729,1.896 C5.729,1.896 -4.699,5.61 4.283,23.685 C13.268,41.757 27.209,30.483 27.209,30.483 C27.209,30.483 35.372,25.131 26.699,10.668 C18.02,-3.789 8.33,0.012 5.729,1.896" id="path-3"></path>
        <linearGradient x1="0.0025250478%" y1="49.9982259%" x2="100.000061%" y2="49.9982259%" id="linearGradient-5">
            <stop stop-color="#E26B95" offset="0%"></stop>
            <stop stop-color="#CC2B66" offset="100%"></stop>
        </linearGradient>
        <path d="M134.482,43 C116.77,37.579 118.459,21.619 106.528,10.051 C94.6,-1.517 82.549,5.593 51.1,0.892 C19.681,-3.803 14.962,13.327 14.953,13.357 C15.082,12.883 5.113,16.879 3.853,18.352 C0.64,22.09 0.28,27.49 0.217,32.17 C0.079,42.265 5.437,55.432 13.561,61.657 C21.211,67.522 31.576,68.242 40.228,72.484 C57.544,80.968 65.11,102.526 63.223,121.714 C62.2,132.109 58.93,147.754 72.385,146.236 C81.187,145.243 92.203,135.952 99.139,130.984 C113.932,120.397 133.327,105.976 140.869,88.735 C148.462,71.383 152.197,48.424 134.482,43" id="path-6"></path>
        <linearGradient x1="-0.000269273841%" y1="50.0001068%" x2="100.000831%" y2="50.0001068%" id="linearGradient-8">
            <stop stop-color="#160D2D" offset="0%"></stop>
            <stop stop-color="#4330A6" offset="100%"></stop>
        </linearGradient>
        <path d="M91.466,33.028 C85.259,22.687 78.551,21.697 74.273,22.654 C67.859,13.771 58.121,4.201 46.049,1.078 C36.119,-1.484 26.288,0.652 16.817,7.456 C-13.417,29.161 7.919,61.03 8.138,61.348 L13.085,57.958 C12.326,56.848 -5.206,30.649 20.315,12.331 C28.277,6.616 36.434,4.789 44.543,6.886 C54.623,9.493 63.038,17.665 68.753,25.33 C66.23,27.391 62.534,32.929 69.053,46.042 C78.035,64.114 91.976,52.843 91.976,52.843 C91.976,52.843 100.139,47.488 91.466,33.028" id="path-9"></path>
        <linearGradient x1="0.000711768015%" y1="50.0007149%" x2="100.002234%" y2="50.0007149%" id="linearGradient-11">
            <stop stop-color="#D93C5E" offset="0%"></stop>
            <stop stop-color="#FA466C" offset="100%"></stop>
        </linearGradient>
        <path d="M93.95,145.573 C85.79,145.033 80.54,145.003 80.54,145.003 C80.54,145.003 -22.123,26.803 5.54,13.783 C11.357,11.053 15.29,7.633 17.867,3.943 C18.65,2.833 19.31,1.693 19.85,0.553 C32.15,16.363 74.21,73.903 93.95,145.573" id="path-12"></path>
        <path d="M0.47,13.773 C0.47,13.773 37.322,165.456 74.825,208.353 C112.328,251.25 119.825,264.603 125.45,257.853 C131.075,251.103 133.511,190.353 117.479,141.228 C101.45,92.103 69.449,2.103 48.2,0.852 C29.057,-0.273 0.47,13.773 0.47,13.773" id="path-14"></path>
    </defs>
    <g id="Page-1" stroke="none" stroke-width="1" fill="none" fill-rule="evenodd">
        <g id="depressed.nyc" transform="translate(-591.000000, -2200.000000)">
            <g id="section-copy" transform="translate(0.000000, 2002.000000)">
                <g id="Group-11" transform="translate(166.000000, 198.000000)">
                    <g id="illo-03" transform="translate(425.000000, 0.000000)">
                        <g id="Group-241" transform="translate(93.793265, 16.809705)">
                            <mask id="mask-2" fill="white">
                                <use xlink:href="#path-1"></use>
                            </mask>
                            <g id="Clip-240"></g>
                            <path d="M312.764,3.476 C327.179,6.602 340.778,12.581 355.307,15.2 C374.903,18.734 395.156,15.983 415.052,17.468 C434.948,18.953 456.431,26.243 465.395,42.878 C472.481,56.021 470.111,71.819 474.266,86.012 C479.042,102.329 491.978,115.283 504.329,127.67 C521.735,145.136 539.405,163.805 545.969,186.854 C551.84,207.473 547.784,230.369 535.118,248.135 C522.455,265.898 501.383,278.234 478.727,281.156 C465.263,282.893 451.427,281.459 438.101,283.952 C404.675,290.204 381.677,319.172 350.276,331.553 C300.995,350.981 243.593,325.97 191.276,336.437 C181.247,338.444 171.536,341.741 161.435,343.406 C140.39,346.877 118.688,343.091 98.315,337.07 C57.293,324.944 16.643,300.428 3.623,262.169 C-0.757,249.293 -1.6,234.8 4.64,222.611 C13.43,205.445 34.595,195.479 41.558,177.599 C45.314,167.96 44.36,157.382 44.726,147.131 C45.614,122.267 56.522,95.762 79.949,83.873 C96.842,75.299 117.152,75.668 135.722,71 C181.343,59.528 212.921,18.872 257.948,5.516 C275.585,0.281 294.737,-0.43 312.764,3.476" id="Fill-239" mask="url(#mask-2)"></path>
                        </g>
                        <path d="M188.445265,99.3747048 C188.445265,99.3747048 141.168265,97.9617048 139.581265,78.0087048 C137.997265,58.0527048 163.524265,50.9667048 177.000265,57.3087048 C177.000265,57.3087048 174.915265,12.9177048 205.287265,10.9377048 C235.659265,8.95470484 230.583265,35.1117048 230.583265,35.1117048 C230.583265,35.1117048 242.001265,-3.33329516 274.107265,0.233704841 C306.210265,3.80070484 285.996265,41.0577048 285.996265,41.0577048 C285.996265,41.0577048 319.683265,26.3937048 320.478265,60.4797048 C321.270265,94.5657048 205.833265,102.203705 188.445265,99.3747048" id="Fill-242" fill="#99CFDB"></path>
                        <path d="M181.992265,109.865705 C181.992265,109.865705 173.991265,136.295705 184.491265,136.295705 C194.991265,136.295705 181.992265,109.865705 181.992265,109.865705" id="Fill-243" fill="#CACAE5"></path>
                        <path d="M211.665265,123.083705 C211.665265,123.083705 203.664265,149.513705 214.164265,149.513705 C224.664265,149.513705 211.665265,123.083705 211.665265,123.083705" id="Fill-244" fill="#CACAE5"></path>
                        <path d="M194.664265,153.296705 C194.664265,153.296705 186.663265,179.726705 197.163265,179.726705 C207.663265,179.726705 194.664265,153.296705 194.664265,153.296705" id="Fill-245" fill="#CACAE5"></path>
                        <path d="M242.652265,111.614705 C242.652265,111.614705 234.651265,138.044705 245.151265,138.044705 C255.651265,138.044705 242.652265,111.614705 242.652265,111.614705" id="Fill-246" fill="#CACAE5"></path>
                        <path d="M279.471265,107.477705 C279.471265,107.477705 271.470265,133.907705 281.973265,133.907705 C292.473265,133.907705 279.471265,107.477705 279.471265,107.477705" id="Fill-247" fill="#CACAE5"></path>
                        <path d="M232.914265,147.824705 C232.914265,147.824705 224.913265,174.254705 235.413265,174.254705 C245.913265,174.254705 232.914265,147.824705 232.914265,147.824705" id="Fill-248" fill="#CACAE5"></path>
                        <path d="M263.763265,143.105705 C263.763265,143.105705 255.765265,169.535705 266.265265,169.535705 C276.765265,169.535705 263.763265,143.105705 263.763265,143.105705" id="Fill-249" fill="#CACAE5"></path>
                        <g id="Group-252" transform="translate(363.793265, 87.809705)">
                            <mask id="mask-4" fill="white">
                                <use xlink:href="#path-3"></use>
                            </mask>
                            <g id="Clip-251"></g>
                            <path d="M5.729,1.896 C5.729,1.896 -4.699,5.61 4.283,23.685 C13.268,41.757 27.209,30.483 27.209,30.483 C27.209,30.483 35.372,25.131 26.699,10.668 C18.02,-3.789 8.33,0.012 5.729,1.896" id="Fill-250" fill="url(#linearGradient-5)" mask="url(#mask-4)"></path>
                        </g>
                        <g id="Group-255" transform="translate(367.793265, 44.809705)">
                            <mask id="mask-7" fill="white">
                                <use xlink:href="#path-6"></use>
                            </mask>
                            <g id="Clip-254"></g>
                            <path d="M134.482,43 C116.77,37.579 118.459,21.619 106.528,10.051 C94.6,-1.517 82.549,5.593 51.1,0.892 C19.681,-3.803 14.962,13.327 14.953,13.357 C15.082,12.883 5.113,16.879 3.853,18.352 C0.64,22.09 0.28,27.49 0.217,32.17 C0.079,42.265 5.437,55.432 13.561,61.657 C21.211,67.522 31.576,68.242 40.228,72.484 C57.544,80.968 65.11,102.526 63.223,121.714 C62.2,132.109 58.93,147.754 72.385,146.236 C81.187,145.243 92.203,135.952 99.139,130.984 C113.932,120.397 133.327,105.976 140.869,88.735 C148.462,71.383 152.197,48.424 134.482,43" id="Fill-253" fill="url(#linearGradient-8)" mask="url(#mask-7)"></path>
                        </g>
                        <path d="M577.323265,242.342705 C558.900265,177.272705 534.660265,108.842705 511.170265,112.442705 C497.073265,114.602705 488.973265,117.752705 482.280265,120.572705 C477.753265,122.522705 473.883265,124.262705 469.263265,125.582705 C463.050265,127.352705 456.603265,124.922705 451.083265,120.002705 C448.236265,117.443705 445.686265,114.179705 443.487265,110.537705 C447.747265,95.4807048 435.042265,77.5227048 435.042265,77.5227048 C434.088265,75.8637048 433.062265,74.3787048 432.003265,72.9867048 C409.941265,76.4727048 386.358265,70.7667048 386.358265,70.7667048 C383.394265,84.3957048 376.881265,95.1267048 374.622265,98.5617048 C378.834265,110.342705 388.395265,122.456705 401.412265,130.604705 C410.451265,136.265705 417.270265,137.261705 422.841265,135.416705 C423.441265,137.138705 424.080265,139.301705 424.530265,141.782705 C425.463265,146.942705 425.550265,153.332705 422.643265,159.362705 C422.103265,160.502705 421.443265,161.642705 420.660265,162.752705 C418.083265,166.442705 414.150265,169.862705 408.333265,172.592705 C380.670265,185.612705 483.333265,303.812705 483.333265,303.812705 C483.333265,303.812705 488.583265,303.842705 496.743265,304.382705 C522.003265,306.032705 575.073265,312.602705 586.263265,338.552705 C586.263265,338.552705 595.770265,307.412705 577.323265,242.342705" id="Fill-256" fill="#FFCC99"></path>
                        <path d="M439.542265,89.6727048 C439.542265,89.6727048 451.161265,84.1767048 442.863265,70.2717048 C434.562265,56.3697048 424.812265,64.8357048 425.949265,72.4797048 C427.086265,80.1237048 439.542265,89.6727048 439.542265,89.6727048" id="Fill-257" fill="#FFCC99"></path>
                        <path d="M444.414265,228.638705 L496.161265,188.912705 L550.743265,308.162705 C550.743265,308.162705 482.868265,298.787705 482.868265,299.912705 C482.868265,301.037705 444.414265,228.638705 444.414265,228.638705" id="Fill-264" fill="#FFFFFF"></path>
                        <polyline id="Fill-265" fill="#FFCC99" points="220.491265 348.260705 232.743265 307.256705 268.491265 310.910705 250.605265 351.161705 220.491265 348.260705"></polyline>
                        <g id="Group-268" transform="translate(357.793265, 35.809705)">
                            <mask id="mask-10" fill="white">
                                <use xlink:href="#path-9"></use>
                            </mask>
                            <g id="Clip-267"></g>
                            <path d="M91.466,33.028 C85.259,22.687 78.551,21.697 74.273,22.654 C67.859,13.771 58.121,4.201 46.049,1.078 C36.119,-1.484 26.288,0.652 16.817,7.456 C-13.417,29.161 7.919,61.03 8.138,61.348 L13.085,57.958 C12.326,56.848 -5.206,30.649 20.315,12.331 C28.277,6.616 36.434,4.789 44.543,6.886 C54.623,9.493 63.038,17.665 68.753,25.33 C66.23,27.391 62.534,32.929 69.053,46.042 C78.035,64.114 91.976,52.843 91.976,52.843 C91.976,52.843 100.139,47.488 91.466,33.028" id="Fill-266" fill="url(#linearGradient-11)" mask="url(#mask-10)"></path>
                        </g>
                        <g id="Group-271" transform="translate(402.793265, 158.809705)">
                            <mask id="mask-13" fill="white">
                                <use xlink:href="#path-12"></use>
                            </mask>
                            <g id="Clip-270"></g>
                            <path d="M93.95,145.573 C85.79,145.033 80.54,145.003 80.54,145.003 C80.54,145.003 -22.123,26.803 5.54,13.783 C11.357,11.053 15.29,7.633 17.867,3.943 C18.65,2.833 19.31,1.693 19.85,0.553 C32.15,16.363 74.21,73.903 93.95,145.573" id="Fill-269" fill="#FA466C" mask="url(#mask-13)"></path>
                        </g>
                        <path d="M490.227265,303.251705 C490.227265,303.251705 410.217265,169.259705 393.348265,149.015705 C376.479265,128.771705 352.380265,101.297705 331.170265,105.152705 C309.963265,109.010705 295.020265,141.302705 282.492265,170.222705 C274.104265,189.578705 245.259265,260.687705 222.738265,310.775705 C218.742265,319.661705 268.242265,325.910705 272.934265,317.384705 C284.235265,296.837705 296.253265,271.472705 306.591265,254.087705 C327.795265,218.420705 332.136265,187.574705 332.136265,187.574705 C332.136265,187.574705 379.455265,307.256705 417.588265,353.537705 C449.736265,392.555705 501.795265,335.063705 490.227265,303.251705" id="Fill-272" fill="#A8A8BF"></path>
                        <path d="M271.077265,225.221705 L265.704265,203.774705 C264.687265,199.721705 267.117265,195.602705 271.158265,194.531705 L282.939265,191.405705 C287.172265,190.283705 291.483265,192.938705 292.380265,197.225705 L296.988265,219.218705 C297.837265,223.280705 295.290265,227.282705 291.249265,228.227705 L280.233265,230.807705 C276.165265,231.758705 272.088265,229.274705 271.077265,225.221705" id="Fill-273" fill="#311B63"></path>
                        <path d="M344.436265,163.211705 C341.559265,164.582705 339.741265,167.741705 337.989265,170.306705 C336.792265,172.052705 335.649265,173.828705 334.485265,175.589705 C334.296265,171.335705 334.269265,167.018705 334.983265,162.893705 C335.316265,160.961705 332.793265,160.289705 332.076265,162.089705 C329.958265,167.411705 331.107265,174.914705 331.416265,180.509705 C331.515265,182.264705 333.531265,182.645705 334.518265,181.349705 C336.540265,178.676705 338.304265,175.835705 340.119265,173.015705 C341.925265,170.207705 344.559265,167.735705 345.942265,164.717705 C346.410265,163.697705 345.468265,162.719705 344.436265,163.211705" id="Fill-274" fill="#9191B0"></path>
                        <path d="M281.517265,302.255705 C279.177265,299.918705 275.376265,299.864705 272.307265,299.633705 C265.653265,299.129705 258.996265,298.010705 252.375265,297.179705 C244.734265,296.219705 237.657265,294.236705 230.208265,292.424705 C227.838265,291.848705 224.718265,291.980705 223.236265,294.236705 C222.204265,295.805705 220.713265,299.558705 219.996265,303.359705 C219.006265,305.834705 218.304265,308.465705 218.261639,311.060705 C218.133265,318.776705 237.981265,319.661705 242.679265,320.363705 C248.952265,321.299705 255.249265,321.707705 261.567265,322.160705 C266.502265,322.514705 270.606265,322.823705 274.683265,319.709705 C278.376265,316.892705 286.158265,306.902705 281.517265,302.255705" id="Fill-275" fill="#9191B0"></path>
                        <path d="M0.0692652976,334.760705 C2.2772653,351.644705 6.2102653,381.254705 7.9982653,389.507705 C10.5092653,401.249705 20.7092653,398.696705 26.7872653,397.235705 C27.5402653,397.034705 28.3202653,396.881705 29.0852653,396.773705 C55.5752653,386.903705 81.9512653,393.026705 100.863265,394.178705 L100.863265,358.031705 C66.0782653,360.608705 30.7502653,375.599705 19.8122653,346.298705 C19.0922653,344.372705 18.0992653,342.473705 17.5682653,340.352705 C16.4522653,335.903705 15.0152653,332.534705 13.4522653,329.966705 C9.3842653,323.306705 -0.941734702,327.011705 0.0692652976,334.760705" id="Fill-276" fill="#FFCC99"></path>
                        <path d="M0.0692652976,334.760705 C2.2772653,351.644705 6.2102653,381.254705 7.9982653,389.507705 C10.5092653,401.249705 20.7092653,398.696705 26.7872653,397.235705 C27.5402653,397.034705 28.3202653,396.881705 29.0852653,396.773705 C25.9502653,389.345705 19.1132653,370.271705 19.8122653,346.298705 C18.8732653,344.468705 18.0992653,342.473705 17.5682653,340.352705 C16.4522653,335.903705 15.0152653,332.534705 13.4522653,329.966705 C9.3842653,323.306705 -0.941734702,327.011705 0.0692652976,334.760705" id="Fill-277" fill="#FA466C"></path>
                        <path d="M80.2952653,351.281705 L80.2952653,395.624705 C80.2952653,395.624705 181.515265,403.577705 216.216265,396.347705 C250.920265,389.117705 329.724265,384.806705 364.428265,392.747705 C399.132265,400.685705 559.149265,412.013705 578.916265,368.318705 C593.046265,337.079705 584.937265,316.097705 570.480265,308.867705 C556.020265,301.637705 507.681265,282.116705 394.485265,313.928705 C281.283265,345.740705 84.6332653,352.487705 80.2952653,351.281705" id="Fill-278" fill="#9191B0"></path>
                        <path d="M100.734265,349.394705 C96.0572653,346.655705 85.8182653,346.133705 81.1352653,348.830705 C80.5592653,349.157705 80.1062653,349.574705 79.7012653,350.021705 C76.8722653,351.371705 76.3832653,355.193705 76.3232653,358.472705 C76.1372653,368.150705 76.8782653,377.687705 75.9692653,387.404705 C75.4442653,393.053705 74.7542653,399.320705 80.5352653,402.344705 C85.2782653,404.828705 94.4852653,404.537705 97.5272653,399.674705 C99.3752653,396.719705 98.9822653,391.136705 99.2222653,387.929705 C99.7142653,381.314705 100.101265,374.741705 100.953265,368.156705 C101.514265,363.812705 103.161265,358.763705 103.080265,354.410705 C103.038265,352.283705 102.693265,350.543705 100.734265,349.394705" id="Fill-279" fill="#A8A8BF"></path>
                        <path d="M405.873265,338.162705 C403.050265,336.692705 400.323265,333.092705 398.493265,330.632705 C392.040265,322.022705 390.420265,311.492705 390.873265,301.022705 L390.873265,300.542705 C391.083265,300.662705 391.263265,300.752705 391.443265,300.842705 C398.343265,304.892705 404.883265,310.712705 410.073265,316.742705 C413.433265,320.642705 415.503265,325.232705 415.833265,330.362705 C416.223265,336.422705 412.083265,341.342705 405.873265,338.162705 Z M412.983265,317.102705 C407.643265,309.302705 399.660265,302.912705 390.963265,298.172705 C391.290265,288.212705 391.170265,278.372705 392.583265,268.472705 C395.433265,248.762705 399.300265,230.072705 398.883265,210.032705 C398.463265,190.322705 396.300265,170.372705 392.433265,151.052705 C390.660265,142.202705 389.313265,129.782705 383.733265,121.532705 C383.013265,121.682705 382.290265,121.772705 381.513265,121.772705 C384.993265,127.292705 386.550265,134.222705 387.963265,140.402705 C390.483265,151.322705 392.643265,162.392705 393.900265,173.552705 C396.540265,196.742705 398.193265,220.112705 394.683265,243.302705 C393.150265,253.442705 391.050265,263.492705 389.733265,273.662705 C388.770265,281.282705 388.650265,289.172705 388.650265,296.972705 C384.300265,294.782705 379.863265,292.922705 375.513265,291.542705 C357.420265,285.872705 337.530265,286.082705 320.463265,277.262705 C302.910265,268.232705 290.343265,248.582705 287.280265,229.412705 C287.013265,227.822705 284.313265,228.182705 284.463265,229.802705 C286.920265,259.652705 312.483265,281.732705 340.323265,287.342705 C356.670265,290.642705 373.650265,291.572705 388.623265,299.312705 C388.623265,301.772705 388.623265,304.232705 388.593265,306.632705 C388.503265,314.852705 391.290265,322.772705 395.400265,329.762705 C397.953265,334.142705 403.050265,340.952705 408.603265,341.462705 C422.280265,342.632705 417.420265,323.552705 412.983265,317.102705 L412.983265,317.102705 Z" id="Fill-280" fill="#311B63"></path>
                        <g id="Group-283" transform="translate(468.793265, 111.809705)">
                            <mask id="mask-15" fill="white">
                                <use xlink:href="#path-14"></use>
                            </mask>
                            <g id="Clip-282"></g>
                            <path d="M0.47,13.773 C0.47,13.773 37.322,165.456 74.825,208.353 C112.328,251.25 119.825,264.603 125.45,257.853 C131.075,251.103 133.511,190.353 117.479,141.228 C101.45,92.103 69.449,2.103 48.2,0.852 C29.057,-0.273 0.47,13.773 0.47,13.773" id="Fill-281" fill="#FA466C" mask="url(#mask-15)"></path>
                        </g>
                        <path d="M295.599265,225.002705 C295.599265,225.002705 270.816265,212.594705 266.103265,225.956705 C261.390265,239.315705 291.639265,240.905705 291.639265,240.905705 C313.644265,249.929705 351.675265,264.359705 387.594265,268.844705 L390.369265,235.064705 C351.732265,231.911705 295.599265,225.002705 295.599265,225.002705" id="Fill-284" fill="#FFCC99"></path>
                        <path d="M533.115265,126.674705 C522.993265,104.033705 503.820265,114.038705 503.820265,114.038705 C478.371265,136.565705 419.868265,236.570705 419.868265,236.570705 C413.505265,236.684705 402.861265,236.048705 390.369265,235.064705 L387.594265,268.844705 C406.362265,271.157705 424.551265,270.782705 439.620265,265.487705 C483.489265,250.073705 543.237265,149.321705 533.115265,126.674705" id="Fill-285" fill="#D93C5E"></path>
                    </g>
                </g>
            </g>
        </g>
    </g>
</svg>