<?xml version="1.0" encoding="UTF-8" standalone="no"?>
<svg
   xmlns:dc="http://purl.org/dc/elements/1.1/"
   xmlns:cc="http://creativecommons.org/ns#"
   xmlns:rdf="http://www.w3.org/1999/02/22-rdf-syntax-ns#"
   xmlns:svg="http://www.w3.org/2000/svg"
   xmlns="http://www.w3.org/2000/svg"
   xmlns:sodipodi="http://sodipodi.sourceforge.net/DTD/sodipodi-0.dtd"
   xmlns:inkscape="http://www.inkscape.org/namespaces/inkscape"
   inkscape:version="1.0beta2 (2b71d25, 2019-12-03)"
   sodipodi:docname="sharing-nobg.svg"
   version="1.1"
   viewBox="0 0 766.1852 697.76418"
   height="697.76416"
   width="766.18518"
   data-name="Layer 1"
   id="b4f7138d-771a-4302-9114-b1a94238dcbb">
  <metadata
     id="metadata15628">
    <rdf:RDF>
      <cc:Work
         rdf:about="">
        <dc:format>image/svg+xml</dc:format>
        <dc:type
           rdf:resource="http://purl.org/dc/dcmitype/StillImage" />
        <dc:title>social_girl</dc:title>
      </cc:Work>
    </rdf:RDF>
  </metadata>
  <defs
     id="defs15626">
    <inkscape:path-effect
       only_selected="false"
       apply_with_weight="true"
       apply_no_weight="true"
       helper_size="0"
       steps="2"
       weight="33.333333"
       lpeversion="1"
       is_visible="true"
       id="path-effect23963"
       effect="bspline" />
    <inkscape:path-effect
       effect="bspline"
       id="path-effect23963-1"
       is_visible="true"
       lpeversion="1"
       weight="33.333333"
       steps="2"
       helper_size="0"
       apply_no_weight="true"
       apply_with_weight="true"
       only_selected="false" />
    <inkscape:path-effect
       only_selected="false"
       apply_with_weight="true"
       apply_no_weight="true"
       helper_size="0"
       steps="2"
       weight="33.333333"
       lpeversion="1"
       is_visible="true"
       id="path-effect23963-1-9"
       effect="bspline" />
  </defs>
  <sodipodi:namedview
     inkscape:current-layer="b4f7138d-771a-4302-9114-b1a94238dcbb"
     inkscape:window-maximized="0"
     inkscape:window-y="23"
     inkscape:window-x="0"
     inkscape:cy="372.61286"
     inkscape:cx="196.18857"
     inkscape:zoom="0.74803555"
     showgrid="false"
     id="namedview15624"
     inkscape:window-height="929"
     inkscape:window-width="1657"
     inkscape:pageshadow="2"
     inkscape:pageopacity="0"
     guidetolerance="10"
     gridtolerance="10"
     objecttolerance="10"
     borderopacity="1"
     inkscape:document-rotation="0"
     bordercolor="#666666"
     pagecolor="#ffffff" />
  <title
     id="title15557">social_girl</title>
  <path
     inkscape:connector-curvature="0"
     id="path15567"
     fill="#2f2e41"
     d="m 280.65837,188.91491 c -24.19434,-40.881 -72.06091,-42.78618 -72.06091,-42.78618 0,0 -46.64325,-5.9647 -76.5646,56.29749 -27.88909,58.03348 -66.379583,114.066 -6.19666,127.6512 l 10.87077,-33.83474 6.73222,36.3537 a 235.47744,235.47744 0 0 0 25.75,0.44009 c 64.451,-2.08087 125.83093,0.6088 123.85459,-22.51894 -2.62717,-30.74507 10.8944,-82.26697 -12.38541,-121.60262 z" />
  <path
     inkscape:connector-curvature="0"
     style="fill:#f9e4cf;fill-opacity:1"
     id="path15569"
     fill="#2f2e41"
     d="m 122.39997,546.92884 c -0.89739,4.4619 -1.56135,8.99776 -3.08632,13.28592 -1.514,4.25726 -3.85141,8.19441 -5.23571,12.49558 -4.41251,13.71023 1.70454,28.99679 11.47444,39.57932 a 64.586,64.586 0 0 0 31.48927,18.69838 c 8.81372,2.21669 17.97794,2.53573 27.06092,2.84373 25.15128,0.85288 50.94968,1.61592 74.782,-6.46705 a 129.9293,129.9293 0 0 0 21.72642,-9.87016 16.26628,16.26628 0 0 0 5.63754,-4.43891 c 1.81768,-2.58781 2.05023,-5.944 2.03437,-9.10634 -0.0535,-10.66228 -2.215,-21.2702 -1.70184,-31.92026 0.28427,-5.89906 1.3883,-11.79355 0.84486,-17.67439 -1.23248,-13.33717 -11.82334,-25.27435 -24.9188,-28.08649 -6.7607,-1.4518 -13.77293,-0.66071 -20.656,10e-4 a 526.665,526.665 0 0 1 -53.75795,2.40371 c -18.33886,-0.11706 -36.56447,-2.91646 -54.812,-3.20882 -5.39634,-0.0865 -5.28732,1.57717 -7.00533,6.79983 a 127.22233,127.22233 0 0 0 -3.87587,14.66495 z" />
  <path
     inkscape:connector-curvature="0"
     id="path15571"
     fill="#a0616a"
     d="m 174.44405,283.65084 c -0.88129,4.6145 -1.83384,9.39779 -4.6069,13.19 -3.19049,4.363 -8.39248,6.8559 -11.82475,11.03136 -5.16627,6.28494 -5.46281,15.12885 -5.48411,23.26461 -0.0196,7.4948 0.13262,15.48882 4.31215,21.71008 2.71253,4.03763 6.8399,6.86835 10.87361,9.58672 15.674,10.56293 32.61146,21.31549 51.50933,21.66384 7.83008,0.14433 16.22569,-1.8778 21.37779,-7.77584 a 32.0978,32.0978 0 0 0 5.1759,-9.23422 122.62369,122.62369 0 0 0 8.68011,-37.3298 c 0.43037,-6.0321 0.38925,-12.2401 -1.65241,-17.93246 -2.29577,-6.40087 -6.93777,-11.66749 -10.00571,-17.73621 a 39.48452,39.48452 0 0 1 -3.80048,-23.365 2.522,2.522 0 0 0 -0.13339,-1.69328 2.46647,2.46647 0 0 0 -2.03264,-0.82363 l -37.47142,-2.69752 a 81.54237,81.54237 0 0 1 -10.40391,-1.1902 c -2.02,-0.41073 -7.35526,-3.27958 -9.28133,-2.51672 -3.5653,1.41205 -4.50102,18.02167 -5.23184,21.84827 z" />
  <path
     inkscape:connector-curvature="0"
     id="path15573"
     opacity="0.1"
     d="m 174.44405,284.82055 c -0.88129,4.6145 -1.83384,9.39779 -4.6069,13.19 -3.19049,4.363 -8.39248,6.8559 -11.82475,11.03136 -5.16627,6.28494 -5.46281,15.12886 -5.48411,23.26461 -0.0196,7.4948 0.13262,15.48882 4.31215,21.71008 2.71253,4.03763 6.8399,6.86835 10.87361,9.58672 15.674,10.56293 32.61146,21.31549 51.50933,21.66384 7.83008,0.14433 16.22569,-1.8778 21.37779,-7.77584 a 32.0978,32.0978 0 0 0 5.1759,-9.23422 122.62369,122.62369 0 0 0 8.68011,-37.3298 c 0.43037,-6.0321 0.38925,-12.2401 -1.65241,-17.93246 -2.29577,-6.40087 -6.93777,-11.66749 -10.00571,-17.73621 a 39.48452,39.48452 0 0 1 -3.80048,-23.365 2.522,2.522 0 0 0 -0.13339,-1.69328 2.46647,2.46647 0 0 0 -2.03264,-0.82363 l -37.47142,-2.69752 a 81.54237,81.54237 0 0 1 -10.40391,-1.1902 c -2.02,-0.41073 -7.35526,-3.27958 -9.28133,-2.51672 -3.5653,1.41202 -4.50102,18.02164 -5.23184,21.84827 z" />
  <circle
     id="circle15575"
     fill="#a0616a"
     r="54.974972"
     cy="233.70053"
     cx="210.27892" />
  <path
     inkscape:connector-curvature="0"
     id="path15577"
     fill="#d0cde1"
     d="m 182.15457,356.83118 c 2.86529,2.99489 5.90149,5.96027 9.65608,7.7159 3.73472,1.74633 7.942,2.18093 12.06323,2.29685 9.90975,0.27875 20.65259,-1.53705 27.5463,-8.66149 8.88633,-9.18376 8.59365,-23.99634 15.559,-34.71044 a 7.73191,7.73191 0 0 1 2.2445,-2.45474 7.27553,7.27553 0 0 1 3.81757,-0.87773 c 8.79706,-0.0822 16.46016,5.62329 23.37609,11.06066 3.09816,2.4358 6.27339,4.95931 8.22793,8.38152 a 28.40881,28.40881 0 0 1 2.77463,8.497 c 3.432,16.7535 4.54347,33.88339 5.64657,50.94918 0.6093,9.42621 1.21888,18.86149 1.1736,28.30726 -0.14917,31.11982 -7.38244,61.71921 -14.57543,91.9967 -0.92682,3.90125 -2.19515,8.26192 -5.74294,10.13058 a 14.16108,14.16108 0 0 1 -5.01121,1.22309 c -20.60208,2.41956 -41.2468,4.842 -61.988,5.16148 q -12.14133,0.187 -24.27208,-0.5878 a 13.0753,13.0753 0 0 1 -4.08874,-0.71279 11.53017,11.53017 0 0 1 -4.45751,-3.78539 c -11.21918,-14.13764 -11.88141,-33.68315 -11.8097,-51.73136 q 0.263,-66.18948 4.72972,-132.2732 c 0.24586,-3.63632 0.29954,-8.05259 -2.32061,-10.91314 4.71788,7.55276 11.27989,14.53764 17.451,20.98786 z" />
  <path
     inkscape:connector-curvature="0"
     style="fill:#fa4665;fill-opacity:1"
     id="path15579"
     fill="#575a89"
     d="m 170.5098,293.35421 c -1.85676,3.36105 -15.54577,11.70709 -18.18859,14.49277 -14.76576,15.564 -41.7154,14.98 -55.219753,31.65026 -4.75127,5.86514 -7.2198,13.23459 -9.03531,20.56114 -2.56773,10.36213 -3.93879,21.663 0.36265,31.43355 4.13894,9.40149 12.851893,15.90116 18.767413,24.29911 6.49517,9.22083 9.41553,20.41682 12.21419,31.34287 2.06644,8.0674 4.15,16.33463 3.34518,24.6235 -0.915,9.42426 -5.47549,18.05357 -8.16813,27.13121 -2.69264,9.07764 -3.15738,19.88922 3.06841,27.02322 4.57389,5.2411 11.74815,7.31887 18.60552,8.4877 8.75281,1.49191 17.64817,1.91666 26.51856,2.30858 7.83891,0.34634 16.47967,0.41368 22.50584,-4.61162 4.75494,-3.96521 6.82159,-10.3998 7.08907,-16.58533 0.26748,-6.18553 -1.01946,-12.3163 -1.82557,-18.45491 -0.83566,-6.36359 -1.1568,-12.78262 -1.4255,-19.19521 q -1.80842,-43.15875 -0.49353,-86.373 c 0.1826,-5.99485 0.40405,-12.06333 -0.87423,-17.92316 -1.68114,-7.70667 -5.84625,-14.59405 -9.32164,-21.67506 -6.89824,-14.055 -10.16057,-27.70826 -9.09426,-43.32975 1.05252,-15.41912 7.77676,-27.16618 1.16968,-15.20587 z" />
  <path
     inkscape:connector-curvature="0"
     style="fill:#fa4665;fill-opacity:1"
     id="path15581"
     fill="#575a89"
     d="m 247.70868,294.52389 c 2.82815,2.90671 12.43813,3.865 16.03575,5.73692 3.30481,1.71962 6.96168,2.61815 10.54142,3.64978 a 136.85239,136.85239 0 0 1 37.03184,16.99625 22.474,22.474 0 0 1 6.19275,5.34907 c 2.01269,2.79991 2.74325,6.29362 3.42561,9.67368 1.76159,8.726 3.532,17.55711 3.13609,26.45029 -0.42019,9.44 -3.2637,18.58269 -6.08461,27.60116 l -10.54037,33.69762 c -7.86766,25.15293 -15.78521,50.5535 -17.999,76.81505 a 180.68882,180.68882 0 0 0 1.62168,43.62813 c 0.23165,1.45009 0.4259,3.11228 -0.53164,4.22562 a 4.16187,4.16187 0 0 1 -2.58116,1.18765 c -5.08724,0.79545 -10.01045,-1.79844 -14.61964,-4.09368 a 161.8956,161.8956 0 0 0 -44.62931,-14.603 103.754,103.754 0 0 0 13.86171,-28.57513 172.93919,172.93919 0 0 0 4.1881,-19.65215 l 4.90326,-28.35907 c 1.798,-10.39885 3.59909,-20.82478 4.20611,-31.36045 a 39.259,39.259 0 0 0 -0.68249,-11.81348 c -0.939,-3.74382 -2.80592,-7.175 -4.47827,-10.65365 -8.08081,-16.80894 -11.87237,-35.991 -8.69287,-54.36842 1.39144,-8.04251 4.09543,-16.0958 2.9679,-24.17953 -1.08406,-7.77218 0.0426,-13.81253 -1.95158,-21.50424 -8.18776,-31.58138 -0.64199,-11.31687 4.67872,-5.84842 z" />
  <path
     inkscape:connector-curvature="0"
     style="fill:#fa4665;fill-opacity:1"
     id="path15583"
     fill="#575a89"
     d="m 96.961617,366.07353 c -3.68395,7.64473 -9.84293,14.15734 -11.93916,22.38043 a 48.89481,48.89481 0 0 0 -1.041,11.69729 c -0.0497,5.91819 -0.0819,11.95638 1.73532,17.58887 1.17,3.62625 3.07338,6.97044 4.44462,10.52547 a 38.1647,38.1647 0 0 1 2.5,15.59354 c -0.37,7.36379 -2.87163,14.51182 -3.06713,21.8823 -0.30745,11.5907 5.05358,22.48691 10.28468,32.83458 A 24.13785,24.13785 0 0 1 134.9643,487.08949 c 1.38,-1.27443 1.52734,-3.36719 1.58134,-5.24485 q 0.58,-20.1705 1.11892,-40.34216 c 0.56625,-20.79787 1.10567,-41.87363 -3.67862,-62.12166 -2.16012,-9.142 -5.52124,-18.24873 -11.68289,-25.33952 -3.24445,-3.73366 -14.25851,-13.56823 -19.58437,-9.38557 -2.39506,1.881 -1.83529,7.00117 -2.2148,9.59392 a 40.70272,40.70272 0 0 1 -3.542263,11.82388 z" />
  <path
     inkscape:connector-curvature="0"
     style="fill:#fa4665;fill-opacity:1"
     id="path15585"
     fill="#575a89"
     d="m 325.14903,344.04326 c 1.74239,5.42581 1.84662,11.22339 1.88132,16.922 q 0.1062,17.43683 -0.46217,34.86905 c -0.194,5.94945 -0.46112,11.98088 -2.26508,17.65357 -1.18968,3.74106 -3.02558,7.24924 -4.25423,10.9777 -3.6822,11.174 -1.67035,23.29322 -1.3546,35.054 a 39.82979,39.82979 0 0 1 -0.96459,11.33944 c -1.94322,7.29077 -7.16545,13.182 -10.81031,19.78851 -3.46163,6.27442 -5.55036,13.30735 -9.68468,19.16043 -4.13432,5.85308 -11.29126,10.49094 -18.22831,8.69412 -5.25611,-1.36143 -8.9909,-6.01384 -11.57423,-10.78946 a 52.92085,52.92085 0 0 1 -5.47168,-34.328 c 2.59351,-14.27428 10.97816,-26.93743 14.002,-41.12677 4.15244,-19.48511 -2.15855,-39.59222 -1.97075,-59.514 a 28.76754,28.76754 0 0 1 1.25409,-9.22536 c 1.58611,-4.55052 4.99263,-8.18446 8.13964,-11.834 a 149.41208,149.41208 0 0 0 10.93961,-14.357 c 2.253,-3.36 5.31283,-12.00185 9.30714,-12.72039 8.91787,-1.60417 19.30433,12.54642 21.51683,19.43616 z" />
  <path
     inkscape:connector-curvature="0"
     style="fill:#f9e4cf;fill-opacity:1"
     id="path15587"
     fill="#2f2e41"
     d="m 50.688297,538.26316 a 54.263,54.263 0 0 0 -15.09437,-1.60461 37.67315,37.67315 0 0 0 -34.97600025,44.41107 c 1.04987995,5.725 3.40847995,11.12312 5.98118995,16.34415 4.0030003,8.12375 8.8041803,16.22887 16.2148703,21.43477 4.33507,3.04532 9.35239,4.944 14.31008,6.81168 l 39.0307,14.70355 c 5.74186,2.16306 11.48457,4.32643 17.28326,6.33214 a 338.06023,338.06023 0 0 0 90.272643,17.94637 c 9.372,0.55808 18.88581,0.71338 28.02872,-1.42026 2.16967,-0.50633 4.48408,-1.26113 5.74025,-3.1012 a 9.83055,9.83055 0 0 0 1.28255,-4.23621 l 2.40174,-16.81372 c 0.33818,-2.36746 0.66356,-4.85939 -0.20414,-7.08792 -1.10022,-2.82577 -3.85807,-4.60336 -6.48761,-6.11364 -25.65988,-14.73779 -55.62092,-22.86849 -77.21921,-43.09589 -5.0846,-4.76186 -9.33959,-12.30987 -15.51731,-15.5445 -7.00547,-3.668 -15.25573,-5.76149 -22.496843,-9.14153 -15.82999,-7.38916 -31.39385,-15.88045 -48.55052,-19.82425 z" />
  <path
     inkscape:connector-curvature="0"
     id="path15589"
     opacity="0.1"
     d="m 89.654777,560.93047 c 13.795723,4.32287 72.041243,34.27178 82.024703,44.72833 -1.33819,0.48213 -46.74164,-24.96264 -48.104,-25.37151 -12.38406,-3.71673 -24.837003,-7.45783 -36.597463,-12.89709 -2.36589,-1.09423 -15.37022,-6.2374 -14.78129,-9.2225 0.66456,-3.36848 15.00894,1.99535 17.45805,2.76277 z" />
  <path
     inkscape:connector-curvature="0"
     id="path15591"
     fill="#a0616a"
     d="m 261.76497,673.36236 a 3.24057,3.24057 0 0 0 2.187,-0.64362 3.37783,3.37783 0 0 0 0.68359,-2.51663 q -0.0322,-11.45313 -0.0643,-22.90625 c -6.587,-3.13836 -13.95495,-4.14432 -21.187,-5.111 l -33.74369,-4.51038 c 0.77526,0.10363 -5.276,14.53367 -4.34817,16.46013 1.63533,3.39539 14.13293,6.40464 17.66,8.0078 12.26147,5.57316 25.00277,11.70018 38.81253,11.21995 z" />
  <path
     inkscape:connector-curvature="0"
     id="path15593"
     fill="#a0616a"
     d="m 155.89461,647.21658 c -6.37111,1.01477 -13.4821,1.91179 -17.60813,6.87129 -5.23235,6.28931 -3.00489,15.66511 -0.50889,23.45633 a 10.10019,10.10019 0 0 0 2.1704,4.26818 c 1.7034,1.68045 4.31371,1.92665 6.70173,2.07786 5.81037,0.36792 11.99377,0.65616 17.07049,-2.19385 2.40407,-1.34961 4.391,-3.322 6.63119,-4.929 a 42.51558,42.51558 0 0 1 12.192,-5.574 123.28631,123.28631 0 0 1 24.4733,-5.04354 c 3.25649,-0.33212 6.57777,-0.54564 9.64105,-1.69949 3.06328,-1.15385 5.89971,-3.44182 6.7896,-6.59192 1.176,-4.16272 -1.24343,-8.40676 -3.56377,-12.05744 -2.89044,-4.54764 -5.95264,-9.336 -10.26244,-12.68382 -6.28749,-4.884 -9.39772,-1.13477 -15.73118,1.99062 a 133.4693,133.4693 0 0 1 -37.99535,12.10878 z" />
  <path
     inkscape:connector-curvature="0"
     id="path15595"
     fill="#2f2e41"
     d="M 139.24497,652.95535 98.790777,640.9985 c -4.92,-1.45418 -9.924,-2.92108 -15.05445,-2.91727 -5.13045,0.004 -10.49808,1.686 -13.82539,5.5911 -3.13694,3.68169 -4.0348,8.71355 -4.81684,13.48678 l -1.67287,10.21062 c -0.85014,5.18893 -1.70183,10.47764 -0.93665,15.67977 0.76518,5.20213 3.4208,10.3994 8.03661,12.91771 5.59808,3.05422 12.45923,1.56244 18.707,0.28493 a 203.66649,203.66649 0 0 1 38.336373,-4.111 c 4.84215,-0.0579 9.921,0.003 14.1997,-2.26494 5.08608,-2.69559 8.12887,-8.39526 8.65208,-14.12769 0.7961,-8.72218 -2.11113,-20.11526 -11.17137,-22.79316 z" />
  <path
     inkscape:connector-curvature="0"
     id="path15597"
     fill="#2f2e41"
     d="m 277.66688,642.5357 c 5.24428,-0.91914 9.87265,-3.89967 14.89781,-5.659 7.07316,-2.4763 14.73823,-2.47627 22.2323,-2.44892 2.75107,0.01 5.68068,0.0717 7.9707,1.5963 3.301,2.19764 4.14705,6.5956 4.70835,10.52132 q 1.69324,11.8428 3.38651,23.68558 c 0.637,4.455 1.27016,9.02922 0.27664,13.41851 -0.99352,4.38929 -3.98536,8.62075 -8.3409,9.75307 -5.28995,1.37523 -10.47581,-2.004 -15.47052,-4.2238 -12.48387,-5.54827 -26.99563,-4.13019 -40.01231,-8.277 -2.41563,-0.76956 -5.00279,-1.9463 -5.98825,-4.28219 a 9.74344,9.74344 0 0 1 -0.46589,-4.093 c 0.22292,-7.61324 -1.38283,-18.00927 0.90929,-25.28537 2.06136,-6.54362 10.04236,-4.7055 15.89627,-4.7055 z" />
  <path
     inkscape:connector-curvature="0"
     style="fill:#f9e4cf;fill-opacity:1"
     id="path15599"
     fill="#2f2e41"
     d="m 363.27677,528.72976 a 70.25,70.25 0 0 1 24.74688,-1.69077 c 6.61581,0.72884 13.43212,2.56976 18.26241,7.1489 5.87915,5.57345 7.76813,14.19294 7.92572,22.2925 a 69.64672,69.64672 0 0 1 -15.13781,44.47945 40.3588,40.3588 0 0 1 -8.65462,8.33144 56.96628,56.96628 0 0 1 -11.2602,5.42631 l -87.40763,34.47613 c -22.995,9.06991 -46.07121,18.1661 -70.05624,24.14544 a 5.45988,5.45988 0 0 1 -7.34686,-2.6636 181.089,181.089 0 0 1 -19.15731,-35.04368 2.36141,2.36141 0 0 1 1.04367,-3.7233 l 61.82411,-35.52224 c 4.42847,-2.54446 8.90632,-5.12557 12.58345,-8.67018 a 31.23955,31.23955 0 0 0 6.46041,-8.99422 c 1.28152,-2.67668 1.40106,-8.99325 3.038,-10.97173 1.60267,-1.9371 7.08518,-2.09169 9.61727,-2.85358 a 87.26471,87.26471 0 0 0 10.4699,-3.95778 c 13.82958,-6.1869 26.14462,-15.17616 39.40215,-22.42039 a 101.09962,101.09962 0 0 1 23.6467,-9.7887 z" />
  <path
     inkscape:connector-curvature="0"
     id="path15601"
     opacity="0.1"
     d="m 328.22797,555.25764 c -10.62159,7.97756 -24.37468,15.31076 -34.9018,23.49852 -3.59279,2.79439 -63.48555,36.46671 -64.33241,40.9388 9.82122,1.65482 72.38326,-42.11208 81.33434,-46.47932 8.95108,-4.36724 16.88589,-10.526 24.74861,-16.63924 2.00376,-1.55793 10.49562,-6.2413 4.74349,-7.98188 -3.24032,-0.98053 -9.19993,5.06832 -11.59223,6.66312 z" />
  <path
     inkscape:connector-curvature="0"
     id="path15603"
     fill="#3f3d56"
     d="m 255.1433,295.29654 h -93.23779 a 14.28277,14.28277 0 0 0 -14.28275,14.28275 v 5.23022 h -1.01312 v 11.6968 h 1.01312 v 8.18776 h -1.01312 v 7.01808 h 1.01312 v 86.30569 a 14.28277,14.28277 0 0 0 14.28275,14.28275 h 93.23779 a 14.28277,14.28277 0 0 0 14.28275,-14.28275 V 309.57929 A 14.28277,14.28277 0 0 0 255.1433,295.29654 Z" />
  <polygon
     transform="translate(-76.799263)"
     id="polygon15605"
     fill="#2f2e41"
     points="234.166,170.337 220.655,230.012 254.289,228.718 263.685,206.794 263.685,228.357 279.204,227.76 288.212,192.856 293.841,230.012 349.013,228.886 346.761,184.974 299.471,160.203 " />
  <path
     inkscape:connector-curvature="0"
     id="path15607"
     fill="#a0616a"
     d="m 109.33382,521.00036 c 2.33648,3.48807 5.07414,6.89991 8.82712,8.78165 4.68954,2.35132 10.47818,1.93166 15.1742,-0.40671 a 26.70963,26.70963 0 0 0 10.95069,-10.97926 c 5.13947,-9.07555 6.20385,-19.9354 5.56252,-30.34541 -0.64133,-10.41001 -2.86409,-20.6606 -3.84787,-31.04386 -0.71513,-7.54791 -0.77329,-15.14084 -0.83089,-22.72234 -0.0121,-1.59323 0.0135,-3.30985 0.95489,-4.59531 1.13836,-1.55452 3.22262,-1.98282 5.06958,-2.53158 10.3726,-3.08186 17.25764,-12.80417 22.19372,-22.43349 3.296,-6.42978 6.16208,-13.45836 5.52649,-20.65569 -0.63559,-7.19733 -5.809,-14.448 -12.99691,-15.18224 -5.92594,-0.60531 -11.39762,3.15856 -15.67227,7.30712 a 67.20371,67.20371 0 0 0 -19.67712,39.32488 c -0.93835,7.31808 -0.66958,14.8353 -2.66,21.93971 -4.25,15.16928 -17.54746,24.46965 -24.17413,38.11929 -7.301873,15.04041 -3.27187,32.11553 5.59998,45.42324 z" />
  <path
     inkscape:connector-curvature="0"
     id="path15609"
     fill="#a0616a"
     d="m 305.01354,463.04744 a 28.66767,28.66767 0 0 1 -16.07657,15.44756 22.20351,22.20351 0 0 1 -13.97568,0.85594 15.49745,15.49745 0 0 1 -10.23805,-9.15747 24.66874,24.66874 0 0 1 -1.15322,-6.87849 c -0.665,-10.22953 -0.40805,-20.77076 3.30768,-30.32476 1.43316,-3.685 3.36552,-7.17973 4.49657,-10.96836 1.29005,-4.32124 1.496,-8.88057 1.69315,-13.386 l 1.22148,-27.91129 a 18.16469,18.16469 0 0 0 -0.41461,-6.052 c -1.21836,-4.0386 -4.99285,-6.66315 -8.45611,-9.07159 -8.364,-5.81652 -16.62929,-12.6038 -20.68217,-21.95056 -1.24015,-2.86 -2.05864,-6.03921 -1.42913,-9.0923 1.14279,-5.54241 6.73609,-9.13049 12.26447,-10.33931 a 27.4335,27.4335 0 0 1 32.8891,22.10687 c 0.547,3.14985 0.53943,6.36731 0.85956,9.54823 0.67909,6.74746 2.82116,13.25166 4.16121,19.89953 3.30083,16.37507 1.59044,33.30215 4.85456,49.67444 2.72919,13.68915 13.02033,22.6214 6.67776,37.59956 z" />
  <circle
     id="circle15611"
     fill="#d0cde1"
     r="11.6968"
     cy="346.39087"
     cx="209.77235" />
  <path
     sodipodi:nodetypes="cc"
     transform="matrix(49.801726,0,0,1.3668433,-37126.57,-153.66572)"
     inkscape:original-d="m 759.12764,451.36021 c -0.0244,-18.28163 -0.0488,-36.56982 -0.0733,-54.86459"
     inkscape:path-effect="#path-effect23963"
     inkscape:connector-curvature="0"
     id="path23961"
     d="m 759.12764,451.36021 c -0.0244,-18.28163 -0.0489,-36.56982 -0.0733,-54.86459"
     style="fill:none;fill-opacity:1;stroke:#ffffff;stroke-width:1;stroke-linecap:butt;stroke-linejoin:miter;stroke-miterlimit:4;stroke-dasharray:none;stroke-opacity:1" />
  <path
     inkscape:connector-curvature="0"
     style="fill:#50acbf;fill-opacity:1"
     id="path15613"
     fill="#3f3d56"
     d="m 703.52178,358.91392 a 62.66342,62.66342 0 1 0 62.66339,62.66342 62.66341,62.66341 0 0 0 -62.66339,-62.66342 z m 30.969,46.77046 c 0.033,0.67666 0.0495,1.36975 0.0495,2.063 0,21.141 -16.07447,45.5169 -45.50035,45.5169 a 44.66127,44.66127 0 0 1 -24.45836,-7.22863 32.38749,32.38749 0 0 0 3.81237,0.231 32.03488,32.03488 0 0 0 19.85376,-6.849 16.00356,16.00356 0 0 1 -14.93574,-11.10692 15.07373,15.07373 0 0 0 3.00371,0.29708 16.0862,16.0862 0 0 0 4.20838,-0.56109 15.992,15.992 0 0 1 -12.8233,-15.67836 v -0.19806 a 15.60616,15.60616 0 0 0 7.2616,1.99689 16.00976,16.00976 0 0 1 -4.96762,-21.35562 45.28177,45.28177 0 0 0 32.94117,16.71816 15.64372,15.64372 0 0 1 -0.41255,-3.64729 15.97342,15.97342 0 0 1 27.64348,-10.92543 31.7488,31.7488 0 0 0 10.14975,-3.87832 16.03488,16.03488 0 0 1 -7.03057,8.846 32.30255,32.30255 0 0 0 9.176,-2.52511 32.52585,32.52585 0 0 1 -7.97125,8.2848 z" />
  <path
     style="fill:none;fill-opacity:1;stroke:#ffffff;stroke-width:1;stroke-linecap:butt;stroke-linejoin:miter;stroke-miterlimit:4;stroke-dasharray:none;stroke-opacity:1"
     d="m 759.12764,451.36021 c -0.0244,-18.28163 -0.0489,-36.56982 -0.0733,-54.86459"
     id="path23961-6"
     inkscape:connector-curvature="0"
     inkscape:path-effect="#path-effect23963-1"
     inkscape:original-d="m 759.12764,451.36021 c -0.0244,-18.28163 -0.0488,-36.56982 -0.0733,-54.86459"
     transform="matrix(73.611055,0,0,1.3668433,-55200.776,-394.95982)"
     sodipodi:nodetypes="cc" />
  <circle
     style="fill:#408999;fill-opacity:1"
     id="circle15615"
     fill="#3f3d56"
     r="11.13491"
     cy="184.61635"
     cx="683.37256" />
  <path
     inkscape:connector-curvature="0"
     style="fill:#408999;fill-opacity:1"
     id="path15617"
     fill="#3f3d56"
     d="m 697.2913,156.77908 h -27.83733 a 13.95947,13.95947 0 0 0 -13.91863,13.91864 v 27.83726 a 13.95945,13.95945 0 0 0 13.91863,13.91863 h 27.83737 a 13.95964,13.95964 0 0 0 13.91852,-13.91863 v -27.83726 a 13.95966,13.95966 0 0 0 -13.91852,-13.91864 z m -13.91874,44.53963 a 16.70236,16.70236 0 1 1 16.70241,-16.70236 16.70665,16.70665 0 0 1 -16.70241,16.70236 z m 18.09417,-30.621 a 4.17559,4.17559 0 1 1 4.17564,-4.17554 4.16543,4.16543 0 0 1 -4.17564,4.17555 z" />
  <path
     inkscape:connector-curvature="0"
     style="fill:#50acbf;fill-opacity:1"
     id="path15619"
     fill="#3f3d56"
     d="m 682.65791,119.14064 a 66.06057,66.06057 0 1 0 66.06056,66.06057 66.06056,66.06056 0 0 0 -66.06056,-66.06057 z m 34.11937,79.39434 a 19.54331,19.54331 0 0 1 -19.486,19.48608 h -27.83731 a 19.54333,19.54333 0 0 1 -19.48608,-19.48608 v -27.83726 a 19.54334,19.54334 0 0 1 19.48608,-19.48609 h 27.83737 a 19.54332,19.54332 0 0 1 19.486,19.48609 z" />
  <path
     sodipodi:nodetypes="cc"
     transform="matrix(73.59903,0,0,1.4645488,-55450.956,-557.61121)"
     inkscape:original-d="m 759.12764,451.36021 c -0.0244,-18.28163 -0.0488,-36.56982 -0.0733,-54.86459"
     inkscape:path-effect="#path-effect23963-1-9"
     inkscape:connector-curvature="0"
     id="path23961-6-6"
     d="m 759.12764,451.36021 c -0.0244,-18.28163 -0.0489,-36.56982 -0.0733,-54.86459"
     style="fill:none;fill-opacity:1;stroke:#ffffff;stroke-width:1;stroke-linecap:butt;stroke-linejoin:miter;stroke-miterlimit:4;stroke-dasharray:none;stroke-opacity:1" />
  <path
     inkscape:connector-curvature="0"
     style="fill:#50acbf;fill-opacity:1"
     id="path15621"
     fill="#3f3d56"
     d="m 414.69297,0 a 65,65 0 1 0 65,65 65,65 0 0 0 -65,-65 z m 20.49524,39.33084 h -8.32056 c -5.68078,0 -6.765,2.68713 -6.765,6.64709 v 8.415 h 13.53 l -1.76805,13.19991 h -11.762 v 35.82837 H 405.01697 V 67.59284 h -10.81924 v -13.1999 h 10.81924 V 44.6344 c 0,-11.69135 8.10865,-18.05561 18.55079,-18.05561 4.99707,0 10.37133,0.37714 11.62048,0.54212 z" />
</svg>
