<?xml version="1.0" encoding="UTF-8"?>
<svg width="35px" height="35px" viewBox="0 0 35 35" version="1.1" xmlns="http://www.w3.org/2000/svg" xmlns:xlink="http://www.w3.org/1999/xlink">
    <!-- Generator: Sketch 59 (86127) - https://sketch.com -->
    <title>urgent</title>
    <desc>Created with Sketch.</desc>
    <defs>
        <linearGradient x1="73.6750307%" y1="-28.9589336%" x2="1.15061048%" y2="181.453478%" id="linearGradient-1">
            <stop stop-color="#E26B95" offset="0%"></stop>
            <stop stop-color="#CC2B66" offset="100%"></stop>
        </linearGradient>
    </defs>
    <g id="urgent" stroke="none" stroke-width="1" fill="none" fill-rule="evenodd">
        <path d="M16.3120736,4.15375202 C15.6852939,5.25849429 15.0754542,6.37314455 14.4414145,7.46921732 C12.8490552,10.2174495 11.4260959,13.0672387 10.1773765,15.9962919 C9.82526664,16.8211331 9.95957658,17.5357477 10.9239461,17.7066608 C11.8834757,17.8775738 12.8466352,18.0385789 13.8110048,18.1884374 C14.4184245,18.2825634 16.1208937,18.2156844 16.5153535,18.734616 C17.0296033,19.4133142 13.6718549,28.9522435 12.1859755,32.6999454 C12.0976456,32.9253525 12.3868355,33.1111275 12.5368754,32.921637 C16.9207034,27.3805866 21.5622612,21.2884037 25.7670093,15.6111183 C26.2231791,14.9968221 25.9811792,14.1174869 25.2878495,13.8152928 C23.9798401,13.2443442 22.6803007,12.6733956 21.3674513,12.1024469 C21.0710014,11.9736429 20.9657315,11.5983773 21.1617514,11.3382923 C22.2253409,9.92020941 25.1196596,5.98053996 25.5286394,5.41826082 C25.6072893,5.3092728 25.6907793,5.19037677 25.6968293,5.05414174 C25.7101393,4.76804817 25.4040094,4.59218113 25.1438596,4.4844316 C24.09963,4.0534335 19.4133022,2.12508853 18.0326928,2.007431 C17.8899129,1.995046 17.738663,1.990092 17.615243,2.05944801 C17.4990831,2.12508853 17.4252731,2.24398456 17.3563032,2.35916509 C16.9981433,2.95240673 16.6520835,3.55184087 16.3120736,4.15375202" id="Fill-193" fill="url(#linearGradient-1)"></path>
    </g>
</svg>